<?xml version="1.0" encoding="utf-8" standalone="no"?>
<!DOCTYPE svg PUBLIC "-//W3C//DTD SVG 1.1//EN"
  "http://www.w3.org/Graphics/SVG/1.1/DTD/svg11.dtd">
<svg xmlns:xlink="http://www.w3.org/1999/xlink" width="720pt" height="432pt" viewBox="0 0 720 432" xmlns="http://www.w3.org/2000/svg" version="1.1">
 <metadata>
  <rdf:RDF xmlns:dc="http://purl.org/dc/elements/1.1/" xmlns:cc="http://creativecommons.org/ns#" xmlns:rdf="http://www.w3.org/1999/02/22-rdf-syntax-ns#">
   <cc:Work>
    <dc:type rdf:resource="http://purl.org/dc/dcmitype/StillImage"/>
    <dc:date>2023-12-30T01:34:17.620189</dc:date>
    <dc:format>image/svg+xml</dc:format>
    <dc:creator>
     <cc:Agent>
      <dc:title>Matplotlib v3.7.1, https://matplotlib.org/</dc:title>
     </cc:Agent>
    </dc:creator>
   </cc:Work>
  </rdf:RDF>
 </metadata>
 <defs>
  <style type="text/css">*{stroke-linejoin: round; stroke-linecap: butt}</style>
 </defs>
 <g id="figure_1">
  <g id="patch_1">
   <path d="M 0 432 
L 720 432 
L 720 0 
L 0 0 
z
" style="fill: #ffffff"/>
  </g>
  <g id="axes_1">
   <g id="patch_2">
    <path d="M 40.12 404.12 
L 709.2 404.12 
L 709.2 25.44 
L 40.12 25.44 
z
" style="fill: #ffffff"/>
   </g>
   <g id="patch_3">
    <path d="M 70.532727 404.12 
L 73.574021 404.12 
L 73.574021 400.1569 
L 70.532727 400.1569 
z
" clip-path="url(#paf7652b54d)" style="fill: #ffa500"/>
   </g>
   <g id="patch_4">
    <path d="M 73.574021 404.12 
L 76.615268 404.12 
L 76.615268 404.12 
L 73.574021 404.12 
z
" clip-path="url(#paf7652b54d)" style="fill: #ffa500"/>
   </g>
   <g id="patch_5">
    <path d="M 76.615268 404.12 
L 79.656561 404.12 
L 79.656561 400.1569 
L 76.615268 400.1569 
z
" clip-path="url(#paf7652b54d)" style="fill: #ffa500"/>
   </g>
   <g id="patch_6">
    <path d="M 79.656561 404.12 
L 82.697808 404.12 
L 82.697808 404.12 
L 79.656561 404.12 
z
" clip-path="url(#paf7652b54d)" style="fill: #ffa500"/>
   </g>
   <g id="patch_7">
    <path d="M 82.697808 404.12 
L 85.739101 404.12 
L 85.739101 400.1569 
L 82.697808 400.1569 
z
" clip-path="url(#paf7652b54d)" style="fill: #ffa500"/>
   </g>
   <g id="patch_8">
    <path d="M 85.739101 404.12 
L 88.780348 404.12 
L 88.780348 400.156839 
L 85.739101 400.156839 
z
" clip-path="url(#paf7652b54d)" style="fill: #ffa500"/>
   </g>
   <g id="patch_9">
    <path d="M 88.780348 404.12 
L 91.821642 404.12 
L 91.821642 400.1569 
L 88.780348 400.1569 
z
" clip-path="url(#paf7652b54d)" style="fill: #ffa500"/>
   </g>
   <g id="patch_10">
    <path d="M 91.821642 404.12 
L 94.862888 404.12 
L 94.862888 404.12 
L 91.821642 404.12 
z
" clip-path="url(#paf7652b54d)" style="fill: #ffa500"/>
   </g>
   <g id="patch_11">
    <path d="M 94.862888 404.12 
L 97.904182 404.12 
L 97.904182 400.1569 
L 94.862888 400.1569 
z
" clip-path="url(#paf7652b54d)" style="fill: #ffa500"/>
   </g>
   <g id="patch_12">
    <path d="M 97.904182 404.12 
L 100.945476 404.12 
L 100.945476 404.12 
L 97.904182 404.12 
z
" clip-path="url(#paf7652b54d)" style="fill: #ffa500"/>
   </g>
   <g id="patch_13">
    <path d="M 100.945476 404.12 
L 103.986722 404.12 
L 103.986722 400.156839 
L 100.945476 400.156839 
z
" clip-path="url(#paf7652b54d)" style="fill: #ffa500"/>
   </g>
   <g id="patch_14">
    <path d="M 103.986722 404.12 
L 107.028016 404.12 
L 107.028016 400.1569 
L 103.986722 400.1569 
z
" clip-path="url(#paf7652b54d)" style="fill: #ffa500"/>
   </g>
   <g id="patch_15">
    <path d="M 107.028016 404.12 
L 110.069263 404.12 
L 110.069263 404.12 
L 107.028016 404.12 
z
" clip-path="url(#paf7652b54d)" style="fill: #ffa500"/>
   </g>
   <g id="patch_16">
    <path d="M 110.069263 404.12 
L 113.110556 404.12 
L 113.110556 404.12 
L 110.069263 404.12 
z
" clip-path="url(#paf7652b54d)" style="fill: #ffa500"/>
   </g>
   <g id="patch_17">
    <path d="M 113.110556 404.12 
L 116.151803 404.12 
L 116.151803 404.12 
L 113.110556 404.12 
z
" clip-path="url(#paf7652b54d)" style="fill: #ffa500"/>
   </g>
   <g id="patch_18">
    <path d="M 116.151803 404.12 
L 119.193097 404.12 
L 119.193097 400.1569 
L 116.151803 400.1569 
z
" clip-path="url(#paf7652b54d)" style="fill: #ffa500"/>
   </g>
   <g id="patch_19">
    <path d="M 119.193097 404.12 
L 122.234343 404.12 
L 122.234343 388.267357 
L 119.193097 388.267357 
z
" clip-path="url(#paf7652b54d)" style="fill: #ffa500"/>
   </g>
   <g id="patch_20">
    <path d="M 122.234343 404.12 
L 125.275637 404.12 
L 125.275637 400.1569 
L 122.234343 400.1569 
z
" clip-path="url(#paf7652b54d)" style="fill: #ffa500"/>
   </g>
   <g id="patch_21">
    <path d="M 125.275637 404.12 
L 128.31693 404.12 
L 128.31693 404.12 
L 125.275637 404.12 
z
" clip-path="url(#paf7652b54d)" style="fill: #ffa500"/>
   </g>
   <g id="patch_22">
    <path d="M 128.31693 404.12 
L 131.358177 404.12 
L 131.358177 404.12 
L 128.31693 404.12 
z
" clip-path="url(#paf7652b54d)" style="fill: #ffa500"/>
   </g>
   <g id="patch_23">
    <path d="M 131.358177 404.12 
L 134.399471 404.12 
L 134.399471 396.193801 
L 131.358177 396.193801 
z
" clip-path="url(#paf7652b54d)" style="fill: #ffa500"/>
   </g>
   <g id="patch_24">
    <path d="M 134.399471 404.12 
L 137.440717 404.12 
L 137.440717 400.156839 
L 134.399471 400.156839 
z
" clip-path="url(#paf7652b54d)" style="fill: #ffa500"/>
   </g>
   <g id="patch_25">
    <path d="M 137.440717 404.12 
L 140.482011 404.12 
L 140.482011 400.1569 
L 137.440717 400.1569 
z
" clip-path="url(#paf7652b54d)" style="fill: #ffa500"/>
   </g>
   <g id="patch_26">
    <path d="M 140.482011 404.12 
L 143.523258 404.12 
L 143.523258 400.156839 
L 140.482011 400.156839 
z
" clip-path="url(#paf7652b54d)" style="fill: #ffa500"/>
   </g>
   <g id="patch_27">
    <path d="M 143.523258 404.12 
L 146.564551 404.12 
L 146.564551 404.12 
L 143.523258 404.12 
z
" clip-path="url(#paf7652b54d)" style="fill: #ffa500"/>
   </g>
   <g id="patch_28">
    <path d="M 146.564551 404.12 
L 149.605798 404.12 
L 149.605798 388.267357 
L 146.564551 388.267357 
z
" clip-path="url(#paf7652b54d)" style="fill: #ffa500"/>
   </g>
   <g id="patch_29">
    <path d="M 149.605798 404.12 
L 152.647092 404.12 
L 152.647092 376.378303 
L 149.605798 376.378303 
z
" clip-path="url(#paf7652b54d)" style="fill: #ffa500"/>
   </g>
   <g id="patch_30">
    <path d="M 152.647092 404.12 
L 155.688385 404.12 
L 155.688385 384.304502 
L 152.647092 384.304502 
z
" clip-path="url(#paf7652b54d)" style="fill: #ffa500"/>
   </g>
   <g id="patch_31">
    <path d="M 155.688385 404.12 
L 158.729632 404.12 
L 158.729632 376.377875 
L 155.688385 376.377875 
z
" clip-path="url(#paf7652b54d)" style="fill: #ffa500"/>
   </g>
   <g id="patch_32">
    <path d="M 158.729632 404.12 
L 161.770925 404.12 
L 161.770925 392.230701 
L 158.729632 392.230701 
z
" clip-path="url(#paf7652b54d)" style="fill: #ffa500"/>
   </g>
   <g id="patch_33">
    <path d="M 161.770925 404.12 
L 164.812172 404.12 
L 164.812172 376.377875 
L 161.770925 376.377875 
z
" clip-path="url(#paf7652b54d)" style="fill: #ffa500"/>
   </g>
   <g id="patch_34">
    <path d="M 164.812172 404.12 
L 167.853466 404.12 
L 167.853466 380.341402 
L 164.812172 380.341402 
z
" clip-path="url(#paf7652b54d)" style="fill: #ffa500"/>
   </g>
   <g id="patch_35">
    <path d="M 167.853466 404.12 
L 170.894713 404.12 
L 170.894713 376.377875 
L 167.853466 376.377875 
z
" clip-path="url(#paf7652b54d)" style="fill: #ffa500"/>
   </g>
   <g id="patch_36">
    <path d="M 170.894713 404.12 
L 173.936006 404.12 
L 173.936006 380.341402 
L 170.894713 380.341402 
z
" clip-path="url(#paf7652b54d)" style="fill: #ffa500"/>
   </g>
   <g id="patch_37">
    <path d="M 173.936006 404.12 
L 176.977253 404.12 
L 176.977253 396.193679 
L 173.936006 396.193679 
z
" clip-path="url(#paf7652b54d)" style="fill: #ffa500"/>
   </g>
   <g id="patch_38">
    <path d="M 176.977253 404.12 
L 180.018546 404.12 
L 180.018546 380.341402 
L 176.977253 380.341402 
z
" clip-path="url(#paf7652b54d)" style="fill: #ffa500"/>
   </g>
   <g id="patch_39">
    <path d="M 180.018546 404.12 
L 183.05984 404.12 
L 183.05984 356.562805 
L 180.018546 356.562805 
z
" clip-path="url(#paf7652b54d)" style="fill: #ffa500"/>
   </g>
   <g id="patch_40">
    <path d="M 183.05984 404.12 
L 186.101087 404.12 
L 186.101087 372.414715 
L 183.05984 372.414715 
z
" clip-path="url(#paf7652b54d)" style="fill: #ffa500"/>
   </g>
   <g id="patch_41">
    <path d="M 186.101087 404.12 
L 189.142333 404.12 
L 189.142333 384.304197 
L 186.101087 384.304197 
z
" clip-path="url(#paf7652b54d)" style="fill: #ffa500"/>
   </g>
   <g id="patch_42">
    <path d="M 189.142333 404.12 
L 192.183674 404.12 
L 192.183674 368.452653 
L 189.142333 368.452653 
z
" clip-path="url(#paf7652b54d)" style="fill: #ffa500"/>
   </g>
   <g id="patch_43">
    <path d="M 192.183674 404.12 
L 195.224921 404.12 
L 195.224921 376.377875 
L 192.183674 376.377875 
z
" clip-path="url(#paf7652b54d)" style="fill: #ffa500"/>
   </g>
   <g id="patch_44">
    <path d="M 195.224921 404.12 
L 198.266167 404.12 
L 198.266167 360.525233 
L 195.224921 360.525233 
z
" clip-path="url(#paf7652b54d)" style="fill: #ffa500"/>
   </g>
   <g id="patch_45">
    <path d="M 198.266167 404.12 
L 201.307414 404.12 
L 201.307414 364.488394 
L 198.266167 364.488394 
z
" clip-path="url(#paf7652b54d)" style="fill: #ffa500"/>
   </g>
   <g id="patch_46">
    <path d="M 201.307414 404.12 
L 204.348754 404.12 
L 204.348754 356.563537 
L 201.307414 356.563537 
z
" clip-path="url(#paf7652b54d)" style="fill: #ffa500"/>
   </g>
   <g id="patch_47">
    <path d="M 204.348754 404.12 
L 207.390001 404.12 
L 207.390001 368.451554 
L 204.348754 368.451554 
z
" clip-path="url(#paf7652b54d)" style="fill: #ffa500"/>
   </g>
   <g id="patch_48">
    <path d="M 207.390001 404.12 
L 210.431248 404.12 
L 210.431248 364.488394 
L 207.390001 364.488394 
z
" clip-path="url(#paf7652b54d)" style="fill: #ffa500"/>
   </g>
   <g id="patch_49">
    <path d="M 210.431248 404.12 
L 213.472588 404.12 
L 213.472588 332.785306 
L 210.431248 332.785306 
z
" clip-path="url(#paf7652b54d)" style="fill: #ffa500"/>
   </g>
   <g id="patch_50">
    <path d="M 213.472588 404.12 
L 216.513835 404.12 
L 216.513835 336.746269 
L 213.472588 336.746269 
z
" clip-path="url(#paf7652b54d)" style="fill: #ffa500"/>
   </g>
   <g id="patch_51">
    <path d="M 216.513835 404.12 
L 219.555082 404.12 
L 219.555082 324.856787 
L 216.513835 324.856787 
z
" clip-path="url(#paf7652b54d)" style="fill: #ffa500"/>
   </g>
   <g id="patch_52">
    <path d="M 219.555082 404.12 
L 222.596329 404.12 
L 222.596329 328.819948 
L 219.555082 328.819948 
z
" clip-path="url(#paf7652b54d)" style="fill: #ffa500"/>
   </g>
   <g id="patch_53">
    <path d="M 222.596329 404.12 
L 225.637669 404.12 
L 225.637669 332.785306 
L 222.596329 332.785306 
z
" clip-path="url(#paf7652b54d)" style="fill: #ffa500"/>
   </g>
   <g id="patch_54">
    <path d="M 225.637669 404.12 
L 228.678916 404.12 
L 228.678916 328.819948 
L 225.637669 328.819948 
z
" clip-path="url(#paf7652b54d)" style="fill: #ffa500"/>
   </g>
   <g id="patch_55">
    <path d="M 228.678916 404.12 
L 231.720162 404.12 
L 231.720162 328.819948 
L 228.678916 328.819948 
z
" clip-path="url(#paf7652b54d)" style="fill: #ffa500"/>
   </g>
   <g id="patch_56">
    <path d="M 231.720162 404.12 
L 234.761409 404.12 
L 234.761409 293.151502 
L 231.720162 293.151502 
z
" clip-path="url(#paf7652b54d)" style="fill: #ffa500"/>
   </g>
   <g id="patch_57">
    <path d="M 234.761409 404.12 
L 237.80275 404.12 
L 237.80275 293.15492 
L 234.761409 293.15492 
z
" clip-path="url(#paf7652b54d)" style="fill: #ffa500"/>
   </g>
   <g id="patch_58">
    <path d="M 237.80275 404.12 
L 240.843996 404.12 
L 240.843996 285.225181 
L 237.80275 285.225181 
z
" clip-path="url(#paf7652b54d)" style="fill: #ffa500"/>
   </g>
   <g id="patch_59">
    <path d="M 240.843996 404.12 
L 243.885243 404.12 
L 243.885243 320.893626 
L 240.843996 320.893626 
z
" clip-path="url(#paf7652b54d)" style="fill: #ffa500"/>
   </g>
   <g id="patch_60">
    <path d="M 243.885243 404.12 
L 246.926583 404.12 
L 246.926583 265.41365 
L 243.885243 265.41365 
z
" clip-path="url(#paf7652b54d)" style="fill: #ffa500"/>
   </g>
   <g id="patch_61">
    <path d="M 246.926583 404.12 
L 249.96783 404.12 
L 249.96783 320.893626 
L 246.926583 320.893626 
z
" clip-path="url(#paf7652b54d)" style="fill: #ffa500"/>
   </g>
   <g id="patch_62">
    <path d="M 249.96783 404.12 
L 253.009077 404.12 
L 253.009077 301.077823 
L 249.96783 301.077823 
z
" clip-path="url(#paf7652b54d)" style="fill: #ffa500"/>
   </g>
   <g id="patch_63">
    <path d="M 253.009077 404.12 
L 256.050324 404.12 
L 256.050324 245.593574 
L 253.009077 245.593574 
z
" clip-path="url(#paf7652b54d)" style="fill: #ffa500"/>
   </g>
   <g id="patch_64">
    <path d="M 256.050324 404.12 
L 259.091664 404.12 
L 259.091664 265.41365 
L 256.050324 265.41365 
z
" clip-path="url(#paf7652b54d)" style="fill: #ffa500"/>
   </g>
   <g id="patch_65">
    <path d="M 259.091664 404.12 
L 262.132911 404.12 
L 262.132911 237.667253 
L 259.091664 237.667253 
z
" clip-path="url(#paf7652b54d)" style="fill: #ffa500"/>
   </g>
   <g id="patch_66">
    <path d="M 262.132911 404.12 
L 265.174157 404.12 
L 265.174157 265.409377 
L 262.132911 265.409377 
z
" clip-path="url(#paf7652b54d)" style="fill: #ffa500"/>
   </g>
   <g id="patch_67">
    <path d="M 265.174157 404.12 
L 268.215498 404.12 
L 268.215498 245.598458 
L 265.174157 245.598458 
z
" clip-path="url(#paf7652b54d)" style="fill: #ffa500"/>
   </g>
   <g id="patch_68">
    <path d="M 268.215498 404.12 
L 271.256745 404.12 
L 271.256745 277.298859 
L 268.215498 277.298859 
z
" clip-path="url(#paf7652b54d)" style="fill: #ffa500"/>
   </g>
   <g id="patch_69">
    <path d="M 271.256745 404.12 
L 274.297991 404.12 
L 274.297991 249.556735 
L 271.256745 249.556735 
z
" clip-path="url(#paf7652b54d)" style="fill: #ffa500"/>
   </g>
   <g id="patch_70">
    <path d="M 274.297991 404.12 
L 277.339238 404.12 
L 277.339238 269.372538 
L 274.297991 269.372538 
z
" clip-path="url(#paf7652b54d)" style="fill: #ffa500"/>
   </g>
   <g id="patch_71">
    <path d="M 277.339238 404.12 
L 280.380578 404.12 
L 280.380578 205.968072 
L 277.339238 205.968072 
z
" clip-path="url(#paf7652b54d)" style="fill: #ffa500"/>
   </g>
   <g id="patch_72">
    <path d="M 280.380578 404.12 
L 283.421825 404.12 
L 283.421825 178.219843 
L 280.380578 178.219843 
z
" clip-path="url(#paf7652b54d)" style="fill: #ffa500"/>
   </g>
   <g id="patch_73">
    <path d="M 283.421825 404.12 
L 286.463072 404.12 
L 286.463072 162.3672 
L 283.421825 162.3672 
z
" clip-path="url(#paf7652b54d)" style="fill: #ffa500"/>
   </g>
   <g id="patch_74">
    <path d="M 286.463072 404.12 
L 289.504319 404.12 
L 289.504319 217.85145 
L 286.463072 217.85145 
z
" clip-path="url(#paf7652b54d)" style="fill: #ffa500"/>
   </g>
   <g id="patch_75">
    <path d="M 289.504319 404.12 
L 292.545659 404.12 
L 292.545659 178.226802 
L 289.504319 178.226802 
z
" clip-path="url(#paf7652b54d)" style="fill: #ffa500"/>
   </g>
   <g id="patch_76">
    <path d="M 292.545659 404.12 
L 295.586906 404.12 
L 295.586906 233.704092 
L 292.545659 233.704092 
z
" clip-path="url(#paf7652b54d)" style="fill: #ffa500"/>
   </g>
   <g id="patch_77">
    <path d="M 295.586906 404.12 
L 298.628153 404.12 
L 298.628153 142.551397 
L 295.586906 142.551397 
z
" clip-path="url(#paf7652b54d)" style="fill: #ffa500"/>
   </g>
   <g id="patch_78">
    <path d="M 298.628153 404.12 
L 301.669493 404.12 
L 301.669493 190.115918 
L 298.628153 190.115918 
z
" clip-path="url(#paf7652b54d)" style="fill: #ffa500"/>
   </g>
   <g id="patch_79">
    <path d="M 301.669493 404.12 
L 304.71074 404.12 
L 304.71074 186.146164 
L 301.669493 186.146164 
z
" clip-path="url(#paf7652b54d)" style="fill: #ffa500"/>
   </g>
   <g id="patch_80">
    <path d="M 304.71074 404.12 
L 307.751986 404.12 
L 307.751986 154.440879 
L 304.71074 154.440879 
z
" clip-path="url(#paf7652b54d)" style="fill: #ffa500"/>
   </g>
   <g id="patch_81">
    <path d="M 307.751986 404.12 
L 310.793233 404.12 
L 310.793233 154.440879 
L 307.751986 154.440879 
z
" clip-path="url(#paf7652b54d)" style="fill: #ffa500"/>
   </g>
   <g id="patch_82">
    <path d="M 310.793233 404.12 
L 313.834574 404.12 
L 313.834574 134.633378 
L 310.793233 134.633378 
z
" clip-path="url(#paf7652b54d)" style="fill: #ffa500"/>
   </g>
   <g id="patch_83">
    <path d="M 313.834574 404.12 
L 316.87582 404.12 
L 316.87582 142.551397 
L 313.834574 142.551397 
z
" clip-path="url(#paf7652b54d)" style="fill: #ffa500"/>
   </g>
   <g id="patch_84">
    <path d="M 316.87582 404.12 
L 319.917067 404.12 
L 319.917067 91.030309 
L 316.87582 91.030309 
z
" clip-path="url(#paf7652b54d)" style="fill: #ffa500"/>
   </g>
   <g id="patch_85">
    <path d="M 319.917067 404.12 
L 322.958407 404.12 
L 322.958407 126.707301 
L 319.917067 126.707301 
z
" clip-path="url(#paf7652b54d)" style="fill: #ffa500"/>
   </g>
   <g id="patch_86">
    <path d="M 322.958407 404.12 
L 325.999654 404.12 
L 325.999654 122.735594 
L 322.958407 122.735594 
z
" clip-path="url(#paf7652b54d)" style="fill: #ffa500"/>
   </g>
   <g id="patch_87">
    <path d="M 325.999654 404.12 
L 329.040901 404.12 
L 329.040901 174.256682 
L 325.999654 174.256682 
z
" clip-path="url(#paf7652b54d)" style="fill: #ffa500"/>
   </g>
   <g id="patch_88">
    <path d="M 329.040901 404.12 
L 332.082148 404.12 
L 332.082148 59.325024 
L 329.040901 59.325024 
z
" clip-path="url(#paf7652b54d)" style="fill: #ffa500"/>
   </g>
   <g id="patch_89">
    <path d="M 332.082148 404.12 
L 335.123488 404.12 
L 335.123488 134.633378 
L 332.082148 134.633378 
z
" clip-path="url(#paf7652b54d)" style="fill: #ffa500"/>
   </g>
   <g id="patch_90">
    <path d="M 335.123488 404.12 
L 338.164735 404.12 
L 338.164735 122.735594 
L 335.123488 122.735594 
z
" clip-path="url(#paf7652b54d)" style="fill: #ffa500"/>
   </g>
   <g id="patch_91">
    <path d="M 338.164735 404.12 
L 341.205981 404.12 
L 341.205981 43.472381 
L 338.164735 43.472381 
z
" clip-path="url(#paf7652b54d)" style="fill: #ffa500"/>
   </g>
   <g id="patch_92">
    <path d="M 341.205981 404.12 
L 344.247228 404.12 
L 344.247228 106.882951 
L 341.205981 106.882951 
z
" clip-path="url(#paf7652b54d)" style="fill: #ffa500"/>
   </g>
   <g id="patch_93">
    <path d="M 344.247228 404.12 
L 347.288569 404.12 
L 347.288569 71.224761 
L 344.247228 71.224761 
z
" clip-path="url(#paf7652b54d)" style="fill: #ffa500"/>
   </g>
   <g id="patch_94">
    <path d="M 347.288569 404.12 
L 350.329815 404.12 
L 350.329815 114.809273 
L 347.288569 114.809273 
z
" clip-path="url(#paf7652b54d)" style="fill: #ffa500"/>
   </g>
   <g id="patch_95">
    <path d="M 350.329815 404.12 
L 353.371062 404.12 
L 353.371062 130.661915 
L 350.329815 130.661915 
z
" clip-path="url(#paf7652b54d)" style="fill: #ffa500"/>
   </g>
   <g id="patch_96">
    <path d="M 353.371062 404.12 
L 356.412403 404.12 
L 356.412403 134.633378 
L 353.371062 134.633378 
z
" clip-path="url(#paf7652b54d)" style="fill: #ffa500"/>
   </g>
   <g id="patch_97">
    <path d="M 356.412403 404.12 
L 359.453649 404.12 
L 359.453649 110.846112 
L 356.412403 110.846112 
z
" clip-path="url(#paf7652b54d)" style="fill: #ffa500"/>
   </g>
   <g id="patch_98">
    <path d="M 359.453649 404.12 
L 362.494896 404.12 
L 362.494896 126.698755 
L 359.453649 126.698755 
z
" clip-path="url(#paf7652b54d)" style="fill: #ffa500"/>
   </g>
   <g id="patch_99">
    <path d="M 362.494896 404.12 
L 365.536143 404.12 
L 365.536143 110.846112 
L 362.494896 110.846112 
z
" clip-path="url(#paf7652b54d)" style="fill: #ffa500"/>
   </g>
   <g id="patch_100">
    <path d="M 365.536143 404.12 
L 368.577483 404.12 
L 368.577483 91.039954 
L 365.536143 91.039954 
z
" clip-path="url(#paf7652b54d)" style="fill: #ffa500"/>
   </g>
   <g id="patch_101">
    <path d="M 368.577483 404.12 
L 371.61873 404.12 
L 371.61873 126.698755 
L 368.577483 126.698755 
z
" clip-path="url(#paf7652b54d)" style="fill: #ffa500"/>
   </g>
   <g id="patch_102">
    <path d="M 371.61873 404.12 
L 374.659977 404.12 
L 374.659977 126.698755 
L 371.61873 126.698755 
z
" clip-path="url(#paf7652b54d)" style="fill: #ffa500"/>
   </g>
   <g id="patch_103">
    <path d="M 374.659977 404.12 
L 377.701317 404.12 
L 377.701317 91.039954 
L 374.659977 91.039954 
z
" clip-path="url(#paf7652b54d)" style="fill: #ffa500"/>
   </g>
   <g id="patch_104">
    <path d="M 377.701317 404.12 
L 380.742564 404.12 
L 380.742564 146.514558 
L 377.701317 146.514558 
z
" clip-path="url(#paf7652b54d)" style="fill: #ffa500"/>
   </g>
   <g id="patch_105">
    <path d="M 380.742564 404.12 
L 383.78381 404.12 
L 383.78381 114.809273 
L 380.742564 114.809273 
z
" clip-path="url(#paf7652b54d)" style="fill: #ffa500"/>
   </g>
   <g id="patch_106">
    <path d="M 383.78381 404.12 
L 386.825057 404.12 
L 386.825057 162.3672 
L 383.78381 162.3672 
z
" clip-path="url(#paf7652b54d)" style="fill: #ffa500"/>
   </g>
   <g id="patch_107">
    <path d="M 386.825057 404.12 
L 389.866398 404.12 
L 389.866398 114.818185 
L 386.825057 114.818185 
z
" clip-path="url(#paf7652b54d)" style="fill: #ffa500"/>
   </g>
   <g id="patch_108">
    <path d="M 389.866398 404.12 
L 392.907644 404.12 
L 392.907644 146.514558 
L 389.866398 146.514558 
z
" clip-path="url(#paf7652b54d)" style="fill: #ffa500"/>
   </g>
   <g id="patch_109">
    <path d="M 392.907644 404.12 
L 395.948891 404.12 
L 395.948891 91.030309 
L 392.907644 91.030309 
z
" clip-path="url(#paf7652b54d)" style="fill: #ffa500"/>
   </g>
   <g id="patch_110">
    <path d="M 395.948891 404.12 
L 398.990138 404.12 
L 398.990138 102.919791 
L 395.948891 102.919791 
z
" clip-path="url(#paf7652b54d)" style="fill: #ffa500"/>
   </g>
   <g id="patch_111">
    <path d="M 398.990138 404.12 
L 402.031478 404.12 
L 402.031478 138.596417 
L 398.990138 138.596417 
z
" clip-path="url(#paf7652b54d)" style="fill: #ffa500"/>
   </g>
   <g id="patch_112">
    <path d="M 402.031478 404.12 
L 405.072725 404.12 
L 405.072725 166.330361 
L 402.031478 166.330361 
z
" clip-path="url(#paf7652b54d)" style="fill: #ffa500"/>
   </g>
   <g id="patch_113">
    <path d="M 405.072725 404.12 
L 408.113972 404.12 
L 408.113972 182.183004 
L 405.072725 182.183004 
z
" clip-path="url(#paf7652b54d)" style="fill: #ffa500"/>
   </g>
   <g id="patch_114">
    <path d="M 408.113972 404.12 
L 411.155312 404.12 
L 411.155312 174.263764 
L 408.113972 174.263764 
z
" clip-path="url(#paf7652b54d)" style="fill: #ffa500"/>
   </g>
   <g id="patch_115">
    <path d="M 411.155312 404.12 
L 414.196559 404.12 
L 414.196559 182.183004 
L 411.155312 182.183004 
z
" clip-path="url(#paf7652b54d)" style="fill: #ffa500"/>
   </g>
   <g id="patch_116">
    <path d="M 414.196559 404.12 
L 417.237806 404.12 
L 417.237806 98.95663 
L 414.196559 98.95663 
z
" clip-path="url(#paf7652b54d)" style="fill: #ffa500"/>
   </g>
   <g id="patch_117">
    <path d="M 417.237806 404.12 
L 420.279052 404.12 
L 420.279052 178.219843 
L 417.237806 178.219843 
z
" clip-path="url(#paf7652b54d)" style="fill: #ffa500"/>
   </g>
   <g id="patch_118">
    <path d="M 420.279052 404.12 
L 423.320393 404.12 
L 423.320393 205.968072 
L 420.279052 205.968072 
z
" clip-path="url(#paf7652b54d)" style="fill: #ffa500"/>
   </g>
   <g id="patch_119">
    <path d="M 423.320393 404.12 
L 426.361639 404.12 
L 426.361639 178.219843 
L 423.320393 178.219843 
z
" clip-path="url(#paf7652b54d)" style="fill: #ffa500"/>
   </g>
   <g id="patch_120">
    <path d="M 426.361639 404.12 
L 429.402886 404.12 
L 429.402886 221.81461 
L 426.361639 221.81461 
z
" clip-path="url(#paf7652b54d)" style="fill: #ffa500"/>
   </g>
   <g id="patch_121">
    <path d="M 429.402886 404.12 
L 432.444227 404.12 
L 432.444227 146.522494 
L 429.402886 146.522494 
z
" clip-path="url(#paf7652b54d)" style="fill: #ffa500"/>
   </g>
   <g id="patch_122">
    <path d="M 432.444227 404.12 
L 435.485473 404.12 
L 435.485473 186.146164 
L 432.444227 186.146164 
z
" clip-path="url(#paf7652b54d)" style="fill: #ffa500"/>
   </g>
   <g id="patch_123">
    <path d="M 435.485473 404.12 
L 438.52672 404.12 
L 438.52672 261.446217 
L 435.485473 261.446217 
z
" clip-path="url(#paf7652b54d)" style="fill: #ffa500"/>
   </g>
   <g id="patch_124">
    <path d="M 438.52672 404.12 
L 441.567967 404.12 
L 441.567967 198.035646 
L 438.52672 198.035646 
z
" clip-path="url(#paf7652b54d)" style="fill: #ffa500"/>
   </g>
   <g id="patch_125">
    <path d="M 441.567967 404.12 
L 444.609307 404.12 
L 444.609307 249.561496 
L 441.567967 249.561496 
z
" clip-path="url(#paf7652b54d)" style="fill: #ffa500"/>
   </g>
   <g id="patch_126">
    <path d="M 444.609307 404.12 
L 447.650554 404.12 
L 447.650554 245.593574 
L 444.609307 245.593574 
z
" clip-path="url(#paf7652b54d)" style="fill: #ffa500"/>
   </g>
   <g id="patch_127">
    <path d="M 447.650554 404.12 
L 450.691801 404.12 
L 450.691801 253.519895 
L 447.650554 253.519895 
z
" clip-path="url(#paf7652b54d)" style="fill: #ffa500"/>
   </g>
   <g id="patch_128">
    <path d="M 450.691801 404.12 
L 453.733047 404.12 
L 453.733047 253.519895 
L 450.691801 253.519895 
z
" clip-path="url(#paf7652b54d)" style="fill: #ffa500"/>
   </g>
   <g id="patch_129">
    <path d="M 453.733047 404.12 
L 456.774388 404.12 
L 456.774388 245.598458 
L 453.733047 245.598458 
z
" clip-path="url(#paf7652b54d)" style="fill: #ffa500"/>
   </g>
   <g id="patch_130">
    <path d="M 456.774388 404.12 
L 459.815634 404.12 
L 459.815634 253.519895 
L 456.774388 253.519895 
z
" clip-path="url(#paf7652b54d)" style="fill: #ffa500"/>
   </g>
   <g id="patch_131">
    <path d="M 459.815634 404.12 
L 462.856881 404.12 
L 462.856881 261.446217 
L 459.815634 261.446217 
z
" clip-path="url(#paf7652b54d)" style="fill: #ffa500"/>
   </g>
   <g id="patch_132">
    <path d="M 462.856881 404.12 
L 465.898222 404.12 
L 465.898222 261.450612 
L 462.856881 261.450612 
z
" clip-path="url(#paf7652b54d)" style="fill: #ffa500"/>
   </g>
   <g id="patch_133">
    <path d="M 465.898222 404.12 
L 468.939468 404.12 
L 468.939468 320.893626 
L 465.898222 320.893626 
z
" clip-path="url(#paf7652b54d)" style="fill: #ffa500"/>
   </g>
   <g id="patch_134">
    <path d="M 468.939468 404.12 
L 471.980715 404.12 
L 471.980715 281.26202 
L 468.939468 281.26202 
z
" clip-path="url(#paf7652b54d)" style="fill: #ffa500"/>
   </g>
   <g id="patch_135">
    <path d="M 471.980715 404.12 
L 475.021962 404.12 
L 475.021962 281.26202 
L 471.980715 281.26202 
z
" clip-path="url(#paf7652b54d)" style="fill: #ffa500"/>
   </g>
   <g id="patch_136">
    <path d="M 475.021962 404.12 
L 478.063302 404.12 
L 478.063302 352.600499 
L 475.021962 352.600499 
z
" clip-path="url(#paf7652b54d)" style="fill: #ffa500"/>
   </g>
   <g id="patch_137">
    <path d="M 478.063302 404.12 
L 481.104549 404.12 
L 481.104549 316.930466 
L 478.063302 316.930466 
z
" clip-path="url(#paf7652b54d)" style="fill: #ffa500"/>
   </g>
   <g id="patch_138">
    <path d="M 481.104549 404.12 
L 484.145796 404.12 
L 484.145796 320.893626 
L 481.104549 320.893626 
z
" clip-path="url(#paf7652b54d)" style="fill: #ffa500"/>
   </g>
   <g id="patch_139">
    <path d="M 484.145796 404.12 
L 487.187136 404.12 
L 487.187136 285.228843 
L 484.145796 285.228843 
z
" clip-path="url(#paf7652b54d)" style="fill: #ffa500"/>
   </g>
   <g id="patch_140">
    <path d="M 487.187136 404.12 
L 490.228383 404.12 
L 490.228383 356.562072 
L 487.187136 356.562072 
z
" clip-path="url(#paf7652b54d)" style="fill: #ffa500"/>
   </g>
   <g id="patch_141">
    <path d="M 490.228383 404.12 
L 493.26963 404.12 
L 493.26963 352.598912 
L 490.228383 352.598912 
z
" clip-path="url(#paf7652b54d)" style="fill: #ffa500"/>
   </g>
   <g id="patch_142">
    <path d="M 493.26963 404.12 
L 496.310876 404.12 
L 496.310876 352.598912 
L 493.26963 352.598912 
z
" clip-path="url(#paf7652b54d)" style="fill: #ffa500"/>
   </g>
   <g id="patch_143">
    <path d="M 496.310876 404.12 
L 499.352217 404.12 
L 499.352217 324.859229 
L 496.310876 324.859229 
z
" clip-path="url(#paf7652b54d)" style="fill: #ffa500"/>
   </g>
   <g id="patch_144">
    <path d="M 499.352217 404.12 
L 502.393463 404.12 
L 502.393463 328.819948 
L 499.352217 328.819948 
z
" clip-path="url(#paf7652b54d)" style="fill: #ffa500"/>
   </g>
   <g id="patch_145">
    <path d="M 502.393463 404.12 
L 505.43471 404.12 
L 505.43471 360.525233 
L 502.393463 360.525233 
z
" clip-path="url(#paf7652b54d)" style="fill: #ffa500"/>
   </g>
   <g id="patch_146">
    <path d="M 505.43471 404.12 
L 508.475957 404.12 
L 508.475957 360.525233 
L 505.43471 360.525233 
z
" clip-path="url(#paf7652b54d)" style="fill: #ffa500"/>
   </g>
   <g id="patch_147">
    <path d="M 508.475957 404.12 
L 511.517297 404.12 
L 511.517297 352.600499 
L 508.475957 352.600499 
z
" clip-path="url(#paf7652b54d)" style="fill: #ffa500"/>
   </g>
   <g id="patch_148">
    <path d="M 511.517297 404.12 
L 514.558544 404.12 
L 514.558544 364.488394 
L 511.517297 364.488394 
z
" clip-path="url(#paf7652b54d)" style="fill: #ffa500"/>
   </g>
   <g id="patch_149">
    <path d="M 514.558544 404.12 
L 517.599791 404.12 
L 517.599791 364.488394 
L 514.558544 364.488394 
z
" clip-path="url(#paf7652b54d)" style="fill: #ffa500"/>
   </g>
   <g id="patch_150">
    <path d="M 517.599791 404.12 
L 520.641131 404.12 
L 520.641131 380.341769 
L 517.599791 380.341769 
z
" clip-path="url(#paf7652b54d)" style="fill: #ffa500"/>
   </g>
   <g id="patch_151">
    <path d="M 520.641131 404.12 
L 523.682378 404.12 
L 523.682378 360.525233 
L 520.641131 360.525233 
z
" clip-path="url(#paf7652b54d)" style="fill: #ffa500"/>
   </g>
   <g id="patch_152">
    <path d="M 523.682378 404.12 
L 526.723625 404.12 
L 526.723625 368.451554 
L 523.682378 368.451554 
z
" clip-path="url(#paf7652b54d)" style="fill: #ffa500"/>
   </g>
   <g id="patch_153">
    <path d="M 526.723625 404.12 
L 529.764871 404.12 
L 529.764871 388.267357 
L 526.723625 388.267357 
z
" clip-path="url(#paf7652b54d)" style="fill: #ffa500"/>
   </g>
   <g id="patch_154">
    <path d="M 529.764871 404.12 
L 532.806212 404.12 
L 532.806212 392.230884 
L 529.764871 392.230884 
z
" clip-path="url(#paf7652b54d)" style="fill: #ffa500"/>
   </g>
   <g id="patch_155">
    <path d="M 532.806212 404.12 
L 535.847459 404.12 
L 535.847459 388.267357 
L 532.806212 388.267357 
z
" clip-path="url(#paf7652b54d)" style="fill: #ffa500"/>
   </g>
   <g id="patch_156">
    <path d="M 535.847459 404.12 
L 538.888705 404.12 
L 538.888705 388.267357 
L 535.847459 388.267357 
z
" clip-path="url(#paf7652b54d)" style="fill: #ffa500"/>
   </g>
   <g id="patch_157">
    <path d="M 538.888705 404.12 
L 541.930046 404.12 
L 541.930046 396.193923 
L 538.888705 396.193923 
z
" clip-path="url(#paf7652b54d)" style="fill: #ffa500"/>
   </g>
   <g id="patch_158">
    <path d="M 541.930046 404.12 
L 544.971292 404.12 
L 544.971292 392.230518 
L 541.930046 392.230518 
z
" clip-path="url(#paf7652b54d)" style="fill: #ffa500"/>
   </g>
   <g id="patch_159">
    <path d="M 544.971292 404.12 
L 548.012539 404.12 
L 548.012539 388.267357 
L 544.971292 388.267357 
z
" clip-path="url(#paf7652b54d)" style="fill: #ffa500"/>
   </g>
   <g id="patch_160">
    <path d="M 548.012539 404.12 
L 551.053786 404.12 
L 551.053786 396.193679 
L 548.012539 396.193679 
z
" clip-path="url(#paf7652b54d)" style="fill: #ffa500"/>
   </g>
   <g id="patch_161">
    <path d="M 551.053786 404.12 
L 554.095126 404.12 
L 554.095126 392.230884 
L 551.053786 392.230884 
z
" clip-path="url(#paf7652b54d)" style="fill: #ffa500"/>
   </g>
   <g id="patch_162">
    <path d="M 554.095126 404.12 
L 557.136373 404.12 
L 557.136373 392.230518 
L 554.095126 392.230518 
z
" clip-path="url(#paf7652b54d)" style="fill: #ffa500"/>
   </g>
   <g id="patch_163">
    <path d="M 557.136373 404.12 
L 560.17762 404.12 
L 560.17762 388.267357 
L 557.136373 388.267357 
z
" clip-path="url(#paf7652b54d)" style="fill: #ffa500"/>
   </g>
   <g id="patch_164">
    <path d="M 560.17762 404.12 
L 563.218866 404.12 
L 563.218866 396.193679 
L 560.17762 396.193679 
z
" clip-path="url(#paf7652b54d)" style="fill: #ffa500"/>
   </g>
   <g id="patch_165">
    <path d="M 563.218866 404.12 
L 566.260207 404.12 
L 566.260207 392.230884 
L 563.218866 392.230884 
z
" clip-path="url(#paf7652b54d)" style="fill: #ffa500"/>
   </g>
   <g id="patch_166">
    <path d="M 566.260207 404.12 
L 569.301454 404.12 
L 569.301454 400.156839 
L 566.260207 400.156839 
z
" clip-path="url(#paf7652b54d)" style="fill: #ffa500"/>
   </g>
   <g id="patch_167">
    <path d="M 569.301454 404.12 
L 572.3427 404.12 
L 572.3427 392.230518 
L 569.301454 392.230518 
z
" clip-path="url(#paf7652b54d)" style="fill: #ffa500"/>
   </g>
   <g id="patch_168">
    <path d="M 572.3427 404.12 
L 575.384041 404.12 
L 575.384041 404.12 
L 572.3427 404.12 
z
" clip-path="url(#paf7652b54d)" style="fill: #ffa500"/>
   </g>
   <g id="patch_169">
    <path d="M 575.384041 404.12 
L 578.425287 404.12 
L 578.425287 392.230518 
L 575.384041 392.230518 
z
" clip-path="url(#paf7652b54d)" style="fill: #ffa500"/>
   </g>
   <g id="patch_170">
    <path d="M 578.425287 404.12 
L 581.466534 404.12 
L 581.466534 392.230518 
L 578.425287 392.230518 
z
" clip-path="url(#paf7652b54d)" style="fill: #ffa500"/>
   </g>
   <g id="patch_171">
    <path d="M 581.466534 404.12 
L 584.507781 404.12 
L 584.507781 400.156839 
L 581.466534 400.156839 
z
" clip-path="url(#paf7652b54d)" style="fill: #ffa500"/>
   </g>
   <g id="patch_172">
    <path d="M 584.507781 404.12 
L 587.549121 404.12 
L 587.549121 396.193923 
L 584.507781 396.193923 
z
" clip-path="url(#paf7652b54d)" style="fill: #ffa500"/>
   </g>
   <g id="patch_173">
    <path d="M 587.549121 404.12 
L 590.590368 404.12 
L 590.590368 400.156839 
L 587.549121 400.156839 
z
" clip-path="url(#paf7652b54d)" style="fill: #ffa500"/>
   </g>
   <g id="patch_174">
    <path d="M 590.590368 404.12 
L 593.631615 404.12 
L 593.631615 392.230518 
L 590.590368 392.230518 
z
" clip-path="url(#paf7652b54d)" style="fill: #ffa500"/>
   </g>
   <g id="patch_175">
    <path d="M 593.631615 404.12 
L 596.672955 404.12 
L 596.672955 400.156961 
L 593.631615 400.156961 
z
" clip-path="url(#paf7652b54d)" style="fill: #ffa500"/>
   </g>
   <g id="patch_176">
    <path d="M 596.672955 404.12 
L 599.714202 404.12 
L 599.714202 404.12 
L 596.672955 404.12 
z
" clip-path="url(#paf7652b54d)" style="fill: #ffa500"/>
   </g>
   <g id="patch_177">
    <path d="M 599.714202 404.12 
L 602.755449 404.12 
L 602.755449 400.156839 
L 599.714202 400.156839 
z
" clip-path="url(#paf7652b54d)" style="fill: #ffa500"/>
   </g>
   <g id="patch_178">
    <path d="M 602.755449 404.12 
L 605.796695 404.12 
L 605.796695 400.156839 
L 602.755449 400.156839 
z
" clip-path="url(#paf7652b54d)" style="fill: #ffa500"/>
   </g>
   <g id="patch_179">
    <path d="M 605.796695 404.12 
L 608.838036 404.12 
L 608.838036 404.12 
L 605.796695 404.12 
z
" clip-path="url(#paf7652b54d)" style="fill: #ffa500"/>
   </g>
   <g id="patch_180">
    <path d="M 608.838036 404.12 
L 611.879283 404.12 
L 611.879283 400.156839 
L 608.838036 400.156839 
z
" clip-path="url(#paf7652b54d)" style="fill: #ffa500"/>
   </g>
   <g id="patch_181">
    <path d="M 611.879283 404.12 
L 614.920529 404.12 
L 614.920529 404.12 
L 611.879283 404.12 
z
" clip-path="url(#paf7652b54d)" style="fill: #ffa500"/>
   </g>
   <g id="patch_182">
    <path d="M 614.920529 404.12 
L 617.961776 404.12 
L 617.961776 404.12 
L 614.920529 404.12 
z
" clip-path="url(#paf7652b54d)" style="fill: #ffa500"/>
   </g>
   <g id="patch_183">
    <path d="M 617.961776 404.12 
L 621.003116 404.12 
L 621.003116 404.12 
L 617.961776 404.12 
z
" clip-path="url(#paf7652b54d)" style="fill: #ffa500"/>
   </g>
   <g id="patch_184">
    <path d="M 621.003116 404.12 
L 624.044363 404.12 
L 624.044363 404.12 
L 621.003116 404.12 
z
" clip-path="url(#paf7652b54d)" style="fill: #ffa500"/>
   </g>
   <g id="patch_185">
    <path d="M 624.044363 404.12 
L 627.08561 404.12 
L 627.08561 404.12 
L 624.044363 404.12 
z
" clip-path="url(#paf7652b54d)" style="fill: #ffa500"/>
   </g>
   <g id="patch_186">
    <path d="M 627.08561 404.12 
L 630.12695 404.12 
L 630.12695 404.12 
L 627.08561 404.12 
z
" clip-path="url(#paf7652b54d)" style="fill: #ffa500"/>
   </g>
   <g id="patch_187">
    <path d="M 630.12695 404.12 
L 633.168197 404.12 
L 633.168197 400.156839 
L 630.12695 400.156839 
z
" clip-path="url(#paf7652b54d)" style="fill: #ffa500"/>
   </g>
   <g id="patch_188">
    <path d="M 633.168197 404.12 
L 636.209444 404.12 
L 636.209444 404.12 
L 633.168197 404.12 
z
" clip-path="url(#paf7652b54d)" style="fill: #ffa500"/>
   </g>
   <g id="patch_189">
    <path d="M 636.209444 404.12 
L 639.25069 404.12 
L 639.25069 400.156839 
L 636.209444 400.156839 
z
" clip-path="url(#paf7652b54d)" style="fill: #ffa500"/>
   </g>
   <g id="patch_190">
    <path d="M 639.25069 404.12 
L 642.292031 404.12 
L 642.292031 404.12 
L 639.25069 404.12 
z
" clip-path="url(#paf7652b54d)" style="fill: #ffa500"/>
   </g>
   <g id="patch_191">
    <path d="M 642.292031 404.12 
L 645.333278 404.12 
L 645.333278 404.12 
L 642.292031 404.12 
z
" clip-path="url(#paf7652b54d)" style="fill: #ffa500"/>
   </g>
   <g id="patch_192">
    <path d="M 645.333278 404.12 
L 648.374524 404.12 
L 648.374524 400.156839 
L 645.333278 400.156839 
z
" clip-path="url(#paf7652b54d)" style="fill: #ffa500"/>
   </g>
   <g id="patch_193">
    <path d="M 648.374524 404.12 
L 651.415865 404.12 
L 651.415865 404.12 
L 648.374524 404.12 
z
" clip-path="url(#paf7652b54d)" style="fill: #ffa500"/>
   </g>
   <g id="patch_194">
    <path d="M 651.415865 404.12 
L 654.457112 404.12 
L 654.457112 404.12 
L 651.415865 404.12 
z
" clip-path="url(#paf7652b54d)" style="fill: #ffa500"/>
   </g>
   <g id="patch_195">
    <path d="M 654.457112 404.12 
L 657.498358 404.12 
L 657.498358 404.12 
L 654.457112 404.12 
z
" clip-path="url(#paf7652b54d)" style="fill: #ffa500"/>
   </g>
   <g id="patch_196">
    <path d="M 657.498358 404.12 
L 660.539605 404.12 
L 660.539605 404.12 
L 657.498358 404.12 
z
" clip-path="url(#paf7652b54d)" style="fill: #ffa500"/>
   </g>
   <g id="patch_197">
    <path d="M 660.539605 404.12 
L 663.580945 404.12 
L 663.580945 404.12 
L 660.539605 404.12 
z
" clip-path="url(#paf7652b54d)" style="fill: #ffa500"/>
   </g>
   <g id="patch_198">
    <path d="M 663.580945 404.12 
L 666.622192 404.12 
L 666.622192 404.12 
L 663.580945 404.12 
z
" clip-path="url(#paf7652b54d)" style="fill: #ffa500"/>
   </g>
   <g id="patch_199">
    <path d="M 666.622192 404.12 
L 669.663439 404.12 
L 669.663439 404.12 
L 666.622192 404.12 
z
" clip-path="url(#paf7652b54d)" style="fill: #ffa500"/>
   </g>
   <g id="patch_200">
    <path d="M 669.663439 404.12 
L 672.704686 404.12 
L 672.704686 404.12 
L 669.663439 404.12 
z
" clip-path="url(#paf7652b54d)" style="fill: #ffa500"/>
   </g>
   <g id="patch_201">
    <path d="M 672.704686 404.12 
L 675.746026 404.12 
L 675.746026 404.12 
L 672.704686 404.12 
z
" clip-path="url(#paf7652b54d)" style="fill: #ffa500"/>
   </g>
   <g id="patch_202">
    <path d="M 675.746026 404.12 
L 678.787273 404.12 
L 678.787273 400.156839 
L 675.746026 400.156839 
z
" clip-path="url(#paf7652b54d)" style="fill: #ffa500"/>
   </g>
   <g id="matplotlib.axis_1">
    <g id="xtick_1">
     <g id="line2d_1">
      <defs>
       <path id="m8d03d1bdf8" d="M 0 0 
L 0 3.5 
" style="stroke: #000000; stroke-width: 0.8"/>
      </defs>
      <g>
       <use xlink:href="#m8d03d1bdf8" x="88.161886" y="404.12" style="stroke: #000000; stroke-width: 0.8"/>
      </g>
     </g>
     <g id="text_1">
      <!-- 14 -->
      <g transform="translate(81.799386 418.718437) scale(0.1 -0.1)">
       <defs>
        <path id="DejaVuSans-31" d="M 794 531 
L 1825 531 
L 1825 4091 
L 703 3866 
L 703 4441 
L 1819 4666 
L 2450 4666 
L 2450 531 
L 3481 531 
L 3481 0 
L 794 0 
L 794 531 
z
" transform="scale(0.015625)"/>
        <path id="DejaVuSans-34" d="M 2419 4116 
L 825 1625 
L 2419 1625 
L 2419 4116 
z
M 2253 4666 
L 3047 4666 
L 3047 1625 
L 3713 1625 
L 3713 1100 
L 3047 1100 
L 3047 0 
L 2419 0 
L 2419 1100 
L 313 1100 
L 313 1709 
L 2253 4666 
z
" transform="scale(0.015625)"/>
       </defs>
       <use xlink:href="#DejaVuSans-31"/>
       <use xlink:href="#DejaVuSans-34" x="63.623047"/>
      </g>
     </g>
    </g>
    <g id="xtick_2">
     <g id="line2d_2">
      <g>
       <use xlink:href="#m8d03d1bdf8" x="186.405211" y="404.12" style="stroke: #000000; stroke-width: 0.8"/>
      </g>
     </g>
     <g id="text_2">
      <!-- 16 -->
      <g transform="translate(180.042711 418.718437) scale(0.1 -0.1)">
       <defs>
        <path id="DejaVuSans-36" d="M 2113 2584 
Q 1688 2584 1439 2293 
Q 1191 2003 1191 1497 
Q 1191 994 1439 701 
Q 1688 409 2113 409 
Q 2538 409 2786 701 
Q 3034 994 3034 1497 
Q 3034 2003 2786 2293 
Q 2538 2584 2113 2584 
z
M 3366 4563 
L 3366 3988 
Q 3128 4100 2886 4159 
Q 2644 4219 2406 4219 
Q 1781 4219 1451 3797 
Q 1122 3375 1075 2522 
Q 1259 2794 1537 2939 
Q 1816 3084 2150 3084 
Q 2853 3084 3261 2657 
Q 3669 2231 3669 1497 
Q 3669 778 3244 343 
Q 2819 -91 2113 -91 
Q 1303 -91 875 529 
Q 447 1150 447 2328 
Q 447 3434 972 4092 
Q 1497 4750 2381 4750 
Q 2619 4750 2861 4703 
Q 3103 4656 3366 4563 
z
" transform="scale(0.015625)"/>
       </defs>
       <use xlink:href="#DejaVuSans-31"/>
       <use xlink:href="#DejaVuSans-36" x="63.623047"/>
      </g>
     </g>
    </g>
    <g id="xtick_3">
     <g id="line2d_3">
      <g>
       <use xlink:href="#m8d03d1bdf8" x="284.648536" y="404.12" style="stroke: #000000; stroke-width: 0.8"/>
      </g>
     </g>
     <g id="text_3">
      <!-- 18 -->
      <g transform="translate(278.286036 418.718437) scale(0.1 -0.1)">
       <defs>
        <path id="DejaVuSans-38" d="M 2034 2216 
Q 1584 2216 1326 1975 
Q 1069 1734 1069 1313 
Q 1069 891 1326 650 
Q 1584 409 2034 409 
Q 2484 409 2743 651 
Q 3003 894 3003 1313 
Q 3003 1734 2745 1975 
Q 2488 2216 2034 2216 
z
M 1403 2484 
Q 997 2584 770 2862 
Q 544 3141 544 3541 
Q 544 4100 942 4425 
Q 1341 4750 2034 4750 
Q 2731 4750 3128 4425 
Q 3525 4100 3525 3541 
Q 3525 3141 3298 2862 
Q 3072 2584 2669 2484 
Q 3125 2378 3379 2068 
Q 3634 1759 3634 1313 
Q 3634 634 3220 271 
Q 2806 -91 2034 -91 
Q 1263 -91 848 271 
Q 434 634 434 1313 
Q 434 1759 690 2068 
Q 947 2378 1403 2484 
z
M 1172 3481 
Q 1172 3119 1398 2916 
Q 1625 2713 2034 2713 
Q 2441 2713 2670 2916 
Q 2900 3119 2900 3481 
Q 2900 3844 2670 4047 
Q 2441 4250 2034 4250 
Q 1625 4250 1398 4047 
Q 1172 3844 1172 3481 
z
" transform="scale(0.015625)"/>
       </defs>
       <use xlink:href="#DejaVuSans-31"/>
       <use xlink:href="#DejaVuSans-38" x="63.623047"/>
      </g>
     </g>
    </g>
    <g id="xtick_4">
     <g id="line2d_4">
      <g>
       <use xlink:href="#m8d03d1bdf8" x="382.891861" y="404.12" style="stroke: #000000; stroke-width: 0.8"/>
      </g>
     </g>
     <g id="text_4">
      <!-- 20 -->
      <g transform="translate(376.529361 418.718437) scale(0.1 -0.1)">
       <defs>
        <path id="DejaVuSans-32" d="M 1228 531 
L 3431 531 
L 3431 0 
L 469 0 
L 469 531 
Q 828 903 1448 1529 
Q 2069 2156 2228 2338 
Q 2531 2678 2651 2914 
Q 2772 3150 2772 3378 
Q 2772 3750 2511 3984 
Q 2250 4219 1831 4219 
Q 1534 4219 1204 4116 
Q 875 4013 500 3803 
L 500 4441 
Q 881 4594 1212 4672 
Q 1544 4750 1819 4750 
Q 2544 4750 2975 4387 
Q 3406 4025 3406 3419 
Q 3406 3131 3298 2873 
Q 3191 2616 2906 2266 
Q 2828 2175 2409 1742 
Q 1991 1309 1228 531 
z
" transform="scale(0.015625)"/>
        <path id="DejaVuSans-30" d="M 2034 4250 
Q 1547 4250 1301 3770 
Q 1056 3291 1056 2328 
Q 1056 1369 1301 889 
Q 1547 409 2034 409 
Q 2525 409 2770 889 
Q 3016 1369 3016 2328 
Q 3016 3291 2770 3770 
Q 2525 4250 2034 4250 
z
M 2034 4750 
Q 2819 4750 3233 4129 
Q 3647 3509 3647 2328 
Q 3647 1150 3233 529 
Q 2819 -91 2034 -91 
Q 1250 -91 836 529 
Q 422 1150 422 2328 
Q 422 3509 836 4129 
Q 1250 4750 2034 4750 
z
" transform="scale(0.015625)"/>
       </defs>
       <use xlink:href="#DejaVuSans-32"/>
       <use xlink:href="#DejaVuSans-30" x="63.623047"/>
      </g>
     </g>
    </g>
    <g id="xtick_5">
     <g id="line2d_5">
      <g>
       <use xlink:href="#m8d03d1bdf8" x="481.135186" y="404.12" style="stroke: #000000; stroke-width: 0.8"/>
      </g>
     </g>
     <g id="text_5">
      <!-- 22 -->
      <g transform="translate(474.772686 418.718437) scale(0.1 -0.1)">
       <use xlink:href="#DejaVuSans-32"/>
       <use xlink:href="#DejaVuSans-32" x="63.623047"/>
      </g>
     </g>
    </g>
    <g id="xtick_6">
     <g id="line2d_6">
      <g>
       <use xlink:href="#m8d03d1bdf8" x="579.378511" y="404.12" style="stroke: #000000; stroke-width: 0.8"/>
      </g>
     </g>
     <g id="text_6">
      <!-- 24 -->
      <g transform="translate(573.016011 418.718437) scale(0.1 -0.1)">
       <use xlink:href="#DejaVuSans-32"/>
       <use xlink:href="#DejaVuSans-34" x="63.623047"/>
      </g>
     </g>
    </g>
    <g id="xtick_7">
     <g id="line2d_7">
      <g>
       <use xlink:href="#m8d03d1bdf8" x="677.621836" y="404.12" style="stroke: #000000; stroke-width: 0.8"/>
      </g>
     </g>
     <g id="text_7">
      <!-- 26 -->
      <g transform="translate(671.259336 418.718437) scale(0.1 -0.1)">
       <use xlink:href="#DejaVuSans-32"/>
       <use xlink:href="#DejaVuSans-36" x="63.623047"/>
      </g>
     </g>
    </g>
   </g>
   <g id="matplotlib.axis_2">
    <g id="ytick_1">
     <g id="line2d_8">
      <defs>
       <path id="m0ea9176215" d="M 0 0 
L -3.5 0 
" style="stroke: #000000; stroke-width: 0.8"/>
      </defs>
      <g>
       <use xlink:href="#m0ea9176215" x="40.12" y="404.12" style="stroke: #000000; stroke-width: 0.8"/>
      </g>
     </g>
     <g id="text_8">
      <!-- 0.00 -->
      <g transform="translate(10.854375 407.919219) scale(0.1 -0.1)">
       <defs>
        <path id="DejaVuSans-2e" d="M 684 794 
L 1344 794 
L 1344 0 
L 684 0 
L 684 794 
z
" transform="scale(0.015625)"/>
       </defs>
       <use xlink:href="#DejaVuSans-30"/>
       <use xlink:href="#DejaVuSans-2e" x="63.623047"/>
       <use xlink:href="#DejaVuSans-30" x="95.410156"/>
       <use xlink:href="#DejaVuSans-30" x="159.033203"/>
      </g>
     </g>
    </g>
    <g id="ytick_2">
     <g id="line2d_9">
      <g>
       <use xlink:href="#m0ea9176215" x="40.12" y="342.777668" style="stroke: #000000; stroke-width: 0.8"/>
      </g>
     </g>
     <g id="text_9">
      <!-- 0.05 -->
      <g transform="translate(10.854375 346.576887) scale(0.1 -0.1)">
       <defs>
        <path id="DejaVuSans-35" d="M 691 4666 
L 3169 4666 
L 3169 4134 
L 1269 4134 
L 1269 2991 
Q 1406 3038 1543 3061 
Q 1681 3084 1819 3084 
Q 2600 3084 3056 2656 
Q 3513 2228 3513 1497 
Q 3513 744 3044 326 
Q 2575 -91 1722 -91 
Q 1428 -91 1123 -41 
Q 819 9 494 109 
L 494 744 
Q 775 591 1075 516 
Q 1375 441 1709 441 
Q 2250 441 2565 725 
Q 2881 1009 2881 1497 
Q 2881 1984 2565 2268 
Q 2250 2553 1709 2553 
Q 1456 2553 1204 2497 
Q 953 2441 691 2322 
L 691 4666 
z
" transform="scale(0.015625)"/>
       </defs>
       <use xlink:href="#DejaVuSans-30"/>
       <use xlink:href="#DejaVuSans-2e" x="63.623047"/>
       <use xlink:href="#DejaVuSans-30" x="95.410156"/>
       <use xlink:href="#DejaVuSans-35" x="159.033203"/>
      </g>
     </g>
    </g>
    <g id="ytick_3">
     <g id="line2d_10">
      <g>
       <use xlink:href="#m0ea9176215" x="40.12" y="281.435336" style="stroke: #000000; stroke-width: 0.8"/>
      </g>
     </g>
     <g id="text_10">
      <!-- 0.10 -->
      <g transform="translate(10.854375 285.234554) scale(0.1 -0.1)">
       <use xlink:href="#DejaVuSans-30"/>
       <use xlink:href="#DejaVuSans-2e" x="63.623047"/>
       <use xlink:href="#DejaVuSans-31" x="95.410156"/>
       <use xlink:href="#DejaVuSans-30" x="159.033203"/>
      </g>
     </g>
    </g>
    <g id="ytick_4">
     <g id="line2d_11">
      <g>
       <use xlink:href="#m0ea9176215" x="40.12" y="220.093003" style="stroke: #000000; stroke-width: 0.8"/>
      </g>
     </g>
     <g id="text_11">
      <!-- 0.15 -->
      <g transform="translate(10.854375 223.892222) scale(0.1 -0.1)">
       <use xlink:href="#DejaVuSans-30"/>
       <use xlink:href="#DejaVuSans-2e" x="63.623047"/>
       <use xlink:href="#DejaVuSans-31" x="95.410156"/>
       <use xlink:href="#DejaVuSans-35" x="159.033203"/>
      </g>
     </g>
    </g>
    <g id="ytick_5">
     <g id="line2d_12">
      <g>
       <use xlink:href="#m0ea9176215" x="40.12" y="158.750671" style="stroke: #000000; stroke-width: 0.8"/>
      </g>
     </g>
     <g id="text_12">
      <!-- 0.20 -->
      <g transform="translate(10.854375 162.54989) scale(0.1 -0.1)">
       <use xlink:href="#DejaVuSans-30"/>
       <use xlink:href="#DejaVuSans-2e" x="63.623047"/>
       <use xlink:href="#DejaVuSans-32" x="95.410156"/>
       <use xlink:href="#DejaVuSans-30" x="159.033203"/>
      </g>
     </g>
    </g>
    <g id="ytick_6">
     <g id="line2d_13">
      <g>
       <use xlink:href="#m0ea9176215" x="40.12" y="97.408339" style="stroke: #000000; stroke-width: 0.8"/>
      </g>
     </g>
     <g id="text_13">
      <!-- 0.25 -->
      <g transform="translate(10.854375 101.207558) scale(0.1 -0.1)">
       <use xlink:href="#DejaVuSans-30"/>
       <use xlink:href="#DejaVuSans-2e" x="63.623047"/>
       <use xlink:href="#DejaVuSans-32" x="95.410156"/>
       <use xlink:href="#DejaVuSans-35" x="159.033203"/>
      </g>
     </g>
    </g>
    <g id="ytick_7">
     <g id="line2d_14">
      <g>
       <use xlink:href="#m0ea9176215" x="40.12" y="36.066007" style="stroke: #000000; stroke-width: 0.8"/>
      </g>
     </g>
     <g id="text_14">
      <!-- 0.30 -->
      <g transform="translate(10.854375 39.865226) scale(0.1 -0.1)">
       <defs>
        <path id="DejaVuSans-33" d="M 2597 2516 
Q 3050 2419 3304 2112 
Q 3559 1806 3559 1356 
Q 3559 666 3084 287 
Q 2609 -91 1734 -91 
Q 1441 -91 1130 -33 
Q 819 25 488 141 
L 488 750 
Q 750 597 1062 519 
Q 1375 441 1716 441 
Q 2309 441 2620 675 
Q 2931 909 2931 1356 
Q 2931 1769 2642 2001 
Q 2353 2234 1838 2234 
L 1294 2234 
L 1294 2753 
L 1863 2753 
Q 2328 2753 2575 2939 
Q 2822 3125 2822 3475 
Q 2822 3834 2567 4026 
Q 2313 4219 1838 4219 
Q 1578 4219 1281 4162 
Q 984 4106 628 3988 
L 628 4550 
Q 988 4650 1302 4700 
Q 1616 4750 1894 4750 
Q 2613 4750 3031 4423 
Q 3450 4097 3450 3541 
Q 3450 3153 3228 2886 
Q 3006 2619 2597 2516 
z
" transform="scale(0.015625)"/>
       </defs>
       <use xlink:href="#DejaVuSans-30"/>
       <use xlink:href="#DejaVuSans-2e" x="63.623047"/>
       <use xlink:href="#DejaVuSans-33" x="95.410156"/>
       <use xlink:href="#DejaVuSans-30" x="159.033203"/>
      </g>
     </g>
    </g>
   </g>
   <g id="line2d_15">
    <path d="M 70.532727 403.611902 
L 84.536586 403.18391 
L 95.496127 402.641951 
L 105.237942 401.936483 
L 113.153166 401.154532 
L 120.459527 400.220404 
L 127.157024 399.144417 
L 133.245658 397.948386 
L 138.725429 396.665114 
L 144.2052 395.157284 
L 149.076107 393.604403 
L 153.947014 391.828254 
L 158.817922 389.805424 
L 163.079965 387.81397 
L 167.342009 385.598261 
L 171.604053 383.141278 
L 175.866097 380.425909 
L 180.128141 377.435146 
L 184.390185 374.152303 
L 188.652229 370.561259 
L 192.914272 366.64672 
L 197.176316 362.394504 
L 201.43836 357.791839 
L 205.700404 352.827677 
L 209.962448 347.493015 
L 214.224492 341.781226 
L 218.486536 335.688378 
L 222.748579 329.213558 
L 227.010623 322.359177 
L 231.881531 314.068724 
L 236.752438 305.3057 
L 241.623345 296.092323 
L 247.103116 285.226085 
L 252.582887 273.881126 
L 259.280384 259.462096 
L 267.195608 241.827259 
L 281.80833 208.53958 
L 290.941281 188.053631 
L 297.029915 174.888294 
L 302.509686 163.552847 
L 307.380593 153.997193 
L 311.642637 146.113237 
L 315.295818 139.757691 
L 318.948998 133.811488 
L 322.602179 128.30896 
L 325.646496 124.085781 
L 328.690813 120.210565 
L 331.73513 116.699454 
L 334.779447 113.567205 
L 337.2149 111.343156 
L 339.650354 109.376171 
L 342.085808 107.671646 
L 344.521261 106.234272 
L 346.956715 105.068024 
L 349.392169 104.176135 
L 351.827622 103.561081 
L 354.263076 103.224575 
L 356.698529 103.167554 
L 359.133983 103.390177 
L 361.569437 103.891824 
L 364.00489 104.671097 
L 366.440344 105.725831 
L 368.875798 107.053099 
L 371.311251 108.649227 
L 373.746705 110.509814 
L 376.182159 112.629747 
L 378.617612 115.00323 
L 381.661929 118.31674 
L 384.706246 122.002299 
L 387.750563 126.044481 
L 390.79488 130.426527 
L 394.448061 136.108217 
L 398.101241 142.220256 
L 402.363285 149.848014 
L 406.625329 157.955336 
L 411.496236 167.730197 
L 416.976007 179.265238 
L 423.673504 193.949358 
L 432.806456 214.599238 
L 449.854631 253.241683 
L 457.160992 269.183221 
L 463.249626 281.956531 
L 468.729397 292.968802 
L 474.209167 303.463146 
L 479.080075 312.320018 
L 483.950982 320.708266 
L 488.821889 328.611295 
L 493.083933 335.120474 
L 497.345977 341.247758 
L 501.608021 346.993772 
L 505.870065 352.362189 
L 510.132108 357.359407 
L 514.394152 361.994228 
L 518.656196 366.277529 
L 522.91824 370.221939 
L 527.180284 373.841526 
L 531.442328 377.151495 
L 535.704372 380.167905 
L 539.966416 382.9074 
L 544.228459 385.386969 
L 548.490503 387.623722 
L 552.752547 389.634696 
L 557.623454 391.678005 
L 562.494362 393.472743 
L 567.365269 395.042405 
L 572.84504 396.567071 
L 578.32481 397.865157 
L 584.413444 399.075469 
L 591.110942 400.164772 
L 598.417303 401.110903 
L 606.332527 401.903303 
L 615.465478 402.58093 
L 625.816156 403.118106 
L 638.602288 403.543962 
L 655.0416 403.847696 
L 678.178409 404.031706 
L 678.787273 404.034382 
L 678.787273 404.034382 
" clip-path="url(#paf7652b54d)" style="fill: none; stroke-dasharray: 11.1,4.8; stroke-dashoffset: 0; stroke: #ff0000; stroke-opacity: 0.5; stroke-width: 3"/>
   </g>
   <g id="line2d_16">
    <path d="M 355.977296 404.12 
L 355.977296 25.44 
" clip-path="url(#paf7652b54d)" style="fill: none; stroke-dasharray: 3.7,1.6; stroke-dashoffset: 0; stroke: #ff0000"/>
   </g>
   <g id="line2d_17">
    <path d="M 484.377557 404.12 
L 484.377557 25.44 
" clip-path="url(#paf7652b54d)" style="fill: none; stroke-dasharray: 3.7,1.6; stroke-dashoffset: 0; stroke: #4dbf5f"/>
   </g>
   <g id="line2d_18">
    <path d="M 222.898954 404.12 
L 222.898954 25.44 
" clip-path="url(#paf7652b54d)" style="fill: none; stroke-dasharray: 3.7,1.6; stroke-dashoffset: 0; stroke: #5a4dbf"/>
   </g>
   <g id="patch_203">
    <path d="M 40.12 404.12 
L 40.12 25.44 
" style="fill: none; stroke: #000000; stroke-width: 0.8; stroke-linejoin: miter; stroke-linecap: square"/>
   </g>
   <g id="patch_204">
    <path d="M 709.2 404.12 
L 709.2 25.44 
" style="fill: none; stroke: #000000; stroke-width: 0.8; stroke-linejoin: miter; stroke-linecap: square"/>
   </g>
   <g id="patch_205">
    <path d="M 40.12 404.12 
L 709.2 404.12 
" style="fill: none; stroke: #000000; stroke-width: 0.8; stroke-linejoin: miter; stroke-linecap: square"/>
   </g>
   <g id="patch_206">
    <path d="M 40.12 25.44 
L 709.2 25.44 
" style="fill: none; stroke: #000000; stroke-width: 0.8; stroke-linejoin: miter; stroke-linecap: square"/>
   </g>
   <g id="text_15">
    <!-- mean=19.452 -->
    <g style="fill: #ff0000; opacity: 0.8" transform="translate(355.977296 63.308) scale(0.1 -0.1)">
     <defs>
      <path id="DejaVuSans-6d" d="M 3328 2828 
Q 3544 3216 3844 3400 
Q 4144 3584 4550 3584 
Q 5097 3584 5394 3201 
Q 5691 2819 5691 2113 
L 5691 0 
L 5113 0 
L 5113 2094 
Q 5113 2597 4934 2840 
Q 4756 3084 4391 3084 
Q 3944 3084 3684 2787 
Q 3425 2491 3425 1978 
L 3425 0 
L 2847 0 
L 2847 2094 
Q 2847 2600 2669 2842 
Q 2491 3084 2119 3084 
Q 1678 3084 1418 2786 
Q 1159 2488 1159 1978 
L 1159 0 
L 581 0 
L 581 3500 
L 1159 3500 
L 1159 2956 
Q 1356 3278 1631 3431 
Q 1906 3584 2284 3584 
Q 2666 3584 2933 3390 
Q 3200 3197 3328 2828 
z
" transform="scale(0.015625)"/>
      <path id="DejaVuSans-65" d="M 3597 1894 
L 3597 1613 
L 953 1613 
Q 991 1019 1311 708 
Q 1631 397 2203 397 
Q 2534 397 2845 478 
Q 3156 559 3463 722 
L 3463 178 
Q 3153 47 2828 -22 
Q 2503 -91 2169 -91 
Q 1331 -91 842 396 
Q 353 884 353 1716 
Q 353 2575 817 3079 
Q 1281 3584 2069 3584 
Q 2775 3584 3186 3129 
Q 3597 2675 3597 1894 
z
M 3022 2063 
Q 3016 2534 2758 2815 
Q 2500 3097 2075 3097 
Q 1594 3097 1305 2825 
Q 1016 2553 972 2059 
L 3022 2063 
z
" transform="scale(0.015625)"/>
      <path id="DejaVuSans-61" d="M 2194 1759 
Q 1497 1759 1228 1600 
Q 959 1441 959 1056 
Q 959 750 1161 570 
Q 1363 391 1709 391 
Q 2188 391 2477 730 
Q 2766 1069 2766 1631 
L 2766 1759 
L 2194 1759 
z
M 3341 1997 
L 3341 0 
L 2766 0 
L 2766 531 
Q 2569 213 2275 61 
Q 1981 -91 1556 -91 
Q 1019 -91 701 211 
Q 384 513 384 1019 
Q 384 1609 779 1909 
Q 1175 2209 1959 2209 
L 2766 2209 
L 2766 2266 
Q 2766 2663 2505 2880 
Q 2244 3097 1772 3097 
Q 1472 3097 1187 3025 
Q 903 2953 641 2809 
L 641 3341 
Q 956 3463 1253 3523 
Q 1550 3584 1831 3584 
Q 2591 3584 2966 3190 
Q 3341 2797 3341 1997 
z
" transform="scale(0.015625)"/>
      <path id="DejaVuSans-6e" d="M 3513 2113 
L 3513 0 
L 2938 0 
L 2938 2094 
Q 2938 2591 2744 2837 
Q 2550 3084 2163 3084 
Q 1697 3084 1428 2787 
Q 1159 2491 1159 1978 
L 1159 0 
L 581 0 
L 581 3500 
L 1159 3500 
L 1159 2956 
Q 1366 3272 1645 3428 
Q 1925 3584 2291 3584 
Q 2894 3584 3203 3211 
Q 3513 2838 3513 2113 
z
" transform="scale(0.015625)"/>
      <path id="DejaVuSans-3d" d="M 678 2906 
L 4684 2906 
L 4684 2381 
L 678 2381 
L 678 2906 
z
M 678 1631 
L 4684 1631 
L 4684 1100 
L 678 1100 
L 678 1631 
z
" transform="scale(0.015625)"/>
      <path id="DejaVuSans-39" d="M 703 97 
L 703 672 
Q 941 559 1184 500 
Q 1428 441 1663 441 
Q 2288 441 2617 861 
Q 2947 1281 2994 2138 
Q 2813 1869 2534 1725 
Q 2256 1581 1919 1581 
Q 1219 1581 811 2004 
Q 403 2428 403 3163 
Q 403 3881 828 4315 
Q 1253 4750 1959 4750 
Q 2769 4750 3195 4129 
Q 3622 3509 3622 2328 
Q 3622 1225 3098 567 
Q 2575 -91 1691 -91 
Q 1453 -91 1209 -44 
Q 966 3 703 97 
z
M 1959 2075 
Q 2384 2075 2632 2365 
Q 2881 2656 2881 3163 
Q 2881 3666 2632 3958 
Q 2384 4250 1959 4250 
Q 1534 4250 1286 3958 
Q 1038 3666 1038 3163 
Q 1038 2656 1286 2365 
Q 1534 2075 1959 2075 
z
" transform="scale(0.015625)"/>
     </defs>
     <use xlink:href="#DejaVuSans-6d"/>
     <use xlink:href="#DejaVuSans-65" x="97.412109"/>
     <use xlink:href="#DejaVuSans-61" x="158.935547"/>
     <use xlink:href="#DejaVuSans-6e" x="220.214844"/>
     <use xlink:href="#DejaVuSans-3d" x="283.59375"/>
     <use xlink:href="#DejaVuSans-31" x="367.382812"/>
     <use xlink:href="#DejaVuSans-39" x="431.005859"/>
     <use xlink:href="#DejaVuSans-2e" x="494.628906"/>
     <use xlink:href="#DejaVuSans-34" x="526.416016"/>
     <use xlink:href="#DejaVuSans-35" x="590.039062"/>
     <use xlink:href="#DejaVuSans-32" x="653.662109"/>
    </g>
   </g>
   <g id="text_16">
    <!-- Distribution of bmi of those shorter than 173cm -->
    <g transform="translate(230.972188 19.44) scale(0.12 -0.12)">
     <defs>
      <path id="DejaVuSans-44" d="M 1259 4147 
L 1259 519 
L 2022 519 
Q 2988 519 3436 956 
Q 3884 1394 3884 2338 
Q 3884 3275 3436 3711 
Q 2988 4147 2022 4147 
L 1259 4147 
z
M 628 4666 
L 1925 4666 
Q 3281 4666 3915 4102 
Q 4550 3538 4550 2338 
Q 4550 1131 3912 565 
Q 3275 0 1925 0 
L 628 0 
L 628 4666 
z
" transform="scale(0.015625)"/>
      <path id="DejaVuSans-69" d="M 603 3500 
L 1178 3500 
L 1178 0 
L 603 0 
L 603 3500 
z
M 603 4863 
L 1178 4863 
L 1178 4134 
L 603 4134 
L 603 4863 
z
" transform="scale(0.015625)"/>
      <path id="DejaVuSans-73" d="M 2834 3397 
L 2834 2853 
Q 2591 2978 2328 3040 
Q 2066 3103 1784 3103 
Q 1356 3103 1142 2972 
Q 928 2841 928 2578 
Q 928 2378 1081 2264 
Q 1234 2150 1697 2047 
L 1894 2003 
Q 2506 1872 2764 1633 
Q 3022 1394 3022 966 
Q 3022 478 2636 193 
Q 2250 -91 1575 -91 
Q 1294 -91 989 -36 
Q 684 19 347 128 
L 347 722 
Q 666 556 975 473 
Q 1284 391 1588 391 
Q 1994 391 2212 530 
Q 2431 669 2431 922 
Q 2431 1156 2273 1281 
Q 2116 1406 1581 1522 
L 1381 1569 
Q 847 1681 609 1914 
Q 372 2147 372 2553 
Q 372 3047 722 3315 
Q 1072 3584 1716 3584 
Q 2034 3584 2315 3537 
Q 2597 3491 2834 3397 
z
" transform="scale(0.015625)"/>
      <path id="DejaVuSans-74" d="M 1172 4494 
L 1172 3500 
L 2356 3500 
L 2356 3053 
L 1172 3053 
L 1172 1153 
Q 1172 725 1289 603 
Q 1406 481 1766 481 
L 2356 481 
L 2356 0 
L 1766 0 
Q 1100 0 847 248 
Q 594 497 594 1153 
L 594 3053 
L 172 3053 
L 172 3500 
L 594 3500 
L 594 4494 
L 1172 4494 
z
" transform="scale(0.015625)"/>
      <path id="DejaVuSans-72" d="M 2631 2963 
Q 2534 3019 2420 3045 
Q 2306 3072 2169 3072 
Q 1681 3072 1420 2755 
Q 1159 2438 1159 1844 
L 1159 0 
L 581 0 
L 581 3500 
L 1159 3500 
L 1159 2956 
Q 1341 3275 1631 3429 
Q 1922 3584 2338 3584 
Q 2397 3584 2469 3576 
Q 2541 3569 2628 3553 
L 2631 2963 
z
" transform="scale(0.015625)"/>
      <path id="DejaVuSans-62" d="M 3116 1747 
Q 3116 2381 2855 2742 
Q 2594 3103 2138 3103 
Q 1681 3103 1420 2742 
Q 1159 2381 1159 1747 
Q 1159 1113 1420 752 
Q 1681 391 2138 391 
Q 2594 391 2855 752 
Q 3116 1113 3116 1747 
z
M 1159 2969 
Q 1341 3281 1617 3432 
Q 1894 3584 2278 3584 
Q 2916 3584 3314 3078 
Q 3713 2572 3713 1747 
Q 3713 922 3314 415 
Q 2916 -91 2278 -91 
Q 1894 -91 1617 61 
Q 1341 213 1159 525 
L 1159 0 
L 581 0 
L 581 4863 
L 1159 4863 
L 1159 2969 
z
" transform="scale(0.015625)"/>
      <path id="DejaVuSans-75" d="M 544 1381 
L 544 3500 
L 1119 3500 
L 1119 1403 
Q 1119 906 1312 657 
Q 1506 409 1894 409 
Q 2359 409 2629 706 
Q 2900 1003 2900 1516 
L 2900 3500 
L 3475 3500 
L 3475 0 
L 2900 0 
L 2900 538 
Q 2691 219 2414 64 
Q 2138 -91 1772 -91 
Q 1169 -91 856 284 
Q 544 659 544 1381 
z
M 1991 3584 
L 1991 3584 
z
" transform="scale(0.015625)"/>
      <path id="DejaVuSans-6f" d="M 1959 3097 
Q 1497 3097 1228 2736 
Q 959 2375 959 1747 
Q 959 1119 1226 758 
Q 1494 397 1959 397 
Q 2419 397 2687 759 
Q 2956 1122 2956 1747 
Q 2956 2369 2687 2733 
Q 2419 3097 1959 3097 
z
M 1959 3584 
Q 2709 3584 3137 3096 
Q 3566 2609 3566 1747 
Q 3566 888 3137 398 
Q 2709 -91 1959 -91 
Q 1206 -91 779 398 
Q 353 888 353 1747 
Q 353 2609 779 3096 
Q 1206 3584 1959 3584 
z
" transform="scale(0.015625)"/>
      <path id="DejaVuSans-20" transform="scale(0.015625)"/>
      <path id="DejaVuSans-66" d="M 2375 4863 
L 2375 4384 
L 1825 4384 
Q 1516 4384 1395 4259 
Q 1275 4134 1275 3809 
L 1275 3500 
L 2222 3500 
L 2222 3053 
L 1275 3053 
L 1275 0 
L 697 0 
L 697 3053 
L 147 3053 
L 147 3500 
L 697 3500 
L 697 3744 
Q 697 4328 969 4595 
Q 1241 4863 1831 4863 
L 2375 4863 
z
" transform="scale(0.015625)"/>
      <path id="DejaVuSans-68" d="M 3513 2113 
L 3513 0 
L 2938 0 
L 2938 2094 
Q 2938 2591 2744 2837 
Q 2550 3084 2163 3084 
Q 1697 3084 1428 2787 
Q 1159 2491 1159 1978 
L 1159 0 
L 581 0 
L 581 4863 
L 1159 4863 
L 1159 2956 
Q 1366 3272 1645 3428 
Q 1925 3584 2291 3584 
Q 2894 3584 3203 3211 
Q 3513 2838 3513 2113 
z
" transform="scale(0.015625)"/>
      <path id="DejaVuSans-37" d="M 525 4666 
L 3525 4666 
L 3525 4397 
L 1831 0 
L 1172 0 
L 2766 4134 
L 525 4134 
L 525 4666 
z
" transform="scale(0.015625)"/>
      <path id="DejaVuSans-63" d="M 3122 3366 
L 3122 2828 
Q 2878 2963 2633 3030 
Q 2388 3097 2138 3097 
Q 1578 3097 1268 2742 
Q 959 2388 959 1747 
Q 959 1106 1268 751 
Q 1578 397 2138 397 
Q 2388 397 2633 464 
Q 2878 531 3122 666 
L 3122 134 
Q 2881 22 2623 -34 
Q 2366 -91 2075 -91 
Q 1284 -91 818 406 
Q 353 903 353 1747 
Q 353 2603 823 3093 
Q 1294 3584 2113 3584 
Q 2378 3584 2631 3529 
Q 2884 3475 3122 3366 
z
" transform="scale(0.015625)"/>
     </defs>
     <use xlink:href="#DejaVuSans-44"/>
     <use xlink:href="#DejaVuSans-69" x="77.001953"/>
     <use xlink:href="#DejaVuSans-73" x="104.785156"/>
     <use xlink:href="#DejaVuSans-74" x="156.884766"/>
     <use xlink:href="#DejaVuSans-72" x="196.09375"/>
     <use xlink:href="#DejaVuSans-69" x="237.207031"/>
     <use xlink:href="#DejaVuSans-62" x="264.990234"/>
     <use xlink:href="#DejaVuSans-75" x="328.466797"/>
     <use xlink:href="#DejaVuSans-74" x="391.845703"/>
     <use xlink:href="#DejaVuSans-69" x="431.054688"/>
     <use xlink:href="#DejaVuSans-6f" x="458.837891"/>
     <use xlink:href="#DejaVuSans-6e" x="520.019531"/>
     <use xlink:href="#DejaVuSans-20" x="583.398438"/>
     <use xlink:href="#DejaVuSans-6f" x="615.185547"/>
     <use xlink:href="#DejaVuSans-66" x="676.367188"/>
     <use xlink:href="#DejaVuSans-20" x="711.572266"/>
     <use xlink:href="#DejaVuSans-62" x="743.359375"/>
     <use xlink:href="#DejaVuSans-6d" x="806.835938"/>
     <use xlink:href="#DejaVuSans-69" x="904.248047"/>
     <use xlink:href="#DejaVuSans-20" x="932.03125"/>
     <use xlink:href="#DejaVuSans-6f" x="963.818359"/>
     <use xlink:href="#DejaVuSans-66" x="1025"/>
     <use xlink:href="#DejaVuSans-20" x="1060.205078"/>
     <use xlink:href="#DejaVuSans-74" x="1091.992188"/>
     <use xlink:href="#DejaVuSans-68" x="1131.201172"/>
     <use xlink:href="#DejaVuSans-6f" x="1194.580078"/>
     <use xlink:href="#DejaVuSans-73" x="1255.761719"/>
     <use xlink:href="#DejaVuSans-65" x="1307.861328"/>
     <use xlink:href="#DejaVuSans-20" x="1369.384766"/>
     <use xlink:href="#DejaVuSans-73" x="1401.171875"/>
     <use xlink:href="#DejaVuSans-68" x="1453.271484"/>
     <use xlink:href="#DejaVuSans-6f" x="1516.650391"/>
     <use xlink:href="#DejaVuSans-72" x="1577.832031"/>
     <use xlink:href="#DejaVuSans-74" x="1618.945312"/>
     <use xlink:href="#DejaVuSans-65" x="1658.154297"/>
     <use xlink:href="#DejaVuSans-72" x="1719.677734"/>
     <use xlink:href="#DejaVuSans-20" x="1760.791016"/>
     <use xlink:href="#DejaVuSans-74" x="1792.578125"/>
     <use xlink:href="#DejaVuSans-68" x="1831.787109"/>
     <use xlink:href="#DejaVuSans-61" x="1895.166016"/>
     <use xlink:href="#DejaVuSans-6e" x="1956.445312"/>
     <use xlink:href="#DejaVuSans-20" x="2019.824219"/>
     <use xlink:href="#DejaVuSans-31" x="2051.611328"/>
     <use xlink:href="#DejaVuSans-37" x="2115.234375"/>
     <use xlink:href="#DejaVuSans-33" x="2178.857422"/>
     <use xlink:href="#DejaVuSans-63" x="2242.480469"/>
     <use xlink:href="#DejaVuSans-6d" x="2297.460938"/>
    </g>
   </g>
   <g id="legend_1">
    <g id="patch_207">
     <path d="M 574.996875 106.830625 
L 702.2 106.830625 
Q 704.2 106.830625 704.2 104.830625 
L 704.2 32.44 
Q 704.2 30.44 702.2 30.44 
L 574.996875 30.44 
Q 572.996875 30.44 572.996875 32.44 
L 572.996875 104.830625 
Q 572.996875 106.830625 574.996875 106.830625 
z
" style="fill: #ffffff; opacity: 0.8; stroke: #cccccc; stroke-linejoin: miter"/>
    </g>
    <g id="patch_208">
     <path d="M 576.996875 42.038437 
L 596.996875 42.038437 
L 596.996875 35.038437 
L 576.996875 35.038437 
z
" style="fill: #ffa500"/>
    </g>
    <g id="text_17">
     <!-- bmi -->
     <g transform="translate(604.996875 42.038437) scale(0.1 -0.1)">
      <use xlink:href="#DejaVuSans-62"/>
      <use xlink:href="#DejaVuSans-6d" x="63.476562"/>
      <use xlink:href="#DejaVuSans-69" x="160.888672"/>
     </g>
    </g>
    <g id="line2d_19">
     <path d="M 576.996875 53.216563 
L 586.996875 53.216563 
L 596.996875 53.216563 
" style="fill: none; stroke-dasharray: 11.1,4.8; stroke-dashoffset: 0; stroke: #ff0000; stroke-opacity: 0.5; stroke-width: 3"/>
    </g>
    <g id="text_18">
     <!-- normal distribution -->
     <g transform="translate(604.996875 56.716563) scale(0.1 -0.1)">
      <defs>
       <path id="DejaVuSans-6c" d="M 603 4863 
L 1178 4863 
L 1178 0 
L 603 0 
L 603 4863 
z
" transform="scale(0.015625)"/>
       <path id="DejaVuSans-64" d="M 2906 2969 
L 2906 4863 
L 3481 4863 
L 3481 0 
L 2906 0 
L 2906 525 
Q 2725 213 2448 61 
Q 2172 -91 1784 -91 
Q 1150 -91 751 415 
Q 353 922 353 1747 
Q 353 2572 751 3078 
Q 1150 3584 1784 3584 
Q 2172 3584 2448 3432 
Q 2725 3281 2906 2969 
z
M 947 1747 
Q 947 1113 1208 752 
Q 1469 391 1925 391 
Q 2381 391 2643 752 
Q 2906 1113 2906 1747 
Q 2906 2381 2643 2742 
Q 2381 3103 1925 3103 
Q 1469 3103 1208 2742 
Q 947 2381 947 1747 
z
" transform="scale(0.015625)"/>
      </defs>
      <use xlink:href="#DejaVuSans-6e"/>
      <use xlink:href="#DejaVuSans-6f" x="63.378906"/>
      <use xlink:href="#DejaVuSans-72" x="124.560547"/>
      <use xlink:href="#DejaVuSans-6d" x="163.923828"/>
      <use xlink:href="#DejaVuSans-61" x="261.335938"/>
      <use xlink:href="#DejaVuSans-6c" x="322.615234"/>
      <use xlink:href="#DejaVuSans-20" x="350.398438"/>
      <use xlink:href="#DejaVuSans-64" x="382.185547"/>
      <use xlink:href="#DejaVuSans-69" x="445.662109"/>
      <use xlink:href="#DejaVuSans-73" x="473.445312"/>
      <use xlink:href="#DejaVuSans-74" x="525.544922"/>
      <use xlink:href="#DejaVuSans-72" x="564.753906"/>
      <use xlink:href="#DejaVuSans-69" x="605.867188"/>
      <use xlink:href="#DejaVuSans-62" x="633.650391"/>
      <use xlink:href="#DejaVuSans-75" x="697.126953"/>
      <use xlink:href="#DejaVuSans-74" x="760.505859"/>
      <use xlink:href="#DejaVuSans-69" x="799.714844"/>
      <use xlink:href="#DejaVuSans-6f" x="827.498047"/>
      <use xlink:href="#DejaVuSans-6e" x="888.679688"/>
     </g>
    </g>
    <g id="line2d_20">
     <path d="M 576.996875 67.894687 
L 586.996875 67.894687 
L 596.996875 67.894687 
" style="fill: none; stroke-dasharray: 3.7,1.6; stroke-dashoffset: 0; stroke: #ff0000"/>
    </g>
    <g id="text_19">
     <!-- mean -->
     <g transform="translate(604.996875 71.394687) scale(0.1 -0.1)">
      <use xlink:href="#DejaVuSans-6d"/>
      <use xlink:href="#DejaVuSans-65" x="97.412109"/>
      <use xlink:href="#DejaVuSans-61" x="158.935547"/>
      <use xlink:href="#DejaVuSans-6e" x="220.214844"/>
     </g>
    </g>
    <g id="line2d_21">
     <path d="M 576.996875 82.572812 
L 586.996875 82.572812 
L 596.996875 82.572812 
" style="fill: none; stroke-dasharray: 3.7,1.6; stroke-dashoffset: 0; stroke: #4dbf5f"/>
    </g>
    <g id="text_20">
     <!-- alpha=0.050 -->
     <g transform="translate(604.996875 86.072812) scale(0.1 -0.1)">
      <defs>
       <path id="DejaVuSans-70" d="M 1159 525 
L 1159 -1331 
L 581 -1331 
L 581 3500 
L 1159 3500 
L 1159 2969 
Q 1341 3281 1617 3432 
Q 1894 3584 2278 3584 
Q 2916 3584 3314 3078 
Q 3713 2572 3713 1747 
Q 3713 922 3314 415 
Q 2916 -91 2278 -91 
Q 1894 -91 1617 61 
Q 1341 213 1159 525 
z
M 3116 1747 
Q 3116 2381 2855 2742 
Q 2594 3103 2138 3103 
Q 1681 3103 1420 2742 
Q 1159 2381 1159 1747 
Q 1159 1113 1420 752 
Q 1681 391 2138 391 
Q 2594 391 2855 752 
Q 3116 1113 3116 1747 
z
" transform="scale(0.015625)"/>
      </defs>
      <use xlink:href="#DejaVuSans-61"/>
      <use xlink:href="#DejaVuSans-6c" x="61.279297"/>
      <use xlink:href="#DejaVuSans-70" x="89.0625"/>
      <use xlink:href="#DejaVuSans-68" x="152.539062"/>
      <use xlink:href="#DejaVuSans-61" x="215.917969"/>
      <use xlink:href="#DejaVuSans-3d" x="277.197266"/>
      <use xlink:href="#DejaVuSans-30" x="360.986328"/>
      <use xlink:href="#DejaVuSans-2e" x="424.609375"/>
      <use xlink:href="#DejaVuSans-30" x="456.396484"/>
      <use xlink:href="#DejaVuSans-35" x="520.019531"/>
      <use xlink:href="#DejaVuSans-30" x="583.642578"/>
     </g>
    </g>
    <g id="line2d_22">
     <path d="M 576.996875 97.250937 
L 586.996875 97.250937 
L 596.996875 97.250937 
" style="fill: none; stroke-dasharray: 3.7,1.6; stroke-dashoffset: 0; stroke: #5a4dbf"/>
    </g>
    <g id="text_21">
     <!-- alpha=0.950 -->
     <g transform="translate(604.996875 100.750937) scale(0.1 -0.1)">
      <use xlink:href="#DejaVuSans-61"/>
      <use xlink:href="#DejaVuSans-6c" x="61.279297"/>
      <use xlink:href="#DejaVuSans-70" x="89.0625"/>
      <use xlink:href="#DejaVuSans-68" x="152.539062"/>
      <use xlink:href="#DejaVuSans-61" x="215.917969"/>
      <use xlink:href="#DejaVuSans-3d" x="277.197266"/>
      <use xlink:href="#DejaVuSans-30" x="360.986328"/>
      <use xlink:href="#DejaVuSans-2e" x="424.609375"/>
      <use xlink:href="#DejaVuSans-39" x="456.396484"/>
      <use xlink:href="#DejaVuSans-35" x="520.019531"/>
      <use xlink:href="#DejaVuSans-30" x="583.642578"/>
     </g>
    </g>
   </g>
  </g>
 </g>
 <defs>
  <clipPath id="paf7652b54d">
   <rect x="40.12" y="25.44" width="669.08" height="378.68"/>
  </clipPath>
 </defs>
</svg>
