<?xml version="1.0" encoding="utf-8" standalone="no"?>
<!DOCTYPE svg PUBLIC "-//W3C//DTD SVG 1.1//EN"
  "http://www.w3.org/Graphics/SVG/1.1/DTD/svg11.dtd">
<svg xmlns:xlink="http://www.w3.org/1999/xlink" width="720pt" height="432pt" viewBox="0 0 720 432" xmlns="http://www.w3.org/2000/svg" version="1.1">
 <metadata>
  <rdf:RDF xmlns:dc="http://purl.org/dc/elements/1.1/" xmlns:cc="http://creativecommons.org/ns#" xmlns:rdf="http://www.w3.org/1999/02/22-rdf-syntax-ns#">
   <cc:Work>
    <dc:type rdf:resource="http://purl.org/dc/dcmitype/StillImage"/>
    <dc:date>2023-12-30T01:34:11.719768</dc:date>
    <dc:format>image/svg+xml</dc:format>
    <dc:creator>
     <cc:Agent>
      <dc:title>Matplotlib v3.7.1, https://matplotlib.org/</dc:title>
     </cc:Agent>
    </dc:creator>
   </cc:Work>
  </rdf:RDF>
 </metadata>
 <defs>
  <style type="text/css">*{stroke-linejoin: round; stroke-linecap: butt}</style>
 </defs>
 <g id="figure_1">
  <g id="patch_1">
   <path d="M 0 432 
L 720 432 
L 720 0 
L 0 0 
z
" style="fill: #ffffff"/>
  </g>
  <g id="axes_1">
   <g id="patch_2">
    <path d="M 54.2 390.04 
L 709.2 390.04 
L 709.2 25.44 
L 54.2 25.44 
z
" style="fill: #ffffff"/>
   </g>
   <g id="patch_3">
    <path d="M 83.972727 390.04 
L 86.950016 390.04 
L 86.950016 386.701172 
L 83.972727 386.701172 
z
" clip-path="url(#pa09c50c8cd)" style="fill: #ffa500"/>
   </g>
   <g id="patch_4">
    <path d="M 86.950016 390.04 
L 89.927247 390.04 
L 89.927247 390.04 
L 86.950016 390.04 
z
" clip-path="url(#pa09c50c8cd)" style="fill: #ffa500"/>
   </g>
   <g id="patch_5">
    <path d="M 89.927247 390.04 
L 92.904535 390.04 
L 92.904535 390.04 
L 89.927247 390.04 
z
" clip-path="url(#pa09c50c8cd)" style="fill: #ffa500"/>
   </g>
   <g id="patch_6">
    <path d="M 92.904535 390.04 
L 95.881824 390.04 
L 95.881824 390.04 
L 92.904535 390.04 
z
" clip-path="url(#pa09c50c8cd)" style="fill: #ffa500"/>
   </g>
   <g id="patch_7">
    <path d="M 95.881824 390.04 
L 98.859113 390.04 
L 98.859113 390.04 
L 95.881824 390.04 
z
" clip-path="url(#pa09c50c8cd)" style="fill: #ffa500"/>
   </g>
   <g id="patch_8">
    <path d="M 98.859113 390.04 
L 101.836343 390.04 
L 101.836343 390.04 
L 98.859113 390.04 
z
" clip-path="url(#pa09c50c8cd)" style="fill: #ffa500"/>
   </g>
   <g id="patch_9">
    <path d="M 101.836343 390.04 
L 104.813632 390.04 
L 104.813632 390.04 
L 101.836343 390.04 
z
" clip-path="url(#pa09c50c8cd)" style="fill: #ffa500"/>
   </g>
   <g id="patch_10">
    <path d="M 104.813632 390.04 
L 107.790921 390.04 
L 107.790921 390.04 
L 104.813632 390.04 
z
" clip-path="url(#pa09c50c8cd)" style="fill: #ffa500"/>
   </g>
   <g id="patch_11">
    <path d="M 107.790921 390.04 
L 110.768209 390.04 
L 110.768209 390.04 
L 107.790921 390.04 
z
" clip-path="url(#pa09c50c8cd)" style="fill: #ffa500"/>
   </g>
   <g id="patch_12">
    <path d="M 110.768209 390.04 
L 113.74544 390.04 
L 113.74544 390.04 
L 110.768209 390.04 
z
" clip-path="url(#pa09c50c8cd)" style="fill: #ffa500"/>
   </g>
   <g id="patch_13">
    <path d="M 113.74544 390.04 
L 116.722729 390.04 
L 116.722729 390.04 
L 113.74544 390.04 
z
" clip-path="url(#pa09c50c8cd)" style="fill: #ffa500"/>
   </g>
   <g id="patch_14">
    <path d="M 116.722729 390.04 
L 119.700017 390.04 
L 119.700017 386.701172 
L 116.722729 386.701172 
z
" clip-path="url(#pa09c50c8cd)" style="fill: #ffa500"/>
   </g>
   <g id="patch_15">
    <path d="M 119.700017 390.04 
L 122.677248 390.04 
L 122.677248 390.04 
L 119.700017 390.04 
z
" clip-path="url(#pa09c50c8cd)" style="fill: #ffa500"/>
   </g>
   <g id="patch_16">
    <path d="M 122.677248 390.04 
L 125.654537 390.04 
L 125.654537 390.04 
L 122.677248 390.04 
z
" clip-path="url(#pa09c50c8cd)" style="fill: #ffa500"/>
   </g>
   <g id="patch_17">
    <path d="M 125.654537 390.04 
L 128.631825 390.04 
L 128.631825 386.701172 
L 125.654537 386.701172 
z
" clip-path="url(#pa09c50c8cd)" style="fill: #ffa500"/>
   </g>
   <g id="patch_18">
    <path d="M 128.631825 390.04 
L 131.609114 390.04 
L 131.609114 390.04 
L 128.631825 390.04 
z
" clip-path="url(#pa09c50c8cd)" style="fill: #ffa500"/>
   </g>
   <g id="patch_19">
    <path d="M 131.609114 390.04 
L 134.586345 390.04 
L 134.586345 386.701107 
L 131.609114 386.701107 
z
" clip-path="url(#pa09c50c8cd)" style="fill: #ffa500"/>
   </g>
   <g id="patch_20">
    <path d="M 134.586345 390.04 
L 137.563633 390.04 
L 137.563633 390.04 
L 134.586345 390.04 
z
" clip-path="url(#pa09c50c8cd)" style="fill: #ffa500"/>
   </g>
   <g id="patch_21">
    <path d="M 137.563633 390.04 
L 140.540922 390.04 
L 140.540922 386.701172 
L 137.563633 386.701172 
z
" clip-path="url(#pa09c50c8cd)" style="fill: #ffa500"/>
   </g>
   <g id="patch_22">
    <path d="M 140.540922 390.04 
L 143.518211 390.04 
L 143.518211 383.362344 
L 140.540922 383.362344 
z
" clip-path="url(#pa09c50c8cd)" style="fill: #ffa500"/>
   </g>
   <g id="patch_23">
    <path d="M 143.518211 390.04 
L 146.495442 390.04 
L 146.495442 386.701107 
L 143.518211 386.701107 
z
" clip-path="url(#pa09c50c8cd)" style="fill: #ffa500"/>
   </g>
   <g id="patch_24">
    <path d="M 146.495442 390.04 
L 149.47273 390.04 
L 149.47273 386.701172 
L 146.495442 386.701172 
z
" clip-path="url(#pa09c50c8cd)" style="fill: #ffa500"/>
   </g>
   <g id="patch_25">
    <path d="M 149.47273 390.04 
L 152.450019 390.04 
L 152.450019 390.04 
L 149.47273 390.04 
z
" clip-path="url(#pa09c50c8cd)" style="fill: #ffa500"/>
   </g>
   <g id="patch_26">
    <path d="M 152.450019 390.04 
L 155.42725 390.04 
L 155.42725 386.701107 
L 152.450019 386.701107 
z
" clip-path="url(#pa09c50c8cd)" style="fill: #ffa500"/>
   </g>
   <g id="patch_27">
    <path d="M 155.42725 390.04 
L 158.404538 390.04 
L 158.404538 390.04 
L 155.42725 390.04 
z
" clip-path="url(#pa09c50c8cd)" style="fill: #ffa500"/>
   </g>
   <g id="patch_28">
    <path d="M 158.404538 390.04 
L 161.381827 390.04 
L 161.381827 390.04 
L 158.404538 390.04 
z
" clip-path="url(#pa09c50c8cd)" style="fill: #ffa500"/>
   </g>
   <g id="patch_29">
    <path d="M 161.381827 390.04 
L 164.359115 390.04 
L 164.359115 386.701172 
L 161.381827 386.701172 
z
" clip-path="url(#pa09c50c8cd)" style="fill: #ffa500"/>
   </g>
   <g id="patch_30">
    <path d="M 164.359115 390.04 
L 167.336346 390.04 
L 167.336346 386.701107 
L 164.359115 386.701107 
z
" clip-path="url(#pa09c50c8cd)" style="fill: #ffa500"/>
   </g>
   <g id="patch_31">
    <path d="M 167.336346 390.04 
L 170.313635 390.04 
L 170.313635 386.701172 
L 167.336346 386.701172 
z
" clip-path="url(#pa09c50c8cd)" style="fill: #ffa500"/>
   </g>
   <g id="patch_32">
    <path d="M 170.313635 390.04 
L 173.290924 390.04 
L 173.290924 386.701172 
L 170.313635 386.701172 
z
" clip-path="url(#pa09c50c8cd)" style="fill: #ffa500"/>
   </g>
   <g id="patch_33">
    <path d="M 173.290924 390.04 
L 176.268154 390.04 
L 176.268154 383.362215 
L 173.290924 383.362215 
z
" clip-path="url(#pa09c50c8cd)" style="fill: #ffa500"/>
   </g>
   <g id="patch_34">
    <path d="M 176.268154 390.04 
L 179.245443 390.04 
L 179.245443 383.362344 
L 176.268154 383.362344 
z
" clip-path="url(#pa09c50c8cd)" style="fill: #ffa500"/>
   </g>
   <g id="patch_35">
    <path d="M 179.245443 390.04 
L 182.222732 390.04 
L 182.222732 383.362344 
L 179.245443 383.362344 
z
" clip-path="url(#pa09c50c8cd)" style="fill: #ffa500"/>
   </g>
   <g id="patch_36">
    <path d="M 182.222732 390.04 
L 185.20002 390.04 
L 185.20002 386.701172 
L 182.222732 386.701172 
z
" clip-path="url(#pa09c50c8cd)" style="fill: #ffa500"/>
   </g>
   <g id="patch_37">
    <path d="M 185.20002 390.04 
L 188.177251 390.04 
L 188.177251 390.04 
L 185.20002 390.04 
z
" clip-path="url(#pa09c50c8cd)" style="fill: #ffa500"/>
   </g>
   <g id="patch_38">
    <path d="M 188.177251 390.04 
L 191.15454 390.04 
L 191.15454 383.362344 
L 188.177251 383.362344 
z
" clip-path="url(#pa09c50c8cd)" style="fill: #ffa500"/>
   </g>
   <g id="patch_39">
    <path d="M 191.15454 390.04 
L 194.131828 390.04 
L 194.131828 383.362344 
L 191.15454 383.362344 
z
" clip-path="url(#pa09c50c8cd)" style="fill: #ffa500"/>
   </g>
   <g id="patch_40">
    <path d="M 194.131828 390.04 
L 197.109117 390.04 
L 197.109117 376.684689 
L 194.131828 376.684689 
z
" clip-path="url(#pa09c50c8cd)" style="fill: #ffa500"/>
   </g>
   <g id="patch_41">
    <path d="M 197.109117 390.04 
L 200.086348 390.04 
L 200.086348 380.023322 
L 197.109117 380.023322 
z
" clip-path="url(#pa09c50c8cd)" style="fill: #ffa500"/>
   </g>
   <g id="patch_42">
    <path d="M 200.086348 390.04 
L 203.063636 390.04 
L 203.063636 380.023516 
L 200.086348 380.023516 
z
" clip-path="url(#pa09c50c8cd)" style="fill: #ffa500"/>
   </g>
   <g id="patch_43">
    <path d="M 203.063636 390.04 
L 206.040925 390.04 
L 206.040925 376.684689 
L 203.063636 376.684689 
z
" clip-path="url(#pa09c50c8cd)" style="fill: #ffa500"/>
   </g>
   <g id="patch_44">
    <path d="M 206.040925 390.04 
L 209.018156 390.04 
L 209.018156 370.006644 
L 206.040925 370.006644 
z
" clip-path="url(#pa09c50c8cd)" style="fill: #ffa500"/>
   </g>
   <g id="patch_45">
    <path d="M 209.018156 390.04 
L 211.995444 390.04 
L 211.995444 380.023516 
L 209.018156 380.023516 
z
" clip-path="url(#pa09c50c8cd)" style="fill: #ffa500"/>
   </g>
   <g id="patch_46">
    <path d="M 211.995444 390.04 
L 214.972733 390.04 
L 214.972733 373.345861 
L 211.995444 373.345861 
z
" clip-path="url(#pa09c50c8cd)" style="fill: #ffa500"/>
   </g>
   <g id="patch_47">
    <path d="M 214.972733 390.04 
L 217.950022 390.04 
L 217.950022 383.362344 
L 214.972733 383.362344 
z
" clip-path="url(#pa09c50c8cd)" style="fill: #ffa500"/>
   </g>
   <g id="patch_48">
    <path d="M 217.950022 390.04 
L 220.927252 390.04 
L 220.927252 373.345536 
L 217.950022 373.345536 
z
" clip-path="url(#pa09c50c8cd)" style="fill: #ffa500"/>
   </g>
   <g id="patch_49">
    <path d="M 220.927252 390.04 
L 223.904541 390.04 
L 223.904541 366.668205 
L 220.927252 366.668205 
z
" clip-path="url(#pa09c50c8cd)" style="fill: #ffa500"/>
   </g>
   <g id="patch_50">
    <path d="M 223.904541 390.04 
L 226.88183 390.04 
L 226.88183 373.345861 
L 223.904541 373.345861 
z
" clip-path="url(#pa09c50c8cd)" style="fill: #ffa500"/>
   </g>
   <g id="patch_51">
    <path d="M 226.88183 390.04 
L 229.859118 390.04 
L 229.859118 359.990549 
L 226.88183 359.990549 
z
" clip-path="url(#pa09c50c8cd)" style="fill: #ffa500"/>
   </g>
   <g id="patch_52">
    <path d="M 229.859118 390.04 
L 232.836349 390.04 
L 232.836349 370.006644 
L 229.859118 370.006644 
z
" clip-path="url(#pa09c50c8cd)" style="fill: #ffa500"/>
   </g>
   <g id="patch_53">
    <path d="M 232.836349 390.04 
L 235.813638 390.04 
L 235.813638 353.312894 
L 232.836349 353.312894 
z
" clip-path="url(#pa09c50c8cd)" style="fill: #ffa500"/>
   </g>
   <g id="patch_54">
    <path d="M 235.813638 390.04 
L 238.790926 390.04 
L 238.790926 333.279927 
L 235.813638 333.279927 
z
" clip-path="url(#pa09c50c8cd)" style="fill: #ffa500"/>
   </g>
   <g id="patch_55">
    <path d="M 238.790926 390.04 
L 241.768157 390.04 
L 241.768157 359.989966 
L 238.790926 359.989966 
z
" clip-path="url(#pa09c50c8cd)" style="fill: #ffa500"/>
   </g>
   <g id="patch_56">
    <path d="M 241.768157 390.04 
L 244.745446 390.04 
L 244.745446 353.312894 
L 241.768157 353.312894 
z
" clip-path="url(#pa09c50c8cd)" style="fill: #ffa500"/>
   </g>
   <g id="patch_57">
    <path d="M 244.745446 390.04 
L 247.722735 390.04 
L 247.722735 353.312894 
L 244.745446 353.312894 
z
" clip-path="url(#pa09c50c8cd)" style="fill: #ffa500"/>
   </g>
   <g id="patch_58">
    <path d="M 247.722735 390.04 
L 250.700023 390.04 
L 250.700023 343.29641 
L 247.722735 343.29641 
z
" clip-path="url(#pa09c50c8cd)" style="fill: #ffa500"/>
   </g>
   <g id="patch_59">
    <path d="M 250.700023 390.04 
L 253.677254 390.04 
L 253.677254 339.956609 
L 250.700023 339.956609 
z
" clip-path="url(#pa09c50c8cd)" style="fill: #ffa500"/>
   </g>
   <g id="patch_60">
    <path d="M 253.677254 390.04 
L 256.654543 390.04 
L 256.654543 346.635238 
L 253.677254 346.635238 
z
" clip-path="url(#pa09c50c8cd)" style="fill: #ffa500"/>
   </g>
   <g id="patch_61">
    <path d="M 256.654543 390.04 
L 259.631831 390.04 
L 259.631831 329.941099 
L 256.654543 329.941099 
z
" clip-path="url(#pa09c50c8cd)" style="fill: #ffa500"/>
   </g>
   <g id="patch_62">
    <path d="M 259.631831 390.04 
L 262.609062 390.04 
L 262.609062 349.973287 
L 259.631831 349.973287 
z
" clip-path="url(#pa09c50c8cd)" style="fill: #ffa500"/>
   </g>
   <g id="patch_63">
    <path d="M 262.609062 390.04 
L 265.586351 390.04 
L 265.586351 329.941099 
L 262.609062 329.941099 
z
" clip-path="url(#pa09c50c8cd)" style="fill: #ffa500"/>
   </g>
   <g id="patch_64">
    <path d="M 265.586351 390.04 
L 268.563639 390.04 
L 268.563639 319.924615 
L 265.586351 319.924615 
z
" clip-path="url(#pa09c50c8cd)" style="fill: #ffa500"/>
   </g>
   <g id="patch_65">
    <path d="M 268.563639 390.04 
L 271.540928 390.04 
L 271.540928 319.924615 
L 268.563639 319.924615 
z
" clip-path="url(#pa09c50c8cd)" style="fill: #ffa500"/>
   </g>
   <g id="patch_66">
    <path d="M 271.540928 390.04 
L 274.518159 390.04 
L 274.518159 326.601039 
L 271.540928 326.601039 
z
" clip-path="url(#pa09c50c8cd)" style="fill: #ffa500"/>
   </g>
   <g id="patch_67">
    <path d="M 274.518159 390.04 
L 277.495447 390.04 
L 277.495447 316.585788 
L 274.518159 316.585788 
z
" clip-path="url(#pa09c50c8cd)" style="fill: #ffa500"/>
   </g>
   <g id="patch_68">
    <path d="M 277.495447 390.04 
L 280.472736 390.04 
L 280.472736 289.875165 
L 277.495447 289.875165 
z
" clip-path="url(#pa09c50c8cd)" style="fill: #ffa500"/>
   </g>
   <g id="patch_69">
    <path d="M 280.472736 390.04 
L 283.450025 390.04 
L 283.450025 299.891648 
L 280.472736 299.891648 
z
" clip-path="url(#pa09c50c8cd)" style="fill: #ffa500"/>
   </g>
   <g id="patch_70">
    <path d="M 283.450025 390.04 
L 286.427255 390.04 
L 286.427255 266.50097 
L 283.450025 266.50097 
z
" clip-path="url(#pa09c50c8cd)" style="fill: #ffa500"/>
   </g>
   <g id="patch_71">
    <path d="M 286.427255 390.04 
L 289.404544 390.04 
L 289.404544 306.569304 
L 286.427255 306.569304 
z
" clip-path="url(#pa09c50c8cd)" style="fill: #ffa500"/>
   </g>
   <g id="patch_72">
    <path d="M 289.404544 390.04 
L 292.381833 390.04 
L 292.381833 256.486886 
L 289.404544 256.486886 
z
" clip-path="url(#pa09c50c8cd)" style="fill: #ffa500"/>
   </g>
   <g id="patch_73">
    <path d="M 292.381833 390.04 
L 295.359063 390.04 
L 295.359063 303.22879 
L 292.381833 303.22879 
z
" clip-path="url(#pa09c50c8cd)" style="fill: #ffa500"/>
   </g>
   <g id="patch_74">
    <path d="M 295.359063 390.04 
L 298.336352 390.04 
L 298.336352 299.891648 
L 295.359063 299.891648 
z
" clip-path="url(#pa09c50c8cd)" style="fill: #ffa500"/>
   </g>
   <g id="patch_75">
    <path d="M 298.336352 390.04 
L 301.313641 390.04 
L 301.313641 283.197509 
L 298.336352 283.197509 
z
" clip-path="url(#pa09c50c8cd)" style="fill: #ffa500"/>
   </g>
   <g id="patch_76">
    <path d="M 301.313641 390.04 
L 304.290929 390.04 
L 304.290929 263.164542 
L 301.313641 263.164542 
z
" clip-path="url(#pa09c50c8cd)" style="fill: #ffa500"/>
   </g>
   <g id="patch_77">
    <path d="M 304.290929 390.04 
L 307.26816 390.04 
L 307.26816 239.789828 
L 304.290929 239.789828 
z
" clip-path="url(#pa09c50c8cd)" style="fill: #ffa500"/>
   </g>
   <g id="patch_78">
    <path d="M 307.26816 390.04 
L 310.245449 390.04 
L 310.245449 256.486886 
L 307.26816 256.486886 
z
" clip-path="url(#pa09c50c8cd)" style="fill: #ffa500"/>
   </g>
   <g id="patch_79">
    <path d="M 310.245449 390.04 
L 313.222737 390.04 
L 313.222737 216.420952 
L 310.245449 216.420952 
z
" clip-path="url(#pa09c50c8cd)" style="fill: #ffa500"/>
   </g>
   <g id="patch_80">
    <path d="M 313.222737 390.04 
L 316.200026 390.04 
L 316.200026 196.387985 
L 313.222737 196.387985 
z
" clip-path="url(#pa09c50c8cd)" style="fill: #ffa500"/>
   </g>
   <g id="patch_81">
    <path d="M 316.200026 390.04 
L 319.177257 390.04 
L 319.177257 246.467613 
L 316.200026 246.467613 
z
" clip-path="url(#pa09c50c8cd)" style="fill: #ffa500"/>
   </g>
   <g id="patch_82">
    <path d="M 319.177257 390.04 
L 322.154545 390.04 
L 322.154545 243.131575 
L 319.177257 243.131575 
z
" clip-path="url(#pa09c50c8cd)" style="fill: #ffa500"/>
   </g>
   <g id="patch_83">
    <path d="M 322.154545 390.04 
L 325.131834 390.04 
L 325.131834 203.065641 
L 322.154545 203.065641 
z
" clip-path="url(#pa09c50c8cd)" style="fill: #ffa500"/>
   </g>
   <g id="patch_84">
    <path d="M 325.131834 390.04 
L 328.109065 390.04 
L 328.109065 226.434257 
L 325.131834 226.434257 
z
" clip-path="url(#pa09c50c8cd)" style="fill: #ffa500"/>
   </g>
   <g id="patch_85">
    <path d="M 328.109065 390.04 
L 331.086354 390.04 
L 331.086354 189.71033 
L 328.109065 189.71033 
z
" clip-path="url(#pa09c50c8cd)" style="fill: #ffa500"/>
   </g>
   <g id="patch_86">
    <path d="M 331.086354 390.04 
L 334.063642 390.04 
L 334.063642 183.032674 
L 331.086354 183.032674 
z
" clip-path="url(#pa09c50c8cd)" style="fill: #ffa500"/>
   </g>
   <g id="patch_87">
    <path d="M 334.063642 390.04 
L 337.040931 390.04 
L 337.040931 179.693846 
L 334.063642 179.693846 
z
" clip-path="url(#pa09c50c8cd)" style="fill: #ffa500"/>
   </g>
   <g id="patch_88">
    <path d="M 337.040931 390.04 
L 340.018162 390.04 
L 340.018162 216.417579 
L 337.040931 216.417579 
z
" clip-path="url(#pa09c50c8cd)" style="fill: #ffa500"/>
   </g>
   <g id="patch_89">
    <path d="M 340.018162 390.04 
L 342.99545 390.04 
L 342.99545 199.726813 
L 340.018162 199.726813 
z
" clip-path="url(#pa09c50c8cd)" style="fill: #ffa500"/>
   </g>
   <g id="patch_90">
    <path d="M 342.99545 390.04 
L 345.972739 390.04 
L 345.972739 173.01619 
L 342.99545 173.01619 
z
" clip-path="url(#pa09c50c8cd)" style="fill: #ffa500"/>
   </g>
   <g id="patch_91">
    <path d="M 345.972739 390.04 
L 348.950027 390.04 
L 348.950027 156.322051 
L 345.972739 156.322051 
z
" clip-path="url(#pa09c50c8cd)" style="fill: #ffa500"/>
   </g>
   <g id="patch_92">
    <path d="M 348.950027 390.04 
L 351.927258 390.04 
L 351.927258 206.400901 
L 348.950027 206.400901 
z
" clip-path="url(#pa09c50c8cd)" style="fill: #ffa500"/>
   </g>
   <g id="patch_93">
    <path d="M 351.927258 390.04 
L 354.904547 390.04 
L 354.904547 132.950256 
L 351.927258 132.950256 
z
" clip-path="url(#pa09c50c8cd)" style="fill: #ffa500"/>
   </g>
   <g id="patch_94">
    <path d="M 354.904547 390.04 
L 357.881836 390.04 
L 357.881836 142.96674 
L 354.904547 142.96674 
z
" clip-path="url(#pa09c50c8cd)" style="fill: #ffa500"/>
   </g>
   <g id="patch_95">
    <path d="M 357.881836 390.04 
L 360.859066 390.04 
L 360.859066 149.639725 
L 357.881836 149.639725 
z
" clip-path="url(#pa09c50c8cd)" style="fill: #ffa500"/>
   </g>
   <g id="patch_96">
    <path d="M 360.859066 390.04 
L 363.836355 390.04 
L 363.836355 166.338535 
L 360.859066 166.338535 
z
" clip-path="url(#pa09c50c8cd)" style="fill: #ffa500"/>
   </g>
   <g id="patch_97">
    <path d="M 363.836355 390.04 
L 366.813644 390.04 
L 366.813644 179.693846 
L 363.836355 179.693846 
z
" clip-path="url(#pa09c50c8cd)" style="fill: #ffa500"/>
   </g>
   <g id="patch_98">
    <path d="M 366.813644 390.04 
L 369.790932 390.04 
L 369.790932 132.950256 
L 366.813644 132.950256 
z
" clip-path="url(#pa09c50c8cd)" style="fill: #ffa500"/>
   </g>
   <g id="patch_99">
    <path d="M 369.790932 390.04 
L 372.768163 390.04 
L 372.768163 186.367545 
L 369.790932 186.367545 
z
" clip-path="url(#pa09c50c8cd)" style="fill: #ffa500"/>
   </g>
   <g id="patch_100">
    <path d="M 372.768163 390.04 
L 375.745452 390.04 
L 375.745452 119.594945 
L 372.768163 119.594945 
z
" clip-path="url(#pa09c50c8cd)" style="fill: #ffa500"/>
   </g>
   <g id="patch_101">
    <path d="M 375.745452 390.04 
L 378.72274 390.04 
L 378.72274 42.801905 
L 375.745452 42.801905 
z
" clip-path="url(#pa09c50c8cd)" style="fill: #ffa500"/>
   </g>
   <g id="patch_102">
    <path d="M 378.72274 390.04 
L 381.700029 390.04 
L 381.700029 102.900806 
L 378.72274 102.900806 
z
" clip-path="url(#pa09c50c8cd)" style="fill: #ffa500"/>
   </g>
   <g id="patch_103">
    <path d="M 381.700029 390.04 
L 384.67726 390.04 
L 384.67726 106.23412 
L 381.700029 106.23412 
z
" clip-path="url(#pa09c50c8cd)" style="fill: #ffa500"/>
   </g>
   <g id="patch_104">
    <path d="M 384.67726 390.04 
L 387.654548 390.04 
L 387.654548 142.96674 
L 384.67726 142.96674 
z
" clip-path="url(#pa09c50c8cd)" style="fill: #ffa500"/>
   </g>
   <g id="patch_105">
    <path d="M 387.654548 390.04 
L 390.631837 390.04 
L 390.631837 99.561978 
L 387.654548 99.561978 
z
" clip-path="url(#pa09c50c8cd)" style="fill: #ffa500"/>
   </g>
   <g id="patch_106">
    <path d="M 390.631837 390.04 
L 393.609068 390.04 
L 393.609068 89.539656 
L 390.631837 89.539656 
z
" clip-path="url(#pa09c50c8cd)" style="fill: #ffa500"/>
   </g>
   <g id="patch_107">
    <path d="M 393.609068 390.04 
L 396.586356 390.04 
L 396.586356 106.239634 
L 393.609068 106.239634 
z
" clip-path="url(#pa09c50c8cd)" style="fill: #ffa500"/>
   </g>
   <g id="patch_108">
    <path d="M 396.586356 390.04 
L 399.563645 390.04 
L 399.563645 152.983223 
L 396.586356 152.983223 
z
" clip-path="url(#pa09c50c8cd)" style="fill: #ffa500"/>
   </g>
   <g id="patch_109">
    <path d="M 399.563645 390.04 
L 402.540934 390.04 
L 402.540934 89.545495 
L 399.563645 89.545495 
z
" clip-path="url(#pa09c50c8cd)" style="fill: #ffa500"/>
   </g>
   <g id="patch_110">
    <path d="M 402.540934 390.04 
L 405.518164 390.04 
L 405.518164 149.639725 
L 402.540934 149.639725 
z
" clip-path="url(#pa09c50c8cd)" style="fill: #ffa500"/>
   </g>
   <g id="patch_111">
    <path d="M 405.518164 390.04 
L 408.495453 390.04 
L 408.495453 122.933773 
L 405.518164 122.933773 
z
" clip-path="url(#pa09c50c8cd)" style="fill: #ffa500"/>
   </g>
   <g id="patch_112">
    <path d="M 408.495453 390.04 
L 411.472742 390.04 
L 411.472742 139.627912 
L 408.495453 139.627912 
z
" clip-path="url(#pa09c50c8cd)" style="fill: #ffa500"/>
   </g>
   <g id="patch_113">
    <path d="M 411.472742 390.04 
L 414.449973 390.04 
L 414.449973 149.639725 
L 411.472742 149.639725 
z
" clip-path="url(#pa09c50c8cd)" style="fill: #ffa500"/>
   </g>
   <g id="patch_114">
    <path d="M 414.449973 390.04 
L 417.427261 390.04 
L 417.427261 126.272601 
L 414.449973 126.272601 
z
" clip-path="url(#pa09c50c8cd)" style="fill: #ffa500"/>
   </g>
   <g id="patch_115">
    <path d="M 417.427261 390.04 
L 420.40455 390.04 
L 420.40455 152.983223 
L 417.427261 152.983223 
z
" clip-path="url(#pa09c50c8cd)" style="fill: #ffa500"/>
   </g>
   <g id="patch_116">
    <path d="M 420.40455 390.04 
L 423.381838 390.04 
L 423.381838 156.322051 
L 420.40455 156.322051 
z
" clip-path="url(#pa09c50c8cd)" style="fill: #ffa500"/>
   </g>
   <g id="patch_117">
    <path d="M 423.381838 390.04 
L 426.359069 390.04 
L 426.359069 166.334188 
L 423.381838 166.334188 
z
" clip-path="url(#pa09c50c8cd)" style="fill: #ffa500"/>
   </g>
   <g id="patch_118">
    <path d="M 426.359069 390.04 
L 429.336358 390.04 
L 429.336358 156.322051 
L 426.359069 156.322051 
z
" clip-path="url(#pa09c50c8cd)" style="fill: #ffa500"/>
   </g>
   <g id="patch_119">
    <path d="M 429.336358 390.04 
L 432.313646 390.04 
L 432.313646 162.999707 
L 429.336358 162.999707 
z
" clip-path="url(#pa09c50c8cd)" style="fill: #ffa500"/>
   </g>
   <g id="patch_120">
    <path d="M 432.313646 390.04 
L 435.290935 390.04 
L 435.290935 199.726813 
L 432.313646 199.726813 
z
" clip-path="url(#pa09c50c8cd)" style="fill: #ffa500"/>
   </g>
   <g id="patch_121">
    <path d="M 435.290935 390.04 
L 438.268166 390.04 
L 438.268166 142.961939 
L 435.290935 142.961939 
z
" clip-path="url(#pa09c50c8cd)" style="fill: #ffa500"/>
   </g>
   <g id="patch_122">
    <path d="M 438.268166 390.04 
L 441.245455 390.04 
L 441.245455 146.305568 
L 438.268166 146.305568 
z
" clip-path="url(#pa09c50c8cd)" style="fill: #ffa500"/>
   </g>
   <g id="patch_123">
    <path d="M 441.245455 390.04 
L 444.222743 390.04 
L 444.222743 156.322051 
L 441.245455 156.322051 
z
" clip-path="url(#pa09c50c8cd)" style="fill: #ffa500"/>
   </g>
   <g id="patch_124">
    <path d="M 444.222743 390.04 
L 447.199974 390.04 
L 447.199974 156.31751 
L 444.222743 156.31751 
z
" clip-path="url(#pa09c50c8cd)" style="fill: #ffa500"/>
   </g>
   <g id="patch_125">
    <path d="M 447.199974 390.04 
L 450.177263 390.04 
L 450.177263 216.420952 
L 447.199974 216.420952 
z
" clip-path="url(#pa09c50c8cd)" style="fill: #ffa500"/>
   </g>
   <g id="patch_126">
    <path d="M 450.177263 390.04 
L 453.154551 390.04 
L 453.154551 166.338535 
L 450.177263 166.338535 
z
" clip-path="url(#pa09c50c8cd)" style="fill: #ffa500"/>
   </g>
   <g id="patch_127">
    <path d="M 453.154551 390.04 
L 456.13184 390.04 
L 456.13184 183.032674 
L 453.154551 183.032674 
z
" clip-path="url(#pa09c50c8cd)" style="fill: #ffa500"/>
   </g>
   <g id="patch_128">
    <path d="M 456.13184 390.04 
L 459.109071 390.04 
L 459.109071 219.756472 
L 456.13184 219.756472 
z
" clip-path="url(#pa09c50c8cd)" style="fill: #ffa500"/>
   </g>
   <g id="patch_129">
    <path d="M 459.109071 390.04 
L 462.086359 390.04 
L 462.086359 183.032674 
L 459.109071 183.032674 
z
" clip-path="url(#pa09c50c8cd)" style="fill: #ffa500"/>
   </g>
   <g id="patch_130">
    <path d="M 462.086359 390.04 
L 465.063648 390.04 
L 465.063648 243.131575 
L 462.086359 243.131575 
z
" clip-path="url(#pa09c50c8cd)" style="fill: #ffa500"/>
   </g>
   <g id="patch_131">
    <path d="M 465.063648 390.04 
L 468.040937 390.04 
L 468.040937 189.71033 
L 465.063648 189.71033 
z
" clip-path="url(#pa09c50c8cd)" style="fill: #ffa500"/>
   </g>
   <g id="patch_132">
    <path d="M 468.040937 390.04 
L 471.018167 390.04 
L 471.018167 199.723116 
L 468.040937 199.723116 
z
" clip-path="url(#pa09c50c8cd)" style="fill: #ffa500"/>
   </g>
   <g id="patch_133">
    <path d="M 471.018167 390.04 
L 473.995456 390.04 
L 473.995456 233.115092 
L 471.018167 233.115092 
z
" clip-path="url(#pa09c50c8cd)" style="fill: #ffa500"/>
   </g>
   <g id="patch_134">
    <path d="M 473.995456 390.04 
L 476.972745 390.04 
L 476.972745 253.148059 
L 473.995456 253.148059 
z
" clip-path="url(#pa09c50c8cd)" style="fill: #ffa500"/>
   </g>
   <g id="patch_135">
    <path d="M 476.972745 390.04 
L 479.949975 390.04 
L 479.949975 249.806506 
L 476.972745 249.806506 
z
" clip-path="url(#pa09c50c8cd)" style="fill: #ffa500"/>
   </g>
   <g id="patch_136">
    <path d="M 479.949975 390.04 
L 482.927264 390.04 
L 482.927264 259.825714 
L 479.949975 259.825714 
z
" clip-path="url(#pa09c50c8cd)" style="fill: #ffa500"/>
   </g>
   <g id="patch_137">
    <path d="M 482.927264 390.04 
L 485.904553 390.04 
L 485.904553 269.842198 
L 482.927264 269.842198 
z
" clip-path="url(#pa09c50c8cd)" style="fill: #ffa500"/>
   </g>
   <g id="patch_138">
    <path d="M 485.904553 390.04 
L 488.881841 390.04 
L 488.881841 293.213993 
L 485.904553 293.213993 
z
" clip-path="url(#pa09c50c8cd)" style="fill: #ffa500"/>
   </g>
   <g id="patch_139">
    <path d="M 488.881841 390.04 
L 491.859072 390.04 
L 491.859072 259.823184 
L 488.881841 259.823184 
z
" clip-path="url(#pa09c50c8cd)" style="fill: #ffa500"/>
   </g>
   <g id="patch_140">
    <path d="M 491.859072 390.04 
L 494.836361 390.04 
L 494.836361 299.891648 
L 491.859072 299.891648 
z
" clip-path="url(#pa09c50c8cd)" style="fill: #ffa500"/>
   </g>
   <g id="patch_141">
    <path d="M 494.836361 390.04 
L 497.813649 390.04 
L 497.813649 289.875165 
L 494.836361 289.875165 
z
" clip-path="url(#pa09c50c8cd)" style="fill: #ffa500"/>
   </g>
   <g id="patch_142">
    <path d="M 497.813649 390.04 
L 500.79088 390.04 
L 500.79088 296.551004 
L 497.813649 296.551004 
z
" clip-path="url(#pa09c50c8cd)" style="fill: #ffa500"/>
   </g>
   <g id="patch_143">
    <path d="M 500.79088 390.04 
L 503.768169 390.04 
L 503.768169 303.230476 
L 500.79088 303.230476 
z
" clip-path="url(#pa09c50c8cd)" style="fill: #ffa500"/>
   </g>
   <g id="patch_144">
    <path d="M 503.768169 390.04 
L 506.745457 390.04 
L 506.745457 316.585788 
L 503.768169 316.585788 
z
" clip-path="url(#pa09c50c8cd)" style="fill: #ffa500"/>
   </g>
   <g id="patch_145">
    <path d="M 506.745457 390.04 
L 509.722746 390.04 
L 509.722746 323.263443 
L 506.745457 323.263443 
z
" clip-path="url(#pa09c50c8cd)" style="fill: #ffa500"/>
   </g>
   <g id="patch_146">
    <path d="M 509.722746 390.04 
L 512.699977 390.04 
L 512.699977 319.923253 
L 509.722746 319.923253 
z
" clip-path="url(#pa09c50c8cd)" style="fill: #ffa500"/>
   </g>
   <g id="patch_147">
    <path d="M 512.699977 390.04 
L 515.677265 390.04 
L 515.677265 329.941099 
L 512.699977 329.941099 
z
" clip-path="url(#pa09c50c8cd)" style="fill: #ffa500"/>
   </g>
   <g id="patch_148">
    <path d="M 515.677265 390.04 
L 518.654496 390.04 
L 518.654496 343.295502 
L 515.677265 343.295502 
z
" clip-path="url(#pa09c50c8cd)" style="fill: #ffa500"/>
   </g>
   <g id="patch_149">
    <path d="M 518.654496 390.04 
L 521.631785 390.04 
L 521.631785 336.618755 
L 518.654496 336.618755 
z
" clip-path="url(#pa09c50c8cd)" style="fill: #ffa500"/>
   </g>
   <g id="patch_150">
    <path d="M 521.631785 390.04 
L 524.609074 390.04 
L 524.609074 333.279927 
L 521.631785 333.279927 
z
" clip-path="url(#pa09c50c8cd)" style="fill: #ffa500"/>
   </g>
   <g id="patch_151">
    <path d="M 524.609074 390.04 
L 527.586362 390.04 
L 527.586362 356.651722 
L 524.609074 356.651722 
z
" clip-path="url(#pa09c50c8cd)" style="fill: #ffa500"/>
   </g>
   <g id="patch_152">
    <path d="M 527.586362 390.04 
L 530.563651 390.04 
L 530.563651 346.635238 
L 527.586362 346.635238 
z
" clip-path="url(#pa09c50c8cd)" style="fill: #ffa500"/>
   </g>
   <g id="patch_153">
    <path d="M 530.563651 390.04 
L 533.540939 390.04 
L 533.540939 359.990549 
L 530.563651 359.990549 
z
" clip-path="url(#pa09c50c8cd)" style="fill: #ffa500"/>
   </g>
   <g id="patch_154">
    <path d="M 533.540939 390.04 
L 536.518228 390.04 
L 536.518228 370.007033 
L 533.540939 370.007033 
z
" clip-path="url(#pa09c50c8cd)" style="fill: #ffa500"/>
   </g>
   <g id="patch_155">
    <path d="M 536.518228 390.04 
L 539.495401 390.04 
L 539.495401 339.955636 
L 536.518228 339.955636 
z
" clip-path="url(#pa09c50c8cd)" style="fill: #ffa500"/>
   </g>
   <g id="patch_156">
    <path d="M 539.495401 390.04 
L 542.47269 390.04 
L 542.47269 346.635238 
L 539.495401 346.635238 
z
" clip-path="url(#pa09c50c8cd)" style="fill: #ffa500"/>
   </g>
   <g id="patch_157">
    <path d="M 542.47269 390.04 
L 545.449978 390.04 
L 545.449978 356.651722 
L 542.47269 356.651722 
z
" clip-path="url(#pa09c50c8cd)" style="fill: #ffa500"/>
   </g>
   <g id="patch_158">
    <path d="M 545.449978 390.04 
L 548.427267 390.04 
L 548.427267 356.651722 
L 545.449978 356.651722 
z
" clip-path="url(#pa09c50c8cd)" style="fill: #ffa500"/>
   </g>
   <g id="patch_159">
    <path d="M 548.427267 390.04 
L 551.404556 390.04 
L 551.404556 383.362344 
L 548.427267 383.362344 
z
" clip-path="url(#pa09c50c8cd)" style="fill: #ffa500"/>
   </g>
   <g id="patch_160">
    <path d="M 551.404556 390.04 
L 554.381844 390.04 
L 554.381844 363.329377 
L 551.404556 363.329377 
z
" clip-path="url(#pa09c50c8cd)" style="fill: #ffa500"/>
   </g>
   <g id="patch_161">
    <path d="M 554.381844 390.04 
L 557.359133 390.04 
L 557.359133 370.007033 
L 554.381844 370.007033 
z
" clip-path="url(#pa09c50c8cd)" style="fill: #ffa500"/>
   </g>
   <g id="patch_162">
    <path d="M 557.359133 390.04 
L 560.336421 390.04 
L 560.336421 376.684689 
L 557.359133 376.684689 
z
" clip-path="url(#pa09c50c8cd)" style="fill: #ffa500"/>
   </g>
   <g id="patch_163">
    <path d="M 560.336421 390.04 
L 563.313594 390.04 
L 563.313594 383.362085 
L 560.336421 383.362085 
z
" clip-path="url(#pa09c50c8cd)" style="fill: #ffa500"/>
   </g>
   <g id="patch_164">
    <path d="M 563.313594 390.04 
L 566.290883 390.04 
L 566.290883 373.345861 
L 563.313594 373.345861 
z
" clip-path="url(#pa09c50c8cd)" style="fill: #ffa500"/>
   </g>
   <g id="patch_165">
    <path d="M 566.290883 390.04 
L 569.268172 390.04 
L 569.268172 380.023516 
L 566.290883 380.023516 
z
" clip-path="url(#pa09c50c8cd)" style="fill: #ffa500"/>
   </g>
   <g id="patch_166">
    <path d="M 569.268172 390.04 
L 572.24546 390.04 
L 572.24546 380.023516 
L 569.268172 380.023516 
z
" clip-path="url(#pa09c50c8cd)" style="fill: #ffa500"/>
   </g>
   <g id="patch_167">
    <path d="M 572.24546 390.04 
L 575.222749 390.04 
L 575.222749 386.701172 
L 572.24546 386.701172 
z
" clip-path="url(#pa09c50c8cd)" style="fill: #ffa500"/>
   </g>
   <g id="patch_168">
    <path d="M 575.222749 390.04 
L 578.200038 390.04 
L 578.200038 380.023516 
L 575.222749 380.023516 
z
" clip-path="url(#pa09c50c8cd)" style="fill: #ffa500"/>
   </g>
   <g id="patch_169">
    <path d="M 578.200038 390.04 
L 581.177326 390.04 
L 581.177326 376.684689 
L 578.200038 376.684689 
z
" clip-path="url(#pa09c50c8cd)" style="fill: #ffa500"/>
   </g>
   <g id="patch_170">
    <path d="M 581.177326 390.04 
L 584.154499 390.04 
L 584.154499 383.362085 
L 581.177326 383.362085 
z
" clip-path="url(#pa09c50c8cd)" style="fill: #ffa500"/>
   </g>
   <g id="patch_171">
    <path d="M 584.154499 390.04 
L 587.131788 390.04 
L 587.131788 383.362344 
L 584.154499 383.362344 
z
" clip-path="url(#pa09c50c8cd)" style="fill: #ffa500"/>
   </g>
   <g id="patch_172">
    <path d="M 587.131788 390.04 
L 590.109076 390.04 
L 590.109076 380.023516 
L 587.131788 380.023516 
z
" clip-path="url(#pa09c50c8cd)" style="fill: #ffa500"/>
   </g>
   <g id="patch_173">
    <path d="M 590.109076 390.04 
L 593.086365 390.04 
L 593.086365 390.04 
L 590.109076 390.04 
z
" clip-path="url(#pa09c50c8cd)" style="fill: #ffa500"/>
   </g>
   <g id="patch_174">
    <path d="M 593.086365 390.04 
L 596.063654 390.04 
L 596.063654 383.362344 
L 593.086365 383.362344 
z
" clip-path="url(#pa09c50c8cd)" style="fill: #ffa500"/>
   </g>
   <g id="patch_175">
    <path d="M 596.063654 390.04 
L 599.040942 390.04 
L 599.040942 380.023516 
L 596.063654 380.023516 
z
" clip-path="url(#pa09c50c8cd)" style="fill: #ffa500"/>
   </g>
   <g id="patch_176">
    <path d="M 599.040942 390.04 
L 602.018231 390.04 
L 602.018231 390.04 
L 599.040942 390.04 
z
" clip-path="url(#pa09c50c8cd)" style="fill: #ffa500"/>
   </g>
   <g id="patch_177">
    <path d="M 602.018231 390.04 
L 604.995404 390.04 
L 604.995404 390.04 
L 602.018231 390.04 
z
" clip-path="url(#pa09c50c8cd)" style="fill: #ffa500"/>
   </g>
   <g id="patch_178">
    <path d="M 604.995404 390.04 
L 607.972693 390.04 
L 607.972693 390.04 
L 604.995404 390.04 
z
" clip-path="url(#pa09c50c8cd)" style="fill: #ffa500"/>
   </g>
   <g id="patch_179">
    <path d="M 607.972693 390.04 
L 610.949981 390.04 
L 610.949981 390.04 
L 607.972693 390.04 
z
" clip-path="url(#pa09c50c8cd)" style="fill: #ffa500"/>
   </g>
   <g id="patch_180">
    <path d="M 610.949981 390.04 
L 613.92727 390.04 
L 613.92727 383.362344 
L 610.949981 383.362344 
z
" clip-path="url(#pa09c50c8cd)" style="fill: #ffa500"/>
   </g>
   <g id="patch_181">
    <path d="M 613.92727 390.04 
L 616.904558 390.04 
L 616.904558 390.04 
L 613.92727 390.04 
z
" clip-path="url(#pa09c50c8cd)" style="fill: #ffa500"/>
   </g>
   <g id="patch_182">
    <path d="M 616.904558 390.04 
L 619.881847 390.04 
L 619.881847 380.023516 
L 616.904558 380.023516 
z
" clip-path="url(#pa09c50c8cd)" style="fill: #ffa500"/>
   </g>
   <g id="patch_183">
    <path d="M 619.881847 390.04 
L 622.859136 390.04 
L 622.859136 383.362344 
L 619.881847 383.362344 
z
" clip-path="url(#pa09c50c8cd)" style="fill: #ffa500"/>
   </g>
   <g id="patch_184">
    <path d="M 622.859136 390.04 
L 625.836309 390.04 
L 625.836309 386.701042 
L 622.859136 386.701042 
z
" clip-path="url(#pa09c50c8cd)" style="fill: #ffa500"/>
   </g>
   <g id="patch_185">
    <path d="M 625.836309 390.04 
L 628.813597 390.04 
L 628.813597 390.04 
L 625.836309 390.04 
z
" clip-path="url(#pa09c50c8cd)" style="fill: #ffa500"/>
   </g>
   <g id="patch_186">
    <path d="M 628.813597 390.04 
L 631.790886 390.04 
L 631.790886 390.04 
L 628.813597 390.04 
z
" clip-path="url(#pa09c50c8cd)" style="fill: #ffa500"/>
   </g>
   <g id="patch_187">
    <path d="M 631.790886 390.04 
L 634.768175 390.04 
L 634.768175 386.701172 
L 631.790886 386.701172 
z
" clip-path="url(#pa09c50c8cd)" style="fill: #ffa500"/>
   </g>
   <g id="patch_188">
    <path d="M 634.768175 390.04 
L 637.745463 390.04 
L 637.745463 390.04 
L 634.768175 390.04 
z
" clip-path="url(#pa09c50c8cd)" style="fill: #ffa500"/>
   </g>
   <g id="patch_189">
    <path d="M 637.745463 390.04 
L 640.722752 390.04 
L 640.722752 390.04 
L 637.745463 390.04 
z
" clip-path="url(#pa09c50c8cd)" style="fill: #ffa500"/>
   </g>
   <g id="patch_190">
    <path d="M 640.722752 390.04 
L 643.70004 390.04 
L 643.70004 390.04 
L 640.722752 390.04 
z
" clip-path="url(#pa09c50c8cd)" style="fill: #ffa500"/>
   </g>
   <g id="patch_191">
    <path d="M 643.70004 390.04 
L 646.677329 390.04 
L 646.677329 390.04 
L 643.70004 390.04 
z
" clip-path="url(#pa09c50c8cd)" style="fill: #ffa500"/>
   </g>
   <g id="patch_192">
    <path d="M 646.677329 390.04 
L 649.654502 390.04 
L 649.654502 390.04 
L 646.677329 390.04 
z
" clip-path="url(#pa09c50c8cd)" style="fill: #ffa500"/>
   </g>
   <g id="patch_193">
    <path d="M 649.654502 390.04 
L 652.631791 390.04 
L 652.631791 390.04 
L 649.654502 390.04 
z
" clip-path="url(#pa09c50c8cd)" style="fill: #ffa500"/>
   </g>
   <g id="patch_194">
    <path d="M 652.631791 390.04 
L 655.609079 390.04 
L 655.609079 390.04 
L 652.631791 390.04 
z
" clip-path="url(#pa09c50c8cd)" style="fill: #ffa500"/>
   </g>
   <g id="patch_195">
    <path d="M 655.609079 390.04 
L 658.586368 390.04 
L 658.586368 390.04 
L 655.609079 390.04 
z
" clip-path="url(#pa09c50c8cd)" style="fill: #ffa500"/>
   </g>
   <g id="patch_196">
    <path d="M 658.586368 390.04 
L 661.563657 390.04 
L 661.563657 390.04 
L 658.586368 390.04 
z
" clip-path="url(#pa09c50c8cd)" style="fill: #ffa500"/>
   </g>
   <g id="patch_197">
    <path d="M 661.563657 390.04 
L 664.540945 390.04 
L 664.540945 390.04 
L 661.563657 390.04 
z
" clip-path="url(#pa09c50c8cd)" style="fill: #ffa500"/>
   </g>
   <g id="patch_198">
    <path d="M 664.540945 390.04 
L 667.518234 390.04 
L 667.518234 390.04 
L 664.540945 390.04 
z
" clip-path="url(#pa09c50c8cd)" style="fill: #ffa500"/>
   </g>
   <g id="patch_199">
    <path d="M 667.518234 390.04 
L 670.495407 390.04 
L 670.495407 390.04 
L 667.518234 390.04 
z
" clip-path="url(#pa09c50c8cd)" style="fill: #ffa500"/>
   </g>
   <g id="patch_200">
    <path d="M 670.495407 390.04 
L 673.472695 390.04 
L 673.472695 390.04 
L 670.495407 390.04 
z
" clip-path="url(#pa09c50c8cd)" style="fill: #ffa500"/>
   </g>
   <g id="patch_201">
    <path d="M 673.472695 390.04 
L 676.449984 390.04 
L 676.449984 390.04 
L 673.472695 390.04 
z
" clip-path="url(#pa09c50c8cd)" style="fill: #ffa500"/>
   </g>
   <g id="patch_202">
    <path d="M 676.449984 390.04 
L 679.427273 390.04 
L 679.427273 386.701172 
L 676.449984 386.701172 
z
" clip-path="url(#pa09c50c8cd)" style="fill: #ffa500"/>
   </g>
   <g id="matplotlib.axis_1">
    <g id="xtick_1">
     <g id="line2d_1">
      <defs>
       <path id="mc428ae4533" d="M 0 0 
L 0 3.5 
" style="stroke: #000000; stroke-width: 0.8"/>
      </defs>
      <g>
       <use xlink:href="#mc428ae4533" x="78.105901" y="390.04" style="stroke: #000000; stroke-width: 0.8"/>
      </g>
     </g>
     <g id="text_1">
      <!-- 35 -->
      <g transform="translate(71.743401 404.638438) scale(0.1 -0.1)">
       <defs>
        <path id="DejaVuSans-33" d="M 2597 2516 
Q 3050 2419 3304 2112 
Q 3559 1806 3559 1356 
Q 3559 666 3084 287 
Q 2609 -91 1734 -91 
Q 1441 -91 1130 -33 
Q 819 25 488 141 
L 488 750 
Q 750 597 1062 519 
Q 1375 441 1716 441 
Q 2309 441 2620 675 
Q 2931 909 2931 1356 
Q 2931 1769 2642 2001 
Q 2353 2234 1838 2234 
L 1294 2234 
L 1294 2753 
L 1863 2753 
Q 2328 2753 2575 2939 
Q 2822 3125 2822 3475 
Q 2822 3834 2567 4026 
Q 2313 4219 1838 4219 
Q 1578 4219 1281 4162 
Q 984 4106 628 3988 
L 628 4550 
Q 988 4650 1302 4700 
Q 1616 4750 1894 4750 
Q 2613 4750 3031 4423 
Q 3450 4097 3450 3541 
Q 3450 3153 3228 2886 
Q 3006 2619 2597 2516 
z
" transform="scale(0.015625)"/>
        <path id="DejaVuSans-35" d="M 691 4666 
L 3169 4666 
L 3169 4134 
L 1269 4134 
L 1269 2991 
Q 1406 3038 1543 3061 
Q 1681 3084 1819 3084 
Q 2600 3084 3056 2656 
Q 3513 2228 3513 1497 
Q 3513 744 3044 326 
Q 2575 -91 1722 -91 
Q 1428 -91 1123 -41 
Q 819 9 494 109 
L 494 744 
Q 775 591 1075 516 
Q 1375 441 1709 441 
Q 2250 441 2565 725 
Q 2881 1009 2881 1497 
Q 2881 1984 2565 2268 
Q 2250 2553 1709 2553 
Q 1456 2553 1204 2497 
Q 953 2441 691 2322 
L 691 4666 
z
" transform="scale(0.015625)"/>
       </defs>
       <use xlink:href="#DejaVuSans-33"/>
       <use xlink:href="#DejaVuSans-35" x="63.623047"/>
      </g>
     </g>
    </g>
    <g id="xtick_2">
     <g id="line2d_2">
      <g>
       <use xlink:href="#mc428ae4533" x="153.924665" y="390.04" style="stroke: #000000; stroke-width: 0.8"/>
      </g>
     </g>
     <g id="text_2">
      <!-- 40 -->
      <g transform="translate(147.562165 404.638438) scale(0.1 -0.1)">
       <defs>
        <path id="DejaVuSans-34" d="M 2419 4116 
L 825 1625 
L 2419 1625 
L 2419 4116 
z
M 2253 4666 
L 3047 4666 
L 3047 1625 
L 3713 1625 
L 3713 1100 
L 3047 1100 
L 3047 0 
L 2419 0 
L 2419 1100 
L 313 1100 
L 313 1709 
L 2253 4666 
z
" transform="scale(0.015625)"/>
        <path id="DejaVuSans-30" d="M 2034 4250 
Q 1547 4250 1301 3770 
Q 1056 3291 1056 2328 
Q 1056 1369 1301 889 
Q 1547 409 2034 409 
Q 2525 409 2770 889 
Q 3016 1369 3016 2328 
Q 3016 3291 2770 3770 
Q 2525 4250 2034 4250 
z
M 2034 4750 
Q 2819 4750 3233 4129 
Q 3647 3509 3647 2328 
Q 3647 1150 3233 529 
Q 2819 -91 2034 -91 
Q 1250 -91 836 529 
Q 422 1150 422 2328 
Q 422 3509 836 4129 
Q 1250 4750 2034 4750 
z
" transform="scale(0.015625)"/>
       </defs>
       <use xlink:href="#DejaVuSans-34"/>
       <use xlink:href="#DejaVuSans-30" x="63.623047"/>
      </g>
     </g>
    </g>
    <g id="xtick_3">
     <g id="line2d_3">
      <g>
       <use xlink:href="#mc428ae4533" x="229.743428" y="390.04" style="stroke: #000000; stroke-width: 0.8"/>
      </g>
     </g>
     <g id="text_3">
      <!-- 45 -->
      <g transform="translate(223.380928 404.638438) scale(0.1 -0.1)">
       <use xlink:href="#DejaVuSans-34"/>
       <use xlink:href="#DejaVuSans-35" x="63.623047"/>
      </g>
     </g>
    </g>
    <g id="xtick_4">
     <g id="line2d_4">
      <g>
       <use xlink:href="#mc428ae4533" x="305.562192" y="390.04" style="stroke: #000000; stroke-width: 0.8"/>
      </g>
     </g>
     <g id="text_4">
      <!-- 50 -->
      <g transform="translate(299.199692 404.638438) scale(0.1 -0.1)">
       <use xlink:href="#DejaVuSans-35"/>
       <use xlink:href="#DejaVuSans-30" x="63.623047"/>
      </g>
     </g>
    </g>
    <g id="xtick_5">
     <g id="line2d_5">
      <g>
       <use xlink:href="#mc428ae4533" x="381.380955" y="390.04" style="stroke: #000000; stroke-width: 0.8"/>
      </g>
     </g>
     <g id="text_5">
      <!-- 55 -->
      <g transform="translate(375.018455 404.638438) scale(0.1 -0.1)">
       <use xlink:href="#DejaVuSans-35"/>
       <use xlink:href="#DejaVuSans-35" x="63.623047"/>
      </g>
     </g>
    </g>
    <g id="xtick_6">
     <g id="line2d_6">
      <g>
       <use xlink:href="#mc428ae4533" x="457.199719" y="390.04" style="stroke: #000000; stroke-width: 0.8"/>
      </g>
     </g>
     <g id="text_6">
      <!-- 60 -->
      <g transform="translate(450.837219 404.638438) scale(0.1 -0.1)">
       <defs>
        <path id="DejaVuSans-36" d="M 2113 2584 
Q 1688 2584 1439 2293 
Q 1191 2003 1191 1497 
Q 1191 994 1439 701 
Q 1688 409 2113 409 
Q 2538 409 2786 701 
Q 3034 994 3034 1497 
Q 3034 2003 2786 2293 
Q 2538 2584 2113 2584 
z
M 3366 4563 
L 3366 3988 
Q 3128 4100 2886 4159 
Q 2644 4219 2406 4219 
Q 1781 4219 1451 3797 
Q 1122 3375 1075 2522 
Q 1259 2794 1537 2939 
Q 1816 3084 2150 3084 
Q 2853 3084 3261 2657 
Q 3669 2231 3669 1497 
Q 3669 778 3244 343 
Q 2819 -91 2113 -91 
Q 1303 -91 875 529 
Q 447 1150 447 2328 
Q 447 3434 972 4092 
Q 1497 4750 2381 4750 
Q 2619 4750 2861 4703 
Q 3103 4656 3366 4563 
z
" transform="scale(0.015625)"/>
       </defs>
       <use xlink:href="#DejaVuSans-36"/>
       <use xlink:href="#DejaVuSans-30" x="63.623047"/>
      </g>
     </g>
    </g>
    <g id="xtick_7">
     <g id="line2d_7">
      <g>
       <use xlink:href="#mc428ae4533" x="533.018482" y="390.04" style="stroke: #000000; stroke-width: 0.8"/>
      </g>
     </g>
     <g id="text_7">
      <!-- 65 -->
      <g transform="translate(526.655982 404.638438) scale(0.1 -0.1)">
       <use xlink:href="#DejaVuSans-36"/>
       <use xlink:href="#DejaVuSans-35" x="63.623047"/>
      </g>
     </g>
    </g>
    <g id="xtick_8">
     <g id="line2d_8">
      <g>
       <use xlink:href="#mc428ae4533" x="608.837246" y="390.04" style="stroke: #000000; stroke-width: 0.8"/>
      </g>
     </g>
     <g id="text_8">
      <!-- 70 -->
      <g transform="translate(602.474746 404.638438) scale(0.1 -0.1)">
       <defs>
        <path id="DejaVuSans-37" d="M 525 4666 
L 3525 4666 
L 3525 4397 
L 1831 0 
L 1172 0 
L 2766 4134 
L 525 4134 
L 525 4666 
z
" transform="scale(0.015625)"/>
       </defs>
       <use xlink:href="#DejaVuSans-37"/>
       <use xlink:href="#DejaVuSans-30" x="63.623047"/>
      </g>
     </g>
    </g>
    <g id="xtick_9">
     <g id="line2d_9">
      <g>
       <use xlink:href="#mc428ae4533" x="684.656009" y="390.04" style="stroke: #000000; stroke-width: 0.8"/>
      </g>
     </g>
     <g id="text_9">
      <!-- 75 -->
      <g transform="translate(678.293509 404.638438) scale(0.1 -0.1)">
       <use xlink:href="#DejaVuSans-37"/>
       <use xlink:href="#DejaVuSans-35" x="63.623047"/>
      </g>
     </g>
    </g>
    <g id="text_10">
     <!-- Weight(kg) -->
     <g transform="translate(354.310156 418.316562) scale(0.1 -0.1)">
      <defs>
       <path id="DejaVuSans-57" d="M 213 4666 
L 850 4666 
L 1831 722 
L 2809 4666 
L 3519 4666 
L 4500 722 
L 5478 4666 
L 6119 4666 
L 4947 0 
L 4153 0 
L 3169 4050 
L 2175 0 
L 1381 0 
L 213 4666 
z
" transform="scale(0.015625)"/>
       <path id="DejaVuSans-65" d="M 3597 1894 
L 3597 1613 
L 953 1613 
Q 991 1019 1311 708 
Q 1631 397 2203 397 
Q 2534 397 2845 478 
Q 3156 559 3463 722 
L 3463 178 
Q 3153 47 2828 -22 
Q 2503 -91 2169 -91 
Q 1331 -91 842 396 
Q 353 884 353 1716 
Q 353 2575 817 3079 
Q 1281 3584 2069 3584 
Q 2775 3584 3186 3129 
Q 3597 2675 3597 1894 
z
M 3022 2063 
Q 3016 2534 2758 2815 
Q 2500 3097 2075 3097 
Q 1594 3097 1305 2825 
Q 1016 2553 972 2059 
L 3022 2063 
z
" transform="scale(0.015625)"/>
       <path id="DejaVuSans-69" d="M 603 3500 
L 1178 3500 
L 1178 0 
L 603 0 
L 603 3500 
z
M 603 4863 
L 1178 4863 
L 1178 4134 
L 603 4134 
L 603 4863 
z
" transform="scale(0.015625)"/>
       <path id="DejaVuSans-67" d="M 2906 1791 
Q 2906 2416 2648 2759 
Q 2391 3103 1925 3103 
Q 1463 3103 1205 2759 
Q 947 2416 947 1791 
Q 947 1169 1205 825 
Q 1463 481 1925 481 
Q 2391 481 2648 825 
Q 2906 1169 2906 1791 
z
M 3481 434 
Q 3481 -459 3084 -895 
Q 2688 -1331 1869 -1331 
Q 1566 -1331 1297 -1286 
Q 1028 -1241 775 -1147 
L 775 -588 
Q 1028 -725 1275 -790 
Q 1522 -856 1778 -856 
Q 2344 -856 2625 -561 
Q 2906 -266 2906 331 
L 2906 616 
Q 2728 306 2450 153 
Q 2172 0 1784 0 
Q 1141 0 747 490 
Q 353 981 353 1791 
Q 353 2603 747 3093 
Q 1141 3584 1784 3584 
Q 2172 3584 2450 3431 
Q 2728 3278 2906 2969 
L 2906 3500 
L 3481 3500 
L 3481 434 
z
" transform="scale(0.015625)"/>
       <path id="DejaVuSans-68" d="M 3513 2113 
L 3513 0 
L 2938 0 
L 2938 2094 
Q 2938 2591 2744 2837 
Q 2550 3084 2163 3084 
Q 1697 3084 1428 2787 
Q 1159 2491 1159 1978 
L 1159 0 
L 581 0 
L 581 4863 
L 1159 4863 
L 1159 2956 
Q 1366 3272 1645 3428 
Q 1925 3584 2291 3584 
Q 2894 3584 3203 3211 
Q 3513 2838 3513 2113 
z
" transform="scale(0.015625)"/>
       <path id="DejaVuSans-74" d="M 1172 4494 
L 1172 3500 
L 2356 3500 
L 2356 3053 
L 1172 3053 
L 1172 1153 
Q 1172 725 1289 603 
Q 1406 481 1766 481 
L 2356 481 
L 2356 0 
L 1766 0 
Q 1100 0 847 248 
Q 594 497 594 1153 
L 594 3053 
L 172 3053 
L 172 3500 
L 594 3500 
L 594 4494 
L 1172 4494 
z
" transform="scale(0.015625)"/>
       <path id="DejaVuSans-28" d="M 1984 4856 
Q 1566 4138 1362 3434 
Q 1159 2731 1159 2009 
Q 1159 1288 1364 580 
Q 1569 -128 1984 -844 
L 1484 -844 
Q 1016 -109 783 600 
Q 550 1309 550 2009 
Q 550 2706 781 3412 
Q 1013 4119 1484 4856 
L 1984 4856 
z
" transform="scale(0.015625)"/>
       <path id="DejaVuSans-6b" d="M 581 4863 
L 1159 4863 
L 1159 1991 
L 2875 3500 
L 3609 3500 
L 1753 1863 
L 3688 0 
L 2938 0 
L 1159 1709 
L 1159 0 
L 581 0 
L 581 4863 
z
" transform="scale(0.015625)"/>
       <path id="DejaVuSans-29" d="M 513 4856 
L 1013 4856 
Q 1481 4119 1714 3412 
Q 1947 2706 1947 2009 
Q 1947 1309 1714 600 
Q 1481 -109 1013 -844 
L 513 -844 
Q 928 -128 1133 580 
Q 1338 1288 1338 2009 
Q 1338 2731 1133 3434 
Q 928 4138 513 4856 
z
" transform="scale(0.015625)"/>
      </defs>
      <use xlink:href="#DejaVuSans-57"/>
      <use xlink:href="#DejaVuSans-65" x="93.001953"/>
      <use xlink:href="#DejaVuSans-69" x="154.525391"/>
      <use xlink:href="#DejaVuSans-67" x="182.308594"/>
      <use xlink:href="#DejaVuSans-68" x="245.785156"/>
      <use xlink:href="#DejaVuSans-74" x="309.164062"/>
      <use xlink:href="#DejaVuSans-28" x="348.373047"/>
      <use xlink:href="#DejaVuSans-6b" x="387.386719"/>
      <use xlink:href="#DejaVuSans-67" x="445.296875"/>
      <use xlink:href="#DejaVuSans-29" x="508.773438"/>
     </g>
    </g>
   </g>
   <g id="matplotlib.axis_2">
    <g id="ytick_1">
     <g id="line2d_10">
      <defs>
       <path id="m5160b74aaa" d="M 0 0 
L -3.5 0 
" style="stroke: #000000; stroke-width: 0.8"/>
      </defs>
      <g>
       <use xlink:href="#m5160b74aaa" x="54.2" y="390.04" style="stroke: #000000; stroke-width: 0.8"/>
      </g>
     </g>
     <g id="text_11">
      <!-- 0.00 -->
      <g transform="translate(24.934375 393.839219) scale(0.1 -0.1)">
       <defs>
        <path id="DejaVuSans-2e" d="M 684 794 
L 1344 794 
L 1344 0 
L 684 0 
L 684 794 
z
" transform="scale(0.015625)"/>
       </defs>
       <use xlink:href="#DejaVuSans-30"/>
       <use xlink:href="#DejaVuSans-2e" x="63.623047"/>
       <use xlink:href="#DejaVuSans-30" x="95.410156"/>
       <use xlink:href="#DejaVuSans-30" x="159.033203"/>
      </g>
     </g>
    </g>
    <g id="ytick_2">
     <g id="line2d_11">
      <g>
       <use xlink:href="#m5160b74aaa" x="54.2" y="324.48463" style="stroke: #000000; stroke-width: 0.8"/>
      </g>
     </g>
     <g id="text_12">
      <!-- 0.02 -->
      <g transform="translate(24.934375 328.283849) scale(0.1 -0.1)">
       <defs>
        <path id="DejaVuSans-32" d="M 1228 531 
L 3431 531 
L 3431 0 
L 469 0 
L 469 531 
Q 828 903 1448 1529 
Q 2069 2156 2228 2338 
Q 2531 2678 2651 2914 
Q 2772 3150 2772 3378 
Q 2772 3750 2511 3984 
Q 2250 4219 1831 4219 
Q 1534 4219 1204 4116 
Q 875 4013 500 3803 
L 500 4441 
Q 881 4594 1212 4672 
Q 1544 4750 1819 4750 
Q 2544 4750 2975 4387 
Q 3406 4025 3406 3419 
Q 3406 3131 3298 2873 
Q 3191 2616 2906 2266 
Q 2828 2175 2409 1742 
Q 1991 1309 1228 531 
z
" transform="scale(0.015625)"/>
       </defs>
       <use xlink:href="#DejaVuSans-30"/>
       <use xlink:href="#DejaVuSans-2e" x="63.623047"/>
       <use xlink:href="#DejaVuSans-30" x="95.410156"/>
       <use xlink:href="#DejaVuSans-32" x="159.033203"/>
      </g>
     </g>
    </g>
    <g id="ytick_3">
     <g id="line2d_12">
      <g>
       <use xlink:href="#m5160b74aaa" x="54.2" y="258.92926" style="stroke: #000000; stroke-width: 0.8"/>
      </g>
     </g>
     <g id="text_13">
      <!-- 0.04 -->
      <g transform="translate(24.934375 262.728479) scale(0.1 -0.1)">
       <use xlink:href="#DejaVuSans-30"/>
       <use xlink:href="#DejaVuSans-2e" x="63.623047"/>
       <use xlink:href="#DejaVuSans-30" x="95.410156"/>
       <use xlink:href="#DejaVuSans-34" x="159.033203"/>
      </g>
     </g>
    </g>
    <g id="ytick_4">
     <g id="line2d_13">
      <g>
       <use xlink:href="#m5160b74aaa" x="54.2" y="193.37389" style="stroke: #000000; stroke-width: 0.8"/>
      </g>
     </g>
     <g id="text_14">
      <!-- 0.06 -->
      <g transform="translate(24.934375 197.173109) scale(0.1 -0.1)">
       <use xlink:href="#DejaVuSans-30"/>
       <use xlink:href="#DejaVuSans-2e" x="63.623047"/>
       <use xlink:href="#DejaVuSans-30" x="95.410156"/>
       <use xlink:href="#DejaVuSans-36" x="159.033203"/>
      </g>
     </g>
    </g>
    <g id="ytick_5">
     <g id="line2d_14">
      <g>
       <use xlink:href="#m5160b74aaa" x="54.2" y="127.81852" style="stroke: #000000; stroke-width: 0.8"/>
      </g>
     </g>
     <g id="text_15">
      <!-- 0.08 -->
      <g transform="translate(24.934375 131.617739) scale(0.1 -0.1)">
       <defs>
        <path id="DejaVuSans-38" d="M 2034 2216 
Q 1584 2216 1326 1975 
Q 1069 1734 1069 1313 
Q 1069 891 1326 650 
Q 1584 409 2034 409 
Q 2484 409 2743 651 
Q 3003 894 3003 1313 
Q 3003 1734 2745 1975 
Q 2488 2216 2034 2216 
z
M 1403 2484 
Q 997 2584 770 2862 
Q 544 3141 544 3541 
Q 544 4100 942 4425 
Q 1341 4750 2034 4750 
Q 2731 4750 3128 4425 
Q 3525 4100 3525 3541 
Q 3525 3141 3298 2862 
Q 3072 2584 2669 2484 
Q 3125 2378 3379 2068 
Q 3634 1759 3634 1313 
Q 3634 634 3220 271 
Q 2806 -91 2034 -91 
Q 1263 -91 848 271 
Q 434 634 434 1313 
Q 434 1759 690 2068 
Q 947 2378 1403 2484 
z
M 1172 3481 
Q 1172 3119 1398 2916 
Q 1625 2713 2034 2713 
Q 2441 2713 2670 2916 
Q 2900 3119 2900 3481 
Q 2900 3844 2670 4047 
Q 2441 4250 2034 4250 
Q 1625 4250 1398 4047 
Q 1172 3844 1172 3481 
z
" transform="scale(0.015625)"/>
       </defs>
       <use xlink:href="#DejaVuSans-30"/>
       <use xlink:href="#DejaVuSans-2e" x="63.623047"/>
       <use xlink:href="#DejaVuSans-30" x="95.410156"/>
       <use xlink:href="#DejaVuSans-38" x="159.033203"/>
      </g>
     </g>
    </g>
    <g id="ytick_6">
     <g id="line2d_15">
      <g>
       <use xlink:href="#m5160b74aaa" x="54.2" y="62.263151" style="stroke: #000000; stroke-width: 0.8"/>
      </g>
     </g>
     <g id="text_16">
      <!-- 0.10 -->
      <g transform="translate(24.934375 66.062369) scale(0.1 -0.1)">
       <defs>
        <path id="DejaVuSans-31" d="M 794 531 
L 1825 531 
L 1825 4091 
L 703 3866 
L 703 4441 
L 1819 4666 
L 2450 4666 
L 2450 531 
L 3481 531 
L 3481 0 
L 794 0 
L 794 531 
z
" transform="scale(0.015625)"/>
       </defs>
       <use xlink:href="#DejaVuSans-30"/>
       <use xlink:href="#DejaVuSans-2e" x="63.623047"/>
       <use xlink:href="#DejaVuSans-31" x="95.410156"/>
       <use xlink:href="#DejaVuSans-30" x="159.033203"/>
      </g>
     </g>
    </g>
    <g id="text_17">
     <!-- Frequency -->
     <g transform="translate(18.854688 233.569688) rotate(-90) scale(0.1 -0.1)">
      <defs>
       <path id="DejaVuSans-46" d="M 628 4666 
L 3309 4666 
L 3309 4134 
L 1259 4134 
L 1259 2759 
L 3109 2759 
L 3109 2228 
L 1259 2228 
L 1259 0 
L 628 0 
L 628 4666 
z
" transform="scale(0.015625)"/>
       <path id="DejaVuSans-72" d="M 2631 2963 
Q 2534 3019 2420 3045 
Q 2306 3072 2169 3072 
Q 1681 3072 1420 2755 
Q 1159 2438 1159 1844 
L 1159 0 
L 581 0 
L 581 3500 
L 1159 3500 
L 1159 2956 
Q 1341 3275 1631 3429 
Q 1922 3584 2338 3584 
Q 2397 3584 2469 3576 
Q 2541 3569 2628 3553 
L 2631 2963 
z
" transform="scale(0.015625)"/>
       <path id="DejaVuSans-71" d="M 947 1747 
Q 947 1113 1208 752 
Q 1469 391 1925 391 
Q 2381 391 2643 752 
Q 2906 1113 2906 1747 
Q 2906 2381 2643 2742 
Q 2381 3103 1925 3103 
Q 1469 3103 1208 2742 
Q 947 2381 947 1747 
z
M 2906 525 
Q 2725 213 2448 61 
Q 2172 -91 1784 -91 
Q 1150 -91 751 415 
Q 353 922 353 1747 
Q 353 2572 751 3078 
Q 1150 3584 1784 3584 
Q 2172 3584 2448 3432 
Q 2725 3281 2906 2969 
L 2906 3500 
L 3481 3500 
L 3481 -1331 
L 2906 -1331 
L 2906 525 
z
" transform="scale(0.015625)"/>
       <path id="DejaVuSans-75" d="M 544 1381 
L 544 3500 
L 1119 3500 
L 1119 1403 
Q 1119 906 1312 657 
Q 1506 409 1894 409 
Q 2359 409 2629 706 
Q 2900 1003 2900 1516 
L 2900 3500 
L 3475 3500 
L 3475 0 
L 2900 0 
L 2900 538 
Q 2691 219 2414 64 
Q 2138 -91 1772 -91 
Q 1169 -91 856 284 
Q 544 659 544 1381 
z
M 1991 3584 
L 1991 3584 
z
" transform="scale(0.015625)"/>
       <path id="DejaVuSans-6e" d="M 3513 2113 
L 3513 0 
L 2938 0 
L 2938 2094 
Q 2938 2591 2744 2837 
Q 2550 3084 2163 3084 
Q 1697 3084 1428 2787 
Q 1159 2491 1159 1978 
L 1159 0 
L 581 0 
L 581 3500 
L 1159 3500 
L 1159 2956 
Q 1366 3272 1645 3428 
Q 1925 3584 2291 3584 
Q 2894 3584 3203 3211 
Q 3513 2838 3513 2113 
z
" transform="scale(0.015625)"/>
       <path id="DejaVuSans-63" d="M 3122 3366 
L 3122 2828 
Q 2878 2963 2633 3030 
Q 2388 3097 2138 3097 
Q 1578 3097 1268 2742 
Q 959 2388 959 1747 
Q 959 1106 1268 751 
Q 1578 397 2138 397 
Q 2388 397 2633 464 
Q 2878 531 3122 666 
L 3122 134 
Q 2881 22 2623 -34 
Q 2366 -91 2075 -91 
Q 1284 -91 818 406 
Q 353 903 353 1747 
Q 353 2603 823 3093 
Q 1294 3584 2113 3584 
Q 2378 3584 2631 3529 
Q 2884 3475 3122 3366 
z
" transform="scale(0.015625)"/>
       <path id="DejaVuSans-79" d="M 2059 -325 
Q 1816 -950 1584 -1140 
Q 1353 -1331 966 -1331 
L 506 -1331 
L 506 -850 
L 844 -850 
Q 1081 -850 1212 -737 
Q 1344 -625 1503 -206 
L 1606 56 
L 191 3500 
L 800 3500 
L 1894 763 
L 2988 3500 
L 3597 3500 
L 2059 -325 
z
" transform="scale(0.015625)"/>
      </defs>
      <use xlink:href="#DejaVuSans-46"/>
      <use xlink:href="#DejaVuSans-72" x="50.269531"/>
      <use xlink:href="#DejaVuSans-65" x="89.132812"/>
      <use xlink:href="#DejaVuSans-71" x="150.65625"/>
      <use xlink:href="#DejaVuSans-75" x="214.132812"/>
      <use xlink:href="#DejaVuSans-65" x="277.511719"/>
      <use xlink:href="#DejaVuSans-6e" x="339.035156"/>
      <use xlink:href="#DejaVuSans-63" x="402.414062"/>
      <use xlink:href="#DejaVuSans-79" x="457.394531"/>
     </g>
    </g>
   </g>
   <g id="line2d_16">
    <path d="M 83.972727 389.992743 
L 113.775257 389.805771 
L 131.060724 389.490116 
L 143.577787 389.054332 
L 153.710647 388.492156 
L 162.651406 387.770966 
L 170.400064 386.916574 
L 176.95662 385.981968 
L 182.917126 384.92696 
L 188.877632 383.639715 
L 194.242088 382.250022 
L 199.010492 380.804558 
L 203.778897 379.136667 
L 208.547302 377.221387 
L 212.719656 375.322139 
L 216.89201 373.195619 
L 221.064364 370.823598 
L 225.236719 368.187769 
L 229.409073 365.269992 
L 233.581427 362.052559 
L 237.753781 358.518497 
L 241.926135 354.651895 
L 246.098489 350.43825 
L 250.270844 345.864841 
L 254.443198 340.921111 
L 258.615552 335.599059 
L 262.787906 329.893635 
L 266.96026 323.803127 
L 271.132614 317.329533 
L 275.304969 310.478911 
L 280.073373 302.201553 
L 284.841778 293.468558 
L 290.206234 283.138696 
L 295.570689 272.329816 
L 302.127245 258.574142 
L 309.875903 241.75299 
L 332.525826 192.162032 
L 338.486332 179.882361 
L 343.254737 170.549345 
L 347.427091 162.82595 
L 351.599445 155.584186 
L 355.175748 149.80775 
L 358.752052 144.468511 
L 361.732305 140.378542 
L 364.712558 136.635582 
L 367.692811 133.25717 
L 370.673064 130.259291 
L 373.057266 128.144643 
L 375.441469 126.289231 
L 377.825671 124.698788 
L 380.209874 123.378255 
L 382.594076 122.331745 
L 384.978278 121.562531 
L 387.362481 121.073022 
L 389.746683 120.864754 
L 392.130885 120.938381 
L 394.515088 121.293673 
L 396.89929 121.929513 
L 399.283493 122.843908 
L 401.667695 124.033996 
L 404.051897 125.496063 
L 406.4361 127.225561 
L 408.820302 129.217131 
L 411.204505 131.464633 
L 414.184757 134.623347 
L 417.16501 138.156111 
L 420.145263 142.046277 
L 423.125516 146.275697 
L 426.70182 151.771272 
L 430.278124 157.691262 
L 434.450478 165.083438 
L 438.622832 172.938069 
L 443.391237 182.396856 
L 448.755692 193.533034 
L 455.908299 208.957874 
L 471.405615 243.178895 
L 479.750323 261.226396 
L 486.30688 274.877963 
L 491.671335 285.581528 
L 497.03579 295.791436 
L 501.804195 304.408129 
L 506.5726 312.56238 
L 511.341005 320.233276 
L 515.513359 326.538312 
L 519.685713 332.4589 
L 523.858067 337.994724 
L 528.030421 343.149016 
L 532.202776 347.928176 
L 536.37513 352.341381 
L 540.547484 356.400193 
L 544.719838 360.118165 
L 548.892192 363.510466 
L 553.064546 366.593517 
L 557.236901 369.384655 
L 561.409255 371.901813 
L 565.581609 374.163236 
L 569.753963 376.187226 
L 574.522368 378.232861 
L 579.290773 380.0185 
L 584.059177 381.569658 
L 589.423633 383.064668 
L 594.788088 384.326193 
L 600.748594 385.490556 
L 607.305151 386.525933 
L 614.457758 387.412502 
L 622.206416 388.142718 
L 631.147174 388.75473 
L 641.876085 389.250078 
L 654.989198 389.616667 
L 672.274666 389.862762 
L 679.427273 389.918355 
L 679.427273 389.918355 
" clip-path="url(#pa09c50c8cd)" style="fill: none; stroke-dasharray: 11.1,4.8; stroke-dashoffset: 0; stroke: #ff0000; stroke-opacity: 0.5; stroke-width: 3"/>
   </g>
   <g id="line2d_17">
    <path d="M 390.316176 390.04 
L 390.316176 25.44 
" clip-path="url(#pa09c50c8cd)" style="fill: none; stroke-dasharray: 3.7,1.6; stroke-dashoffset: 0; stroke: #ff0000"/>
   </g>
   <g id="line2d_18">
    <path d="M 507.597155 390.04 
L 507.597155 25.44 
" clip-path="url(#pa09c50c8cd)" style="fill: none; stroke-dasharray: 3.7,1.6; stroke-dashoffset: 0; stroke: #4d84bf"/>
   </g>
   <g id="line2d_19">
    <path d="M 267.52783 390.04 
L 267.52783 25.44 
" clip-path="url(#pa09c50c8cd)" style="fill: none; stroke-dasharray: 3.7,1.6; stroke-dashoffset: 0; stroke: #bf4dad"/>
   </g>
   <g id="patch_203">
    <path d="M 54.2 390.04 
L 54.2 25.44 
" style="fill: none; stroke: #000000; stroke-width: 0.8; stroke-linejoin: miter; stroke-linecap: square"/>
   </g>
   <g id="patch_204">
    <path d="M 709.2 390.04 
L 709.2 25.44 
" style="fill: none; stroke: #000000; stroke-width: 0.8; stroke-linejoin: miter; stroke-linecap: square"/>
   </g>
   <g id="patch_205">
    <path d="M 54.2 390.04 
L 709.2 390.04 
" style="fill: none; stroke: #000000; stroke-width: 0.8; stroke-linejoin: miter; stroke-linecap: square"/>
   </g>
   <g id="patch_206">
    <path d="M 54.2 25.44 
L 709.2 25.44 
" style="fill: none; stroke: #000000; stroke-width: 0.8; stroke-linejoin: miter; stroke-linecap: square"/>
   </g>
   <g id="text_18">
    <!-- mean=55.589 -->
    <g style="fill: #ff0000; opacity: 0.8" transform="translate(390.316176 61.9) scale(0.1 -0.1)">
     <defs>
      <path id="DejaVuSans-6d" d="M 3328 2828 
Q 3544 3216 3844 3400 
Q 4144 3584 4550 3584 
Q 5097 3584 5394 3201 
Q 5691 2819 5691 2113 
L 5691 0 
L 5113 0 
L 5113 2094 
Q 5113 2597 4934 2840 
Q 4756 3084 4391 3084 
Q 3944 3084 3684 2787 
Q 3425 2491 3425 1978 
L 3425 0 
L 2847 0 
L 2847 2094 
Q 2847 2600 2669 2842 
Q 2491 3084 2119 3084 
Q 1678 3084 1418 2786 
Q 1159 2488 1159 1978 
L 1159 0 
L 581 0 
L 581 3500 
L 1159 3500 
L 1159 2956 
Q 1356 3278 1631 3431 
Q 1906 3584 2284 3584 
Q 2666 3584 2933 3390 
Q 3200 3197 3328 2828 
z
" transform="scale(0.015625)"/>
      <path id="DejaVuSans-61" d="M 2194 1759 
Q 1497 1759 1228 1600 
Q 959 1441 959 1056 
Q 959 750 1161 570 
Q 1363 391 1709 391 
Q 2188 391 2477 730 
Q 2766 1069 2766 1631 
L 2766 1759 
L 2194 1759 
z
M 3341 1997 
L 3341 0 
L 2766 0 
L 2766 531 
Q 2569 213 2275 61 
Q 1981 -91 1556 -91 
Q 1019 -91 701 211 
Q 384 513 384 1019 
Q 384 1609 779 1909 
Q 1175 2209 1959 2209 
L 2766 2209 
L 2766 2266 
Q 2766 2663 2505 2880 
Q 2244 3097 1772 3097 
Q 1472 3097 1187 3025 
Q 903 2953 641 2809 
L 641 3341 
Q 956 3463 1253 3523 
Q 1550 3584 1831 3584 
Q 2591 3584 2966 3190 
Q 3341 2797 3341 1997 
z
" transform="scale(0.015625)"/>
      <path id="DejaVuSans-3d" d="M 678 2906 
L 4684 2906 
L 4684 2381 
L 678 2381 
L 678 2906 
z
M 678 1631 
L 4684 1631 
L 4684 1100 
L 678 1100 
L 678 1631 
z
" transform="scale(0.015625)"/>
      <path id="DejaVuSans-39" d="M 703 97 
L 703 672 
Q 941 559 1184 500 
Q 1428 441 1663 441 
Q 2288 441 2617 861 
Q 2947 1281 2994 2138 
Q 2813 1869 2534 1725 
Q 2256 1581 1919 1581 
Q 1219 1581 811 2004 
Q 403 2428 403 3163 
Q 403 3881 828 4315 
Q 1253 4750 1959 4750 
Q 2769 4750 3195 4129 
Q 3622 3509 3622 2328 
Q 3622 1225 3098 567 
Q 2575 -91 1691 -91 
Q 1453 -91 1209 -44 
Q 966 3 703 97 
z
M 1959 2075 
Q 2384 2075 2632 2365 
Q 2881 2656 2881 3163 
Q 2881 3666 2632 3958 
Q 2384 4250 1959 4250 
Q 1534 4250 1286 3958 
Q 1038 3666 1038 3163 
Q 1038 2656 1286 2365 
Q 1534 2075 1959 2075 
z
" transform="scale(0.015625)"/>
     </defs>
     <use xlink:href="#DejaVuSans-6d"/>
     <use xlink:href="#DejaVuSans-65" x="97.412109"/>
     <use xlink:href="#DejaVuSans-61" x="158.935547"/>
     <use xlink:href="#DejaVuSans-6e" x="220.214844"/>
     <use xlink:href="#DejaVuSans-3d" x="283.59375"/>
     <use xlink:href="#DejaVuSans-35" x="367.382812"/>
     <use xlink:href="#DejaVuSans-35" x="431.005859"/>
     <use xlink:href="#DejaVuSans-2e" x="494.628906"/>
     <use xlink:href="#DejaVuSans-35" x="526.416016"/>
     <use xlink:href="#DejaVuSans-38" x="590.039062"/>
     <use xlink:href="#DejaVuSans-39" x="653.662109"/>
    </g>
   </g>
   <g id="text_19">
    <!-- Weight distribution of people shorter than 173cm (5000 samples) -->
    <g transform="translate(184.52875 19.44) scale(0.12 -0.12)">
     <defs>
      <path id="DejaVuSans-20" transform="scale(0.015625)"/>
      <path id="DejaVuSans-64" d="M 2906 2969 
L 2906 4863 
L 3481 4863 
L 3481 0 
L 2906 0 
L 2906 525 
Q 2725 213 2448 61 
Q 2172 -91 1784 -91 
Q 1150 -91 751 415 
Q 353 922 353 1747 
Q 353 2572 751 3078 
Q 1150 3584 1784 3584 
Q 2172 3584 2448 3432 
Q 2725 3281 2906 2969 
z
M 947 1747 
Q 947 1113 1208 752 
Q 1469 391 1925 391 
Q 2381 391 2643 752 
Q 2906 1113 2906 1747 
Q 2906 2381 2643 2742 
Q 2381 3103 1925 3103 
Q 1469 3103 1208 2742 
Q 947 2381 947 1747 
z
" transform="scale(0.015625)"/>
      <path id="DejaVuSans-73" d="M 2834 3397 
L 2834 2853 
Q 2591 2978 2328 3040 
Q 2066 3103 1784 3103 
Q 1356 3103 1142 2972 
Q 928 2841 928 2578 
Q 928 2378 1081 2264 
Q 1234 2150 1697 2047 
L 1894 2003 
Q 2506 1872 2764 1633 
Q 3022 1394 3022 966 
Q 3022 478 2636 193 
Q 2250 -91 1575 -91 
Q 1294 -91 989 -36 
Q 684 19 347 128 
L 347 722 
Q 666 556 975 473 
Q 1284 391 1588 391 
Q 1994 391 2212 530 
Q 2431 669 2431 922 
Q 2431 1156 2273 1281 
Q 2116 1406 1581 1522 
L 1381 1569 
Q 847 1681 609 1914 
Q 372 2147 372 2553 
Q 372 3047 722 3315 
Q 1072 3584 1716 3584 
Q 2034 3584 2315 3537 
Q 2597 3491 2834 3397 
z
" transform="scale(0.015625)"/>
      <path id="DejaVuSans-62" d="M 3116 1747 
Q 3116 2381 2855 2742 
Q 2594 3103 2138 3103 
Q 1681 3103 1420 2742 
Q 1159 2381 1159 1747 
Q 1159 1113 1420 752 
Q 1681 391 2138 391 
Q 2594 391 2855 752 
Q 3116 1113 3116 1747 
z
M 1159 2969 
Q 1341 3281 1617 3432 
Q 1894 3584 2278 3584 
Q 2916 3584 3314 3078 
Q 3713 2572 3713 1747 
Q 3713 922 3314 415 
Q 2916 -91 2278 -91 
Q 1894 -91 1617 61 
Q 1341 213 1159 525 
L 1159 0 
L 581 0 
L 581 4863 
L 1159 4863 
L 1159 2969 
z
" transform="scale(0.015625)"/>
      <path id="DejaVuSans-6f" d="M 1959 3097 
Q 1497 3097 1228 2736 
Q 959 2375 959 1747 
Q 959 1119 1226 758 
Q 1494 397 1959 397 
Q 2419 397 2687 759 
Q 2956 1122 2956 1747 
Q 2956 2369 2687 2733 
Q 2419 3097 1959 3097 
z
M 1959 3584 
Q 2709 3584 3137 3096 
Q 3566 2609 3566 1747 
Q 3566 888 3137 398 
Q 2709 -91 1959 -91 
Q 1206 -91 779 398 
Q 353 888 353 1747 
Q 353 2609 779 3096 
Q 1206 3584 1959 3584 
z
" transform="scale(0.015625)"/>
      <path id="DejaVuSans-66" d="M 2375 4863 
L 2375 4384 
L 1825 4384 
Q 1516 4384 1395 4259 
Q 1275 4134 1275 3809 
L 1275 3500 
L 2222 3500 
L 2222 3053 
L 1275 3053 
L 1275 0 
L 697 0 
L 697 3053 
L 147 3053 
L 147 3500 
L 697 3500 
L 697 3744 
Q 697 4328 969 4595 
Q 1241 4863 1831 4863 
L 2375 4863 
z
" transform="scale(0.015625)"/>
      <path id="DejaVuSans-70" d="M 1159 525 
L 1159 -1331 
L 581 -1331 
L 581 3500 
L 1159 3500 
L 1159 2969 
Q 1341 3281 1617 3432 
Q 1894 3584 2278 3584 
Q 2916 3584 3314 3078 
Q 3713 2572 3713 1747 
Q 3713 922 3314 415 
Q 2916 -91 2278 -91 
Q 1894 -91 1617 61 
Q 1341 213 1159 525 
z
M 3116 1747 
Q 3116 2381 2855 2742 
Q 2594 3103 2138 3103 
Q 1681 3103 1420 2742 
Q 1159 2381 1159 1747 
Q 1159 1113 1420 752 
Q 1681 391 2138 391 
Q 2594 391 2855 752 
Q 3116 1113 3116 1747 
z
" transform="scale(0.015625)"/>
      <path id="DejaVuSans-6c" d="M 603 4863 
L 1178 4863 
L 1178 0 
L 603 0 
L 603 4863 
z
" transform="scale(0.015625)"/>
     </defs>
     <use xlink:href="#DejaVuSans-57"/>
     <use xlink:href="#DejaVuSans-65" x="93.001953"/>
     <use xlink:href="#DejaVuSans-69" x="154.525391"/>
     <use xlink:href="#DejaVuSans-67" x="182.308594"/>
     <use xlink:href="#DejaVuSans-68" x="245.785156"/>
     <use xlink:href="#DejaVuSans-74" x="309.164062"/>
     <use xlink:href="#DejaVuSans-20" x="348.373047"/>
     <use xlink:href="#DejaVuSans-64" x="380.160156"/>
     <use xlink:href="#DejaVuSans-69" x="443.636719"/>
     <use xlink:href="#DejaVuSans-73" x="471.419922"/>
     <use xlink:href="#DejaVuSans-74" x="523.519531"/>
     <use xlink:href="#DejaVuSans-72" x="562.728516"/>
     <use xlink:href="#DejaVuSans-69" x="603.841797"/>
     <use xlink:href="#DejaVuSans-62" x="631.625"/>
     <use xlink:href="#DejaVuSans-75" x="695.101562"/>
     <use xlink:href="#DejaVuSans-74" x="758.480469"/>
     <use xlink:href="#DejaVuSans-69" x="797.689453"/>
     <use xlink:href="#DejaVuSans-6f" x="825.472656"/>
     <use xlink:href="#DejaVuSans-6e" x="886.654297"/>
     <use xlink:href="#DejaVuSans-20" x="950.033203"/>
     <use xlink:href="#DejaVuSans-6f" x="981.820312"/>
     <use xlink:href="#DejaVuSans-66" x="1043.001953"/>
     <use xlink:href="#DejaVuSans-20" x="1078.207031"/>
     <use xlink:href="#DejaVuSans-70" x="1109.994141"/>
     <use xlink:href="#DejaVuSans-65" x="1173.470703"/>
     <use xlink:href="#DejaVuSans-6f" x="1234.994141"/>
     <use xlink:href="#DejaVuSans-70" x="1296.175781"/>
     <use xlink:href="#DejaVuSans-6c" x="1359.652344"/>
     <use xlink:href="#DejaVuSans-65" x="1387.435547"/>
     <use xlink:href="#DejaVuSans-20" x="1448.958984"/>
     <use xlink:href="#DejaVuSans-73" x="1480.746094"/>
     <use xlink:href="#DejaVuSans-68" x="1532.845703"/>
     <use xlink:href="#DejaVuSans-6f" x="1596.224609"/>
     <use xlink:href="#DejaVuSans-72" x="1657.40625"/>
     <use xlink:href="#DejaVuSans-74" x="1698.519531"/>
     <use xlink:href="#DejaVuSans-65" x="1737.728516"/>
     <use xlink:href="#DejaVuSans-72" x="1799.251953"/>
     <use xlink:href="#DejaVuSans-20" x="1840.365234"/>
     <use xlink:href="#DejaVuSans-74" x="1872.152344"/>
     <use xlink:href="#DejaVuSans-68" x="1911.361328"/>
     <use xlink:href="#DejaVuSans-61" x="1974.740234"/>
     <use xlink:href="#DejaVuSans-6e" x="2036.019531"/>
     <use xlink:href="#DejaVuSans-20" x="2099.398438"/>
     <use xlink:href="#DejaVuSans-31" x="2131.185547"/>
     <use xlink:href="#DejaVuSans-37" x="2194.808594"/>
     <use xlink:href="#DejaVuSans-33" x="2258.431641"/>
     <use xlink:href="#DejaVuSans-63" x="2322.054688"/>
     <use xlink:href="#DejaVuSans-6d" x="2377.035156"/>
     <use xlink:href="#DejaVuSans-20" x="2474.447266"/>
     <use xlink:href="#DejaVuSans-28" x="2506.234375"/>
     <use xlink:href="#DejaVuSans-35" x="2545.248047"/>
     <use xlink:href="#DejaVuSans-30" x="2608.871094"/>
     <use xlink:href="#DejaVuSans-30" x="2672.494141"/>
     <use xlink:href="#DejaVuSans-30" x="2736.117188"/>
     <use xlink:href="#DejaVuSans-20" x="2799.740234"/>
     <use xlink:href="#DejaVuSans-73" x="2831.527344"/>
     <use xlink:href="#DejaVuSans-61" x="2883.626953"/>
     <use xlink:href="#DejaVuSans-6d" x="2944.90625"/>
     <use xlink:href="#DejaVuSans-70" x="3042.318359"/>
     <use xlink:href="#DejaVuSans-6c" x="3105.794922"/>
     <use xlink:href="#DejaVuSans-65" x="3133.578125"/>
     <use xlink:href="#DejaVuSans-73" x="3195.101562"/>
     <use xlink:href="#DejaVuSans-29" x="3247.201172"/>
    </g>
   </g>
   <g id="legend_1">
    <g id="patch_207">
     <path d="M 574.996875 106.830625 
L 702.2 106.830625 
Q 704.2 106.830625 704.2 104.830625 
L 704.2 32.44 
Q 704.2 30.44 702.2 30.44 
L 574.996875 30.44 
Q 572.996875 30.44 572.996875 32.44 
L 572.996875 104.830625 
Q 572.996875 106.830625 574.996875 106.830625 
z
" style="fill: #ffffff; opacity: 0.8; stroke: #cccccc; stroke-linejoin: miter"/>
    </g>
    <g id="patch_208">
     <path d="M 576.996875 42.038437 
L 596.996875 42.038437 
L 596.996875 35.038437 
L 576.996875 35.038437 
z
" style="fill: #ffa500"/>
    </g>
    <g id="text_20">
     <!-- Weight distribution -->
     <g transform="translate(604.996875 42.038437) scale(0.1 -0.1)">
      <use xlink:href="#DejaVuSans-57"/>
      <use xlink:href="#DejaVuSans-65" x="93.001953"/>
      <use xlink:href="#DejaVuSans-69" x="154.525391"/>
      <use xlink:href="#DejaVuSans-67" x="182.308594"/>
      <use xlink:href="#DejaVuSans-68" x="245.785156"/>
      <use xlink:href="#DejaVuSans-74" x="309.164062"/>
      <use xlink:href="#DejaVuSans-20" x="348.373047"/>
      <use xlink:href="#DejaVuSans-64" x="380.160156"/>
      <use xlink:href="#DejaVuSans-69" x="443.636719"/>
      <use xlink:href="#DejaVuSans-73" x="471.419922"/>
      <use xlink:href="#DejaVuSans-74" x="523.519531"/>
      <use xlink:href="#DejaVuSans-72" x="562.728516"/>
      <use xlink:href="#DejaVuSans-69" x="603.841797"/>
      <use xlink:href="#DejaVuSans-62" x="631.625"/>
      <use xlink:href="#DejaVuSans-75" x="695.101562"/>
      <use xlink:href="#DejaVuSans-74" x="758.480469"/>
      <use xlink:href="#DejaVuSans-69" x="797.689453"/>
      <use xlink:href="#DejaVuSans-6f" x="825.472656"/>
      <use xlink:href="#DejaVuSans-6e" x="886.654297"/>
     </g>
    </g>
    <g id="line2d_20">
     <path d="M 576.996875 53.216563 
L 586.996875 53.216563 
L 596.996875 53.216563 
" style="fill: none; stroke-dasharray: 11.1,4.8; stroke-dashoffset: 0; stroke: #ff0000; stroke-opacity: 0.5; stroke-width: 3"/>
    </g>
    <g id="text_21">
     <!-- normal distribution -->
     <g transform="translate(604.996875 56.716563) scale(0.1 -0.1)">
      <use xlink:href="#DejaVuSans-6e"/>
      <use xlink:href="#DejaVuSans-6f" x="63.378906"/>
      <use xlink:href="#DejaVuSans-72" x="124.560547"/>
      <use xlink:href="#DejaVuSans-6d" x="163.923828"/>
      <use xlink:href="#DejaVuSans-61" x="261.335938"/>
      <use xlink:href="#DejaVuSans-6c" x="322.615234"/>
      <use xlink:href="#DejaVuSans-20" x="350.398438"/>
      <use xlink:href="#DejaVuSans-64" x="382.185547"/>
      <use xlink:href="#DejaVuSans-69" x="445.662109"/>
      <use xlink:href="#DejaVuSans-73" x="473.445312"/>
      <use xlink:href="#DejaVuSans-74" x="525.544922"/>
      <use xlink:href="#DejaVuSans-72" x="564.753906"/>
      <use xlink:href="#DejaVuSans-69" x="605.867188"/>
      <use xlink:href="#DejaVuSans-62" x="633.650391"/>
      <use xlink:href="#DejaVuSans-75" x="697.126953"/>
      <use xlink:href="#DejaVuSans-74" x="760.505859"/>
      <use xlink:href="#DejaVuSans-69" x="799.714844"/>
      <use xlink:href="#DejaVuSans-6f" x="827.498047"/>
      <use xlink:href="#DejaVuSans-6e" x="888.679688"/>
     </g>
    </g>
    <g id="line2d_21">
     <path d="M 576.996875 67.894687 
L 586.996875 67.894687 
L 596.996875 67.894687 
" style="fill: none; stroke-dasharray: 3.7,1.6; stroke-dashoffset: 0; stroke: #ff0000"/>
    </g>
    <g id="text_22">
     <!-- mean -->
     <g transform="translate(604.996875 71.394687) scale(0.1 -0.1)">
      <use xlink:href="#DejaVuSans-6d"/>
      <use xlink:href="#DejaVuSans-65" x="97.412109"/>
      <use xlink:href="#DejaVuSans-61" x="158.935547"/>
      <use xlink:href="#DejaVuSans-6e" x="220.214844"/>
     </g>
    </g>
    <g id="line2d_22">
     <path d="M 576.996875 82.572812 
L 586.996875 82.572812 
L 596.996875 82.572812 
" style="fill: none; stroke-dasharray: 3.7,1.6; stroke-dashoffset: 0; stroke: #4d84bf"/>
    </g>
    <g id="text_23">
     <!-- alpha=0.050 -->
     <g transform="translate(604.996875 86.072812) scale(0.1 -0.1)">
      <use xlink:href="#DejaVuSans-61"/>
      <use xlink:href="#DejaVuSans-6c" x="61.279297"/>
      <use xlink:href="#DejaVuSans-70" x="89.0625"/>
      <use xlink:href="#DejaVuSans-68" x="152.539062"/>
      <use xlink:href="#DejaVuSans-61" x="215.917969"/>
      <use xlink:href="#DejaVuSans-3d" x="277.197266"/>
      <use xlink:href="#DejaVuSans-30" x="360.986328"/>
      <use xlink:href="#DejaVuSans-2e" x="424.609375"/>
      <use xlink:href="#DejaVuSans-30" x="456.396484"/>
      <use xlink:href="#DejaVuSans-35" x="520.019531"/>
      <use xlink:href="#DejaVuSans-30" x="583.642578"/>
     </g>
    </g>
    <g id="line2d_23">
     <path d="M 576.996875 97.250937 
L 586.996875 97.250937 
L 596.996875 97.250937 
" style="fill: none; stroke-dasharray: 3.7,1.6; stroke-dashoffset: 0; stroke: #bf4dad"/>
    </g>
    <g id="text_24">
     <!-- alpha=0.950 -->
     <g transform="translate(604.996875 100.750937) scale(0.1 -0.1)">
      <use xlink:href="#DejaVuSans-61"/>
      <use xlink:href="#DejaVuSans-6c" x="61.279297"/>
      <use xlink:href="#DejaVuSans-70" x="89.0625"/>
      <use xlink:href="#DejaVuSans-68" x="152.539062"/>
      <use xlink:href="#DejaVuSans-61" x="215.917969"/>
      <use xlink:href="#DejaVuSans-3d" x="277.197266"/>
      <use xlink:href="#DejaVuSans-30" x="360.986328"/>
      <use xlink:href="#DejaVuSans-2e" x="424.609375"/>
      <use xlink:href="#DejaVuSans-39" x="456.396484"/>
      <use xlink:href="#DejaVuSans-35" x="520.019531"/>
      <use xlink:href="#DejaVuSans-30" x="583.642578"/>
     </g>
    </g>
   </g>
  </g>
 </g>
 <defs>
  <clipPath id="pa09c50c8cd">
   <rect x="54.2" y="25.44" width="655" height="364.6"/>
  </clipPath>
 </defs>
</svg>
