<?xml version="1.0" encoding="utf-8" standalone="no"?>
<!DOCTYPE svg PUBLIC "-//W3C//DTD SVG 1.1//EN"
  "http://www.w3.org/Graphics/SVG/1.1/DTD/svg11.dtd">
<svg xmlns:xlink="http://www.w3.org/1999/xlink" width="720pt" height="432pt" viewBox="0 0 720 432" xmlns="http://www.w3.org/2000/svg" version="1.1">
 <metadata>
  <rdf:RDF xmlns:dc="http://purl.org/dc/elements/1.1/" xmlns:cc="http://creativecommons.org/ns#" xmlns:rdf="http://www.w3.org/1999/02/22-rdf-syntax-ns#">
   <cc:Work>
    <dc:type rdf:resource="http://purl.org/dc/dcmitype/StillImage"/>
    <dc:date>2023-12-30T01:34:16.465421</dc:date>
    <dc:format>image/svg+xml</dc:format>
    <dc:creator>
     <cc:Agent>
      <dc:title>Matplotlib v3.7.1, https://matplotlib.org/</dc:title>
     </cc:Agent>
    </dc:creator>
   </cc:Work>
  </rdf:RDF>
 </metadata>
 <defs>
  <style type="text/css">*{stroke-linejoin: round; stroke-linecap: butt}</style>
 </defs>
 <g id="figure_1">
  <g id="patch_1">
   <path d="M 0 432 
L 720 432 
L 720 0 
L 0 0 
z
" style="fill: #ffffff"/>
  </g>
  <g id="axes_1">
   <g id="patch_2">
    <path d="M 40.12 404.12 
L 709.2 404.12 
L 709.2 25.44 
L 40.12 25.44 
z
" style="fill: #ffffff"/>
   </g>
   <g id="patch_3">
    <path d="M 70.532727 404.12 
L 73.574001 404.12 
L 73.574001 400.156912 
L 70.532727 400.156912 
z
" clip-path="url(#p9f44b4250d)" style="fill: #800080"/>
   </g>
   <g id="patch_4">
    <path d="M 73.574001 404.12 
L 76.615275 404.12 
L 76.615275 400.156912 
L 73.574001 400.156912 
z
" clip-path="url(#p9f44b4250d)" style="fill: #800080"/>
   </g>
   <g id="patch_5">
    <path d="M 76.615275 404.12 
L 79.656549 404.12 
L 79.656549 404.12 
L 76.615275 404.12 
z
" clip-path="url(#p9f44b4250d)" style="fill: #800080"/>
   </g>
   <g id="patch_6">
    <path d="M 79.656549 404.12 
L 82.697823 404.12 
L 82.697823 404.12 
L 79.656549 404.12 
z
" clip-path="url(#p9f44b4250d)" style="fill: #800080"/>
   </g>
   <g id="patch_7">
    <path d="M 82.697823 404.12 
L 85.739096 404.12 
L 85.739096 404.12 
L 82.697823 404.12 
z
" clip-path="url(#p9f44b4250d)" style="fill: #800080"/>
   </g>
   <g id="patch_8">
    <path d="M 85.739096 404.12 
L 88.78037 404.12 
L 88.78037 404.12 
L 85.739096 404.12 
z
" clip-path="url(#p9f44b4250d)" style="fill: #800080"/>
   </g>
   <g id="patch_9">
    <path d="M 88.78037 404.12 
L 91.821644 404.12 
L 91.821644 404.12 
L 88.78037 404.12 
z
" clip-path="url(#p9f44b4250d)" style="fill: #800080"/>
   </g>
   <g id="patch_10">
    <path d="M 91.821644 404.12 
L 94.862918 404.12 
L 94.862918 404.12 
L 91.821644 404.12 
z
" clip-path="url(#p9f44b4250d)" style="fill: #800080"/>
   </g>
   <g id="patch_11">
    <path d="M 94.862918 404.12 
L 97.904192 404.12 
L 97.904192 404.12 
L 94.862918 404.12 
z
" clip-path="url(#p9f44b4250d)" style="fill: #800080"/>
   </g>
   <g id="patch_12">
    <path d="M 97.904192 404.12 
L 100.945466 404.12 
L 100.945466 404.12 
L 97.904192 404.12 
z
" clip-path="url(#p9f44b4250d)" style="fill: #800080"/>
   </g>
   <g id="patch_13">
    <path d="M 100.945466 404.12 
L 103.98674 404.12 
L 103.98674 404.12 
L 100.945466 404.12 
z
" clip-path="url(#p9f44b4250d)" style="fill: #800080"/>
   </g>
   <g id="patch_14">
    <path d="M 103.98674 404.12 
L 107.028013 404.12 
L 107.028013 400.156912 
L 103.98674 400.156912 
z
" clip-path="url(#p9f44b4250d)" style="fill: #800080"/>
   </g>
   <g id="patch_15">
    <path d="M 107.028013 404.12 
L 110.069287 404.12 
L 110.069287 404.12 
L 107.028013 404.12 
z
" clip-path="url(#p9f44b4250d)" style="fill: #800080"/>
   </g>
   <g id="patch_16">
    <path d="M 110.069287 404.12 
L 113.110561 404.12 
L 113.110561 400.156912 
L 110.069287 400.156912 
z
" clip-path="url(#p9f44b4250d)" style="fill: #800080"/>
   </g>
   <g id="patch_17">
    <path d="M 113.110561 404.12 
L 116.151835 404.12 
L 116.151835 404.12 
L 113.110561 404.12 
z
" clip-path="url(#p9f44b4250d)" style="fill: #800080"/>
   </g>
   <g id="patch_18">
    <path d="M 116.151835 404.12 
L 119.193109 404.12 
L 119.193109 404.12 
L 116.151835 404.12 
z
" clip-path="url(#p9f44b4250d)" style="fill: #800080"/>
   </g>
   <g id="patch_19">
    <path d="M 119.193109 404.12 
L 122.234383 404.12 
L 122.234383 404.12 
L 119.193109 404.12 
z
" clip-path="url(#p9f44b4250d)" style="fill: #800080"/>
   </g>
   <g id="patch_20">
    <path d="M 122.234383 404.12 
L 125.275656 404.12 
L 125.275656 404.12 
L 122.234383 404.12 
z
" clip-path="url(#p9f44b4250d)" style="fill: #800080"/>
   </g>
   <g id="patch_21">
    <path d="M 125.275656 404.12 
L 128.31693 404.12 
L 128.31693 400.156912 
L 125.275656 400.156912 
z
" clip-path="url(#p9f44b4250d)" style="fill: #800080"/>
   </g>
   <g id="patch_22">
    <path d="M 128.31693 404.12 
L 131.358204 404.12 
L 131.358204 404.12 
L 128.31693 404.12 
z
" clip-path="url(#p9f44b4250d)" style="fill: #800080"/>
   </g>
   <g id="patch_23">
    <path d="M 131.358204 404.12 
L 134.399478 404.12 
L 134.399478 404.12 
L 131.358204 404.12 
z
" clip-path="url(#p9f44b4250d)" style="fill: #800080"/>
   </g>
   <g id="patch_24">
    <path d="M 134.399478 404.12 
L 137.440752 404.12 
L 137.440752 396.193824 
L 134.399478 396.193824 
z
" clip-path="url(#p9f44b4250d)" style="fill: #800080"/>
   </g>
   <g id="patch_25">
    <path d="M 137.440752 404.12 
L 140.482026 404.12 
L 140.482026 400.156912 
L 137.440752 400.156912 
z
" clip-path="url(#p9f44b4250d)" style="fill: #800080"/>
   </g>
   <g id="patch_26">
    <path d="M 140.482026 404.12 
L 143.5233 404.12 
L 143.5233 404.12 
L 140.482026 404.12 
z
" clip-path="url(#p9f44b4250d)" style="fill: #800080"/>
   </g>
   <g id="patch_27">
    <path d="M 143.5233 404.12 
L 146.564518 404.12 
L 146.564518 404.12 
L 143.5233 404.12 
z
" clip-path="url(#p9f44b4250d)" style="fill: #800080"/>
   </g>
   <g id="patch_28">
    <path d="M 146.564518 404.12 
L 149.605791 404.12 
L 149.605791 404.12 
L 146.564518 404.12 
z
" clip-path="url(#p9f44b4250d)" style="fill: #800080"/>
   </g>
   <g id="patch_29">
    <path d="M 149.605791 404.12 
L 152.647065 404.12 
L 152.647065 400.156912 
L 149.605791 400.156912 
z
" clip-path="url(#p9f44b4250d)" style="fill: #800080"/>
   </g>
   <g id="patch_30">
    <path d="M 152.647065 404.12 
L 155.688339 404.12 
L 155.688339 400.156912 
L 152.647065 400.156912 
z
" clip-path="url(#p9f44b4250d)" style="fill: #800080"/>
   </g>
   <g id="patch_31">
    <path d="M 155.688339 404.12 
L 158.729613 404.12 
L 158.729613 404.12 
L 155.688339 404.12 
z
" clip-path="url(#p9f44b4250d)" style="fill: #800080"/>
   </g>
   <g id="patch_32">
    <path d="M 158.729613 404.12 
L 161.770887 404.12 
L 161.770887 396.193824 
L 158.729613 396.193824 
z
" clip-path="url(#p9f44b4250d)" style="fill: #800080"/>
   </g>
   <g id="patch_33">
    <path d="M 161.770887 404.12 
L 164.812161 404.12 
L 164.812161 400.156912 
L 161.770887 400.156912 
z
" clip-path="url(#p9f44b4250d)" style="fill: #800080"/>
   </g>
   <g id="patch_34">
    <path d="M 164.812161 404.12 
L 167.853434 404.12 
L 167.853434 400.156912 
L 164.812161 400.156912 
z
" clip-path="url(#p9f44b4250d)" style="fill: #800080"/>
   </g>
   <g id="patch_35">
    <path d="M 167.853434 404.12 
L 170.894708 404.12 
L 170.894708 396.193824 
L 167.853434 396.193824 
z
" clip-path="url(#p9f44b4250d)" style="fill: #800080"/>
   </g>
   <g id="patch_36">
    <path d="M 170.894708 404.12 
L 173.935982 404.12 
L 173.935982 388.267649 
L 170.894708 388.267649 
z
" clip-path="url(#p9f44b4250d)" style="fill: #800080"/>
   </g>
   <g id="patch_37">
    <path d="M 173.935982 404.12 
L 176.977256 404.12 
L 176.977256 388.267649 
L 173.935982 388.267649 
z
" clip-path="url(#p9f44b4250d)" style="fill: #800080"/>
   </g>
   <g id="patch_38">
    <path d="M 176.977256 404.12 
L 180.01853 404.12 
L 180.01853 396.193824 
L 176.977256 396.193824 
z
" clip-path="url(#p9f44b4250d)" style="fill: #800080"/>
   </g>
   <g id="patch_39">
    <path d="M 180.01853 404.12 
L 183.059804 404.12 
L 183.059804 396.193824 
L 180.01853 396.193824 
z
" clip-path="url(#p9f44b4250d)" style="fill: #800080"/>
   </g>
   <g id="patch_40">
    <path d="M 183.059804 404.12 
L 186.101078 404.12 
L 186.101078 392.230736 
L 183.059804 392.230736 
z
" clip-path="url(#p9f44b4250d)" style="fill: #800080"/>
   </g>
   <g id="patch_41">
    <path d="M 186.101078 404.12 
L 189.142351 404.12 
L 189.142351 392.230736 
L 186.101078 392.230736 
z
" clip-path="url(#p9f44b4250d)" style="fill: #800080"/>
   </g>
   <g id="patch_42">
    <path d="M 189.142351 404.12 
L 192.183625 404.12 
L 192.183625 384.304561 
L 189.142351 384.304561 
z
" clip-path="url(#p9f44b4250d)" style="fill: #800080"/>
   </g>
   <g id="patch_43">
    <path d="M 192.183625 404.12 
L 195.224899 404.12 
L 195.224899 396.193824 
L 192.183625 396.193824 
z
" clip-path="url(#p9f44b4250d)" style="fill: #800080"/>
   </g>
   <g id="patch_44">
    <path d="M 195.224899 404.12 
L 198.266173 404.12 
L 198.266173 388.267649 
L 195.224899 388.267649 
z
" clip-path="url(#p9f44b4250d)" style="fill: #800080"/>
   </g>
   <g id="patch_45">
    <path d="M 198.266173 404.12 
L 201.307447 404.12 
L 201.307447 396.193824 
L 198.266173 396.193824 
z
" clip-path="url(#p9f44b4250d)" style="fill: #800080"/>
   </g>
   <g id="patch_46">
    <path d="M 201.307447 404.12 
L 204.348721 404.12 
L 204.348721 388.267649 
L 201.307447 388.267649 
z
" clip-path="url(#p9f44b4250d)" style="fill: #800080"/>
   </g>
   <g id="patch_47">
    <path d="M 204.348721 404.12 
L 207.389994 404.12 
L 207.389994 388.267649 
L 204.348721 388.267649 
z
" clip-path="url(#p9f44b4250d)" style="fill: #800080"/>
   </g>
   <g id="patch_48">
    <path d="M 207.389994 404.12 
L 210.431268 404.12 
L 210.431268 384.304561 
L 207.389994 384.304561 
z
" clip-path="url(#p9f44b4250d)" style="fill: #800080"/>
   </g>
   <g id="patch_49">
    <path d="M 210.431268 404.12 
L 213.472542 404.12 
L 213.472542 384.304561 
L 210.431268 384.304561 
z
" clip-path="url(#p9f44b4250d)" style="fill: #800080"/>
   </g>
   <g id="patch_50">
    <path d="M 213.472542 404.12 
L 216.513872 404.12 
L 216.513872 380.341909 
L 213.472542 380.341909 
z
" clip-path="url(#p9f44b4250d)" style="fill: #800080"/>
   </g>
   <g id="patch_51">
    <path d="M 216.513872 404.12 
L 219.55509 404.12 
L 219.55509 372.414715 
L 216.513872 372.414715 
z
" clip-path="url(#p9f44b4250d)" style="fill: #800080"/>
   </g>
   <g id="patch_52">
    <path d="M 219.55509 404.12 
L 222.596419 404.12 
L 222.596419 372.415879 
L 219.55509 372.415879 
z
" clip-path="url(#p9f44b4250d)" style="fill: #800080"/>
   </g>
   <g id="patch_53">
    <path d="M 222.596419 404.12 
L 225.637637 404.12 
L 225.637637 368.451554 
L 222.596419 368.451554 
z
" clip-path="url(#p9f44b4250d)" style="fill: #800080"/>
   </g>
   <g id="patch_54">
    <path d="M 225.637637 404.12 
L 228.678855 404.12 
L 228.678855 380.341036 
L 225.637637 380.341036 
z
" clip-path="url(#p9f44b4250d)" style="fill: #800080"/>
   </g>
   <g id="patch_55">
    <path d="M 228.678855 404.12 
L 231.720185 404.12 
L 231.720185 360.526834 
L 228.678855 360.526834 
z
" clip-path="url(#p9f44b4250d)" style="fill: #800080"/>
   </g>
   <g id="patch_56">
    <path d="M 231.720185 404.12 
L 234.761403 404.12 
L 234.761403 364.488394 
L 231.720185 364.488394 
z
" clip-path="url(#p9f44b4250d)" style="fill: #800080"/>
   </g>
   <g id="patch_57">
    <path d="M 234.761403 404.12 
L 237.802733 404.12 
L 237.802733 336.748743 
L 234.761403 336.748743 
z
" clip-path="url(#p9f44b4250d)" style="fill: #800080"/>
   </g>
   <g id="patch_58">
    <path d="M 237.802733 404.12 
L 240.843951 404.12 
L 240.843951 368.451554 
L 237.802733 368.451554 
z
" clip-path="url(#p9f44b4250d)" style="fill: #800080"/>
   </g>
   <g id="patch_59">
    <path d="M 240.843951 404.12 
L 243.885281 404.12 
L 243.885281 352.600804 
L 240.843951 352.600804 
z
" clip-path="url(#p9f44b4250d)" style="fill: #800080"/>
   </g>
   <g id="patch_60">
    <path d="M 243.885281 404.12 
L 246.926499 404.12 
L 246.926499 344.67259 
L 243.885281 344.67259 
z
" clip-path="url(#p9f44b4250d)" style="fill: #800080"/>
   </g>
   <g id="patch_61">
    <path d="M 246.926499 404.12 
L 249.967828 404.12 
L 249.967828 368.452864 
L 246.926499 368.452864 
z
" clip-path="url(#p9f44b4250d)" style="fill: #800080"/>
   </g>
   <g id="patch_62">
    <path d="M 249.967828 404.12 
L 253.009046 404.12 
L 253.009046 316.930466 
L 249.967828 316.930466 
z
" clip-path="url(#p9f44b4250d)" style="fill: #800080"/>
   </g>
   <g id="patch_63">
    <path d="M 253.009046 404.12 
L 256.050376 404.12 
L 256.050376 356.563819 
L 253.009046 356.563819 
z
" clip-path="url(#p9f44b4250d)" style="fill: #800080"/>
   </g>
   <g id="patch_64">
    <path d="M 256.050376 404.12 
L 259.091594 404.12 
L 259.091594 316.930466 
L 256.050376 316.930466 
z
" clip-path="url(#p9f44b4250d)" style="fill: #800080"/>
   </g>
   <g id="patch_65">
    <path d="M 259.091594 404.12 
L 262.132924 404.12 
L 262.132924 332.785728 
L 259.091594 332.785728 
z
" clip-path="url(#p9f44b4250d)" style="fill: #800080"/>
   </g>
   <g id="patch_66">
    <path d="M 262.132924 404.12 
L 265.174142 404.12 
L 265.174142 360.525233 
L 262.132924 360.525233 
z
" clip-path="url(#p9f44b4250d)" style="fill: #800080"/>
   </g>
   <g id="patch_67">
    <path d="M 265.174142 404.12 
L 268.215471 404.12 
L 268.215471 312.970653 
L 265.174142 312.970653 
z
" clip-path="url(#p9f44b4250d)" style="fill: #800080"/>
   </g>
   <g id="patch_68">
    <path d="M 268.215471 404.12 
L 271.256689 404.12 
L 271.256689 324.856787 
L 268.215471 324.856787 
z
" clip-path="url(#p9f44b4250d)" style="fill: #800080"/>
   </g>
   <g id="patch_69">
    <path d="M 271.256689 404.12 
L 274.298019 404.12 
L 274.298019 316.933668 
L 271.256689 316.933668 
z
" clip-path="url(#p9f44b4250d)" style="fill: #800080"/>
   </g>
   <g id="patch_70">
    <path d="M 274.298019 404.12 
L 277.339237 404.12 
L 277.339237 312.967305 
L 274.298019 312.967305 
z
" clip-path="url(#p9f44b4250d)" style="fill: #800080"/>
   </g>
   <g id="patch_71">
    <path d="M 277.339237 404.12 
L 280.380567 404.12 
L 280.380567 309.007638 
L 277.339237 309.007638 
z
" clip-path="url(#p9f44b4250d)" style="fill: #800080"/>
   </g>
   <g id="patch_72">
    <path d="M 280.380567 404.12 
L 283.421785 404.12 
L 283.421785 297.114662 
L 280.380567 297.114662 
z
" clip-path="url(#p9f44b4250d)" style="fill: #800080"/>
   </g>
   <g id="patch_73">
    <path d="M 283.421785 404.12 
L 286.463114 404.12 
L 286.463114 301.081608 
L 283.421785 301.081608 
z
" clip-path="url(#p9f44b4250d)" style="fill: #800080"/>
   </g>
   <g id="patch_74">
    <path d="M 286.463114 404.12 
L 289.504332 404.12 
L 289.504332 265.409377 
L 286.463114 265.409377 
z
" clip-path="url(#p9f44b4250d)" style="fill: #800080"/>
   </g>
   <g id="patch_75">
    <path d="M 289.504332 404.12 
L 292.545662 404.12 
L 292.545662 269.377487 
L 289.504332 269.377487 
z
" clip-path="url(#p9f44b4250d)" style="fill: #800080"/>
   </g>
   <g id="patch_76">
    <path d="M 292.545662 404.12 
L 295.58688 404.12 
L 295.58688 301.077823 
L 292.545662 301.077823 
z
" clip-path="url(#p9f44b4250d)" style="fill: #800080"/>
   </g>
   <g id="patch_77">
    <path d="M 295.58688 404.12 
L 298.62821 404.12 
L 298.62821 245.599396 
L 295.58688 245.599396 
z
" clip-path="url(#p9f44b4250d)" style="fill: #800080"/>
   </g>
   <g id="patch_78">
    <path d="M 298.62821 404.12 
L 301.669428 404.12 
L 301.669428 281.26202 
L 298.62821 281.26202 
z
" clip-path="url(#p9f44b4250d)" style="fill: #800080"/>
   </g>
   <g id="patch_79">
    <path d="M 301.669428 404.12 
L 304.710757 404.12 
L 304.710757 273.340502 
L 301.669428 273.340502 
z
" clip-path="url(#p9f44b4250d)" style="fill: #800080"/>
   </g>
   <g id="patch_80">
    <path d="M 304.710757 404.12 
L 307.751975 404.12 
L 307.751975 261.446217 
L 304.710757 261.446217 
z
" clip-path="url(#p9f44b4250d)" style="fill: #800080"/>
   </g>
   <g id="patch_81">
    <path d="M 307.751975 404.12 
L 310.793305 404.12 
L 310.793305 241.636381 
L 307.751975 241.636381 
z
" clip-path="url(#p9f44b4250d)" style="fill: #800080"/>
   </g>
   <g id="patch_82">
    <path d="M 310.793305 404.12 
L 313.834523 404.12 
L 313.834523 241.630413 
L 310.793305 241.630413 
z
" clip-path="url(#p9f44b4250d)" style="fill: #800080"/>
   </g>
   <g id="patch_83">
    <path d="M 313.834523 404.12 
L 316.875853 404.12 
L 316.875853 221.821306 
L 313.834523 221.821306 
z
" clip-path="url(#p9f44b4250d)" style="fill: #800080"/>
   </g>
   <g id="patch_84">
    <path d="M 316.875853 404.12 
L 319.917071 404.12 
L 319.917071 237.667253 
L 316.875853 237.667253 
z
" clip-path="url(#p9f44b4250d)" style="fill: #800080"/>
   </g>
   <g id="patch_85">
    <path d="M 319.917071 404.12 
L 322.9584 404.12 
L 322.9584 253.525427 
L 319.917071 253.525427 
z
" clip-path="url(#p9f44b4250d)" style="fill: #800080"/>
   </g>
   <g id="patch_86">
    <path d="M 322.9584 404.12 
L 325.999618 404.12 
L 325.999618 245.593574 
L 322.9584 245.593574 
z
" clip-path="url(#p9f44b4250d)" style="fill: #800080"/>
   </g>
   <g id="patch_87">
    <path d="M 325.999618 404.12 
L 329.040948 404.12 
L 329.040948 202.00623 
L 325.999618 202.00623 
z
" clip-path="url(#p9f44b4250d)" style="fill: #800080"/>
   </g>
   <g id="patch_88">
    <path d="M 329.040948 404.12 
L 332.082166 404.12 
L 332.082166 201.998807 
L 329.040948 201.998807 
z
" clip-path="url(#p9f44b4250d)" style="fill: #800080"/>
   </g>
   <g id="patch_89">
    <path d="M 332.082166 404.12 
L 335.123496 404.12 
L 335.123496 134.634974 
L 332.082166 134.634974 
z
" clip-path="url(#p9f44b4250d)" style="fill: #800080"/>
   </g>
   <g id="patch_90">
    <path d="M 335.123496 404.12 
L 338.164714 404.12 
L 338.164714 221.81461 
L 335.123496 221.81461 
z
" clip-path="url(#p9f44b4250d)" style="fill: #800080"/>
   </g>
   <g id="patch_91">
    <path d="M 338.164714 404.12 
L 341.206044 404.12 
L 341.206044 186.15417 
L 338.164714 186.15417 
z
" clip-path="url(#p9f44b4250d)" style="fill: #800080"/>
   </g>
   <g id="patch_92">
    <path d="M 341.206044 404.12 
L 344.247262 404.12 
L 344.247262 87.067148 
L 341.206044 87.067148 
z
" clip-path="url(#p9f44b4250d)" style="fill: #800080"/>
   </g>
   <g id="patch_93">
    <path d="M 344.247262 404.12 
L 347.288591 404.12 
L 347.288591 126.708944 
L 344.247262 126.708944 
z
" clip-path="url(#p9f44b4250d)" style="fill: #800080"/>
   </g>
   <g id="patch_94">
    <path d="M 347.288591 404.12 
L 350.329809 404.12 
L 350.329809 170.293522 
L 347.288591 170.293522 
z
" clip-path="url(#p9f44b4250d)" style="fill: #800080"/>
   </g>
   <g id="patch_95">
    <path d="M 350.329809 404.12 
L 353.371139 404.12 
L 353.371139 110.856883 
L 350.329809 110.856883 
z
" clip-path="url(#p9f44b4250d)" style="fill: #800080"/>
   </g>
   <g id="patch_96">
    <path d="M 353.371139 404.12 
L 356.412357 404.12 
L 356.412357 198.035646 
L 353.371139 198.035646 
z
" clip-path="url(#p9f44b4250d)" style="fill: #800080"/>
   </g>
   <g id="patch_97">
    <path d="M 356.412357 404.12 
L 359.453687 404.12 
L 359.453687 150.487034 
L 356.412357 150.487034 
z
" clip-path="url(#p9f44b4250d)" style="fill: #800080"/>
   </g>
   <g id="patch_98">
    <path d="M 359.453687 404.12 
L 362.494905 404.12 
L 362.494905 134.625076 
L 359.453687 134.625076 
z
" clip-path="url(#p9f44b4250d)" style="fill: #800080"/>
   </g>
   <g id="patch_99">
    <path d="M 362.494905 404.12 
L 365.536234 404.12 
L 365.536234 130.671959 
L 362.494905 130.671959 
z
" clip-path="url(#p9f44b4250d)" style="fill: #800080"/>
   </g>
   <g id="patch_100">
    <path d="M 365.536234 404.12 
L 368.577452 404.12 
L 368.577452 110.846112 
L 365.536234 110.846112 
z
" clip-path="url(#p9f44b4250d)" style="fill: #800080"/>
   </g>
   <g id="patch_101">
    <path d="M 368.577452 404.12 
L 371.618782 404.12 
L 371.618782 142.561004 
L 368.577452 142.561004 
z
" clip-path="url(#p9f44b4250d)" style="fill: #800080"/>
   </g>
   <g id="patch_102">
    <path d="M 371.618782 404.12 
L 374.66 404.12 
L 374.66 102.919791 
L 371.618782 102.919791 
z
" clip-path="url(#p9f44b4250d)" style="fill: #800080"/>
   </g>
   <g id="patch_103">
    <path d="M 374.66 404.12 
L 377.701218 404.12 
L 377.701218 178.219843 
L 374.66 178.219843 
z
" clip-path="url(#p9f44b4250d)" style="fill: #800080"/>
   </g>
   <g id="patch_104">
    <path d="M 377.701218 404.12 
L 380.742548 404.12 
L 380.742548 150.487034 
L 377.701218 150.487034 
z
" clip-path="url(#p9f44b4250d)" style="fill: #800080"/>
   </g>
   <g id="patch_105">
    <path d="M 380.742548 404.12 
L 383.783766 404.12 
L 383.783766 43.472381 
L 380.742548 43.472381 
z
" clip-path="url(#p9f44b4250d)" style="fill: #800080"/>
   </g>
   <g id="patch_106">
    <path d="M 383.783766 404.12 
L 386.825095 404.12 
L 386.825095 162.37608 
L 383.783766 162.37608 
z
" clip-path="url(#p9f44b4250d)" style="fill: #800080"/>
   </g>
   <g id="patch_107">
    <path d="M 386.825095 404.12 
L 389.866313 404.12 
L 389.866313 91.030309 
L 386.825095 91.030309 
z
" clip-path="url(#p9f44b4250d)" style="fill: #800080"/>
   </g>
   <g id="patch_108">
    <path d="M 389.866313 404.12 
L 392.907643 404.12 
L 392.907643 126.708944 
L 389.866313 126.708944 
z
" clip-path="url(#p9f44b4250d)" style="fill: #800080"/>
   </g>
   <g id="patch_109">
    <path d="M 392.907643 404.12 
L 395.948861 404.12 
L 395.948861 67.251345 
L 392.907643 67.251345 
z
" clip-path="url(#p9f44b4250d)" style="fill: #800080"/>
   </g>
   <g id="patch_110">
    <path d="M 395.948861 404.12 
L 398.990191 404.12 
L 398.990191 122.745929 
L 395.948861 122.745929 
z
" clip-path="url(#p9f44b4250d)" style="fill: #800080"/>
   </g>
   <g id="patch_111">
    <path d="M 398.990191 404.12 
L 402.031409 404.12 
L 402.031409 87.067148 
L 398.990191 87.067148 
z
" clip-path="url(#p9f44b4250d)" style="fill: #800080"/>
   </g>
   <g id="patch_112">
    <path d="M 402.031409 404.12 
L 405.072738 404.12 
L 405.072738 150.487034 
L 402.031409 150.487034 
z
" clip-path="url(#p9f44b4250d)" style="fill: #800080"/>
   </g>
   <g id="patch_113">
    <path d="M 405.072738 404.12 
L 408.113956 404.12 
L 408.113956 170.293522 
L 405.072738 170.293522 
z
" clip-path="url(#p9f44b4250d)" style="fill: #800080"/>
   </g>
   <g id="patch_114">
    <path d="M 408.113956 404.12 
L 411.155286 404.12 
L 411.155286 75.189748 
L 408.113956 75.189748 
z
" clip-path="url(#p9f44b4250d)" style="fill: #800080"/>
   </g>
   <g id="patch_115">
    <path d="M 411.155286 404.12 
L 414.196504 404.12 
L 414.196504 126.698755 
L 411.155286 126.698755 
z
" clip-path="url(#p9f44b4250d)" style="fill: #800080"/>
   </g>
   <g id="patch_116">
    <path d="M 414.196504 404.12 
L 417.237834 404.12 
L 417.237834 114.819899 
L 414.196504 114.819899 
z
" clip-path="url(#p9f44b4250d)" style="fill: #800080"/>
   </g>
   <g id="patch_117">
    <path d="M 417.237834 404.12 
L 420.279052 404.12 
L 420.279052 154.440879 
L 417.237834 154.440879 
z
" clip-path="url(#p9f44b4250d)" style="fill: #800080"/>
   </g>
   <g id="patch_118">
    <path d="M 420.279052 404.12 
L 423.320382 404.12 
L 423.320382 130.671959 
L 420.279052 130.671959 
z
" clip-path="url(#p9f44b4250d)" style="fill: #800080"/>
   </g>
   <g id="patch_119">
    <path d="M 423.320382 404.12 
L 426.3616 404.12 
L 426.3616 98.95663 
L 423.320382 98.95663 
z
" clip-path="url(#p9f44b4250d)" style="fill: #800080"/>
   </g>
   <g id="patch_120">
    <path d="M 426.3616 404.12 
L 429.402929 404.12 
L 429.402929 130.671959 
L 426.3616 130.671959 
z
" clip-path="url(#p9f44b4250d)" style="fill: #800080"/>
   </g>
   <g id="patch_121">
    <path d="M 429.402929 404.12 
L 432.444147 404.12 
L 432.444147 142.551397 
L 429.402929 142.551397 
z
" clip-path="url(#p9f44b4250d)" style="fill: #800080"/>
   </g>
   <g id="patch_122">
    <path d="M 432.444147 404.12 
L 435.485477 404.12 
L 435.485477 126.708944 
L 432.444147 126.708944 
z
" clip-path="url(#p9f44b4250d)" style="fill: #800080"/>
   </g>
   <g id="patch_123">
    <path d="M 435.485477 404.12 
L 438.526695 404.12 
L 438.526695 182.183004 
L 435.485477 182.183004 
z
" clip-path="url(#p9f44b4250d)" style="fill: #800080"/>
   </g>
   <g id="patch_124">
    <path d="M 438.526695 404.12 
L 441.568025 404.12 
L 441.568025 138.597989 
L 438.526695 138.597989 
z
" clip-path="url(#p9f44b4250d)" style="fill: #800080"/>
   </g>
   <g id="patch_125">
    <path d="M 441.568025 404.12 
L 444.609243 404.12 
L 444.609243 178.219843 
L 441.568025 178.219843 
z
" clip-path="url(#p9f44b4250d)" style="fill: #800080"/>
   </g>
   <g id="patch_126">
    <path d="M 444.609243 404.12 
L 447.650572 404.12 
L 447.650572 138.597989 
L 444.609243 138.597989 
z
" clip-path="url(#p9f44b4250d)" style="fill: #800080"/>
   </g>
   <g id="patch_127">
    <path d="M 447.650572 404.12 
L 450.69179 404.12 
L 450.69179 209.925128 
L 447.650572 209.925128 
z
" clip-path="url(#p9f44b4250d)" style="fill: #800080"/>
   </g>
   <g id="patch_128">
    <path d="M 450.69179 404.12 
L 453.73312 404.12 
L 453.73312 110.856883 
L 450.69179 110.856883 
z
" clip-path="url(#p9f44b4250d)" style="fill: #800080"/>
   </g>
   <g id="patch_129">
    <path d="M 453.73312 404.12 
L 456.774338 404.12 
L 456.774338 134.625076 
L 453.73312 134.625076 
z
" clip-path="url(#p9f44b4250d)" style="fill: #800080"/>
   </g>
   <g id="patch_130">
    <path d="M 456.774338 404.12 
L 459.815668 404.12 
L 459.815668 205.969246 
L 456.774338 205.969246 
z
" clip-path="url(#p9f44b4250d)" style="fill: #800080"/>
   </g>
   <g id="patch_131">
    <path d="M 459.815668 404.12 
L 462.856886 404.12 
L 462.856886 201.998807 
L 459.815668 201.998807 
z
" clip-path="url(#p9f44b4250d)" style="fill: #800080"/>
   </g>
   <g id="patch_132">
    <path d="M 462.856886 404.12 
L 465.898215 404.12 
L 465.898215 221.821306 
L 462.856886 221.821306 
z
" clip-path="url(#p9f44b4250d)" style="fill: #800080"/>
   </g>
   <g id="patch_133">
    <path d="M 465.898215 404.12 
L 468.939433 404.12 
L 468.939433 178.219843 
L 465.898215 178.219843 
z
" clip-path="url(#p9f44b4250d)" style="fill: #800080"/>
   </g>
   <g id="patch_134">
    <path d="M 468.939433 404.12 
L 471.980763 404.12 
L 471.980763 233.710351 
L 468.939433 233.710351 
z
" clip-path="url(#p9f44b4250d)" style="fill: #800080"/>
   </g>
   <g id="patch_135">
    <path d="M 471.980763 404.12 
L 475.021981 404.12 
L 475.021981 237.667253 
L 471.980763 237.667253 
z
" clip-path="url(#p9f44b4250d)" style="fill: #800080"/>
   </g>
   <g id="patch_136">
    <path d="M 475.021981 404.12 
L 478.063311 404.12 
L 478.063311 293.155578 
L 475.021981 293.155578 
z
" clip-path="url(#p9f44b4250d)" style="fill: #800080"/>
   </g>
   <g id="patch_137">
    <path d="M 478.063311 404.12 
L 481.104529 404.12 
L 481.104529 261.446217 
L 478.063311 261.446217 
z
" clip-path="url(#p9f44b4250d)" style="fill: #800080"/>
   </g>
   <g id="patch_138">
    <path d="M 481.104529 404.12 
L 484.145858 404.12 
L 484.145858 205.969246 
L 481.104529 205.969246 
z
" clip-path="url(#p9f44b4250d)" style="fill: #800080"/>
   </g>
   <g id="patch_139">
    <path d="M 484.145858 404.12 
L 487.187076 404.12 
L 487.187076 261.446217 
L 484.145858 261.446217 
z
" clip-path="url(#p9f44b4250d)" style="fill: #800080"/>
   </g>
   <g id="patch_140">
    <path d="M 487.187076 404.12 
L 490.228406 404.12 
L 490.228406 229.747336 
L 487.187076 229.747336 
z
" clip-path="url(#p9f44b4250d)" style="fill: #800080"/>
   </g>
   <g id="patch_141">
    <path d="M 490.228406 404.12 
L 493.269624 404.12 
L 493.269624 233.704092 
L 490.228406 233.704092 
z
" clip-path="url(#p9f44b4250d)" style="fill: #800080"/>
   </g>
   <g id="patch_142">
    <path d="M 493.269624 404.12 
L 496.310954 404.12 
L 496.310954 233.710351 
L 493.269624 233.710351 
z
" clip-path="url(#p9f44b4250d)" style="fill: #800080"/>
   </g>
   <g id="patch_143">
    <path d="M 496.310954 404.12 
L 499.352172 404.12 
L 499.352172 285.225181 
L 496.310954 285.225181 
z
" clip-path="url(#p9f44b4250d)" style="fill: #800080"/>
   </g>
   <g id="patch_144">
    <path d="M 499.352172 404.12 
L 502.393501 404.12 
L 502.393501 229.747336 
L 499.352172 229.747336 
z
" clip-path="url(#p9f44b4250d)" style="fill: #800080"/>
   </g>
   <g id="patch_145">
    <path d="M 502.393501 404.12 
L 505.434719 404.12 
L 505.434719 265.409377 
L 502.393501 265.409377 
z
" clip-path="url(#p9f44b4250d)" style="fill: #800080"/>
   </g>
   <g id="patch_146">
    <path d="M 505.434719 404.12 
L 508.476049 404.12 
L 508.476049 277.303517 
L 505.434719 277.303517 
z
" clip-path="url(#p9f44b4250d)" style="fill: #800080"/>
   </g>
   <g id="patch_147">
    <path d="M 508.476049 404.12 
L 511.517267 404.12 
L 511.517267 305.040984 
L 508.476049 305.040984 
z
" clip-path="url(#p9f44b4250d)" style="fill: #800080"/>
   </g>
   <g id="patch_148">
    <path d="M 511.517267 404.12 
L 514.558597 404.12 
L 514.558597 336.748743 
L 511.517267 336.748743 
z
" clip-path="url(#p9f44b4250d)" style="fill: #800080"/>
   </g>
   <g id="patch_149">
    <path d="M 514.558597 404.12 
L 517.599815 404.12 
L 517.599815 301.077823 
L 514.558597 301.077823 
z
" clip-path="url(#p9f44b4250d)" style="fill: #800080"/>
   </g>
   <g id="patch_150">
    <path d="M 517.599815 404.12 
L 520.641145 404.12 
L 520.641145 293.155578 
L 517.599815 293.155578 
z
" clip-path="url(#p9f44b4250d)" style="fill: #800080"/>
   </g>
   <g id="patch_151">
    <path d="M 520.641145 404.12 
L 523.682363 404.12 
L 523.682363 309.004144 
L 520.641145 309.004144 
z
" clip-path="url(#p9f44b4250d)" style="fill: #800080"/>
   </g>
   <g id="patch_152">
    <path d="M 523.682363 404.12 
L 526.723581 404.12 
L 526.723581 309.004144 
L 523.682363 309.004144 
z
" clip-path="url(#p9f44b4250d)" style="fill: #800080"/>
   </g>
   <g id="patch_153">
    <path d="M 526.723581 404.12 
L 529.76491 404.12 
L 529.76491 336.748743 
L 526.723581 336.748743 
z
" clip-path="url(#p9f44b4250d)" style="fill: #800080"/>
   </g>
   <g id="patch_154">
    <path d="M 529.76491 404.12 
L 532.806128 404.12 
L 532.806128 297.114662 
L 529.76491 297.114662 
z
" clip-path="url(#p9f44b4250d)" style="fill: #800080"/>
   </g>
   <g id="patch_155">
    <path d="M 532.806128 404.12 
L 535.847458 404.12 
L 535.847458 324.859698 
L 532.806128 324.859698 
z
" clip-path="url(#p9f44b4250d)" style="fill: #800080"/>
   </g>
   <g id="patch_156">
    <path d="M 535.847458 404.12 
L 538.888676 404.12 
L 538.888676 328.819948 
L 535.847458 328.819948 
z
" clip-path="url(#p9f44b4250d)" style="fill: #800080"/>
   </g>
   <g id="patch_157">
    <path d="M 538.888676 404.12 
L 541.930006 404.12 
L 541.930006 332.785728 
L 538.888676 332.785728 
z
" clip-path="url(#p9f44b4250d)" style="fill: #800080"/>
   </g>
   <g id="patch_158">
    <path d="M 541.930006 404.12 
L 544.971224 404.12 
L 544.971224 316.930466 
L 541.930006 316.930466 
z
" clip-path="url(#p9f44b4250d)" style="fill: #800080"/>
   </g>
   <g id="patch_159">
    <path d="M 544.971224 404.12 
L 548.012553 404.12 
L 548.012553 344.674774 
L 544.971224 344.674774 
z
" clip-path="url(#p9f44b4250d)" style="fill: #800080"/>
   </g>
   <g id="patch_160">
    <path d="M 548.012553 404.12 
L 551.053771 404.12 
L 551.053771 324.856787 
L 548.012553 324.856787 
z
" clip-path="url(#p9f44b4250d)" style="fill: #800080"/>
   </g>
   <g id="patch_161">
    <path d="M 551.053771 404.12 
L 554.095101 404.12 
L 554.095101 348.637789 
L 551.053771 348.637789 
z
" clip-path="url(#p9f44b4250d)" style="fill: #800080"/>
   </g>
   <g id="patch_162">
    <path d="M 554.095101 404.12 
L 557.136319 404.12 
L 557.136319 348.635751 
L 554.095101 348.635751 
z
" clip-path="url(#p9f44b4250d)" style="fill: #800080"/>
   </g>
   <g id="patch_163">
    <path d="M 557.136319 404.12 
L 560.177649 404.12 
L 560.177649 360.526834 
L 557.136319 360.526834 
z
" clip-path="url(#p9f44b4250d)" style="fill: #800080"/>
   </g>
   <g id="patch_164">
    <path d="M 560.177649 404.12 
L 563.218867 404.12 
L 563.218867 372.414715 
L 560.177649 372.414715 
z
" clip-path="url(#p9f44b4250d)" style="fill: #800080"/>
   </g>
   <g id="patch_165">
    <path d="M 563.218867 404.12 
L 566.260196 404.12 
L 566.260196 364.489849 
L 563.218867 364.489849 
z
" clip-path="url(#p9f44b4250d)" style="fill: #800080"/>
   </g>
   <g id="patch_166">
    <path d="M 566.260196 404.12 
L 569.301414 404.12 
L 569.301414 364.488394 
L 566.260196 364.488394 
z
" clip-path="url(#p9f44b4250d)" style="fill: #800080"/>
   </g>
   <g id="patch_167">
    <path d="M 569.301414 404.12 
L 572.342744 404.12 
L 572.342744 380.341909 
L 569.301414 380.341909 
z
" clip-path="url(#p9f44b4250d)" style="fill: #800080"/>
   </g>
   <g id="patch_168">
    <path d="M 572.342744 404.12 
L 575.383962 404.12 
L 575.383962 376.377875 
L 572.342744 376.377875 
z
" clip-path="url(#p9f44b4250d)" style="fill: #800080"/>
   </g>
   <g id="patch_169">
    <path d="M 575.383962 404.12 
L 578.425292 404.12 
L 578.425292 356.563819 
L 575.383962 356.563819 
z
" clip-path="url(#p9f44b4250d)" style="fill: #800080"/>
   </g>
   <g id="patch_170">
    <path d="M 578.425292 404.12 
L 581.46651 404.12 
L 581.46651 376.377875 
L 578.425292 376.377875 
z
" clip-path="url(#p9f44b4250d)" style="fill: #800080"/>
   </g>
   <g id="patch_171">
    <path d="M 581.46651 404.12 
L 584.507839 404.12 
L 584.507839 372.415879 
L 581.46651 372.415879 
z
" clip-path="url(#p9f44b4250d)" style="fill: #800080"/>
   </g>
   <g id="patch_172">
    <path d="M 584.507839 404.12 
L 587.549057 404.12 
L 587.549057 356.562072 
L 584.507839 356.562072 
z
" clip-path="url(#p9f44b4250d)" style="fill: #800080"/>
   </g>
   <g id="patch_173">
    <path d="M 587.549057 404.12 
L 590.590387 404.12 
L 590.590387 392.230955 
L 587.549057 392.230955 
z
" clip-path="url(#p9f44b4250d)" style="fill: #800080"/>
   </g>
   <g id="patch_174">
    <path d="M 590.590387 404.12 
L 593.631605 404.12 
L 593.631605 400.156839 
L 590.590387 400.156839 
z
" clip-path="url(#p9f44b4250d)" style="fill: #800080"/>
   </g>
   <g id="patch_175">
    <path d="M 593.631605 404.12 
L 596.672935 404.12 
L 596.672935 384.304925 
L 593.631605 384.304925 
z
" clip-path="url(#p9f44b4250d)" style="fill: #800080"/>
   </g>
   <g id="patch_176">
    <path d="M 596.672935 404.12 
L 599.714153 404.12 
L 599.714153 392.230518 
L 596.672935 392.230518 
z
" clip-path="url(#p9f44b4250d)" style="fill: #800080"/>
   </g>
   <g id="patch_177">
    <path d="M 599.714153 404.12 
L 602.755482 404.12 
L 602.755482 388.26794 
L 599.714153 388.26794 
z
" clip-path="url(#p9f44b4250d)" style="fill: #800080"/>
   </g>
   <g id="patch_178">
    <path d="M 602.755482 404.12 
L 605.7967 404.12 
L 605.7967 372.414715 
L 602.755482 372.414715 
z
" clip-path="url(#p9f44b4250d)" style="fill: #800080"/>
   </g>
   <g id="patch_179">
    <path d="M 605.7967 404.12 
L 608.83803 404.12 
L 608.83803 392.230955 
L 605.7967 392.230955 
z
" clip-path="url(#p9f44b4250d)" style="fill: #800080"/>
   </g>
   <g id="patch_180">
    <path d="M 608.83803 404.12 
L 611.879248 404.12 
L 611.879248 392.230518 
L 608.83803 392.230518 
z
" clip-path="url(#p9f44b4250d)" style="fill: #800080"/>
   </g>
   <g id="patch_181">
    <path d="M 611.879248 404.12 
L 614.920578 404.12 
L 614.920578 392.230955 
L 611.879248 392.230955 
z
" clip-path="url(#p9f44b4250d)" style="fill: #800080"/>
   </g>
   <g id="patch_182">
    <path d="M 614.920578 404.12 
L 617.961796 404.12 
L 617.961796 388.267357 
L 614.920578 388.267357 
z
" clip-path="url(#p9f44b4250d)" style="fill: #800080"/>
   </g>
   <g id="patch_183">
    <path d="M 617.961796 404.12 
L 621.003126 404.12 
L 621.003126 392.230955 
L 617.961796 392.230955 
z
" clip-path="url(#p9f44b4250d)" style="fill: #800080"/>
   </g>
   <g id="patch_184">
    <path d="M 621.003126 404.12 
L 624.044344 404.12 
L 624.044344 392.230518 
L 621.003126 392.230518 
z
" clip-path="url(#p9f44b4250d)" style="fill: #800080"/>
   </g>
   <g id="patch_185">
    <path d="M 624.044344 404.12 
L 627.085673 404.12 
L 627.085673 400.156985 
L 624.044344 400.156985 
z
" clip-path="url(#p9f44b4250d)" style="fill: #800080"/>
   </g>
   <g id="patch_186">
    <path d="M 627.085673 404.12 
L 630.126891 404.12 
L 630.126891 404.12 
L 627.085673 404.12 
z
" clip-path="url(#p9f44b4250d)" style="fill: #800080"/>
   </g>
   <g id="patch_187">
    <path d="M 630.126891 404.12 
L 633.168221 404.12 
L 633.168221 392.230955 
L 630.126891 392.230955 
z
" clip-path="url(#p9f44b4250d)" style="fill: #800080"/>
   </g>
   <g id="patch_188">
    <path d="M 633.168221 404.12 
L 636.209439 404.12 
L 636.209439 400.156839 
L 633.168221 400.156839 
z
" clip-path="url(#p9f44b4250d)" style="fill: #800080"/>
   </g>
   <g id="patch_189">
    <path d="M 636.209439 404.12 
L 639.250769 404.12 
L 639.250769 392.230955 
L 636.209439 392.230955 
z
" clip-path="url(#p9f44b4250d)" style="fill: #800080"/>
   </g>
   <g id="patch_190">
    <path d="M 639.250769 404.12 
L 642.291987 404.12 
L 642.291987 388.267357 
L 639.250769 388.267357 
z
" clip-path="url(#p9f44b4250d)" style="fill: #800080"/>
   </g>
   <g id="patch_191">
    <path d="M 642.291987 404.12 
L 645.333316 404.12 
L 645.333316 396.19397 
L 642.291987 396.19397 
z
" clip-path="url(#p9f44b4250d)" style="fill: #800080"/>
   </g>
   <g id="patch_192">
    <path d="M 645.333316 404.12 
L 648.374534 404.12 
L 648.374534 404.12 
L 645.333316 404.12 
z
" clip-path="url(#p9f44b4250d)" style="fill: #800080"/>
   </g>
   <g id="patch_193">
    <path d="M 648.374534 404.12 
L 651.415864 404.12 
L 651.415864 400.156985 
L 648.374534 400.156985 
z
" clip-path="url(#p9f44b4250d)" style="fill: #800080"/>
   </g>
   <g id="patch_194">
    <path d="M 651.415864 404.12 
L 654.457082 404.12 
L 654.457082 404.12 
L 651.415864 404.12 
z
" clip-path="url(#p9f44b4250d)" style="fill: #800080"/>
   </g>
   <g id="patch_195">
    <path d="M 654.457082 404.12 
L 657.498412 404.12 
L 657.498412 392.230955 
L 654.457082 392.230955 
z
" clip-path="url(#p9f44b4250d)" style="fill: #800080"/>
   </g>
   <g id="patch_196">
    <path d="M 657.498412 404.12 
L 660.53963 404.12 
L 660.53963 404.12 
L 657.498412 404.12 
z
" clip-path="url(#p9f44b4250d)" style="fill: #800080"/>
   </g>
   <g id="patch_197">
    <path d="M 660.53963 404.12 
L 663.580959 404.12 
L 663.580959 400.156985 
L 660.53963 400.156985 
z
" clip-path="url(#p9f44b4250d)" style="fill: #800080"/>
   </g>
   <g id="patch_198">
    <path d="M 663.580959 404.12 
L 666.622177 404.12 
L 666.622177 396.193679 
L 663.580959 396.193679 
z
" clip-path="url(#p9f44b4250d)" style="fill: #800080"/>
   </g>
   <g id="patch_199">
    <path d="M 666.622177 404.12 
L 669.663507 404.12 
L 669.663507 400.156985 
L 666.622177 400.156985 
z
" clip-path="url(#p9f44b4250d)" style="fill: #800080"/>
   </g>
   <g id="patch_200">
    <path d="M 669.663507 404.12 
L 672.704725 404.12 
L 672.704725 404.12 
L 669.663507 404.12 
z
" clip-path="url(#p9f44b4250d)" style="fill: #800080"/>
   </g>
   <g id="patch_201">
    <path d="M 672.704725 404.12 
L 675.746055 404.12 
L 675.746055 396.19397 
L 672.704725 396.19397 
z
" clip-path="url(#p9f44b4250d)" style="fill: #800080"/>
   </g>
   <g id="patch_202">
    <path d="M 675.746055 404.12 
L 678.787273 404.12 
L 678.787273 400.156839 
L 675.746055 400.156839 
z
" clip-path="url(#p9f44b4250d)" style="fill: #800080"/>
   </g>
   <g id="matplotlib.axis_1">
    <g id="xtick_1">
     <g id="line2d_1">
      <defs>
       <path id="m68f72f7f6a" d="M 0 0 
L 0 3.5 
" style="stroke: #000000; stroke-width: 0.8"/>
      </defs>
      <g>
       <use xlink:href="#m68f72f7f6a" x="95.596246" y="404.12" style="stroke: #000000; stroke-width: 0.8"/>
      </g>
     </g>
     <g id="text_1">
      <!-- 14 -->
      <g transform="translate(89.233746 418.718437) scale(0.1 -0.1)">
       <defs>
        <path id="DejaVuSans-31" d="M 794 531 
L 1825 531 
L 1825 4091 
L 703 3866 
L 703 4441 
L 1819 4666 
L 2450 4666 
L 2450 531 
L 3481 531 
L 3481 0 
L 794 0 
L 794 531 
z
" transform="scale(0.015625)"/>
        <path id="DejaVuSans-34" d="M 2419 4116 
L 825 1625 
L 2419 1625 
L 2419 4116 
z
M 2253 4666 
L 3047 4666 
L 3047 1625 
L 3713 1625 
L 3713 1100 
L 3047 1100 
L 3047 0 
L 2419 0 
L 2419 1100 
L 313 1100 
L 313 1709 
L 2253 4666 
z
" transform="scale(0.015625)"/>
       </defs>
       <use xlink:href="#DejaVuSans-31"/>
       <use xlink:href="#DejaVuSans-34" x="63.623047"/>
      </g>
     </g>
    </g>
    <g id="xtick_2">
     <g id="line2d_2">
      <g>
       <use xlink:href="#m68f72f7f6a" x="212.725028" y="404.12" style="stroke: #000000; stroke-width: 0.8"/>
      </g>
     </g>
     <g id="text_2">
      <!-- 16 -->
      <g transform="translate(206.362528 418.718437) scale(0.1 -0.1)">
       <defs>
        <path id="DejaVuSans-36" d="M 2113 2584 
Q 1688 2584 1439 2293 
Q 1191 2003 1191 1497 
Q 1191 994 1439 701 
Q 1688 409 2113 409 
Q 2538 409 2786 701 
Q 3034 994 3034 1497 
Q 3034 2003 2786 2293 
Q 2538 2584 2113 2584 
z
M 3366 4563 
L 3366 3988 
Q 3128 4100 2886 4159 
Q 2644 4219 2406 4219 
Q 1781 4219 1451 3797 
Q 1122 3375 1075 2522 
Q 1259 2794 1537 2939 
Q 1816 3084 2150 3084 
Q 2853 3084 3261 2657 
Q 3669 2231 3669 1497 
Q 3669 778 3244 343 
Q 2819 -91 2113 -91 
Q 1303 -91 875 529 
Q 447 1150 447 2328 
Q 447 3434 972 4092 
Q 1497 4750 2381 4750 
Q 2619 4750 2861 4703 
Q 3103 4656 3366 4563 
z
" transform="scale(0.015625)"/>
       </defs>
       <use xlink:href="#DejaVuSans-31"/>
       <use xlink:href="#DejaVuSans-36" x="63.623047"/>
      </g>
     </g>
    </g>
    <g id="xtick_3">
     <g id="line2d_3">
      <g>
       <use xlink:href="#m68f72f7f6a" x="329.853809" y="404.12" style="stroke: #000000; stroke-width: 0.8"/>
      </g>
     </g>
     <g id="text_3">
      <!-- 18 -->
      <g transform="translate(323.491309 418.718437) scale(0.1 -0.1)">
       <defs>
        <path id="DejaVuSans-38" d="M 2034 2216 
Q 1584 2216 1326 1975 
Q 1069 1734 1069 1313 
Q 1069 891 1326 650 
Q 1584 409 2034 409 
Q 2484 409 2743 651 
Q 3003 894 3003 1313 
Q 3003 1734 2745 1975 
Q 2488 2216 2034 2216 
z
M 1403 2484 
Q 997 2584 770 2862 
Q 544 3141 544 3541 
Q 544 4100 942 4425 
Q 1341 4750 2034 4750 
Q 2731 4750 3128 4425 
Q 3525 4100 3525 3541 
Q 3525 3141 3298 2862 
Q 3072 2584 2669 2484 
Q 3125 2378 3379 2068 
Q 3634 1759 3634 1313 
Q 3634 634 3220 271 
Q 2806 -91 2034 -91 
Q 1263 -91 848 271 
Q 434 634 434 1313 
Q 434 1759 690 2068 
Q 947 2378 1403 2484 
z
M 1172 3481 
Q 1172 3119 1398 2916 
Q 1625 2713 2034 2713 
Q 2441 2713 2670 2916 
Q 2900 3119 2900 3481 
Q 2900 3844 2670 4047 
Q 2441 4250 2034 4250 
Q 1625 4250 1398 4047 
Q 1172 3844 1172 3481 
z
" transform="scale(0.015625)"/>
       </defs>
       <use xlink:href="#DejaVuSans-31"/>
       <use xlink:href="#DejaVuSans-38" x="63.623047"/>
      </g>
     </g>
    </g>
    <g id="xtick_4">
     <g id="line2d_4">
      <g>
       <use xlink:href="#m68f72f7f6a" x="446.98259" y="404.12" style="stroke: #000000; stroke-width: 0.8"/>
      </g>
     </g>
     <g id="text_4">
      <!-- 20 -->
      <g transform="translate(440.62009 418.718437) scale(0.1 -0.1)">
       <defs>
        <path id="DejaVuSans-32" d="M 1228 531 
L 3431 531 
L 3431 0 
L 469 0 
L 469 531 
Q 828 903 1448 1529 
Q 2069 2156 2228 2338 
Q 2531 2678 2651 2914 
Q 2772 3150 2772 3378 
Q 2772 3750 2511 3984 
Q 2250 4219 1831 4219 
Q 1534 4219 1204 4116 
Q 875 4013 500 3803 
L 500 4441 
Q 881 4594 1212 4672 
Q 1544 4750 1819 4750 
Q 2544 4750 2975 4387 
Q 3406 4025 3406 3419 
Q 3406 3131 3298 2873 
Q 3191 2616 2906 2266 
Q 2828 2175 2409 1742 
Q 1991 1309 1228 531 
z
" transform="scale(0.015625)"/>
        <path id="DejaVuSans-30" d="M 2034 4250 
Q 1547 4250 1301 3770 
Q 1056 3291 1056 2328 
Q 1056 1369 1301 889 
Q 1547 409 2034 409 
Q 2525 409 2770 889 
Q 3016 1369 3016 2328 
Q 3016 3291 2770 3770 
Q 2525 4250 2034 4250 
z
M 2034 4750 
Q 2819 4750 3233 4129 
Q 3647 3509 3647 2328 
Q 3647 1150 3233 529 
Q 2819 -91 2034 -91 
Q 1250 -91 836 529 
Q 422 1150 422 2328 
Q 422 3509 836 4129 
Q 1250 4750 2034 4750 
z
" transform="scale(0.015625)"/>
       </defs>
       <use xlink:href="#DejaVuSans-32"/>
       <use xlink:href="#DejaVuSans-30" x="63.623047"/>
      </g>
     </g>
    </g>
    <g id="xtick_5">
     <g id="line2d_5">
      <g>
       <use xlink:href="#m68f72f7f6a" x="564.111371" y="404.12" style="stroke: #000000; stroke-width: 0.8"/>
      </g>
     </g>
     <g id="text_5">
      <!-- 22 -->
      <g transform="translate(557.748871 418.718437) scale(0.1 -0.1)">
       <use xlink:href="#DejaVuSans-32"/>
       <use xlink:href="#DejaVuSans-32" x="63.623047"/>
      </g>
     </g>
    </g>
    <g id="xtick_6">
     <g id="line2d_6">
      <g>
       <use xlink:href="#m68f72f7f6a" x="681.240153" y="404.12" style="stroke: #000000; stroke-width: 0.8"/>
      </g>
     </g>
     <g id="text_6">
      <!-- 24 -->
      <g transform="translate(674.877653 418.718437) scale(0.1 -0.1)">
       <use xlink:href="#DejaVuSans-32"/>
       <use xlink:href="#DejaVuSans-34" x="63.623047"/>
      </g>
     </g>
    </g>
   </g>
   <g id="matplotlib.axis_2">
    <g id="ytick_1">
     <g id="line2d_7">
      <defs>
       <path id="m1d2018183d" d="M 0 0 
L -3.5 0 
" style="stroke: #000000; stroke-width: 0.8"/>
      </defs>
      <g>
       <use xlink:href="#m1d2018183d" x="40.12" y="404.12" style="stroke: #000000; stroke-width: 0.8"/>
      </g>
     </g>
     <g id="text_7">
      <!-- 0.00 -->
      <g transform="translate(10.854375 407.919219) scale(0.1 -0.1)">
       <defs>
        <path id="DejaVuSans-2e" d="M 684 794 
L 1344 794 
L 1344 0 
L 684 0 
L 684 794 
z
" transform="scale(0.015625)"/>
       </defs>
       <use xlink:href="#DejaVuSans-30"/>
       <use xlink:href="#DejaVuSans-2e" x="63.623047"/>
       <use xlink:href="#DejaVuSans-30" x="95.410156"/>
       <use xlink:href="#DejaVuSans-30" x="159.033203"/>
      </g>
     </g>
    </g>
    <g id="ytick_2">
     <g id="line2d_8">
      <g>
       <use xlink:href="#m1d2018183d" x="40.12" y="352.668788" style="stroke: #000000; stroke-width: 0.8"/>
      </g>
     </g>
     <g id="text_8">
      <!-- 0.05 -->
      <g transform="translate(10.854375 356.468007) scale(0.1 -0.1)">
       <defs>
        <path id="DejaVuSans-35" d="M 691 4666 
L 3169 4666 
L 3169 4134 
L 1269 4134 
L 1269 2991 
Q 1406 3038 1543 3061 
Q 1681 3084 1819 3084 
Q 2600 3084 3056 2656 
Q 3513 2228 3513 1497 
Q 3513 744 3044 326 
Q 2575 -91 1722 -91 
Q 1428 -91 1123 -41 
Q 819 9 494 109 
L 494 744 
Q 775 591 1075 516 
Q 1375 441 1709 441 
Q 2250 441 2565 725 
Q 2881 1009 2881 1497 
Q 2881 1984 2565 2268 
Q 2250 2553 1709 2553 
Q 1456 2553 1204 2497 
Q 953 2441 691 2322 
L 691 4666 
z
" transform="scale(0.015625)"/>
       </defs>
       <use xlink:href="#DejaVuSans-30"/>
       <use xlink:href="#DejaVuSans-2e" x="63.623047"/>
       <use xlink:href="#DejaVuSans-30" x="95.410156"/>
       <use xlink:href="#DejaVuSans-35" x="159.033203"/>
      </g>
     </g>
    </g>
    <g id="ytick_3">
     <g id="line2d_9">
      <g>
       <use xlink:href="#m1d2018183d" x="40.12" y="301.217576" style="stroke: #000000; stroke-width: 0.8"/>
      </g>
     </g>
     <g id="text_9">
      <!-- 0.10 -->
      <g transform="translate(10.854375 305.016795) scale(0.1 -0.1)">
       <use xlink:href="#DejaVuSans-30"/>
       <use xlink:href="#DejaVuSans-2e" x="63.623047"/>
       <use xlink:href="#DejaVuSans-31" x="95.410156"/>
       <use xlink:href="#DejaVuSans-30" x="159.033203"/>
      </g>
     </g>
    </g>
    <g id="ytick_4">
     <g id="line2d_10">
      <g>
       <use xlink:href="#m1d2018183d" x="40.12" y="249.766364" style="stroke: #000000; stroke-width: 0.8"/>
      </g>
     </g>
     <g id="text_10">
      <!-- 0.15 -->
      <g transform="translate(10.854375 253.565583) scale(0.1 -0.1)">
       <use xlink:href="#DejaVuSans-30"/>
       <use xlink:href="#DejaVuSans-2e" x="63.623047"/>
       <use xlink:href="#DejaVuSans-31" x="95.410156"/>
       <use xlink:href="#DejaVuSans-35" x="159.033203"/>
      </g>
     </g>
    </g>
    <g id="ytick_5">
     <g id="line2d_11">
      <g>
       <use xlink:href="#m1d2018183d" x="40.12" y="198.315153" style="stroke: #000000; stroke-width: 0.8"/>
      </g>
     </g>
     <g id="text_11">
      <!-- 0.20 -->
      <g transform="translate(10.854375 202.114371) scale(0.1 -0.1)">
       <use xlink:href="#DejaVuSans-30"/>
       <use xlink:href="#DejaVuSans-2e" x="63.623047"/>
       <use xlink:href="#DejaVuSans-32" x="95.410156"/>
       <use xlink:href="#DejaVuSans-30" x="159.033203"/>
      </g>
     </g>
    </g>
    <g id="ytick_6">
     <g id="line2d_12">
      <g>
       <use xlink:href="#m1d2018183d" x="40.12" y="146.863941" style="stroke: #000000; stroke-width: 0.8"/>
      </g>
     </g>
     <g id="text_12">
      <!-- 0.25 -->
      <g transform="translate(10.854375 150.66316) scale(0.1 -0.1)">
       <use xlink:href="#DejaVuSans-30"/>
       <use xlink:href="#DejaVuSans-2e" x="63.623047"/>
       <use xlink:href="#DejaVuSans-32" x="95.410156"/>
       <use xlink:href="#DejaVuSans-35" x="159.033203"/>
      </g>
     </g>
    </g>
    <g id="ytick_7">
     <g id="line2d_13">
      <g>
       <use xlink:href="#m1d2018183d" x="40.12" y="95.412729" style="stroke: #000000; stroke-width: 0.8"/>
      </g>
     </g>
     <g id="text_13">
      <!-- 0.30 -->
      <g transform="translate(10.854375 99.211948) scale(0.1 -0.1)">
       <defs>
        <path id="DejaVuSans-33" d="M 2597 2516 
Q 3050 2419 3304 2112 
Q 3559 1806 3559 1356 
Q 3559 666 3084 287 
Q 2609 -91 1734 -91 
Q 1441 -91 1130 -33 
Q 819 25 488 141 
L 488 750 
Q 750 597 1062 519 
Q 1375 441 1716 441 
Q 2309 441 2620 675 
Q 2931 909 2931 1356 
Q 2931 1769 2642 2001 
Q 2353 2234 1838 2234 
L 1294 2234 
L 1294 2753 
L 1863 2753 
Q 2328 2753 2575 2939 
Q 2822 3125 2822 3475 
Q 2822 3834 2567 4026 
Q 2313 4219 1838 4219 
Q 1578 4219 1281 4162 
Q 984 4106 628 3988 
L 628 4550 
Q 988 4650 1302 4700 
Q 1616 4750 1894 4750 
Q 2613 4750 3031 4423 
Q 3450 4097 3450 3541 
Q 3450 3153 3228 2886 
Q 3006 2619 2597 2516 
z
" transform="scale(0.015625)"/>
       </defs>
       <use xlink:href="#DejaVuSans-30"/>
       <use xlink:href="#DejaVuSans-2e" x="63.623047"/>
       <use xlink:href="#DejaVuSans-33" x="95.410156"/>
       <use xlink:href="#DejaVuSans-30" x="159.033203"/>
      </g>
     </g>
    </g>
    <g id="ytick_8">
     <g id="line2d_14">
      <g>
       <use xlink:href="#m1d2018183d" x="40.12" y="43.961517" style="stroke: #000000; stroke-width: 0.8"/>
      </g>
     </g>
     <g id="text_14">
      <!-- 0.35 -->
      <g transform="translate(10.854375 47.760736) scale(0.1 -0.1)">
       <use xlink:href="#DejaVuSans-30"/>
       <use xlink:href="#DejaVuSans-2e" x="63.623047"/>
       <use xlink:href="#DejaVuSans-33" x="95.410156"/>
       <use xlink:href="#DejaVuSans-35" x="159.033203"/>
      </g>
     </g>
    </g>
   </g>
   <g id="line2d_15">
    <path d="M 70.532727 403.974613 
L 94.2784 403.702586 
L 110.108849 403.313003 
L 122.89498 402.780355 
L 133.245658 402.134379 
L 142.37861 401.344866 
L 150.293834 400.445636 
L 157.600195 399.39588 
L 164.297692 398.211026 
L 170.386326 396.917226 
L 176.47496 395.385614 
L 181.954731 393.776594 
L 187.434502 391.922576 
L 192.305409 390.047116 
L 197.176316 387.937156 
L 202.047224 385.572589 
L 206.918131 382.933049 
L 211.180175 380.381867 
L 215.442219 377.591076 
L 219.704262 374.547523 
L 223.966306 371.238565 
L 228.22835 367.652263 
L 232.490394 363.777588 
L 236.752438 359.60464 
L 241.014482 355.12487 
L 245.276526 350.331315 
L 249.538569 345.218829 
L 253.800613 339.784316 
L 258.062657 334.026958 
L 262.933564 327.054076 
L 267.804472 319.66865 
L 272.675379 311.8825 
L 278.15515 302.665598 
L 283.63492 292.996062 
L 289.723554 281.772541 
L 296.421052 268.926331 
L 304.336276 253.22194 
L 316.513544 228.461823 
L 328.690813 203.842296 
L 335.997174 189.59332 
L 341.476944 179.350825 
L 346.347851 170.662352 
L 351.218759 162.442521 
L 355.480803 155.691275 
L 359.133983 150.269183 
L 362.787164 145.213188 
L 366.440344 140.549655 
L 369.484661 136.981011 
L 372.528978 133.715304 
L 375.573295 130.764762 
L 378.617612 128.140521 
L 381.661929 125.852554 
L 384.097383 124.270221 
L 386.532836 122.912619 
L 388.96829 121.783099 
L 391.403744 120.884457 
L 393.839197 120.218922 
L 396.274651 119.78815 
L 398.710105 119.593212 
L 401.145558 119.634594 
L 403.581012 119.912193 
L 406.016466 120.425317 
L 408.451919 121.17269 
L 410.887373 122.152456 
L 413.322826 123.362183 
L 415.75828 124.798883 
L 418.193734 126.459011 
L 421.238051 128.842109 
L 424.282368 131.558808 
L 427.326685 134.598804 
L 430.371002 137.950645 
L 433.415319 141.601812 
L 437.068499 146.359229 
L 440.72168 151.503099 
L 444.37486 157.006688 
L 448.636904 163.844538 
L 452.898948 171.086857 
L 457.769855 179.796862 
L 463.249626 190.059108 
L 469.947123 203.117859 
L 478.471211 220.27064 
L 500.390294 264.626944 
L 507.696655 278.780489 
L 513.785289 290.124721 
L 519.26506 299.9176 
L 524.74483 309.268996 
L 529.615738 317.181935 
L 534.486645 324.699114 
L 539.357552 331.807029 
L 544.228459 338.497252 
L 548.490503 344.005547 
L 552.752547 349.191419 
L 557.014591 354.057463 
L 561.276635 358.608378 
L 565.538679 362.850732 
L 569.800723 366.792732 
L 574.062766 370.443989 
L 578.32481 373.815295 
L 582.586854 376.918398 
L 586.848898 379.765799 
L 591.110942 382.37055 
L 595.981849 385.067514 
L 600.852756 387.485423 
L 605.723664 389.644666 
L 610.594571 391.565422 
L 615.465478 393.267435 
L 620.945249 394.94452 
L 626.42502 396.394999 
L 632.513654 397.770748 
L 639.211151 399.033439 
L 645.908649 400.070538 
L 653.21501 400.984868 
L 661.739097 401.815979 
L 670.872048 402.482214 
L 678.787273 402.913055 
L 678.787273 402.913055 
" clip-path="url(#p9f44b4250d)" style="fill: none; stroke-dasharray: 11.1,4.8; stroke-dashoffset: 0; stroke: #ff0000; stroke-opacity: 0.5; stroke-width: 3"/>
   </g>
   <g id="line2d_16">
    <path d="M 399.501454 404.12 
L 399.501454 25.44 
" clip-path="url(#p9f44b4250d)" style="fill: none; stroke-dasharray: 3.7,1.6; stroke-dashoffset: 0; stroke: #ff0000"/>
   </g>
   <g id="line2d_17">
    <path d="M 540.771403 404.12 
L 540.771403 25.44 
" clip-path="url(#p9f44b4250d)" style="fill: none; stroke-dasharray: 3.7,1.6; stroke-dashoffset: 0; stroke: #abbf4d"/>
   </g>
   <g id="line2d_18">
    <path d="M 260.795222 404.12 
L 260.795222 25.44 
" clip-path="url(#p9f44b4250d)" style="fill: none; stroke-dasharray: 3.7,1.6; stroke-dashoffset: 0; stroke: #a74dbf"/>
   </g>
   <g id="patch_203">
    <path d="M 40.12 404.12 
L 40.12 25.44 
" style="fill: none; stroke: #000000; stroke-width: 0.8; stroke-linejoin: miter; stroke-linecap: square"/>
   </g>
   <g id="patch_204">
    <path d="M 709.2 404.12 
L 709.2 25.44 
" style="fill: none; stroke: #000000; stroke-width: 0.8; stroke-linejoin: miter; stroke-linecap: square"/>
   </g>
   <g id="patch_205">
    <path d="M 40.12 404.12 
L 709.2 404.12 
" style="fill: none; stroke: #000000; stroke-width: 0.8; stroke-linejoin: miter; stroke-linecap: square"/>
   </g>
   <g id="patch_206">
    <path d="M 40.12 25.44 
L 709.2 25.44 
" style="fill: none; stroke: #000000; stroke-width: 0.8; stroke-linejoin: miter; stroke-linecap: square"/>
   </g>
   <g id="text_15">
    <!-- mean=19.189 -->
    <g style="fill: #ff0000; opacity: 0.8" transform="translate(399.501454 63.308) scale(0.1 -0.1)">
     <defs>
      <path id="DejaVuSans-6d" d="M 3328 2828 
Q 3544 3216 3844 3400 
Q 4144 3584 4550 3584 
Q 5097 3584 5394 3201 
Q 5691 2819 5691 2113 
L 5691 0 
L 5113 0 
L 5113 2094 
Q 5113 2597 4934 2840 
Q 4756 3084 4391 3084 
Q 3944 3084 3684 2787 
Q 3425 2491 3425 1978 
L 3425 0 
L 2847 0 
L 2847 2094 
Q 2847 2600 2669 2842 
Q 2491 3084 2119 3084 
Q 1678 3084 1418 2786 
Q 1159 2488 1159 1978 
L 1159 0 
L 581 0 
L 581 3500 
L 1159 3500 
L 1159 2956 
Q 1356 3278 1631 3431 
Q 1906 3584 2284 3584 
Q 2666 3584 2933 3390 
Q 3200 3197 3328 2828 
z
" transform="scale(0.015625)"/>
      <path id="DejaVuSans-65" d="M 3597 1894 
L 3597 1613 
L 953 1613 
Q 991 1019 1311 708 
Q 1631 397 2203 397 
Q 2534 397 2845 478 
Q 3156 559 3463 722 
L 3463 178 
Q 3153 47 2828 -22 
Q 2503 -91 2169 -91 
Q 1331 -91 842 396 
Q 353 884 353 1716 
Q 353 2575 817 3079 
Q 1281 3584 2069 3584 
Q 2775 3584 3186 3129 
Q 3597 2675 3597 1894 
z
M 3022 2063 
Q 3016 2534 2758 2815 
Q 2500 3097 2075 3097 
Q 1594 3097 1305 2825 
Q 1016 2553 972 2059 
L 3022 2063 
z
" transform="scale(0.015625)"/>
      <path id="DejaVuSans-61" d="M 2194 1759 
Q 1497 1759 1228 1600 
Q 959 1441 959 1056 
Q 959 750 1161 570 
Q 1363 391 1709 391 
Q 2188 391 2477 730 
Q 2766 1069 2766 1631 
L 2766 1759 
L 2194 1759 
z
M 3341 1997 
L 3341 0 
L 2766 0 
L 2766 531 
Q 2569 213 2275 61 
Q 1981 -91 1556 -91 
Q 1019 -91 701 211 
Q 384 513 384 1019 
Q 384 1609 779 1909 
Q 1175 2209 1959 2209 
L 2766 2209 
L 2766 2266 
Q 2766 2663 2505 2880 
Q 2244 3097 1772 3097 
Q 1472 3097 1187 3025 
Q 903 2953 641 2809 
L 641 3341 
Q 956 3463 1253 3523 
Q 1550 3584 1831 3584 
Q 2591 3584 2966 3190 
Q 3341 2797 3341 1997 
z
" transform="scale(0.015625)"/>
      <path id="DejaVuSans-6e" d="M 3513 2113 
L 3513 0 
L 2938 0 
L 2938 2094 
Q 2938 2591 2744 2837 
Q 2550 3084 2163 3084 
Q 1697 3084 1428 2787 
Q 1159 2491 1159 1978 
L 1159 0 
L 581 0 
L 581 3500 
L 1159 3500 
L 1159 2956 
Q 1366 3272 1645 3428 
Q 1925 3584 2291 3584 
Q 2894 3584 3203 3211 
Q 3513 2838 3513 2113 
z
" transform="scale(0.015625)"/>
      <path id="DejaVuSans-3d" d="M 678 2906 
L 4684 2906 
L 4684 2381 
L 678 2381 
L 678 2906 
z
M 678 1631 
L 4684 1631 
L 4684 1100 
L 678 1100 
L 678 1631 
z
" transform="scale(0.015625)"/>
      <path id="DejaVuSans-39" d="M 703 97 
L 703 672 
Q 941 559 1184 500 
Q 1428 441 1663 441 
Q 2288 441 2617 861 
Q 2947 1281 2994 2138 
Q 2813 1869 2534 1725 
Q 2256 1581 1919 1581 
Q 1219 1581 811 2004 
Q 403 2428 403 3163 
Q 403 3881 828 4315 
Q 1253 4750 1959 4750 
Q 2769 4750 3195 4129 
Q 3622 3509 3622 2328 
Q 3622 1225 3098 567 
Q 2575 -91 1691 -91 
Q 1453 -91 1209 -44 
Q 966 3 703 97 
z
M 1959 2075 
Q 2384 2075 2632 2365 
Q 2881 2656 2881 3163 
Q 2881 3666 2632 3958 
Q 2384 4250 1959 4250 
Q 1534 4250 1286 3958 
Q 1038 3666 1038 3163 
Q 1038 2656 1286 2365 
Q 1534 2075 1959 2075 
z
" transform="scale(0.015625)"/>
     </defs>
     <use xlink:href="#DejaVuSans-6d"/>
     <use xlink:href="#DejaVuSans-65" x="97.412109"/>
     <use xlink:href="#DejaVuSans-61" x="158.935547"/>
     <use xlink:href="#DejaVuSans-6e" x="220.214844"/>
     <use xlink:href="#DejaVuSans-3d" x="283.59375"/>
     <use xlink:href="#DejaVuSans-31" x="367.382812"/>
     <use xlink:href="#DejaVuSans-39" x="431.005859"/>
     <use xlink:href="#DejaVuSans-2e" x="494.628906"/>
     <use xlink:href="#DejaVuSans-31" x="526.416016"/>
     <use xlink:href="#DejaVuSans-38" x="590.039062"/>
     <use xlink:href="#DejaVuSans-39" x="653.662109"/>
    </g>
   </g>
   <g id="text_16">
    <!-- Distribution of bmi of those taller than 173cm -->
    <g transform="translate(237.0275 19.44) scale(0.12 -0.12)">
     <defs>
      <path id="DejaVuSans-44" d="M 1259 4147 
L 1259 519 
L 2022 519 
Q 2988 519 3436 956 
Q 3884 1394 3884 2338 
Q 3884 3275 3436 3711 
Q 2988 4147 2022 4147 
L 1259 4147 
z
M 628 4666 
L 1925 4666 
Q 3281 4666 3915 4102 
Q 4550 3538 4550 2338 
Q 4550 1131 3912 565 
Q 3275 0 1925 0 
L 628 0 
L 628 4666 
z
" transform="scale(0.015625)"/>
      <path id="DejaVuSans-69" d="M 603 3500 
L 1178 3500 
L 1178 0 
L 603 0 
L 603 3500 
z
M 603 4863 
L 1178 4863 
L 1178 4134 
L 603 4134 
L 603 4863 
z
" transform="scale(0.015625)"/>
      <path id="DejaVuSans-73" d="M 2834 3397 
L 2834 2853 
Q 2591 2978 2328 3040 
Q 2066 3103 1784 3103 
Q 1356 3103 1142 2972 
Q 928 2841 928 2578 
Q 928 2378 1081 2264 
Q 1234 2150 1697 2047 
L 1894 2003 
Q 2506 1872 2764 1633 
Q 3022 1394 3022 966 
Q 3022 478 2636 193 
Q 2250 -91 1575 -91 
Q 1294 -91 989 -36 
Q 684 19 347 128 
L 347 722 
Q 666 556 975 473 
Q 1284 391 1588 391 
Q 1994 391 2212 530 
Q 2431 669 2431 922 
Q 2431 1156 2273 1281 
Q 2116 1406 1581 1522 
L 1381 1569 
Q 847 1681 609 1914 
Q 372 2147 372 2553 
Q 372 3047 722 3315 
Q 1072 3584 1716 3584 
Q 2034 3584 2315 3537 
Q 2597 3491 2834 3397 
z
" transform="scale(0.015625)"/>
      <path id="DejaVuSans-74" d="M 1172 4494 
L 1172 3500 
L 2356 3500 
L 2356 3053 
L 1172 3053 
L 1172 1153 
Q 1172 725 1289 603 
Q 1406 481 1766 481 
L 2356 481 
L 2356 0 
L 1766 0 
Q 1100 0 847 248 
Q 594 497 594 1153 
L 594 3053 
L 172 3053 
L 172 3500 
L 594 3500 
L 594 4494 
L 1172 4494 
z
" transform="scale(0.015625)"/>
      <path id="DejaVuSans-72" d="M 2631 2963 
Q 2534 3019 2420 3045 
Q 2306 3072 2169 3072 
Q 1681 3072 1420 2755 
Q 1159 2438 1159 1844 
L 1159 0 
L 581 0 
L 581 3500 
L 1159 3500 
L 1159 2956 
Q 1341 3275 1631 3429 
Q 1922 3584 2338 3584 
Q 2397 3584 2469 3576 
Q 2541 3569 2628 3553 
L 2631 2963 
z
" transform="scale(0.015625)"/>
      <path id="DejaVuSans-62" d="M 3116 1747 
Q 3116 2381 2855 2742 
Q 2594 3103 2138 3103 
Q 1681 3103 1420 2742 
Q 1159 2381 1159 1747 
Q 1159 1113 1420 752 
Q 1681 391 2138 391 
Q 2594 391 2855 752 
Q 3116 1113 3116 1747 
z
M 1159 2969 
Q 1341 3281 1617 3432 
Q 1894 3584 2278 3584 
Q 2916 3584 3314 3078 
Q 3713 2572 3713 1747 
Q 3713 922 3314 415 
Q 2916 -91 2278 -91 
Q 1894 -91 1617 61 
Q 1341 213 1159 525 
L 1159 0 
L 581 0 
L 581 4863 
L 1159 4863 
L 1159 2969 
z
" transform="scale(0.015625)"/>
      <path id="DejaVuSans-75" d="M 544 1381 
L 544 3500 
L 1119 3500 
L 1119 1403 
Q 1119 906 1312 657 
Q 1506 409 1894 409 
Q 2359 409 2629 706 
Q 2900 1003 2900 1516 
L 2900 3500 
L 3475 3500 
L 3475 0 
L 2900 0 
L 2900 538 
Q 2691 219 2414 64 
Q 2138 -91 1772 -91 
Q 1169 -91 856 284 
Q 544 659 544 1381 
z
M 1991 3584 
L 1991 3584 
z
" transform="scale(0.015625)"/>
      <path id="DejaVuSans-6f" d="M 1959 3097 
Q 1497 3097 1228 2736 
Q 959 2375 959 1747 
Q 959 1119 1226 758 
Q 1494 397 1959 397 
Q 2419 397 2687 759 
Q 2956 1122 2956 1747 
Q 2956 2369 2687 2733 
Q 2419 3097 1959 3097 
z
M 1959 3584 
Q 2709 3584 3137 3096 
Q 3566 2609 3566 1747 
Q 3566 888 3137 398 
Q 2709 -91 1959 -91 
Q 1206 -91 779 398 
Q 353 888 353 1747 
Q 353 2609 779 3096 
Q 1206 3584 1959 3584 
z
" transform="scale(0.015625)"/>
      <path id="DejaVuSans-20" transform="scale(0.015625)"/>
      <path id="DejaVuSans-66" d="M 2375 4863 
L 2375 4384 
L 1825 4384 
Q 1516 4384 1395 4259 
Q 1275 4134 1275 3809 
L 1275 3500 
L 2222 3500 
L 2222 3053 
L 1275 3053 
L 1275 0 
L 697 0 
L 697 3053 
L 147 3053 
L 147 3500 
L 697 3500 
L 697 3744 
Q 697 4328 969 4595 
Q 1241 4863 1831 4863 
L 2375 4863 
z
" transform="scale(0.015625)"/>
      <path id="DejaVuSans-68" d="M 3513 2113 
L 3513 0 
L 2938 0 
L 2938 2094 
Q 2938 2591 2744 2837 
Q 2550 3084 2163 3084 
Q 1697 3084 1428 2787 
Q 1159 2491 1159 1978 
L 1159 0 
L 581 0 
L 581 4863 
L 1159 4863 
L 1159 2956 
Q 1366 3272 1645 3428 
Q 1925 3584 2291 3584 
Q 2894 3584 3203 3211 
Q 3513 2838 3513 2113 
z
" transform="scale(0.015625)"/>
      <path id="DejaVuSans-6c" d="M 603 4863 
L 1178 4863 
L 1178 0 
L 603 0 
L 603 4863 
z
" transform="scale(0.015625)"/>
      <path id="DejaVuSans-37" d="M 525 4666 
L 3525 4666 
L 3525 4397 
L 1831 0 
L 1172 0 
L 2766 4134 
L 525 4134 
L 525 4666 
z
" transform="scale(0.015625)"/>
      <path id="DejaVuSans-63" d="M 3122 3366 
L 3122 2828 
Q 2878 2963 2633 3030 
Q 2388 3097 2138 3097 
Q 1578 3097 1268 2742 
Q 959 2388 959 1747 
Q 959 1106 1268 751 
Q 1578 397 2138 397 
Q 2388 397 2633 464 
Q 2878 531 3122 666 
L 3122 134 
Q 2881 22 2623 -34 
Q 2366 -91 2075 -91 
Q 1284 -91 818 406 
Q 353 903 353 1747 
Q 353 2603 823 3093 
Q 1294 3584 2113 3584 
Q 2378 3584 2631 3529 
Q 2884 3475 3122 3366 
z
" transform="scale(0.015625)"/>
     </defs>
     <use xlink:href="#DejaVuSans-44"/>
     <use xlink:href="#DejaVuSans-69" x="77.001953"/>
     <use xlink:href="#DejaVuSans-73" x="104.785156"/>
     <use xlink:href="#DejaVuSans-74" x="156.884766"/>
     <use xlink:href="#DejaVuSans-72" x="196.09375"/>
     <use xlink:href="#DejaVuSans-69" x="237.207031"/>
     <use xlink:href="#DejaVuSans-62" x="264.990234"/>
     <use xlink:href="#DejaVuSans-75" x="328.466797"/>
     <use xlink:href="#DejaVuSans-74" x="391.845703"/>
     <use xlink:href="#DejaVuSans-69" x="431.054688"/>
     <use xlink:href="#DejaVuSans-6f" x="458.837891"/>
     <use xlink:href="#DejaVuSans-6e" x="520.019531"/>
     <use xlink:href="#DejaVuSans-20" x="583.398438"/>
     <use xlink:href="#DejaVuSans-6f" x="615.185547"/>
     <use xlink:href="#DejaVuSans-66" x="676.367188"/>
     <use xlink:href="#DejaVuSans-20" x="711.572266"/>
     <use xlink:href="#DejaVuSans-62" x="743.359375"/>
     <use xlink:href="#DejaVuSans-6d" x="806.835938"/>
     <use xlink:href="#DejaVuSans-69" x="904.248047"/>
     <use xlink:href="#DejaVuSans-20" x="932.03125"/>
     <use xlink:href="#DejaVuSans-6f" x="963.818359"/>
     <use xlink:href="#DejaVuSans-66" x="1025"/>
     <use xlink:href="#DejaVuSans-20" x="1060.205078"/>
     <use xlink:href="#DejaVuSans-74" x="1091.992188"/>
     <use xlink:href="#DejaVuSans-68" x="1131.201172"/>
     <use xlink:href="#DejaVuSans-6f" x="1194.580078"/>
     <use xlink:href="#DejaVuSans-73" x="1255.761719"/>
     <use xlink:href="#DejaVuSans-65" x="1307.861328"/>
     <use xlink:href="#DejaVuSans-20" x="1369.384766"/>
     <use xlink:href="#DejaVuSans-74" x="1401.171875"/>
     <use xlink:href="#DejaVuSans-61" x="1440.380859"/>
     <use xlink:href="#DejaVuSans-6c" x="1501.660156"/>
     <use xlink:href="#DejaVuSans-6c" x="1529.443359"/>
     <use xlink:href="#DejaVuSans-65" x="1557.226562"/>
     <use xlink:href="#DejaVuSans-72" x="1618.75"/>
     <use xlink:href="#DejaVuSans-20" x="1659.863281"/>
     <use xlink:href="#DejaVuSans-74" x="1691.650391"/>
     <use xlink:href="#DejaVuSans-68" x="1730.859375"/>
     <use xlink:href="#DejaVuSans-61" x="1794.238281"/>
     <use xlink:href="#DejaVuSans-6e" x="1855.517578"/>
     <use xlink:href="#DejaVuSans-20" x="1918.896484"/>
     <use xlink:href="#DejaVuSans-31" x="1950.683594"/>
     <use xlink:href="#DejaVuSans-37" x="2014.306641"/>
     <use xlink:href="#DejaVuSans-33" x="2077.929688"/>
     <use xlink:href="#DejaVuSans-63" x="2141.552734"/>
     <use xlink:href="#DejaVuSans-6d" x="2196.533203"/>
    </g>
   </g>
   <g id="legend_1">
    <g id="patch_207">
     <path d="M 574.996875 106.830625 
L 702.2 106.830625 
Q 704.2 106.830625 704.2 104.830625 
L 704.2 32.44 
Q 704.2 30.44 702.2 30.44 
L 574.996875 30.44 
Q 572.996875 30.44 572.996875 32.44 
L 572.996875 104.830625 
Q 572.996875 106.830625 574.996875 106.830625 
z
" style="fill: #ffffff; opacity: 0.8; stroke: #cccccc; stroke-linejoin: miter"/>
    </g>
    <g id="patch_208">
     <path d="M 576.996875 42.038437 
L 596.996875 42.038437 
L 596.996875 35.038437 
L 576.996875 35.038437 
z
" style="fill: #800080"/>
    </g>
    <g id="text_17">
     <!-- bmi -->
     <g transform="translate(604.996875 42.038437) scale(0.1 -0.1)">
      <use xlink:href="#DejaVuSans-62"/>
      <use xlink:href="#DejaVuSans-6d" x="63.476562"/>
      <use xlink:href="#DejaVuSans-69" x="160.888672"/>
     </g>
    </g>
    <g id="line2d_19">
     <path d="M 576.996875 53.216563 
L 586.996875 53.216563 
L 596.996875 53.216563 
" style="fill: none; stroke-dasharray: 11.1,4.8; stroke-dashoffset: 0; stroke: #ff0000; stroke-opacity: 0.5; stroke-width: 3"/>
    </g>
    <g id="text_18">
     <!-- normal distribution -->
     <g transform="translate(604.996875 56.716563) scale(0.1 -0.1)">
      <defs>
       <path id="DejaVuSans-64" d="M 2906 2969 
L 2906 4863 
L 3481 4863 
L 3481 0 
L 2906 0 
L 2906 525 
Q 2725 213 2448 61 
Q 2172 -91 1784 -91 
Q 1150 -91 751 415 
Q 353 922 353 1747 
Q 353 2572 751 3078 
Q 1150 3584 1784 3584 
Q 2172 3584 2448 3432 
Q 2725 3281 2906 2969 
z
M 947 1747 
Q 947 1113 1208 752 
Q 1469 391 1925 391 
Q 2381 391 2643 752 
Q 2906 1113 2906 1747 
Q 2906 2381 2643 2742 
Q 2381 3103 1925 3103 
Q 1469 3103 1208 2742 
Q 947 2381 947 1747 
z
" transform="scale(0.015625)"/>
      </defs>
      <use xlink:href="#DejaVuSans-6e"/>
      <use xlink:href="#DejaVuSans-6f" x="63.378906"/>
      <use xlink:href="#DejaVuSans-72" x="124.560547"/>
      <use xlink:href="#DejaVuSans-6d" x="163.923828"/>
      <use xlink:href="#DejaVuSans-61" x="261.335938"/>
      <use xlink:href="#DejaVuSans-6c" x="322.615234"/>
      <use xlink:href="#DejaVuSans-20" x="350.398438"/>
      <use xlink:href="#DejaVuSans-64" x="382.185547"/>
      <use xlink:href="#DejaVuSans-69" x="445.662109"/>
      <use xlink:href="#DejaVuSans-73" x="473.445312"/>
      <use xlink:href="#DejaVuSans-74" x="525.544922"/>
      <use xlink:href="#DejaVuSans-72" x="564.753906"/>
      <use xlink:href="#DejaVuSans-69" x="605.867188"/>
      <use xlink:href="#DejaVuSans-62" x="633.650391"/>
      <use xlink:href="#DejaVuSans-75" x="697.126953"/>
      <use xlink:href="#DejaVuSans-74" x="760.505859"/>
      <use xlink:href="#DejaVuSans-69" x="799.714844"/>
      <use xlink:href="#DejaVuSans-6f" x="827.498047"/>
      <use xlink:href="#DejaVuSans-6e" x="888.679688"/>
     </g>
    </g>
    <g id="line2d_20">
     <path d="M 576.996875 67.894687 
L 586.996875 67.894687 
L 596.996875 67.894687 
" style="fill: none; stroke-dasharray: 3.7,1.6; stroke-dashoffset: 0; stroke: #ff0000"/>
    </g>
    <g id="text_19">
     <!-- mean -->
     <g transform="translate(604.996875 71.394687) scale(0.1 -0.1)">
      <use xlink:href="#DejaVuSans-6d"/>
      <use xlink:href="#DejaVuSans-65" x="97.412109"/>
      <use xlink:href="#DejaVuSans-61" x="158.935547"/>
      <use xlink:href="#DejaVuSans-6e" x="220.214844"/>
     </g>
    </g>
    <g id="line2d_21">
     <path d="M 576.996875 82.572812 
L 586.996875 82.572812 
L 596.996875 82.572812 
" style="fill: none; stroke-dasharray: 3.7,1.6; stroke-dashoffset: 0; stroke: #abbf4d"/>
    </g>
    <g id="text_20">
     <!-- alpha=0.050 -->
     <g transform="translate(604.996875 86.072812) scale(0.1 -0.1)">
      <defs>
       <path id="DejaVuSans-70" d="M 1159 525 
L 1159 -1331 
L 581 -1331 
L 581 3500 
L 1159 3500 
L 1159 2969 
Q 1341 3281 1617 3432 
Q 1894 3584 2278 3584 
Q 2916 3584 3314 3078 
Q 3713 2572 3713 1747 
Q 3713 922 3314 415 
Q 2916 -91 2278 -91 
Q 1894 -91 1617 61 
Q 1341 213 1159 525 
z
M 3116 1747 
Q 3116 2381 2855 2742 
Q 2594 3103 2138 3103 
Q 1681 3103 1420 2742 
Q 1159 2381 1159 1747 
Q 1159 1113 1420 752 
Q 1681 391 2138 391 
Q 2594 391 2855 752 
Q 3116 1113 3116 1747 
z
" transform="scale(0.015625)"/>
      </defs>
      <use xlink:href="#DejaVuSans-61"/>
      <use xlink:href="#DejaVuSans-6c" x="61.279297"/>
      <use xlink:href="#DejaVuSans-70" x="89.0625"/>
      <use xlink:href="#DejaVuSans-68" x="152.539062"/>
      <use xlink:href="#DejaVuSans-61" x="215.917969"/>
      <use xlink:href="#DejaVuSans-3d" x="277.197266"/>
      <use xlink:href="#DejaVuSans-30" x="360.986328"/>
      <use xlink:href="#DejaVuSans-2e" x="424.609375"/>
      <use xlink:href="#DejaVuSans-30" x="456.396484"/>
      <use xlink:href="#DejaVuSans-35" x="520.019531"/>
      <use xlink:href="#DejaVuSans-30" x="583.642578"/>
     </g>
    </g>
    <g id="line2d_22">
     <path d="M 576.996875 97.250937 
L 586.996875 97.250937 
L 596.996875 97.250937 
" style="fill: none; stroke-dasharray: 3.7,1.6; stroke-dashoffset: 0; stroke: #a74dbf"/>
    </g>
    <g id="text_21">
     <!-- alpha=0.950 -->
     <g transform="translate(604.996875 100.750937) scale(0.1 -0.1)">
      <use xlink:href="#DejaVuSans-61"/>
      <use xlink:href="#DejaVuSans-6c" x="61.279297"/>
      <use xlink:href="#DejaVuSans-70" x="89.0625"/>
      <use xlink:href="#DejaVuSans-68" x="152.539062"/>
      <use xlink:href="#DejaVuSans-61" x="215.917969"/>
      <use xlink:href="#DejaVuSans-3d" x="277.197266"/>
      <use xlink:href="#DejaVuSans-30" x="360.986328"/>
      <use xlink:href="#DejaVuSans-2e" x="424.609375"/>
      <use xlink:href="#DejaVuSans-39" x="456.396484"/>
      <use xlink:href="#DejaVuSans-35" x="520.019531"/>
      <use xlink:href="#DejaVuSans-30" x="583.642578"/>
     </g>
    </g>
   </g>
  </g>
 </g>
 <defs>
  <clipPath id="p9f44b4250d">
   <rect x="40.12" y="25.44" width="669.08" height="378.68"/>
  </clipPath>
 </defs>
</svg>
