<?xml version="1.0" encoding="utf-8" standalone="no"?>
<!DOCTYPE svg PUBLIC "-//W3C//DTD SVG 1.1//EN"
  "http://www.w3.org/Graphics/SVG/1.1/DTD/svg11.dtd">
<svg xmlns:xlink="http://www.w3.org/1999/xlink" width="720pt" height="432pt" viewBox="0 0 720 432" xmlns="http://www.w3.org/2000/svg" version="1.1">
 <metadata>
  <rdf:RDF xmlns:dc="http://purl.org/dc/elements/1.1/" xmlns:cc="http://creativecommons.org/ns#" xmlns:rdf="http://www.w3.org/1999/02/22-rdf-syntax-ns#">
   <cc:Work>
    <dc:type rdf:resource="http://purl.org/dc/dcmitype/StillImage"/>
    <dc:date>2023-12-30T01:34:10.711528</dc:date>
    <dc:format>image/svg+xml</dc:format>
    <dc:creator>
     <cc:Agent>
      <dc:title>Matplotlib v3.7.1, https://matplotlib.org/</dc:title>
     </cc:Agent>
    </dc:creator>
   </cc:Work>
  </rdf:RDF>
 </metadata>
 <defs>
  <style type="text/css">*{stroke-linejoin: round; stroke-linecap: butt}</style>
 </defs>
 <g id="figure_1">
  <g id="patch_1">
   <path d="M 0 432 
L 720 432 
L 720 0 
L 0 0 
z
" style="fill: #ffffff"/>
  </g>
  <g id="axes_1">
   <g id="patch_2">
    <path d="M 54.2 390.04 
L 709.2 390.04 
L 709.2 25.44 
L 54.2 25.44 
z
" style="fill: #ffffff"/>
   </g>
   <g id="patch_3">
    <path d="M 83.972727 390.04 
L 86.949979 390.04 
L 86.949979 386.265673 
L 83.972727 386.265673 
z
" clip-path="url(#pb3ff28845e)" style="fill: #800080"/>
   </g>
   <g id="patch_4">
    <path d="M 86.949979 390.04 
L 89.927294 390.04 
L 89.927294 390.04 
L 86.949979 390.04 
z
" clip-path="url(#pb3ff28845e)" style="fill: #800080"/>
   </g>
   <g id="patch_5">
    <path d="M 89.927294 390.04 
L 92.904546 390.04 
L 92.904546 390.04 
L 89.927294 390.04 
z
" clip-path="url(#pb3ff28845e)" style="fill: #800080"/>
   </g>
   <g id="patch_6">
    <path d="M 92.904546 390.04 
L 95.881798 390.04 
L 95.881798 390.04 
L 92.904546 390.04 
z
" clip-path="url(#pb3ff28845e)" style="fill: #800080"/>
   </g>
   <g id="patch_7">
    <path d="M 95.881798 390.04 
L 98.859113 390.04 
L 98.859113 390.04 
L 95.881798 390.04 
z
" clip-path="url(#pb3ff28845e)" style="fill: #800080"/>
   </g>
   <g id="patch_8">
    <path d="M 98.859113 390.04 
L 101.836365 390.04 
L 101.836365 386.265673 
L 98.859113 386.265673 
z
" clip-path="url(#pb3ff28845e)" style="fill: #800080"/>
   </g>
   <g id="patch_9">
    <path d="M 101.836365 390.04 
L 104.813617 390.04 
L 104.813617 390.04 
L 101.836365 390.04 
z
" clip-path="url(#pb3ff28845e)" style="fill: #800080"/>
   </g>
   <g id="patch_10">
    <path d="M 104.813617 390.04 
L 107.790932 390.04 
L 107.790932 390.04 
L 104.813617 390.04 
z
" clip-path="url(#pb3ff28845e)" style="fill: #800080"/>
   </g>
   <g id="patch_11">
    <path d="M 107.790932 390.04 
L 110.768184 390.04 
L 110.768184 390.04 
L 107.790932 390.04 
z
" clip-path="url(#pb3ff28845e)" style="fill: #800080"/>
   </g>
   <g id="patch_12">
    <path d="M 110.768184 390.04 
L 113.745436 390.04 
L 113.745436 390.04 
L 110.768184 390.04 
z
" clip-path="url(#pb3ff28845e)" style="fill: #800080"/>
   </g>
   <g id="patch_13">
    <path d="M 113.745436 390.04 
L 116.72275 390.04 
L 116.72275 390.04 
L 113.745436 390.04 
z
" clip-path="url(#pb3ff28845e)" style="fill: #800080"/>
   </g>
   <g id="patch_14">
    <path d="M 116.72275 390.04 
L 119.700003 390.04 
L 119.700003 390.04 
L 116.72275 390.04 
z
" clip-path="url(#pb3ff28845e)" style="fill: #800080"/>
   </g>
   <g id="patch_15">
    <path d="M 119.700003 390.04 
L 122.677255 390.04 
L 122.677255 390.04 
L 119.700003 390.04 
z
" clip-path="url(#pb3ff28845e)" style="fill: #800080"/>
   </g>
   <g id="patch_16">
    <path d="M 122.677255 390.04 
L 125.654569 390.04 
L 125.654569 390.04 
L 122.677255 390.04 
z
" clip-path="url(#pb3ff28845e)" style="fill: #800080"/>
   </g>
   <g id="patch_17">
    <path d="M 125.654569 390.04 
L 128.631821 390.04 
L 128.631821 390.04 
L 125.654569 390.04 
z
" clip-path="url(#pb3ff28845e)" style="fill: #800080"/>
   </g>
   <g id="patch_18">
    <path d="M 128.631821 390.04 
L 131.609073 390.04 
L 131.609073 386.265673 
L 128.631821 386.265673 
z
" clip-path="url(#pb3ff28845e)" style="fill: #800080"/>
   </g>
   <g id="patch_19">
    <path d="M 131.609073 390.04 
L 134.586388 390.04 
L 134.586388 386.265752 
L 131.609073 386.265752 
z
" clip-path="url(#pb3ff28845e)" style="fill: #800080"/>
   </g>
   <g id="patch_20">
    <path d="M 134.586388 390.04 
L 137.56364 390.04 
L 137.56364 386.265673 
L 134.586388 386.265673 
z
" clip-path="url(#pb3ff28845e)" style="fill: #800080"/>
   </g>
   <g id="patch_21">
    <path d="M 137.56364 390.04 
L 140.540892 390.04 
L 140.540892 382.491346 
L 137.56364 382.491346 
z
" clip-path="url(#pb3ff28845e)" style="fill: #800080"/>
   </g>
   <g id="patch_22">
    <path d="M 140.540892 390.04 
L 143.518207 390.04 
L 143.518207 390.04 
L 140.540892 390.04 
z
" clip-path="url(#pb3ff28845e)" style="fill: #800080"/>
   </g>
   <g id="patch_23">
    <path d="M 143.518207 390.04 
L 146.495459 390.04 
L 146.495459 390.04 
L 143.518207 390.04 
z
" clip-path="url(#pb3ff28845e)" style="fill: #800080"/>
   </g>
   <g id="patch_24">
    <path d="M 146.495459 390.04 
L 149.472711 390.04 
L 149.472711 386.265673 
L 146.495459 386.265673 
z
" clip-path="url(#pb3ff28845e)" style="fill: #800080"/>
   </g>
   <g id="patch_25">
    <path d="M 149.472711 390.04 
L 152.450026 390.04 
L 152.450026 390.04 
L 149.472711 390.04 
z
" clip-path="url(#pb3ff28845e)" style="fill: #800080"/>
   </g>
   <g id="patch_26">
    <path d="M 152.450026 390.04 
L 155.427278 390.04 
L 155.427278 390.04 
L 152.450026 390.04 
z
" clip-path="url(#pb3ff28845e)" style="fill: #800080"/>
   </g>
   <g id="patch_27">
    <path d="M 155.427278 390.04 
L 158.40453 390.04 
L 158.40453 390.04 
L 155.427278 390.04 
z
" clip-path="url(#pb3ff28845e)" style="fill: #800080"/>
   </g>
   <g id="patch_28">
    <path d="M 158.40453 390.04 
L 161.381844 390.04 
L 161.381844 390.04 
L 158.40453 390.04 
z
" clip-path="url(#pb3ff28845e)" style="fill: #800080"/>
   </g>
   <g id="patch_29">
    <path d="M 161.381844 390.04 
L 164.359097 390.04 
L 164.359097 382.491346 
L 161.381844 382.491346 
z
" clip-path="url(#pb3ff28845e)" style="fill: #800080"/>
   </g>
   <g id="patch_30">
    <path d="M 164.359097 390.04 
L 167.336349 390.04 
L 167.336349 390.04 
L 164.359097 390.04 
z
" clip-path="url(#pb3ff28845e)" style="fill: #800080"/>
   </g>
   <g id="patch_31">
    <path d="M 167.336349 390.04 
L 170.313663 390.04 
L 170.313663 390.04 
L 167.336349 390.04 
z
" clip-path="url(#pb3ff28845e)" style="fill: #800080"/>
   </g>
   <g id="patch_32">
    <path d="M 170.313663 390.04 
L 173.290915 390.04 
L 173.290915 382.491346 
L 170.313663 382.491346 
z
" clip-path="url(#pb3ff28845e)" style="fill: #800080"/>
   </g>
   <g id="patch_33">
    <path d="M 173.290915 390.04 
L 176.268167 390.04 
L 176.268167 386.265673 
L 173.290915 386.265673 
z
" clip-path="url(#pb3ff28845e)" style="fill: #800080"/>
   </g>
   <g id="patch_34">
    <path d="M 176.268167 390.04 
L 179.245482 390.04 
L 179.245482 390.04 
L 176.268167 390.04 
z
" clip-path="url(#pb3ff28845e)" style="fill: #800080"/>
   </g>
   <g id="patch_35">
    <path d="M 179.245482 390.04 
L 182.222734 390.04 
L 182.222734 382.491346 
L 179.245482 382.491346 
z
" clip-path="url(#pb3ff28845e)" style="fill: #800080"/>
   </g>
   <g id="patch_36">
    <path d="M 182.222734 390.04 
L 185.199986 390.04 
L 185.199986 390.04 
L 182.222734 390.04 
z
" clip-path="url(#pb3ff28845e)" style="fill: #800080"/>
   </g>
   <g id="patch_37">
    <path d="M 185.199986 390.04 
L 188.177301 390.04 
L 188.177301 374.943009 
L 185.199986 374.943009 
z
" clip-path="url(#pb3ff28845e)" style="fill: #800080"/>
   </g>
   <g id="patch_38">
    <path d="M 188.177301 390.04 
L 191.154553 390.04 
L 191.154553 371.168364 
L 188.177301 371.168364 
z
" clip-path="url(#pb3ff28845e)" style="fill: #800080"/>
   </g>
   <g id="patch_39">
    <path d="M 191.154553 390.04 
L 194.131805 390.04 
L 194.131805 378.717019 
L 191.154553 378.717019 
z
" clip-path="url(#pb3ff28845e)" style="fill: #800080"/>
   </g>
   <g id="patch_40">
    <path d="M 194.131805 390.04 
L 197.10912 390.04 
L 197.10912 382.491504 
L 194.131805 382.491504 
z
" clip-path="url(#pb3ff28845e)" style="fill: #800080"/>
   </g>
   <g id="patch_41">
    <path d="M 197.10912 390.04 
L 200.086372 390.04 
L 200.086372 386.265673 
L 197.10912 386.265673 
z
" clip-path="url(#pb3ff28845e)" style="fill: #800080"/>
   </g>
   <g id="patch_42">
    <path d="M 200.086372 390.04 
L 203.063624 390.04 
L 203.063624 359.845383 
L 200.086372 359.845383 
z
" clip-path="url(#pb3ff28845e)" style="fill: #800080"/>
   </g>
   <g id="patch_43">
    <path d="M 203.063624 390.04 
L 206.040939 390.04 
L 206.040939 371.168761 
L 203.063624 371.168761 
z
" clip-path="url(#pb3ff28845e)" style="fill: #800080"/>
   </g>
   <g id="patch_44">
    <path d="M 206.040939 390.04 
L 209.018191 390.04 
L 209.018191 367.394037 
L 206.040939 367.394037 
z
" clip-path="url(#pb3ff28845e)" style="fill: #800080"/>
   </g>
   <g id="patch_45">
    <path d="M 209.018191 390.04 
L 211.995443 390.04 
L 211.995443 378.717019 
L 209.018191 378.717019 
z
" clip-path="url(#pb3ff28845e)" style="fill: #800080"/>
   </g>
   <g id="patch_46">
    <path d="M 211.995443 390.04 
L 214.972757 390.04 
L 214.972757 378.717257 
L 211.995443 378.717257 
z
" clip-path="url(#pb3ff28845e)" style="fill: #800080"/>
   </g>
   <g id="patch_47">
    <path d="M 214.972757 390.04 
L 217.950009 390.04 
L 217.950009 356.071056 
L 214.972757 356.071056 
z
" clip-path="url(#pb3ff28845e)" style="fill: #800080"/>
   </g>
   <g id="patch_48">
    <path d="M 217.950009 390.04 
L 220.927261 390.04 
L 220.927261 363.61971 
L 217.950009 363.61971 
z
" clip-path="url(#pb3ff28845e)" style="fill: #800080"/>
   </g>
   <g id="patch_49">
    <path d="M 220.927261 390.04 
L 223.904576 390.04 
L 223.904576 378.717257 
L 220.927261 378.717257 
z
" clip-path="url(#pb3ff28845e)" style="fill: #800080"/>
   </g>
   <g id="patch_50">
    <path d="M 223.904576 390.04 
L 226.881828 390.04 
L 226.881828 363.61971 
L 223.904576 363.61971 
z
" clip-path="url(#pb3ff28845e)" style="fill: #800080"/>
   </g>
   <g id="patch_51">
    <path d="M 226.881828 390.04 
L 229.85908 390.04 
L 229.85908 356.071056 
L 226.881828 356.071056 
z
" clip-path="url(#pb3ff28845e)" style="fill: #800080"/>
   </g>
   <g id="patch_52">
    <path d="M 229.85908 390.04 
L 232.836332 390.04 
L 232.836332 352.296729 
L 229.85908 352.296729 
z
" clip-path="url(#pb3ff28845e)" style="fill: #800080"/>
   </g>
   <g id="patch_53">
    <path d="M 232.836332 390.04 
L 235.813647 390.04 
L 235.813647 356.07177 
L 232.836332 356.07177 
z
" clip-path="url(#pb3ff28845e)" style="fill: #800080"/>
   </g>
   <g id="patch_54">
    <path d="M 235.813647 390.04 
L 238.790899 390.04 
L 238.790899 374.942692 
L 235.813647 374.942692 
z
" clip-path="url(#pb3ff28845e)" style="fill: #800080"/>
   </g>
   <g id="patch_55">
    <path d="M 238.790899 390.04 
L 241.768151 390.04 
L 241.768151 348.522402 
L 238.790899 348.522402 
z
" clip-path="url(#pb3ff28845e)" style="fill: #800080"/>
   </g>
   <g id="patch_56">
    <path d="M 241.768151 390.04 
L 244.745466 390.04 
L 244.745466 340.974779 
L 241.768151 340.974779 
z
" clip-path="url(#pb3ff28845e)" style="fill: #800080"/>
   </g>
   <g id="patch_57">
    <path d="M 244.745466 390.04 
L 247.722718 390.04 
L 247.722718 337.19942 
L 244.745466 337.19942 
z
" clip-path="url(#pb3ff28845e)" style="fill: #800080"/>
   </g>
   <g id="patch_58">
    <path d="M 247.722718 390.04 
L 250.69997 390.04 
L 250.69997 333.425093 
L 247.722718 333.425093 
z
" clip-path="url(#pb3ff28845e)" style="fill: #800080"/>
   </g>
   <g id="patch_59">
    <path d="M 250.69997 390.04 
L 253.677285 390.04 
L 253.677285 337.200531 
L 250.69997 337.200531 
z
" clip-path="url(#pb3ff28845e)" style="fill: #800080"/>
   </g>
   <g id="patch_60">
    <path d="M 253.677285 390.04 
L 256.654537 390.04 
L 256.654537 325.876439 
L 253.677285 325.876439 
z
" clip-path="url(#pb3ff28845e)" style="fill: #800080"/>
   </g>
   <g id="patch_61">
    <path d="M 256.654537 390.04 
L 259.631789 390.04 
L 259.631789 318.327785 
L 256.654537 318.327785 
z
" clip-path="url(#pb3ff28845e)" style="fill: #800080"/>
   </g>
   <g id="patch_62">
    <path d="M 259.631789 390.04 
L 262.609103 390.04 
L 262.609103 318.329292 
L 259.631789 318.329292 
z
" clip-path="url(#pb3ff28845e)" style="fill: #800080"/>
   </g>
   <g id="patch_63">
    <path d="M 262.609103 390.04 
L 265.586355 390.04 
L 265.586355 322.102112 
L 262.609103 322.102112 
z
" clip-path="url(#pb3ff28845e)" style="fill: #800080"/>
   </g>
   <g id="patch_64">
    <path d="M 265.586355 390.04 
L 268.563608 390.04 
L 268.563608 303.230476 
L 265.586355 303.230476 
z
" clip-path="url(#pb3ff28845e)" style="fill: #800080"/>
   </g>
   <g id="patch_65">
    <path d="M 268.563608 390.04 
L 271.540922 390.04 
L 271.540922 318.329292 
L 268.563608 318.329292 
z
" clip-path="url(#pb3ff28845e)" style="fill: #800080"/>
   </g>
   <g id="patch_66">
    <path d="M 271.540922 390.04 
L 274.518174 390.04 
L 274.518174 329.650766 
L 271.540922 329.650766 
z
" clip-path="url(#pb3ff28845e)" style="fill: #800080"/>
   </g>
   <g id="patch_67">
    <path d="M 274.518174 390.04 
L 277.495426 390.04 
L 277.495426 307.004803 
L 274.518174 307.004803 
z
" clip-path="url(#pb3ff28845e)" style="fill: #800080"/>
   </g>
   <g id="patch_68">
    <path d="M 277.495426 390.04 
L 280.472741 390.04 
L 280.472741 314.555044 
L 277.495426 314.555044 
z
" clip-path="url(#pb3ff28845e)" style="fill: #800080"/>
   </g>
   <g id="patch_69">
    <path d="M 280.472741 390.04 
L 283.449993 390.04 
L 283.449993 284.358841 
L 280.472741 284.358841 
z
" clip-path="url(#pb3ff28845e)" style="fill: #800080"/>
   </g>
   <g id="patch_70">
    <path d="M 283.449993 390.04 
L 286.427245 390.04 
L 286.427245 273.035859 
L 283.449993 273.035859 
z
" clip-path="url(#pb3ff28845e)" style="fill: #800080"/>
   </g>
   <g id="patch_71">
    <path d="M 286.427245 390.04 
L 289.40456 390.04 
L 289.40456 265.489823 
L 286.427245 265.489823 
z
" clip-path="url(#pb3ff28845e)" style="fill: #800080"/>
   </g>
   <g id="patch_72">
    <path d="M 289.40456 390.04 
L 292.381812 390.04 
L 292.381812 284.358841 
L 289.40456 284.358841 
z
" clip-path="url(#pb3ff28845e)" style="fill: #800080"/>
   </g>
   <g id="patch_73">
    <path d="M 292.381812 390.04 
L 295.359064 390.04 
L 295.359064 265.487205 
L 292.381812 265.487205 
z
" clip-path="url(#pb3ff28845e)" style="fill: #800080"/>
   </g>
   <g id="patch_74">
    <path d="M 295.359064 390.04 
L 298.336379 390.04 
L 298.336379 261.715576 
L 295.359064 261.715576 
z
" clip-path="url(#pb3ff28845e)" style="fill: #800080"/>
   </g>
   <g id="patch_75">
    <path d="M 298.336379 390.04 
L 301.313631 390.04 
L 301.313631 235.292588 
L 298.336379 235.292588 
z
" clip-path="url(#pb3ff28845e)" style="fill: #800080"/>
   </g>
   <g id="patch_76">
    <path d="M 301.313631 390.04 
L 304.290883 390.04 
L 304.290883 276.810186 
L 301.313631 276.810186 
z
" clip-path="url(#pb3ff28845e)" style="fill: #800080"/>
   </g>
   <g id="patch_77">
    <path d="M 304.290883 390.04 
L 307.268197 390.04 
L 307.268197 276.812567 
L 304.290883 276.812567 
z
" clip-path="url(#pb3ff28845e)" style="fill: #800080"/>
   </g>
   <g id="patch_78">
    <path d="M 307.268197 390.04 
L 310.24545 390.04 
L 310.24545 269.261532 
L 307.268197 269.261532 
z
" clip-path="url(#pb3ff28845e)" style="fill: #800080"/>
   </g>
   <g id="patch_79">
    <path d="M 310.24545 390.04 
L 313.222702 390.04 
L 313.222702 197.549317 
L 310.24545 197.549317 
z
" clip-path="url(#pb3ff28845e)" style="fill: #800080"/>
   </g>
   <g id="patch_80">
    <path d="M 313.222702 390.04 
L 316.200016 390.04 
L 316.200016 269.264071 
L 313.222702 269.264071 
z
" clip-path="url(#pb3ff28845e)" style="fill: #800080"/>
   </g>
   <g id="patch_81">
    <path d="M 316.200016 390.04 
L 319.177268 390.04 
L 319.177268 193.77499 
L 316.200016 193.77499 
z
" clip-path="url(#pb3ff28845e)" style="fill: #800080"/>
   </g>
   <g id="patch_82">
    <path d="M 319.177268 390.04 
L 322.15452 390.04 
L 322.15452 190.000663 
L 319.177268 190.000663 
z
" clip-path="url(#pb3ff28845e)" style="fill: #800080"/>
   </g>
   <g id="patch_83">
    <path d="M 322.15452 390.04 
L 325.131835 390.04 
L 325.131835 186.23062 
L 322.15452 186.23062 
z
" clip-path="url(#pb3ff28845e)" style="fill: #800080"/>
   </g>
   <g id="patch_84">
    <path d="M 325.131835 390.04 
L 328.109087 390.04 
L 328.109087 208.872298 
L 325.131835 208.872298 
z
" clip-path="url(#pb3ff28845e)" style="fill: #800080"/>
   </g>
   <g id="patch_85">
    <path d="M 328.109087 390.04 
L 331.086339 390.04 
L 331.086339 163.580373 
L 328.109087 163.580373 
z
" clip-path="url(#pb3ff28845e)" style="fill: #800080"/>
   </g>
   <g id="patch_86">
    <path d="M 331.086339 390.04 
L 334.063654 390.04 
L 334.063654 205.101859 
L 331.086339 205.101859 
z
" clip-path="url(#pb3ff28845e)" style="fill: #800080"/>
   </g>
   <g id="patch_87">
    <path d="M 334.063654 390.04 
L 337.040906 390.04 
L 337.040906 118.288447 
L 334.063654 118.288447 
z
" clip-path="url(#pb3ff28845e)" style="fill: #800080"/>
   </g>
   <g id="patch_88">
    <path d="M 337.040906 390.04 
L 340.018158 390.04 
L 340.018158 133.385756 
L 337.040906 133.385756 
z
" clip-path="url(#pb3ff28845e)" style="fill: #800080"/>
   </g>
   <g id="patch_89">
    <path d="M 340.018158 390.04 
L 342.995473 390.04 
L 342.995473 182.456372 
L 340.018158 182.456372 
z
" clip-path="url(#pb3ff28845e)" style="fill: #800080"/>
   </g>
   <g id="patch_90">
    <path d="M 342.995473 390.04 
L 345.972725 390.04 
L 345.972725 148.483064 
L 342.995473 148.483064 
z
" clip-path="url(#pb3ff28845e)" style="fill: #800080"/>
   </g>
   <g id="patch_91">
    <path d="M 345.972725 390.04 
L 348.949977 390.04 
L 348.949977 118.288447 
L 345.972725 118.288447 
z
" clip-path="url(#pb3ff28845e)" style="fill: #800080"/>
   </g>
   <g id="patch_92">
    <path d="M 348.949977 390.04 
L 351.927292 390.04 
L 351.927292 114.519912 
L 348.949977 114.519912 
z
" clip-path="url(#pb3ff28845e)" style="fill: #800080"/>
   </g>
   <g id="patch_93">
    <path d="M 351.927292 390.04 
L 354.904544 390.04 
L 354.904544 72.996522 
L 351.927292 72.996522 
z
" clip-path="url(#pb3ff28845e)" style="fill: #800080"/>
   </g>
   <g id="patch_94">
    <path d="M 354.904544 390.04 
L 357.881796 390.04 
L 357.881796 182.452008 
L 354.904544 182.452008 
z
" clip-path="url(#pb3ff28845e)" style="fill: #800080"/>
   </g>
   <g id="patch_95">
    <path d="M 357.881796 390.04 
L 360.85911 390.04 
L 360.85911 182.456372 
L 357.881796 182.456372 
z
" clip-path="url(#pb3ff28845e)" style="fill: #800080"/>
   </g>
   <g id="patch_96">
    <path d="M 360.85911 390.04 
L 363.836362 390.04 
L 363.836362 42.801905 
L 360.85911 42.801905 
z
" clip-path="url(#pb3ff28845e)" style="fill: #800080"/>
   </g>
   <g id="patch_97">
    <path d="M 363.836362 390.04 
L 366.813614 390.04 
L 366.813614 137.160083 
L 363.836362 137.160083 
z
" clip-path="url(#pb3ff28845e)" style="fill: #800080"/>
   </g>
   <g id="patch_98">
    <path d="M 366.813614 390.04 
L 369.790929 390.04 
L 369.790929 174.907877 
L 366.813614 174.907877 
z
" clip-path="url(#pb3ff28845e)" style="fill: #800080"/>
   </g>
   <g id="patch_99">
    <path d="M 369.790929 390.04 
L 372.768181 390.04 
L 372.768181 118.288447 
L 369.790929 118.288447 
z
" clip-path="url(#pb3ff28845e)" style="fill: #800080"/>
   </g>
   <g id="patch_100">
    <path d="M 372.768181 390.04 
L 375.745433 390.04 
L 375.745433 91.868157 
L 372.768181 91.868157 
z
" clip-path="url(#pb3ff28845e)" style="fill: #800080"/>
   </g>
   <g id="patch_101">
    <path d="M 375.745433 390.04 
L 378.722748 390.04 
L 378.722748 61.680443 
L 375.745433 61.680443 
z
" clip-path="url(#pb3ff28845e)" style="fill: #800080"/>
   </g>
   <g id="patch_102">
    <path d="M 378.722748 390.04 
L 381.7 390.04 
L 381.7 148.483064 
L 378.722748 148.483064 
z
" clip-path="url(#pb3ff28845e)" style="fill: #800080"/>
   </g>
   <g id="patch_103">
    <path d="M 381.7 390.04 
L 384.677252 390.04 
L 384.677252 72.996522 
L 381.7 72.996522 
z
" clip-path="url(#pb3ff28845e)" style="fill: #800080"/>
   </g>
   <g id="patch_104">
    <path d="M 384.677252 390.04 
L 387.654567 390.04 
L 387.654567 88.100178 
L 384.677252 88.100178 
z
" clip-path="url(#pb3ff28845e)" style="fill: #800080"/>
   </g>
   <g id="patch_105">
    <path d="M 387.654567 390.04 
L 390.631819 390.04 
L 390.631819 110.739793 
L 387.654567 110.739793 
z
" clip-path="url(#pb3ff28845e)" style="fill: #800080"/>
   </g>
   <g id="patch_106">
    <path d="M 390.631819 390.04 
L 393.609071 390.04 
L 393.609071 152.257391 
L 390.631819 152.257391 
z
" clip-path="url(#pb3ff28845e)" style="fill: #800080"/>
   </g>
   <g id="patch_107">
    <path d="M 393.609071 390.04 
L 396.586386 390.04 
L 396.586386 114.519912 
L 393.609071 114.519912 
z
" clip-path="url(#pb3ff28845e)" style="fill: #800080"/>
   </g>
   <g id="patch_108">
    <path d="M 396.586386 390.04 
L 399.563638 390.04 
L 399.563638 103.191139 
L 396.586386 103.191139 
z
" clip-path="url(#pb3ff28845e)" style="fill: #800080"/>
   </g>
   <g id="patch_109">
    <path d="M 399.563638 390.04 
L 402.54089 390.04 
L 402.54089 95.642484 
L 399.563638 95.642484 
z
" clip-path="url(#pb3ff28845e)" style="fill: #800080"/>
   </g>
   <g id="patch_110">
    <path d="M 402.54089 390.04 
L 405.518204 390.04 
L 405.518204 122.068408 
L 402.54089 122.068408 
z
" clip-path="url(#pb3ff28845e)" style="fill: #800080"/>
   </g>
   <g id="patch_111">
    <path d="M 405.518204 390.04 
L 408.495456 390.04 
L 408.495456 42.801905 
L 405.518204 42.801905 
z
" clip-path="url(#pb3ff28845e)" style="fill: #800080"/>
   </g>
   <g id="patch_112">
    <path d="M 408.495456 390.04 
L 411.472708 390.04 
L 411.472708 167.3547 
L 408.495456 167.3547 
z
" clip-path="url(#pb3ff28845e)" style="fill: #800080"/>
   </g>
   <g id="patch_113">
    <path d="M 411.472708 390.04 
L 414.450023 390.04 
L 414.450023 99.422921 
L 411.472708 99.422921 
z
" clip-path="url(#pb3ff28845e)" style="fill: #800080"/>
   </g>
   <g id="patch_114">
    <path d="M 414.450023 390.04 
L 417.427275 390.04 
L 417.427275 50.350559 
L 414.450023 50.350559 
z
" clip-path="url(#pb3ff28845e)" style="fill: #800080"/>
   </g>
   <g id="patch_115">
    <path d="M 417.427275 390.04 
L 420.404527 390.04 
L 420.404527 72.996522 
L 417.427275 72.996522 
z
" clip-path="url(#pb3ff28845e)" style="fill: #800080"/>
   </g>
   <g id="patch_116">
    <path d="M 420.404527 390.04 
L 423.381842 390.04 
L 423.381842 137.165399 
L 420.404527 137.165399 
z
" clip-path="url(#pb3ff28845e)" style="fill: #800080"/>
   </g>
   <g id="patch_117">
    <path d="M 423.381842 390.04 
L 426.359094 390.04 
L 426.359094 133.385756 
L 423.381842 133.385756 
z
" clip-path="url(#pb3ff28845e)" style="fill: #800080"/>
   </g>
   <g id="patch_118">
    <path d="M 426.359094 390.04 
L 429.336346 390.04 
L 429.336346 114.51412 
L 426.359094 114.51412 
z
" clip-path="url(#pb3ff28845e)" style="fill: #800080"/>
   </g>
   <g id="patch_119">
    <path d="M 429.336346 390.04 
L 432.313661 390.04 
L 432.313661 178.682125 
L 429.336346 178.682125 
z
" clip-path="url(#pb3ff28845e)" style="fill: #800080"/>
   </g>
   <g id="patch_120">
    <path d="M 432.313661 390.04 
L 435.290913 390.04 
L 435.290913 159.806046 
L 432.313661 159.806046 
z
" clip-path="url(#pb3ff28845e)" style="fill: #800080"/>
   </g>
   <g id="patch_121">
    <path d="M 435.290913 390.04 
L 438.268165 390.04 
L 438.268165 182.452008 
L 435.290913 182.452008 
z
" clip-path="url(#pb3ff28845e)" style="fill: #800080"/>
   </g>
   <g id="patch_122">
    <path d="M 438.268165 390.04 
L 441.24548 390.04 
L 441.24548 156.036638 
L 438.268165 156.036638 
z
" clip-path="url(#pb3ff28845e)" style="fill: #800080"/>
   </g>
   <g id="patch_123">
    <path d="M 441.24548 390.04 
L 444.222732 390.04 
L 444.222732 129.611429 
L 441.24548 129.611429 
z
" clip-path="url(#pb3ff28845e)" style="fill: #800080"/>
   </g>
   <g id="patch_124">
    <path d="M 444.222732 390.04 
L 447.199984 390.04 
L 447.199984 174.903354 
L 444.222732 174.903354 
z
" clip-path="url(#pb3ff28845e)" style="fill: #800080"/>
   </g>
   <g id="patch_125">
    <path d="M 447.199984 390.04 
L 450.177298 390.04 
L 450.177298 152.26239 
L 447.199984 152.26239 
z
" clip-path="url(#pb3ff28845e)" style="fill: #800080"/>
   </g>
   <g id="patch_126">
    <path d="M 450.177298 390.04 
L 453.15455 390.04 
L 453.15455 129.611429 
L 450.177298 129.611429 
z
" clip-path="url(#pb3ff28845e)" style="fill: #800080"/>
   </g>
   <g id="patch_127">
    <path d="M 453.15455 390.04 
L 456.131803 390.04 
L 456.131803 159.806046 
L 453.15455 159.806046 
z
" clip-path="url(#pb3ff28845e)" style="fill: #800080"/>
   </g>
   <g id="patch_128">
    <path d="M 456.131803 390.04 
L 459.109117 390.04 
L 459.109117 156.036638 
L 456.131803 156.036638 
z
" clip-path="url(#pb3ff28845e)" style="fill: #800080"/>
   </g>
   <g id="patch_129">
    <path d="M 459.109117 390.04 
L 462.086307 390.04 
L 462.086307 205.094083 
L 459.109117 205.094083 
z
" clip-path="url(#pb3ff28845e)" style="fill: #800080"/>
   </g>
   <g id="patch_130">
    <path d="M 462.086307 390.04 
L 465.063621 390.04 
L 465.063621 208.876107 
L 462.086307 208.876107 
z
" clip-path="url(#pb3ff28845e)" style="fill: #800080"/>
   </g>
   <g id="patch_131">
    <path d="M 465.063621 390.04 
L 468.040936 390.04 
L 468.040936 220.19885 
L 465.063621 220.19885 
z
" clip-path="url(#pb3ff28845e)" style="fill: #800080"/>
   </g>
   <g id="patch_132">
    <path d="M 468.040936 390.04 
L 471.018125 390.04 
L 471.018125 231.514928 
L 468.040936 231.514928 
z
" clip-path="url(#pb3ff28845e)" style="fill: #800080"/>
   </g>
   <g id="patch_133">
    <path d="M 471.018125 390.04 
L 473.99544 390.04 
L 473.99544 208.876107 
L 471.018125 208.876107 
z
" clip-path="url(#pb3ff28845e)" style="fill: #800080"/>
   </g>
   <g id="patch_134">
    <path d="M 473.99544 390.04 
L 476.972755 390.04 
L 476.972755 223.973098 
L 473.99544 223.973098 
z
" clip-path="url(#pb3ff28845e)" style="fill: #800080"/>
   </g>
   <g id="patch_135">
    <path d="M 476.972755 390.04 
L 479.949944 390.04 
L 479.949944 227.740522 
L 476.972755 227.740522 
z
" clip-path="url(#pb3ff28845e)" style="fill: #800080"/>
   </g>
   <g id="patch_136">
    <path d="M 479.949944 390.04 
L 482.927259 390.04 
L 482.927259 246.618585 
L 479.949944 246.618585 
z
" clip-path="url(#pb3ff28845e)" style="fill: #800080"/>
   </g>
   <g id="patch_137">
    <path d="M 482.927259 390.04 
L 485.904574 390.04 
L 485.904574 280.586814 
L 482.927259 280.586814 
z
" clip-path="url(#pb3ff28845e)" style="fill: #800080"/>
   </g>
   <g id="patch_138">
    <path d="M 485.904574 390.04 
L 488.881763 390.04 
L 488.881763 265.484586 
L 485.904574 265.484586 
z
" clip-path="url(#pb3ff28845e)" style="fill: #800080"/>
   </g>
   <g id="patch_139">
    <path d="M 488.881763 390.04 
L 491.859078 390.04 
L 491.859078 257.941328 
L 488.881763 257.941328 
z
" clip-path="url(#pb3ff28845e)" style="fill: #800080"/>
   </g>
   <g id="patch_140">
    <path d="M 491.859078 390.04 
L 494.836392 390.04 
L 494.836392 250.392832 
L 491.859078 250.392832 
z
" clip-path="url(#pb3ff28845e)" style="fill: #800080"/>
   </g>
   <g id="patch_141">
    <path d="M 494.836392 390.04 
L 497.813582 390.04 
L 497.813582 265.484586 
L 494.836392 265.484586 
z
" clip-path="url(#pb3ff28845e)" style="fill: #800080"/>
   </g>
   <g id="patch_142">
    <path d="M 497.813582 390.04 
L 500.790897 390.04 
L 500.790897 307.006549 
L 497.813582 307.006549 
z
" clip-path="url(#pb3ff28845e)" style="fill: #800080"/>
   </g>
   <g id="patch_143">
    <path d="M 500.790897 390.04 
L 503.768211 390.04 
L 503.768211 288.13531 
L 500.790897 288.13531 
z
" clip-path="url(#pb3ff28845e)" style="fill: #800080"/>
   </g>
   <g id="patch_144">
    <path d="M 503.768211 390.04 
L 506.745401 390.04 
L 506.745401 280.582212 
L 503.768211 280.582212 
z
" clip-path="url(#pb3ff28845e)" style="fill: #800080"/>
   </g>
   <g id="patch_145">
    <path d="M 506.745401 390.04 
L 509.722715 390.04 
L 509.722715 291.909558 
L 506.745401 291.909558 
z
" clip-path="url(#pb3ff28845e)" style="fill: #800080"/>
   </g>
   <g id="patch_146">
    <path d="M 509.722715 390.04 
L 512.70003 390.04 
L 512.70003 288.13531 
L 509.722715 288.13531 
z
" clip-path="url(#pb3ff28845e)" style="fill: #800080"/>
   </g>
   <g id="patch_147">
    <path d="M 512.70003 390.04 
L 515.67722 390.04 
L 515.67722 325.87509 
L 512.70003 325.87509 
z
" clip-path="url(#pb3ff28845e)" style="fill: #800080"/>
   </g>
   <g id="patch_148">
    <path d="M 515.67722 390.04 
L 518.654534 390.04 
L 518.654534 318.329292 
L 515.67722 318.329292 
z
" clip-path="url(#pb3ff28845e)" style="fill: #800080"/>
   </g>
   <g id="patch_149">
    <path d="M 518.654534 390.04 
L 521.631849 390.04 
L 521.631849 310.780797 
L 518.654534 310.780797 
z
" clip-path="url(#pb3ff28845e)" style="fill: #800080"/>
   </g>
   <g id="patch_150">
    <path d="M 521.631849 390.04 
L 524.609038 390.04 
L 524.609038 314.551871 
L 521.631849 314.551871 
z
" clip-path="url(#pb3ff28845e)" style="fill: #800080"/>
   </g>
   <g id="patch_151">
    <path d="M 524.609038 390.04 
L 527.586353 390.04 
L 527.586353 337.200531 
L 524.609038 337.200531 
z
" clip-path="url(#pb3ff28845e)" style="fill: #800080"/>
   </g>
   <g id="patch_152">
    <path d="M 527.586353 390.04 
L 530.563668 390.04 
L 530.563668 344.749027 
L 527.586353 344.749027 
z
" clip-path="url(#pb3ff28845e)" style="fill: #800080"/>
   </g>
   <g id="patch_153">
    <path d="M 530.563668 390.04 
L 533.540857 390.04 
L 533.540857 325.87509 
L 530.563668 325.87509 
z
" clip-path="url(#pb3ff28845e)" style="fill: #800080"/>
   </g>
   <g id="patch_154">
    <path d="M 533.540857 390.04 
L 536.518172 390.04 
L 536.518172 356.07177 
L 533.540857 356.07177 
z
" clip-path="url(#pb3ff28845e)" style="fill: #800080"/>
   </g>
   <g id="patch_155">
    <path d="M 536.518172 390.04 
L 539.495486 390.04 
L 539.495486 307.006549 
L 536.518172 307.006549 
z
" clip-path="url(#pb3ff28845e)" style="fill: #800080"/>
   </g>
   <g id="patch_156">
    <path d="M 539.495486 390.04 
L 542.472676 390.04 
L 542.472676 337.198309 
L 539.495486 337.198309 
z
" clip-path="url(#pb3ff28845e)" style="fill: #800080"/>
   </g>
   <g id="patch_157">
    <path d="M 542.472676 390.04 
L 545.449991 390.04 
L 545.449991 329.652036 
L 542.472676 329.652036 
z
" clip-path="url(#pb3ff28845e)" style="fill: #800080"/>
   </g>
   <g id="patch_158">
    <path d="M 545.449991 390.04 
L 548.427305 390.04 
L 548.427305 344.749027 
L 545.449991 344.749027 
z
" clip-path="url(#pb3ff28845e)" style="fill: #800080"/>
   </g>
   <g id="patch_159">
    <path d="M 548.427305 390.04 
L 551.404495 390.04 
L 551.404495 340.972716 
L 548.427305 340.972716 
z
" clip-path="url(#pb3ff28845e)" style="fill: #800080"/>
   </g>
   <g id="patch_160">
    <path d="M 551.404495 390.04 
L 554.381809 390.04 
L 554.381809 348.523274 
L 551.404495 348.523274 
z
" clip-path="url(#pb3ff28845e)" style="fill: #800080"/>
   </g>
   <g id="patch_161">
    <path d="M 554.381809 390.04 
L 557.359124 390.04 
L 557.359124 344.749027 
L 554.381809 344.749027 
z
" clip-path="url(#pb3ff28845e)" style="fill: #800080"/>
   </g>
   <g id="patch_162">
    <path d="M 557.359124 390.04 
L 560.336314 390.04 
L 560.336314 363.619155 
L 557.359124 363.619155 
z
" clip-path="url(#pb3ff28845e)" style="fill: #800080"/>
   </g>
   <g id="patch_163">
    <path d="M 560.336314 390.04 
L 563.313628 390.04 
L 563.313628 348.523274 
L 560.336314 348.523274 
z
" clip-path="url(#pb3ff28845e)" style="fill: #800080"/>
   </g>
   <g id="patch_164">
    <path d="M 563.313628 390.04 
L 566.290943 390.04 
L 566.290943 371.168761 
L 563.313628 371.168761 
z
" clip-path="url(#pb3ff28845e)" style="fill: #800080"/>
   </g>
   <g id="patch_165">
    <path d="M 566.290943 390.04 
L 569.268132 390.04 
L 569.268132 367.393561 
L 566.290943 367.393561 
z
" clip-path="url(#pb3ff28845e)" style="fill: #800080"/>
   </g>
   <g id="patch_166">
    <path d="M 569.268132 390.04 
L 572.245447 390.04 
L 572.245447 356.07177 
L 569.268132 356.07177 
z
" clip-path="url(#pb3ff28845e)" style="fill: #800080"/>
   </g>
   <g id="patch_167">
    <path d="M 572.245447 390.04 
L 575.222762 390.04 
L 575.222762 367.394513 
L 572.245447 367.394513 
z
" clip-path="url(#pb3ff28845e)" style="fill: #800080"/>
   </g>
   <g id="patch_168">
    <path d="M 575.222762 390.04 
L 578.199951 390.04 
L 578.199951 371.167968 
L 575.222762 371.167968 
z
" clip-path="url(#pb3ff28845e)" style="fill: #800080"/>
   </g>
   <g id="patch_169">
    <path d="M 578.199951 390.04 
L 581.177266 390.04 
L 581.177266 378.717257 
L 578.199951 378.717257 
z
" clip-path="url(#pb3ff28845e)" style="fill: #800080"/>
   </g>
   <g id="patch_170">
    <path d="M 581.177266 390.04 
L 584.154581 390.04 
L 584.154581 371.168761 
L 581.177266 371.168761 
z
" clip-path="url(#pb3ff28845e)" style="fill: #800080"/>
   </g>
   <g id="patch_171">
    <path d="M 584.154581 390.04 
L 587.13177 390.04 
L 587.13177 371.167968 
L 584.154581 371.167968 
z
" clip-path="url(#pb3ff28845e)" style="fill: #800080"/>
   </g>
   <g id="patch_172">
    <path d="M 587.13177 390.04 
L 590.109085 390.04 
L 590.109085 386.265752 
L 587.13177 386.265752 
z
" clip-path="url(#pb3ff28845e)" style="fill: #800080"/>
   </g>
   <g id="patch_173">
    <path d="M 590.109085 390.04 
L 593.086399 390.04 
L 593.086399 378.717257 
L 590.109085 378.717257 
z
" clip-path="url(#pb3ff28845e)" style="fill: #800080"/>
   </g>
   <g id="patch_174">
    <path d="M 593.086399 390.04 
L 596.063589 390.04 
L 596.063589 374.942374 
L 593.086399 374.942374 
z
" clip-path="url(#pb3ff28845e)" style="fill: #800080"/>
   </g>
   <g id="patch_175">
    <path d="M 596.063589 390.04 
L 599.040903 390.04 
L 599.040903 374.943009 
L 596.063589 374.943009 
z
" clip-path="url(#pb3ff28845e)" style="fill: #800080"/>
   </g>
   <g id="patch_176">
    <path d="M 599.040903 390.04 
L 602.018218 390.04 
L 602.018218 356.07177 
L 599.040903 356.07177 
z
" clip-path="url(#pb3ff28845e)" style="fill: #800080"/>
   </g>
   <g id="patch_177">
    <path d="M 602.018218 390.04 
L 604.995408 390.04 
L 604.995408 386.265594 
L 602.018218 386.265594 
z
" clip-path="url(#pb3ff28845e)" style="fill: #800080"/>
   </g>
   <g id="patch_178">
    <path d="M 604.995408 390.04 
L 607.972722 390.04 
L 607.972722 382.491504 
L 604.995408 382.491504 
z
" clip-path="url(#pb3ff28845e)" style="fill: #800080"/>
   </g>
   <g id="patch_179">
    <path d="M 607.972722 390.04 
L 610.950037 390.04 
L 610.950037 371.168761 
L 607.972722 371.168761 
z
" clip-path="url(#pb3ff28845e)" style="fill: #800080"/>
   </g>
   <g id="patch_180">
    <path d="M 610.950037 390.04 
L 613.927226 390.04 
L 613.927226 386.265594 
L 610.950037 386.265594 
z
" clip-path="url(#pb3ff28845e)" style="fill: #800080"/>
   </g>
   <g id="patch_181">
    <path d="M 613.927226 390.04 
L 616.904541 390.04 
L 616.904541 378.717257 
L 613.927226 378.717257 
z
" clip-path="url(#pb3ff28845e)" style="fill: #800080"/>
   </g>
   <g id="patch_182">
    <path d="M 616.904541 390.04 
L 619.881856 390.04 
L 619.881856 382.491504 
L 616.904541 382.491504 
z
" clip-path="url(#pb3ff28845e)" style="fill: #800080"/>
   </g>
   <g id="patch_183">
    <path d="M 619.881856 390.04 
L 622.859045 390.04 
L 622.859045 386.265594 
L 619.881856 386.265594 
z
" clip-path="url(#pb3ff28845e)" style="fill: #800080"/>
   </g>
   <g id="patch_184">
    <path d="M 622.859045 390.04 
L 625.83636 390.04 
L 625.83636 390.04 
L 622.859045 390.04 
z
" clip-path="url(#pb3ff28845e)" style="fill: #800080"/>
   </g>
   <g id="patch_185">
    <path d="M 625.83636 390.04 
L 628.813675 390.04 
L 628.813675 390.04 
L 625.83636 390.04 
z
" clip-path="url(#pb3ff28845e)" style="fill: #800080"/>
   </g>
   <g id="patch_186">
    <path d="M 628.813675 390.04 
L 631.790864 390.04 
L 631.790864 390.04 
L 628.813675 390.04 
z
" clip-path="url(#pb3ff28845e)" style="fill: #800080"/>
   </g>
   <g id="patch_187">
    <path d="M 631.790864 390.04 
L 634.768179 390.04 
L 634.768179 390.04 
L 631.790864 390.04 
z
" clip-path="url(#pb3ff28845e)" style="fill: #800080"/>
   </g>
   <g id="patch_188">
    <path d="M 634.768179 390.04 
L 637.745493 390.04 
L 637.745493 386.265752 
L 634.768179 386.265752 
z
" clip-path="url(#pb3ff28845e)" style="fill: #800080"/>
   </g>
   <g id="patch_189">
    <path d="M 637.745493 390.04 
L 640.722683 390.04 
L 640.722683 390.04 
L 637.745493 390.04 
z
" clip-path="url(#pb3ff28845e)" style="fill: #800080"/>
   </g>
   <g id="patch_190">
    <path d="M 640.722683 390.04 
L 643.699997 390.04 
L 643.699997 386.265752 
L 640.722683 386.265752 
z
" clip-path="url(#pb3ff28845e)" style="fill: #800080"/>
   </g>
   <g id="patch_191">
    <path d="M 643.699997 390.04 
L 646.677312 390.04 
L 646.677312 386.265752 
L 643.699997 386.265752 
z
" clip-path="url(#pb3ff28845e)" style="fill: #800080"/>
   </g>
   <g id="patch_192">
    <path d="M 646.677312 390.04 
L 649.654502 390.04 
L 649.654502 390.04 
L 646.677312 390.04 
z
" clip-path="url(#pb3ff28845e)" style="fill: #800080"/>
   </g>
   <g id="patch_193">
    <path d="M 649.654502 390.04 
L 652.631816 390.04 
L 652.631816 386.265752 
L 649.654502 386.265752 
z
" clip-path="url(#pb3ff28845e)" style="fill: #800080"/>
   </g>
   <g id="patch_194">
    <path d="M 652.631816 390.04 
L 655.609131 390.04 
L 655.609131 390.04 
L 652.631816 390.04 
z
" clip-path="url(#pb3ff28845e)" style="fill: #800080"/>
   </g>
   <g id="patch_195">
    <path d="M 655.609131 390.04 
L 658.58632 390.04 
L 658.58632 390.04 
L 655.609131 390.04 
z
" clip-path="url(#pb3ff28845e)" style="fill: #800080"/>
   </g>
   <g id="patch_196">
    <path d="M 658.58632 390.04 
L 661.563635 390.04 
L 661.563635 390.04 
L 658.58632 390.04 
z
" clip-path="url(#pb3ff28845e)" style="fill: #800080"/>
   </g>
   <g id="patch_197">
    <path d="M 661.563635 390.04 
L 664.54095 390.04 
L 664.54095 390.04 
L 661.563635 390.04 
z
" clip-path="url(#pb3ff28845e)" style="fill: #800080"/>
   </g>
   <g id="patch_198">
    <path d="M 664.54095 390.04 
L 667.518139 390.04 
L 667.518139 386.265594 
L 664.54095 386.265594 
z
" clip-path="url(#pb3ff28845e)" style="fill: #800080"/>
   </g>
   <g id="patch_199">
    <path d="M 667.518139 390.04 
L 670.495454 390.04 
L 670.495454 390.04 
L 667.518139 390.04 
z
" clip-path="url(#pb3ff28845e)" style="fill: #800080"/>
   </g>
   <g id="patch_200">
    <path d="M 670.495454 390.04 
L 673.472769 390.04 
L 673.472769 390.04 
L 670.495454 390.04 
z
" clip-path="url(#pb3ff28845e)" style="fill: #800080"/>
   </g>
   <g id="patch_201">
    <path d="M 673.472769 390.04 
L 676.449958 390.04 
L 676.449958 390.04 
L 673.472769 390.04 
z
" clip-path="url(#pb3ff28845e)" style="fill: #800080"/>
   </g>
   <g id="patch_202">
    <path d="M 676.449958 390.04 
L 679.427273 390.04 
L 679.427273 386.265752 
L 676.449958 386.265752 
z
" clip-path="url(#pb3ff28845e)" style="fill: #800080"/>
   </g>
   <g id="matplotlib.axis_1">
    <g id="xtick_1">
     <g id="line2d_1">
      <defs>
       <path id="m95e640389d" d="M 0 0 
L 0 3.5 
" style="stroke: #000000; stroke-width: 0.8"/>
      </defs>
      <g>
       <use xlink:href="#m95e640389d" x="66.445452" y="390.04" style="stroke: #000000; stroke-width: 0.8"/>
      </g>
     </g>
     <g id="text_1">
      <!-- 40 -->
      <g transform="translate(60.082952 404.638438) scale(0.1 -0.1)">
       <defs>
        <path id="DejaVuSans-34" d="M 2419 4116 
L 825 1625 
L 2419 1625 
L 2419 4116 
z
M 2253 4666 
L 3047 4666 
L 3047 1625 
L 3713 1625 
L 3713 1100 
L 3047 1100 
L 3047 0 
L 2419 0 
L 2419 1100 
L 313 1100 
L 313 1709 
L 2253 4666 
z
" transform="scale(0.015625)"/>
        <path id="DejaVuSans-30" d="M 2034 4250 
Q 1547 4250 1301 3770 
Q 1056 3291 1056 2328 
Q 1056 1369 1301 889 
Q 1547 409 2034 409 
Q 2525 409 2770 889 
Q 3016 1369 3016 2328 
Q 3016 3291 2770 3770 
Q 2525 4250 2034 4250 
z
M 2034 4750 
Q 2819 4750 3233 4129 
Q 3647 3509 3647 2328 
Q 3647 1150 3233 529 
Q 2819 -91 2034 -91 
Q 1250 -91 836 529 
Q 422 1150 422 2328 
Q 422 3509 836 4129 
Q 1250 4750 2034 4750 
z
" transform="scale(0.015625)"/>
       </defs>
       <use xlink:href="#DejaVuSans-34"/>
       <use xlink:href="#DejaVuSans-30" x="63.623047"/>
      </g>
     </g>
    </g>
    <g id="xtick_2">
     <g id="line2d_2">
      <g>
       <use xlink:href="#m95e640389d" x="148.484341" y="390.04" style="stroke: #000000; stroke-width: 0.8"/>
      </g>
     </g>
     <g id="text_2">
      <!-- 45 -->
      <g transform="translate(142.121841 404.638438) scale(0.1 -0.1)">
       <defs>
        <path id="DejaVuSans-35" d="M 691 4666 
L 3169 4666 
L 3169 4134 
L 1269 4134 
L 1269 2991 
Q 1406 3038 1543 3061 
Q 1681 3084 1819 3084 
Q 2600 3084 3056 2656 
Q 3513 2228 3513 1497 
Q 3513 744 3044 326 
Q 2575 -91 1722 -91 
Q 1428 -91 1123 -41 
Q 819 9 494 109 
L 494 744 
Q 775 591 1075 516 
Q 1375 441 1709 441 
Q 2250 441 2565 725 
Q 2881 1009 2881 1497 
Q 2881 1984 2565 2268 
Q 2250 2553 1709 2553 
Q 1456 2553 1204 2497 
Q 953 2441 691 2322 
L 691 4666 
z
" transform="scale(0.015625)"/>
       </defs>
       <use xlink:href="#DejaVuSans-34"/>
       <use xlink:href="#DejaVuSans-35" x="63.623047"/>
      </g>
     </g>
    </g>
    <g id="xtick_3">
     <g id="line2d_3">
      <g>
       <use xlink:href="#m95e640389d" x="230.52323" y="390.04" style="stroke: #000000; stroke-width: 0.8"/>
      </g>
     </g>
     <g id="text_3">
      <!-- 50 -->
      <g transform="translate(224.16073 404.638438) scale(0.1 -0.1)">
       <use xlink:href="#DejaVuSans-35"/>
       <use xlink:href="#DejaVuSans-30" x="63.623047"/>
      </g>
     </g>
    </g>
    <g id="xtick_4">
     <g id="line2d_4">
      <g>
       <use xlink:href="#m95e640389d" x="312.562119" y="390.04" style="stroke: #000000; stroke-width: 0.8"/>
      </g>
     </g>
     <g id="text_4">
      <!-- 55 -->
      <g transform="translate(306.199619 404.638438) scale(0.1 -0.1)">
       <use xlink:href="#DejaVuSans-35"/>
       <use xlink:href="#DejaVuSans-35" x="63.623047"/>
      </g>
     </g>
    </g>
    <g id="xtick_5">
     <g id="line2d_5">
      <g>
       <use xlink:href="#m95e640389d" x="394.601008" y="390.04" style="stroke: #000000; stroke-width: 0.8"/>
      </g>
     </g>
     <g id="text_5">
      <!-- 60 -->
      <g transform="translate(388.238508 404.638438) scale(0.1 -0.1)">
       <defs>
        <path id="DejaVuSans-36" d="M 2113 2584 
Q 1688 2584 1439 2293 
Q 1191 2003 1191 1497 
Q 1191 994 1439 701 
Q 1688 409 2113 409 
Q 2538 409 2786 701 
Q 3034 994 3034 1497 
Q 3034 2003 2786 2293 
Q 2538 2584 2113 2584 
z
M 3366 4563 
L 3366 3988 
Q 3128 4100 2886 4159 
Q 2644 4219 2406 4219 
Q 1781 4219 1451 3797 
Q 1122 3375 1075 2522 
Q 1259 2794 1537 2939 
Q 1816 3084 2150 3084 
Q 2853 3084 3261 2657 
Q 3669 2231 3669 1497 
Q 3669 778 3244 343 
Q 2819 -91 2113 -91 
Q 1303 -91 875 529 
Q 447 1150 447 2328 
Q 447 3434 972 4092 
Q 1497 4750 2381 4750 
Q 2619 4750 2861 4703 
Q 3103 4656 3366 4563 
z
" transform="scale(0.015625)"/>
       </defs>
       <use xlink:href="#DejaVuSans-36"/>
       <use xlink:href="#DejaVuSans-30" x="63.623047"/>
      </g>
     </g>
    </g>
    <g id="xtick_6">
     <g id="line2d_6">
      <g>
       <use xlink:href="#m95e640389d" x="476.639897" y="390.04" style="stroke: #000000; stroke-width: 0.8"/>
      </g>
     </g>
     <g id="text_6">
      <!-- 65 -->
      <g transform="translate(470.277397 404.638438) scale(0.1 -0.1)">
       <use xlink:href="#DejaVuSans-36"/>
       <use xlink:href="#DejaVuSans-35" x="63.623047"/>
      </g>
     </g>
    </g>
    <g id="xtick_7">
     <g id="line2d_7">
      <g>
       <use xlink:href="#m95e640389d" x="558.678787" y="390.04" style="stroke: #000000; stroke-width: 0.8"/>
      </g>
     </g>
     <g id="text_7">
      <!-- 70 -->
      <g transform="translate(552.316287 404.638438) scale(0.1 -0.1)">
       <defs>
        <path id="DejaVuSans-37" d="M 525 4666 
L 3525 4666 
L 3525 4397 
L 1831 0 
L 1172 0 
L 2766 4134 
L 525 4134 
L 525 4666 
z
" transform="scale(0.015625)"/>
       </defs>
       <use xlink:href="#DejaVuSans-37"/>
       <use xlink:href="#DejaVuSans-30" x="63.623047"/>
      </g>
     </g>
    </g>
    <g id="xtick_8">
     <g id="line2d_8">
      <g>
       <use xlink:href="#m95e640389d" x="640.717676" y="390.04" style="stroke: #000000; stroke-width: 0.8"/>
      </g>
     </g>
     <g id="text_8">
      <!-- 75 -->
      <g transform="translate(634.355176 404.638438) scale(0.1 -0.1)">
       <use xlink:href="#DejaVuSans-37"/>
       <use xlink:href="#DejaVuSans-35" x="63.623047"/>
      </g>
     </g>
    </g>
    <g id="text_9">
     <!-- Weight(kg) -->
     <g transform="translate(354.310156 418.316562) scale(0.1 -0.1)">
      <defs>
       <path id="DejaVuSans-57" d="M 213 4666 
L 850 4666 
L 1831 722 
L 2809 4666 
L 3519 4666 
L 4500 722 
L 5478 4666 
L 6119 4666 
L 4947 0 
L 4153 0 
L 3169 4050 
L 2175 0 
L 1381 0 
L 213 4666 
z
" transform="scale(0.015625)"/>
       <path id="DejaVuSans-65" d="M 3597 1894 
L 3597 1613 
L 953 1613 
Q 991 1019 1311 708 
Q 1631 397 2203 397 
Q 2534 397 2845 478 
Q 3156 559 3463 722 
L 3463 178 
Q 3153 47 2828 -22 
Q 2503 -91 2169 -91 
Q 1331 -91 842 396 
Q 353 884 353 1716 
Q 353 2575 817 3079 
Q 1281 3584 2069 3584 
Q 2775 3584 3186 3129 
Q 3597 2675 3597 1894 
z
M 3022 2063 
Q 3016 2534 2758 2815 
Q 2500 3097 2075 3097 
Q 1594 3097 1305 2825 
Q 1016 2553 972 2059 
L 3022 2063 
z
" transform="scale(0.015625)"/>
       <path id="DejaVuSans-69" d="M 603 3500 
L 1178 3500 
L 1178 0 
L 603 0 
L 603 3500 
z
M 603 4863 
L 1178 4863 
L 1178 4134 
L 603 4134 
L 603 4863 
z
" transform="scale(0.015625)"/>
       <path id="DejaVuSans-67" d="M 2906 1791 
Q 2906 2416 2648 2759 
Q 2391 3103 1925 3103 
Q 1463 3103 1205 2759 
Q 947 2416 947 1791 
Q 947 1169 1205 825 
Q 1463 481 1925 481 
Q 2391 481 2648 825 
Q 2906 1169 2906 1791 
z
M 3481 434 
Q 3481 -459 3084 -895 
Q 2688 -1331 1869 -1331 
Q 1566 -1331 1297 -1286 
Q 1028 -1241 775 -1147 
L 775 -588 
Q 1028 -725 1275 -790 
Q 1522 -856 1778 -856 
Q 2344 -856 2625 -561 
Q 2906 -266 2906 331 
L 2906 616 
Q 2728 306 2450 153 
Q 2172 0 1784 0 
Q 1141 0 747 490 
Q 353 981 353 1791 
Q 353 2603 747 3093 
Q 1141 3584 1784 3584 
Q 2172 3584 2450 3431 
Q 2728 3278 2906 2969 
L 2906 3500 
L 3481 3500 
L 3481 434 
z
" transform="scale(0.015625)"/>
       <path id="DejaVuSans-68" d="M 3513 2113 
L 3513 0 
L 2938 0 
L 2938 2094 
Q 2938 2591 2744 2837 
Q 2550 3084 2163 3084 
Q 1697 3084 1428 2787 
Q 1159 2491 1159 1978 
L 1159 0 
L 581 0 
L 581 4863 
L 1159 4863 
L 1159 2956 
Q 1366 3272 1645 3428 
Q 1925 3584 2291 3584 
Q 2894 3584 3203 3211 
Q 3513 2838 3513 2113 
z
" transform="scale(0.015625)"/>
       <path id="DejaVuSans-74" d="M 1172 4494 
L 1172 3500 
L 2356 3500 
L 2356 3053 
L 1172 3053 
L 1172 1153 
Q 1172 725 1289 603 
Q 1406 481 1766 481 
L 2356 481 
L 2356 0 
L 1766 0 
Q 1100 0 847 248 
Q 594 497 594 1153 
L 594 3053 
L 172 3053 
L 172 3500 
L 594 3500 
L 594 4494 
L 1172 4494 
z
" transform="scale(0.015625)"/>
       <path id="DejaVuSans-28" d="M 1984 4856 
Q 1566 4138 1362 3434 
Q 1159 2731 1159 2009 
Q 1159 1288 1364 580 
Q 1569 -128 1984 -844 
L 1484 -844 
Q 1016 -109 783 600 
Q 550 1309 550 2009 
Q 550 2706 781 3412 
Q 1013 4119 1484 4856 
L 1984 4856 
z
" transform="scale(0.015625)"/>
       <path id="DejaVuSans-6b" d="M 581 4863 
L 1159 4863 
L 1159 1991 
L 2875 3500 
L 3609 3500 
L 1753 1863 
L 3688 0 
L 2938 0 
L 1159 1709 
L 1159 0 
L 581 0 
L 581 4863 
z
" transform="scale(0.015625)"/>
       <path id="DejaVuSans-29" d="M 513 4856 
L 1013 4856 
Q 1481 4119 1714 3412 
Q 1947 2706 1947 2009 
Q 1947 1309 1714 600 
Q 1481 -109 1013 -844 
L 513 -844 
Q 928 -128 1133 580 
Q 1338 1288 1338 2009 
Q 1338 2731 1133 3434 
Q 928 4138 513 4856 
z
" transform="scale(0.015625)"/>
      </defs>
      <use xlink:href="#DejaVuSans-57"/>
      <use xlink:href="#DejaVuSans-65" x="93.001953"/>
      <use xlink:href="#DejaVuSans-69" x="154.525391"/>
      <use xlink:href="#DejaVuSans-67" x="182.308594"/>
      <use xlink:href="#DejaVuSans-68" x="245.785156"/>
      <use xlink:href="#DejaVuSans-74" x="309.164062"/>
      <use xlink:href="#DejaVuSans-28" x="348.373047"/>
      <use xlink:href="#DejaVuSans-6b" x="387.386719"/>
      <use xlink:href="#DejaVuSans-67" x="445.296875"/>
      <use xlink:href="#DejaVuSans-29" x="508.773438"/>
     </g>
    </g>
   </g>
   <g id="matplotlib.axis_2">
    <g id="ytick_1">
     <g id="line2d_9">
      <defs>
       <path id="mc34863c58e" d="M 0 0 
L -3.5 0 
" style="stroke: #000000; stroke-width: 0.8"/>
      </defs>
      <g>
       <use xlink:href="#mc34863c58e" x="54.2" y="390.04" style="stroke: #000000; stroke-width: 0.8"/>
      </g>
     </g>
     <g id="text_10">
      <!-- 0.00 -->
      <g transform="translate(24.934375 393.839219) scale(0.1 -0.1)">
       <defs>
        <path id="DejaVuSans-2e" d="M 684 794 
L 1344 794 
L 1344 0 
L 684 0 
L 684 794 
z
" transform="scale(0.015625)"/>
       </defs>
       <use xlink:href="#DejaVuSans-30"/>
       <use xlink:href="#DejaVuSans-2e" x="63.623047"/>
       <use xlink:href="#DejaVuSans-30" x="95.410156"/>
       <use xlink:href="#DejaVuSans-30" x="159.033203"/>
      </g>
     </g>
    </g>
    <g id="ytick_2">
     <g id="line2d_10">
      <g>
       <use xlink:href="#mc34863c58e" x="54.2" y="321.553436" style="stroke: #000000; stroke-width: 0.8"/>
      </g>
     </g>
     <g id="text_11">
      <!-- 0.02 -->
      <g transform="translate(24.934375 325.352655) scale(0.1 -0.1)">
       <defs>
        <path id="DejaVuSans-32" d="M 1228 531 
L 3431 531 
L 3431 0 
L 469 0 
L 469 531 
Q 828 903 1448 1529 
Q 2069 2156 2228 2338 
Q 2531 2678 2651 2914 
Q 2772 3150 2772 3378 
Q 2772 3750 2511 3984 
Q 2250 4219 1831 4219 
Q 1534 4219 1204 4116 
Q 875 4013 500 3803 
L 500 4441 
Q 881 4594 1212 4672 
Q 1544 4750 1819 4750 
Q 2544 4750 2975 4387 
Q 3406 4025 3406 3419 
Q 3406 3131 3298 2873 
Q 3191 2616 2906 2266 
Q 2828 2175 2409 1742 
Q 1991 1309 1228 531 
z
" transform="scale(0.015625)"/>
       </defs>
       <use xlink:href="#DejaVuSans-30"/>
       <use xlink:href="#DejaVuSans-2e" x="63.623047"/>
       <use xlink:href="#DejaVuSans-30" x="95.410156"/>
       <use xlink:href="#DejaVuSans-32" x="159.033203"/>
      </g>
     </g>
    </g>
    <g id="ytick_3">
     <g id="line2d_11">
      <g>
       <use xlink:href="#mc34863c58e" x="54.2" y="253.066872" style="stroke: #000000; stroke-width: 0.8"/>
      </g>
     </g>
     <g id="text_12">
      <!-- 0.04 -->
      <g transform="translate(24.934375 256.866091) scale(0.1 -0.1)">
       <use xlink:href="#DejaVuSans-30"/>
       <use xlink:href="#DejaVuSans-2e" x="63.623047"/>
       <use xlink:href="#DejaVuSans-30" x="95.410156"/>
       <use xlink:href="#DejaVuSans-34" x="159.033203"/>
      </g>
     </g>
    </g>
    <g id="ytick_4">
     <g id="line2d_12">
      <g>
       <use xlink:href="#mc34863c58e" x="54.2" y="184.580308" style="stroke: #000000; stroke-width: 0.8"/>
      </g>
     </g>
     <g id="text_13">
      <!-- 0.06 -->
      <g transform="translate(24.934375 188.379527) scale(0.1 -0.1)">
       <use xlink:href="#DejaVuSans-30"/>
       <use xlink:href="#DejaVuSans-2e" x="63.623047"/>
       <use xlink:href="#DejaVuSans-30" x="95.410156"/>
       <use xlink:href="#DejaVuSans-36" x="159.033203"/>
      </g>
     </g>
    </g>
    <g id="ytick_5">
     <g id="line2d_13">
      <g>
       <use xlink:href="#mc34863c58e" x="54.2" y="116.093744" style="stroke: #000000; stroke-width: 0.8"/>
      </g>
     </g>
     <g id="text_14">
      <!-- 0.08 -->
      <g transform="translate(24.934375 119.892963) scale(0.1 -0.1)">
       <defs>
        <path id="DejaVuSans-38" d="M 2034 2216 
Q 1584 2216 1326 1975 
Q 1069 1734 1069 1313 
Q 1069 891 1326 650 
Q 1584 409 2034 409 
Q 2484 409 2743 651 
Q 3003 894 3003 1313 
Q 3003 1734 2745 1975 
Q 2488 2216 2034 2216 
z
M 1403 2484 
Q 997 2584 770 2862 
Q 544 3141 544 3541 
Q 544 4100 942 4425 
Q 1341 4750 2034 4750 
Q 2731 4750 3128 4425 
Q 3525 4100 3525 3541 
Q 3525 3141 3298 2862 
Q 3072 2584 2669 2484 
Q 3125 2378 3379 2068 
Q 3634 1759 3634 1313 
Q 3634 634 3220 271 
Q 2806 -91 2034 -91 
Q 1263 -91 848 271 
Q 434 634 434 1313 
Q 434 1759 690 2068 
Q 947 2378 1403 2484 
z
M 1172 3481 
Q 1172 3119 1398 2916 
Q 1625 2713 2034 2713 
Q 2441 2713 2670 2916 
Q 2900 3119 2900 3481 
Q 2900 3844 2670 4047 
Q 2441 4250 2034 4250 
Q 1625 4250 1398 4047 
Q 1172 3844 1172 3481 
z
" transform="scale(0.015625)"/>
       </defs>
       <use xlink:href="#DejaVuSans-30"/>
       <use xlink:href="#DejaVuSans-2e" x="63.623047"/>
       <use xlink:href="#DejaVuSans-30" x="95.410156"/>
       <use xlink:href="#DejaVuSans-38" x="159.033203"/>
      </g>
     </g>
    </g>
    <g id="ytick_6">
     <g id="line2d_14">
      <g>
       <use xlink:href="#mc34863c58e" x="54.2" y="47.60718" style="stroke: #000000; stroke-width: 0.8"/>
      </g>
     </g>
     <g id="text_15">
      <!-- 0.10 -->
      <g transform="translate(24.934375 51.406399) scale(0.1 -0.1)">
       <defs>
        <path id="DejaVuSans-31" d="M 794 531 
L 1825 531 
L 1825 4091 
L 703 3866 
L 703 4441 
L 1819 4666 
L 2450 4666 
L 2450 531 
L 3481 531 
L 3481 0 
L 794 0 
L 794 531 
z
" transform="scale(0.015625)"/>
       </defs>
       <use xlink:href="#DejaVuSans-30"/>
       <use xlink:href="#DejaVuSans-2e" x="63.623047"/>
       <use xlink:href="#DejaVuSans-31" x="95.410156"/>
       <use xlink:href="#DejaVuSans-30" x="159.033203"/>
      </g>
     </g>
    </g>
    <g id="text_16">
     <!-- Frequency -->
     <g transform="translate(18.854688 233.569688) rotate(-90) scale(0.1 -0.1)">
      <defs>
       <path id="DejaVuSans-46" d="M 628 4666 
L 3309 4666 
L 3309 4134 
L 1259 4134 
L 1259 2759 
L 3109 2759 
L 3109 2228 
L 1259 2228 
L 1259 0 
L 628 0 
L 628 4666 
z
" transform="scale(0.015625)"/>
       <path id="DejaVuSans-72" d="M 2631 2963 
Q 2534 3019 2420 3045 
Q 2306 3072 2169 3072 
Q 1681 3072 1420 2755 
Q 1159 2438 1159 1844 
L 1159 0 
L 581 0 
L 581 3500 
L 1159 3500 
L 1159 2956 
Q 1341 3275 1631 3429 
Q 1922 3584 2338 3584 
Q 2397 3584 2469 3576 
Q 2541 3569 2628 3553 
L 2631 2963 
z
" transform="scale(0.015625)"/>
       <path id="DejaVuSans-71" d="M 947 1747 
Q 947 1113 1208 752 
Q 1469 391 1925 391 
Q 2381 391 2643 752 
Q 2906 1113 2906 1747 
Q 2906 2381 2643 2742 
Q 2381 3103 1925 3103 
Q 1469 3103 1208 2742 
Q 947 2381 947 1747 
z
M 2906 525 
Q 2725 213 2448 61 
Q 2172 -91 1784 -91 
Q 1150 -91 751 415 
Q 353 922 353 1747 
Q 353 2572 751 3078 
Q 1150 3584 1784 3584 
Q 2172 3584 2448 3432 
Q 2725 3281 2906 2969 
L 2906 3500 
L 3481 3500 
L 3481 -1331 
L 2906 -1331 
L 2906 525 
z
" transform="scale(0.015625)"/>
       <path id="DejaVuSans-75" d="M 544 1381 
L 544 3500 
L 1119 3500 
L 1119 1403 
Q 1119 906 1312 657 
Q 1506 409 1894 409 
Q 2359 409 2629 706 
Q 2900 1003 2900 1516 
L 2900 3500 
L 3475 3500 
L 3475 0 
L 2900 0 
L 2900 538 
Q 2691 219 2414 64 
Q 2138 -91 1772 -91 
Q 1169 -91 856 284 
Q 544 659 544 1381 
z
M 1991 3584 
L 1991 3584 
z
" transform="scale(0.015625)"/>
       <path id="DejaVuSans-6e" d="M 3513 2113 
L 3513 0 
L 2938 0 
L 2938 2094 
Q 2938 2591 2744 2837 
Q 2550 3084 2163 3084 
Q 1697 3084 1428 2787 
Q 1159 2491 1159 1978 
L 1159 0 
L 581 0 
L 581 3500 
L 1159 3500 
L 1159 2956 
Q 1366 3272 1645 3428 
Q 1925 3584 2291 3584 
Q 2894 3584 3203 3211 
Q 3513 2838 3513 2113 
z
" transform="scale(0.015625)"/>
       <path id="DejaVuSans-63" d="M 3122 3366 
L 3122 2828 
Q 2878 2963 2633 3030 
Q 2388 3097 2138 3097 
Q 1578 3097 1268 2742 
Q 959 2388 959 1747 
Q 959 1106 1268 751 
Q 1578 397 2138 397 
Q 2388 397 2633 464 
Q 2878 531 3122 666 
L 3122 134 
Q 2881 22 2623 -34 
Q 2366 -91 2075 -91 
Q 1284 -91 818 406 
Q 353 903 353 1747 
Q 353 2603 823 3093 
Q 1294 3584 2113 3584 
Q 2378 3584 2631 3529 
Q 2884 3475 3122 3366 
z
" transform="scale(0.015625)"/>
       <path id="DejaVuSans-79" d="M 2059 -325 
Q 1816 -950 1584 -1140 
Q 1353 -1331 966 -1331 
L 506 -1331 
L 506 -850 
L 844 -850 
Q 1081 -850 1212 -737 
Q 1344 -625 1503 -206 
L 1606 56 
L 191 3500 
L 800 3500 
L 1894 763 
L 2988 3500 
L 3597 3500 
L 2059 -325 
z
" transform="scale(0.015625)"/>
      </defs>
      <use xlink:href="#DejaVuSans-46"/>
      <use xlink:href="#DejaVuSans-72" x="50.269531"/>
      <use xlink:href="#DejaVuSans-65" x="89.132812"/>
      <use xlink:href="#DejaVuSans-71" x="150.65625"/>
      <use xlink:href="#DejaVuSans-75" x="214.132812"/>
      <use xlink:href="#DejaVuSans-65" x="277.511719"/>
      <use xlink:href="#DejaVuSans-6e" x="339.035156"/>
      <use xlink:href="#DejaVuSans-63" x="402.414062"/>
      <use xlink:href="#DejaVuSans-79" x="457.394531"/>
     </g>
    </g>
   </g>
   <g id="line2d_15">
    <path d="M 83.972727 389.925718 
L 107.814751 389.677035 
L 123.312067 389.307857 
L 135.233079 388.816853 
L 145.365939 388.181981 
L 153.710647 387.450937 
L 161.459305 386.552245 
L 168.611912 385.487635 
L 175.168468 384.270769 
L 181.128974 382.927613 
L 186.49343 381.495612 
L 191.857885 379.823146 
L 196.62629 378.110465 
L 201.394695 376.162016 
L 206.163099 373.954824 
L 210.335454 371.792748 
L 214.507808 369.398488 
L 218.680162 366.755984 
L 222.852516 363.849328 
L 227.02487 360.662978 
L 231.197224 357.181991 
L 235.369579 353.39227 
L 239.541933 349.280835 
L 243.714287 344.836107 
L 247.886641 340.048201 
L 252.058995 334.909231 
L 256.23135 329.413612 
L 260.403704 323.558363 
L 264.576058 317.343405 
L 269.344463 309.804265 
L 274.112867 301.809619 
L 278.881272 293.375942 
L 284.245728 283.392388 
L 289.610183 272.926251 
L 295.570689 260.798516 
L 302.127245 246.959096 
L 311.068004 227.507104 
L 330.141623 185.771567 
L 336.69818 172.070041 
L 342.062635 161.36918 
L 346.83104 152.351311 
L 351.003394 144.912952 
L 355.175748 137.9554 
L 358.752052 132.415088 
L 362.328356 127.299236 
L 365.308609 123.38188 
L 368.288862 119.796149 
L 371.269115 116.556907 
L 374.249368 113.6777 
L 376.63357 111.641762 
L 379.017772 109.849565 
L 381.401975 108.305997 
L 383.786177 107.015283 
L 386.170379 105.980968 
L 388.554582 105.205901 
L 390.938784 104.692223 
L 393.322987 104.441352 
L 395.707189 104.453983 
L 398.091391 104.730082 
L 400.475594 105.268883 
L 402.859796 106.068899 
L 405.243999 107.12792 
L 407.628201 108.443031 
L 410.012403 110.01062 
L 412.396606 111.826397 
L 414.780808 113.885414 
L 417.761061 116.792672 
L 420.741314 120.058976 
L 423.721567 123.670674 
L 426.70182 127.612806 
L 430.278124 132.756693 
L 433.854427 138.323059 
L 437.430731 144.279919 
L 441.603085 151.678137 
L 446.37149 160.656274 
L 451.139894 170.10974 
L 457.1004 182.461139 
L 464.253008 197.839824 
L 477.962171 228.009527 
L 487.498981 248.723665 
L 494.651588 263.73223 
L 500.612094 275.741929 
L 505.976549 286.085153 
L 511.341005 295.933152 
L 516.109409 304.238148 
L 520.877814 312.09852 
L 525.646219 319.499718 
L 529.818573 325.592387 
L 533.990927 331.325029 
L 538.163281 336.698746 
L 542.335636 341.717438 
L 546.50799 346.387508 
L 550.680344 350.717556 
L 554.852698 354.718079 
L 559.025052 358.401164 
L 563.197406 361.780203 
L 567.369761 364.86961 
L 571.542115 367.684561 
L 575.714469 370.240746 
L 579.886823 372.554147 
L 584.059177 374.640835 
L 588.827582 376.768499 
L 593.595987 378.64434 
L 598.364392 380.291103 
L 603.728847 381.897048 
L 609.093302 383.270153 
L 615.053808 384.556166 
L 621.610365 385.719375 
L 628.166921 386.659528 
L 635.915579 387.533178 
L 644.260288 388.24301 
L 653.797097 388.828563 
L 665.122058 389.295924 
L 679.427273 389.649788 
L 679.427273 389.649788 
" clip-path="url(#pb3ff28845e)" style="fill: none; stroke-dasharray: 11.1,4.8; stroke-dashoffset: 0; stroke: #ff0000; stroke-opacity: 0.5; stroke-width: 3"/>
   </g>
   <g id="line2d_16">
    <path d="M 394.400843 390.04 
L 394.400843 25.44 
" clip-path="url(#pb3ff28845e)" style="fill: none; stroke-dasharray: 3.7,1.6; stroke-dashoffset: 0; stroke: #ff0000"/>
   </g>
   <g id="line2d_17">
    <path d="M 525.905893 390.04 
L 525.905893 25.44 
" clip-path="url(#pb3ff28845e)" style="fill: none; stroke-dasharray: 3.7,1.6; stroke-dashoffset: 0; stroke: #4dbfa5"/>
   </g>
   <g id="line2d_18">
    <path d="M 264.661919 390.04 
L 264.661919 25.44 
" clip-path="url(#pb3ff28845e)" style="fill: none; stroke-dasharray: 3.7,1.6; stroke-dashoffset: 0; stroke: #bfbe4d"/>
   </g>
   <g id="patch_203">
    <path d="M 54.2 390.04 
L 54.2 25.44 
" style="fill: none; stroke: #000000; stroke-width: 0.8; stroke-linejoin: miter; stroke-linecap: square"/>
   </g>
   <g id="patch_204">
    <path d="M 709.2 390.04 
L 709.2 25.44 
" style="fill: none; stroke: #000000; stroke-width: 0.8; stroke-linejoin: miter; stroke-linecap: square"/>
   </g>
   <g id="patch_205">
    <path d="M 54.2 390.04 
L 709.2 390.04 
" style="fill: none; stroke: #000000; stroke-width: 0.8; stroke-linejoin: miter; stroke-linecap: square"/>
   </g>
   <g id="patch_206">
    <path d="M 54.2 25.44 
L 709.2 25.44 
" style="fill: none; stroke: #000000; stroke-width: 0.8; stroke-linejoin: miter; stroke-linecap: square"/>
   </g>
   <g id="text_17">
    <!-- mean=59.988 -->
    <g style="fill: #ff0000; opacity: 0.8" transform="translate(394.400843 61.9) scale(0.1 -0.1)">
     <defs>
      <path id="DejaVuSans-6d" d="M 3328 2828 
Q 3544 3216 3844 3400 
Q 4144 3584 4550 3584 
Q 5097 3584 5394 3201 
Q 5691 2819 5691 2113 
L 5691 0 
L 5113 0 
L 5113 2094 
Q 5113 2597 4934 2840 
Q 4756 3084 4391 3084 
Q 3944 3084 3684 2787 
Q 3425 2491 3425 1978 
L 3425 0 
L 2847 0 
L 2847 2094 
Q 2847 2600 2669 2842 
Q 2491 3084 2119 3084 
Q 1678 3084 1418 2786 
Q 1159 2488 1159 1978 
L 1159 0 
L 581 0 
L 581 3500 
L 1159 3500 
L 1159 2956 
Q 1356 3278 1631 3431 
Q 1906 3584 2284 3584 
Q 2666 3584 2933 3390 
Q 3200 3197 3328 2828 
z
" transform="scale(0.015625)"/>
      <path id="DejaVuSans-61" d="M 2194 1759 
Q 1497 1759 1228 1600 
Q 959 1441 959 1056 
Q 959 750 1161 570 
Q 1363 391 1709 391 
Q 2188 391 2477 730 
Q 2766 1069 2766 1631 
L 2766 1759 
L 2194 1759 
z
M 3341 1997 
L 3341 0 
L 2766 0 
L 2766 531 
Q 2569 213 2275 61 
Q 1981 -91 1556 -91 
Q 1019 -91 701 211 
Q 384 513 384 1019 
Q 384 1609 779 1909 
Q 1175 2209 1959 2209 
L 2766 2209 
L 2766 2266 
Q 2766 2663 2505 2880 
Q 2244 3097 1772 3097 
Q 1472 3097 1187 3025 
Q 903 2953 641 2809 
L 641 3341 
Q 956 3463 1253 3523 
Q 1550 3584 1831 3584 
Q 2591 3584 2966 3190 
Q 3341 2797 3341 1997 
z
" transform="scale(0.015625)"/>
      <path id="DejaVuSans-3d" d="M 678 2906 
L 4684 2906 
L 4684 2381 
L 678 2381 
L 678 2906 
z
M 678 1631 
L 4684 1631 
L 4684 1100 
L 678 1100 
L 678 1631 
z
" transform="scale(0.015625)"/>
      <path id="DejaVuSans-39" d="M 703 97 
L 703 672 
Q 941 559 1184 500 
Q 1428 441 1663 441 
Q 2288 441 2617 861 
Q 2947 1281 2994 2138 
Q 2813 1869 2534 1725 
Q 2256 1581 1919 1581 
Q 1219 1581 811 2004 
Q 403 2428 403 3163 
Q 403 3881 828 4315 
Q 1253 4750 1959 4750 
Q 2769 4750 3195 4129 
Q 3622 3509 3622 2328 
Q 3622 1225 3098 567 
Q 2575 -91 1691 -91 
Q 1453 -91 1209 -44 
Q 966 3 703 97 
z
M 1959 2075 
Q 2384 2075 2632 2365 
Q 2881 2656 2881 3163 
Q 2881 3666 2632 3958 
Q 2384 4250 1959 4250 
Q 1534 4250 1286 3958 
Q 1038 3666 1038 3163 
Q 1038 2656 1286 2365 
Q 1534 2075 1959 2075 
z
" transform="scale(0.015625)"/>
     </defs>
     <use xlink:href="#DejaVuSans-6d"/>
     <use xlink:href="#DejaVuSans-65" x="97.412109"/>
     <use xlink:href="#DejaVuSans-61" x="158.935547"/>
     <use xlink:href="#DejaVuSans-6e" x="220.214844"/>
     <use xlink:href="#DejaVuSans-3d" x="283.59375"/>
     <use xlink:href="#DejaVuSans-35" x="367.382812"/>
     <use xlink:href="#DejaVuSans-39" x="431.005859"/>
     <use xlink:href="#DejaVuSans-2e" x="494.628906"/>
     <use xlink:href="#DejaVuSans-39" x="526.416016"/>
     <use xlink:href="#DejaVuSans-38" x="590.039062"/>
     <use xlink:href="#DejaVuSans-38" x="653.662109"/>
    </g>
   </g>
   <g id="text_18">
    <!-- Weight distribution of people taller than 173cm (5000 samples) -->
    <g transform="translate(190.584062 19.44) scale(0.12 -0.12)">
     <defs>
      <path id="DejaVuSans-20" transform="scale(0.015625)"/>
      <path id="DejaVuSans-64" d="M 2906 2969 
L 2906 4863 
L 3481 4863 
L 3481 0 
L 2906 0 
L 2906 525 
Q 2725 213 2448 61 
Q 2172 -91 1784 -91 
Q 1150 -91 751 415 
Q 353 922 353 1747 
Q 353 2572 751 3078 
Q 1150 3584 1784 3584 
Q 2172 3584 2448 3432 
Q 2725 3281 2906 2969 
z
M 947 1747 
Q 947 1113 1208 752 
Q 1469 391 1925 391 
Q 2381 391 2643 752 
Q 2906 1113 2906 1747 
Q 2906 2381 2643 2742 
Q 2381 3103 1925 3103 
Q 1469 3103 1208 2742 
Q 947 2381 947 1747 
z
" transform="scale(0.015625)"/>
      <path id="DejaVuSans-73" d="M 2834 3397 
L 2834 2853 
Q 2591 2978 2328 3040 
Q 2066 3103 1784 3103 
Q 1356 3103 1142 2972 
Q 928 2841 928 2578 
Q 928 2378 1081 2264 
Q 1234 2150 1697 2047 
L 1894 2003 
Q 2506 1872 2764 1633 
Q 3022 1394 3022 966 
Q 3022 478 2636 193 
Q 2250 -91 1575 -91 
Q 1294 -91 989 -36 
Q 684 19 347 128 
L 347 722 
Q 666 556 975 473 
Q 1284 391 1588 391 
Q 1994 391 2212 530 
Q 2431 669 2431 922 
Q 2431 1156 2273 1281 
Q 2116 1406 1581 1522 
L 1381 1569 
Q 847 1681 609 1914 
Q 372 2147 372 2553 
Q 372 3047 722 3315 
Q 1072 3584 1716 3584 
Q 2034 3584 2315 3537 
Q 2597 3491 2834 3397 
z
" transform="scale(0.015625)"/>
      <path id="DejaVuSans-62" d="M 3116 1747 
Q 3116 2381 2855 2742 
Q 2594 3103 2138 3103 
Q 1681 3103 1420 2742 
Q 1159 2381 1159 1747 
Q 1159 1113 1420 752 
Q 1681 391 2138 391 
Q 2594 391 2855 752 
Q 3116 1113 3116 1747 
z
M 1159 2969 
Q 1341 3281 1617 3432 
Q 1894 3584 2278 3584 
Q 2916 3584 3314 3078 
Q 3713 2572 3713 1747 
Q 3713 922 3314 415 
Q 2916 -91 2278 -91 
Q 1894 -91 1617 61 
Q 1341 213 1159 525 
L 1159 0 
L 581 0 
L 581 4863 
L 1159 4863 
L 1159 2969 
z
" transform="scale(0.015625)"/>
      <path id="DejaVuSans-6f" d="M 1959 3097 
Q 1497 3097 1228 2736 
Q 959 2375 959 1747 
Q 959 1119 1226 758 
Q 1494 397 1959 397 
Q 2419 397 2687 759 
Q 2956 1122 2956 1747 
Q 2956 2369 2687 2733 
Q 2419 3097 1959 3097 
z
M 1959 3584 
Q 2709 3584 3137 3096 
Q 3566 2609 3566 1747 
Q 3566 888 3137 398 
Q 2709 -91 1959 -91 
Q 1206 -91 779 398 
Q 353 888 353 1747 
Q 353 2609 779 3096 
Q 1206 3584 1959 3584 
z
" transform="scale(0.015625)"/>
      <path id="DejaVuSans-66" d="M 2375 4863 
L 2375 4384 
L 1825 4384 
Q 1516 4384 1395 4259 
Q 1275 4134 1275 3809 
L 1275 3500 
L 2222 3500 
L 2222 3053 
L 1275 3053 
L 1275 0 
L 697 0 
L 697 3053 
L 147 3053 
L 147 3500 
L 697 3500 
L 697 3744 
Q 697 4328 969 4595 
Q 1241 4863 1831 4863 
L 2375 4863 
z
" transform="scale(0.015625)"/>
      <path id="DejaVuSans-70" d="M 1159 525 
L 1159 -1331 
L 581 -1331 
L 581 3500 
L 1159 3500 
L 1159 2969 
Q 1341 3281 1617 3432 
Q 1894 3584 2278 3584 
Q 2916 3584 3314 3078 
Q 3713 2572 3713 1747 
Q 3713 922 3314 415 
Q 2916 -91 2278 -91 
Q 1894 -91 1617 61 
Q 1341 213 1159 525 
z
M 3116 1747 
Q 3116 2381 2855 2742 
Q 2594 3103 2138 3103 
Q 1681 3103 1420 2742 
Q 1159 2381 1159 1747 
Q 1159 1113 1420 752 
Q 1681 391 2138 391 
Q 2594 391 2855 752 
Q 3116 1113 3116 1747 
z
" transform="scale(0.015625)"/>
      <path id="DejaVuSans-6c" d="M 603 4863 
L 1178 4863 
L 1178 0 
L 603 0 
L 603 4863 
z
" transform="scale(0.015625)"/>
      <path id="DejaVuSans-33" d="M 2597 2516 
Q 3050 2419 3304 2112 
Q 3559 1806 3559 1356 
Q 3559 666 3084 287 
Q 2609 -91 1734 -91 
Q 1441 -91 1130 -33 
Q 819 25 488 141 
L 488 750 
Q 750 597 1062 519 
Q 1375 441 1716 441 
Q 2309 441 2620 675 
Q 2931 909 2931 1356 
Q 2931 1769 2642 2001 
Q 2353 2234 1838 2234 
L 1294 2234 
L 1294 2753 
L 1863 2753 
Q 2328 2753 2575 2939 
Q 2822 3125 2822 3475 
Q 2822 3834 2567 4026 
Q 2313 4219 1838 4219 
Q 1578 4219 1281 4162 
Q 984 4106 628 3988 
L 628 4550 
Q 988 4650 1302 4700 
Q 1616 4750 1894 4750 
Q 2613 4750 3031 4423 
Q 3450 4097 3450 3541 
Q 3450 3153 3228 2886 
Q 3006 2619 2597 2516 
z
" transform="scale(0.015625)"/>
     </defs>
     <use xlink:href="#DejaVuSans-57"/>
     <use xlink:href="#DejaVuSans-65" x="93.001953"/>
     <use xlink:href="#DejaVuSans-69" x="154.525391"/>
     <use xlink:href="#DejaVuSans-67" x="182.308594"/>
     <use xlink:href="#DejaVuSans-68" x="245.785156"/>
     <use xlink:href="#DejaVuSans-74" x="309.164062"/>
     <use xlink:href="#DejaVuSans-20" x="348.373047"/>
     <use xlink:href="#DejaVuSans-64" x="380.160156"/>
     <use xlink:href="#DejaVuSans-69" x="443.636719"/>
     <use xlink:href="#DejaVuSans-73" x="471.419922"/>
     <use xlink:href="#DejaVuSans-74" x="523.519531"/>
     <use xlink:href="#DejaVuSans-72" x="562.728516"/>
     <use xlink:href="#DejaVuSans-69" x="603.841797"/>
     <use xlink:href="#DejaVuSans-62" x="631.625"/>
     <use xlink:href="#DejaVuSans-75" x="695.101562"/>
     <use xlink:href="#DejaVuSans-74" x="758.480469"/>
     <use xlink:href="#DejaVuSans-69" x="797.689453"/>
     <use xlink:href="#DejaVuSans-6f" x="825.472656"/>
     <use xlink:href="#DejaVuSans-6e" x="886.654297"/>
     <use xlink:href="#DejaVuSans-20" x="950.033203"/>
     <use xlink:href="#DejaVuSans-6f" x="981.820312"/>
     <use xlink:href="#DejaVuSans-66" x="1043.001953"/>
     <use xlink:href="#DejaVuSans-20" x="1078.207031"/>
     <use xlink:href="#DejaVuSans-70" x="1109.994141"/>
     <use xlink:href="#DejaVuSans-65" x="1173.470703"/>
     <use xlink:href="#DejaVuSans-6f" x="1234.994141"/>
     <use xlink:href="#DejaVuSans-70" x="1296.175781"/>
     <use xlink:href="#DejaVuSans-6c" x="1359.652344"/>
     <use xlink:href="#DejaVuSans-65" x="1387.435547"/>
     <use xlink:href="#DejaVuSans-20" x="1448.958984"/>
     <use xlink:href="#DejaVuSans-74" x="1480.746094"/>
     <use xlink:href="#DejaVuSans-61" x="1519.955078"/>
     <use xlink:href="#DejaVuSans-6c" x="1581.234375"/>
     <use xlink:href="#DejaVuSans-6c" x="1609.017578"/>
     <use xlink:href="#DejaVuSans-65" x="1636.800781"/>
     <use xlink:href="#DejaVuSans-72" x="1698.324219"/>
     <use xlink:href="#DejaVuSans-20" x="1739.4375"/>
     <use xlink:href="#DejaVuSans-74" x="1771.224609"/>
     <use xlink:href="#DejaVuSans-68" x="1810.433594"/>
     <use xlink:href="#DejaVuSans-61" x="1873.8125"/>
     <use xlink:href="#DejaVuSans-6e" x="1935.091797"/>
     <use xlink:href="#DejaVuSans-20" x="1998.470703"/>
     <use xlink:href="#DejaVuSans-31" x="2030.257812"/>
     <use xlink:href="#DejaVuSans-37" x="2093.880859"/>
     <use xlink:href="#DejaVuSans-33" x="2157.503906"/>
     <use xlink:href="#DejaVuSans-63" x="2221.126953"/>
     <use xlink:href="#DejaVuSans-6d" x="2276.107422"/>
     <use xlink:href="#DejaVuSans-20" x="2373.519531"/>
     <use xlink:href="#DejaVuSans-28" x="2405.306641"/>
     <use xlink:href="#DejaVuSans-35" x="2444.320312"/>
     <use xlink:href="#DejaVuSans-30" x="2507.943359"/>
     <use xlink:href="#DejaVuSans-30" x="2571.566406"/>
     <use xlink:href="#DejaVuSans-30" x="2635.189453"/>
     <use xlink:href="#DejaVuSans-20" x="2698.8125"/>
     <use xlink:href="#DejaVuSans-73" x="2730.599609"/>
     <use xlink:href="#DejaVuSans-61" x="2782.699219"/>
     <use xlink:href="#DejaVuSans-6d" x="2843.978516"/>
     <use xlink:href="#DejaVuSans-70" x="2941.390625"/>
     <use xlink:href="#DejaVuSans-6c" x="3004.867188"/>
     <use xlink:href="#DejaVuSans-65" x="3032.650391"/>
     <use xlink:href="#DejaVuSans-73" x="3094.173828"/>
     <use xlink:href="#DejaVuSans-29" x="3146.273438"/>
    </g>
   </g>
   <g id="legend_1">
    <g id="patch_207">
     <path d="M 574.996875 106.830625 
L 702.2 106.830625 
Q 704.2 106.830625 704.2 104.830625 
L 704.2 32.44 
Q 704.2 30.44 702.2 30.44 
L 574.996875 30.44 
Q 572.996875 30.44 572.996875 32.44 
L 572.996875 104.830625 
Q 572.996875 106.830625 574.996875 106.830625 
z
" style="fill: #ffffff; opacity: 0.8; stroke: #cccccc; stroke-linejoin: miter"/>
    </g>
    <g id="patch_208">
     <path d="M 576.996875 42.038437 
L 596.996875 42.038437 
L 596.996875 35.038437 
L 576.996875 35.038437 
z
" style="fill: #800080"/>
    </g>
    <g id="text_19">
     <!-- Weight distribution -->
     <g transform="translate(604.996875 42.038437) scale(0.1 -0.1)">
      <use xlink:href="#DejaVuSans-57"/>
      <use xlink:href="#DejaVuSans-65" x="93.001953"/>
      <use xlink:href="#DejaVuSans-69" x="154.525391"/>
      <use xlink:href="#DejaVuSans-67" x="182.308594"/>
      <use xlink:href="#DejaVuSans-68" x="245.785156"/>
      <use xlink:href="#DejaVuSans-74" x="309.164062"/>
      <use xlink:href="#DejaVuSans-20" x="348.373047"/>
      <use xlink:href="#DejaVuSans-64" x="380.160156"/>
      <use xlink:href="#DejaVuSans-69" x="443.636719"/>
      <use xlink:href="#DejaVuSans-73" x="471.419922"/>
      <use xlink:href="#DejaVuSans-74" x="523.519531"/>
      <use xlink:href="#DejaVuSans-72" x="562.728516"/>
      <use xlink:href="#DejaVuSans-69" x="603.841797"/>
      <use xlink:href="#DejaVuSans-62" x="631.625"/>
      <use xlink:href="#DejaVuSans-75" x="695.101562"/>
      <use xlink:href="#DejaVuSans-74" x="758.480469"/>
      <use xlink:href="#DejaVuSans-69" x="797.689453"/>
      <use xlink:href="#DejaVuSans-6f" x="825.472656"/>
      <use xlink:href="#DejaVuSans-6e" x="886.654297"/>
     </g>
    </g>
    <g id="line2d_19">
     <path d="M 576.996875 53.216563 
L 586.996875 53.216563 
L 596.996875 53.216563 
" style="fill: none; stroke-dasharray: 11.1,4.8; stroke-dashoffset: 0; stroke: #ff0000; stroke-opacity: 0.5; stroke-width: 3"/>
    </g>
    <g id="text_20">
     <!-- normal distribution -->
     <g transform="translate(604.996875 56.716563) scale(0.1 -0.1)">
      <use xlink:href="#DejaVuSans-6e"/>
      <use xlink:href="#DejaVuSans-6f" x="63.378906"/>
      <use xlink:href="#DejaVuSans-72" x="124.560547"/>
      <use xlink:href="#DejaVuSans-6d" x="163.923828"/>
      <use xlink:href="#DejaVuSans-61" x="261.335938"/>
      <use xlink:href="#DejaVuSans-6c" x="322.615234"/>
      <use xlink:href="#DejaVuSans-20" x="350.398438"/>
      <use xlink:href="#DejaVuSans-64" x="382.185547"/>
      <use xlink:href="#DejaVuSans-69" x="445.662109"/>
      <use xlink:href="#DejaVuSans-73" x="473.445312"/>
      <use xlink:href="#DejaVuSans-74" x="525.544922"/>
      <use xlink:href="#DejaVuSans-72" x="564.753906"/>
      <use xlink:href="#DejaVuSans-69" x="605.867188"/>
      <use xlink:href="#DejaVuSans-62" x="633.650391"/>
      <use xlink:href="#DejaVuSans-75" x="697.126953"/>
      <use xlink:href="#DejaVuSans-74" x="760.505859"/>
      <use xlink:href="#DejaVuSans-69" x="799.714844"/>
      <use xlink:href="#DejaVuSans-6f" x="827.498047"/>
      <use xlink:href="#DejaVuSans-6e" x="888.679688"/>
     </g>
    </g>
    <g id="line2d_20">
     <path d="M 576.996875 67.894687 
L 586.996875 67.894687 
L 596.996875 67.894687 
" style="fill: none; stroke-dasharray: 3.7,1.6; stroke-dashoffset: 0; stroke: #ff0000"/>
    </g>
    <g id="text_21">
     <!-- mean -->
     <g transform="translate(604.996875 71.394687) scale(0.1 -0.1)">
      <use xlink:href="#DejaVuSans-6d"/>
      <use xlink:href="#DejaVuSans-65" x="97.412109"/>
      <use xlink:href="#DejaVuSans-61" x="158.935547"/>
      <use xlink:href="#DejaVuSans-6e" x="220.214844"/>
     </g>
    </g>
    <g id="line2d_21">
     <path d="M 576.996875 82.572812 
L 586.996875 82.572812 
L 596.996875 82.572812 
" style="fill: none; stroke-dasharray: 3.7,1.6; stroke-dashoffset: 0; stroke: #4dbfa5"/>
    </g>
    <g id="text_22">
     <!-- alpha=0.050 -->
     <g transform="translate(604.996875 86.072812) scale(0.1 -0.1)">
      <use xlink:href="#DejaVuSans-61"/>
      <use xlink:href="#DejaVuSans-6c" x="61.279297"/>
      <use xlink:href="#DejaVuSans-70" x="89.0625"/>
      <use xlink:href="#DejaVuSans-68" x="152.539062"/>
      <use xlink:href="#DejaVuSans-61" x="215.917969"/>
      <use xlink:href="#DejaVuSans-3d" x="277.197266"/>
      <use xlink:href="#DejaVuSans-30" x="360.986328"/>
      <use xlink:href="#DejaVuSans-2e" x="424.609375"/>
      <use xlink:href="#DejaVuSans-30" x="456.396484"/>
      <use xlink:href="#DejaVuSans-35" x="520.019531"/>
      <use xlink:href="#DejaVuSans-30" x="583.642578"/>
     </g>
    </g>
    <g id="line2d_22">
     <path d="M 576.996875 97.250937 
L 586.996875 97.250937 
L 596.996875 97.250937 
" style="fill: none; stroke-dasharray: 3.7,1.6; stroke-dashoffset: 0; stroke: #bfbe4d"/>
    </g>
    <g id="text_23">
     <!-- alpha=0.950 -->
     <g transform="translate(604.996875 100.750937) scale(0.1 -0.1)">
      <use xlink:href="#DejaVuSans-61"/>
      <use xlink:href="#DejaVuSans-6c" x="61.279297"/>
      <use xlink:href="#DejaVuSans-70" x="89.0625"/>
      <use xlink:href="#DejaVuSans-68" x="152.539062"/>
      <use xlink:href="#DejaVuSans-61" x="215.917969"/>
      <use xlink:href="#DejaVuSans-3d" x="277.197266"/>
      <use xlink:href="#DejaVuSans-30" x="360.986328"/>
      <use xlink:href="#DejaVuSans-2e" x="424.609375"/>
      <use xlink:href="#DejaVuSans-39" x="456.396484"/>
      <use xlink:href="#DejaVuSans-35" x="520.019531"/>
      <use xlink:href="#DejaVuSans-30" x="583.642578"/>
     </g>
    </g>
   </g>
  </g>
 </g>
 <defs>
  <clipPath id="pb3ff28845e">
   <rect x="54.2" y="25.44" width="655" height="364.6"/>
  </clipPath>
 </defs>
</svg>
